<svg width="59" height="49" viewBox="0 0 59 49">
  <defs>
    <filter id="hand-pointer-a" width="200%" height="200%" x="-50%" y="-50%" filterUnits="objectBoundingBox">
      <feOffset dx="-3" dy="3" in="SourceAlpha" result="shadowOffsetOuter1"/>
      <feGaussianBlur in="shadowOffsetOuter1" result="shadowBlurOuter1" stdDeviation="1.5"/>
      <feColorMatrix in="shadowBlurOuter1" result="shadowMatrixOuter1" values="0 0 0 0 0   0 0 0 0 0   0 0 0 0 0  0 0 0 0.300979393 0"/>
      <feMerge>
        <feMergeNode in="shadowMatrixOuter1"/>
        <feMergeNode in="SourceGraphic"/>
      </feMerge>
    </filter>
  </defs>
  <g fill="none" fill-rule="evenodd" filter="url(#hand-pointer-a)" transform="scale(-1 1) rotate(-41 2.16 101.936)">
    <g>
      <path fill="#D8F6FB" d="M36.9053835,12.5872649 L29.7890215,12.5872649 C29.5967898,7.87772307 26.5265948,5.70408838 25.5740489,1.89914085 C24.888147,-0.841450215 21.3590764,-0.437878708 21.3590764,1.98681079 C21.3590764,1.98681079 22.7370813,9.68908531 21.7035776,10.4136302 C20.6700739,11.1381751 9.65602502,11.1381751 3.78951355,11.1381751 C0.344501232,11.1381751 2.24886776e-12,12.3525123 2.24886776e-12,13.6740822 C2.24886776e-12,15.4854445 2.39187205,15.8009838 3.10051109,15.8477169 C8.61253079,16.2099894 11.3523491,16.5030678 12.7513686,16.4552478 C12.7513686,16.4552478 9.48480791,16.4614064 9.48480791,19.1559889 C9.48480791,21.1089997 11.5342457,21.4495358 14.0325687,21.4495358 C14.0325687,21.4495358 10.894507,21.8552809 10.894507,23.9426948 C10.894507,26.9734661 15.3137688,26.3684711 15.3137688,26.3684711 C13.0717547,26.5035987 11.0167433,28.5157209 11.0339684,29.0888359 C11.0980456,31.176612 16.1460837,30.7008873 17.0431649,30.7008873 L20.982192,30.7008873 L20.0289571,30.7008873 L27.7774788,30.7008873 C29.8620558,30.7008873 30.3939657,28.5997071 30.3939657,27.4433334 L36.8612873,27.4502166 L38.4907781,14.21894 C38.4907781,13.0622041 37.7814501,12.5872649 36.9053835,12.5872649 Z"/>
      <path stroke="#085661" stroke-width="2" d="M36.8381038,12.5872649 L29.8367877,12.1886859 C29.6363983,7.47914407 26.018869,5.70408838 25.0258997,1.89914085 C24.3108901,-0.841450215 20.6320557,-0.437878708 20.6320557,1.98681079 C20.6320557,1.98681079 22.9290934,9.38242983 20.9911766,10.4136302 C19.0532599,11.4448306 10.292487,11.2951398 4.17701744,11.2951398 C0.585808617,11.2951398 0.226687734,12.5094771 0.226687734,13.831047 C0.226687734,15.6424092 2.72006402,15.9579485 3.45877568,16.0046817 C9.2047098,16.3669541 13.3518642,16.1694831 14.8102541,16.1216631 C14.8102541,16.1216631 8.25387717,16.4614064 8.25387717,19.1559889 C8.25387717,21.1089997 11.9961076,21.4929685 14.6004523,21.4929685 C14.6004523,21.4929685 9.72339982,21.8552809 9.72339982,23.9426948 C9.72339982,26.9734661 15.6790675,26.3230617 15.6790675,26.3230617 C13.3419088,26.4581893 12.175513,26.8092998 11.7047518,27.2529157 C9.71424959,29.1286402 13.0648698,30.9514787 14.0000205,30.9514787 L20.2391775,30.7008873 L19.24549,30.7008873 L27.3228369,30.7008873 C29.4958774,30.7008873 31.4379468,28.449212 31.4379468,27.2928384 L36.7921363,27.4502166 L38.4907781,14.21894 C38.4907781,13.0622041 37.7513482,12.5872649 36.8381038,12.5872649 Z"/>
      <path stroke="#085661" stroke-linecap="square" stroke-width="2" d="M11.0683766 16.397595L16.9783089 16.397595M11.8882564 21.3168735L17.7981886 21.3168735M12.7081361 26.236152L18.6180684 26.236152"/>
      <path fill="#339FAE" d="M51.3799599,29.4566969 C51.3799599,30.0084378 50.6586005,30.4533084 49.7694556,30.4533084 L36.8659244,30.4533084 C35.9755979,30.4533084 35.2548293,30.0084378 35.2548293,29.4566969 L35.2548293,10.8337194 C35.2548293,10.282703 35.9755979,9.83855701 36.8659244,9.83855701 L49.7316448,9.83855701 C50.6231529,9.83855701 51.3433307,10.282703 51.3433307,10.8337194 L51.3799599,29.4566969 Z"/>
    </g>
    <path stroke="#085661" stroke-width="2" d="M51.3799599,30.164512 C51.3799599,30.7131012 50.6586005,31.1554305 49.7694556,31.1554305 L36.8659244,31.1554305 C35.9755979,31.1554305 35.2548293,30.7131012 35.2548293,30.164512 L35.2548293,11.6479145 C35.2548293,11.1000457 35.9755979,10.6584368 36.8659244,10.6584368 L49.7316448,10.6584368 C50.6231529,10.6584368 51.3433307,11.1000457 51.3433307,11.6479145 L51.3799599,30.164512 Z"/>
  </g>
</svg>
