<svg xmlns="http://www.w3.org/2000/svg" width="68" height="41" viewBox="0 0 68 41">
  <g fill="none" fill-rule="evenodd">
    <path fill="#11475E" d="M28.4411714,14.4206748 L36.8388857,25.8108338 C37.0274571,26.1021517 37.3723143,26.1403106 37.5794571,26.0369397 C37.8080286,25.9230325 37.8811714,25.7547344 37.9657429,25.4756616 L45.5760286,0.79252252 C45.6668857,0.4764298 45.9566,0.25886689 46.2866,0.25886689 C46.7526,0.25886689 47.1023143,0.68345629 47.0111714,1.13908543 L41.4648857,26.3234166 C40.8926,29.6640325 37.0591714,30.8916682 34.3268857,27.6857477 L25.5880286,15.9530126 C24.9937429,15.1166483 25.6443143,14.3435026 26.2874571,13.9337212 C26.9211714,13.5302046 27.8457429,13.5660854 28.4411714,14.4206748"/>
    <path fill="#7EA3BB" d="M39.3735273,29.2275575 L37.4951957,26.0690186 C37.5251638,26.0606979 37.5535338,26.049901 37.5797144,26.036854 C37.8080001,25.9232315 37.881143,25.7546487 37.9657144,25.4755759 L45.5760001,0.792436808 C45.667143,0.476344093 45.9568573,0.258496411 46.2865716,0.258496411 C46.7522859,0.258496411 47.1020001,0.683655351 47.011143,1.13928449 L41.4648573,26.3233308 C41.226931,27.7121834 40.4253293,28.7358652 39.3735273,29.2275575 L39.3735273,29.2275575 Z"/>
    <path fill="#11475E" d="M29.4692 23.3109962C27.3534857 19.6662479 22.8394857 21.2014333 22.2980571 24.4862346L19.2514857 38.6759499C19.0700571 39.5217115 19.7034857 40.3239035 20.5709143 40.3464002L20.8737714 40.3543737C21.5372 40.3717446 22.1200571 39.917824 22.2637714 39.271685L25.3423429 25.4140095C25.4940571 24.6775989 26.5612 24.4674399 26.9086286 25.1195591L37.1697714 39.4471022C37.4297714 39.8101817 37.8494857 40.0257512 38.2969143 40.0257512L38.6806286 40.0257512C39.8046286 40.0257512 40.4606286 38.7610956 39.8103429 37.8469896L29.4692 23.3109962zM66.4744284 13.947817L66.2395713 13.9415521C65.5669999 13.9241812 64.9787141 14.3903468 64.8447141 15.0475918L61.2767141 32.5232474C60.5612856 36.0273203 57.7229999 38.0249693 52.1884284 37.751307 52.1767141 37.7507375 51.9964284 37.7456117 51.9964284 37.7456117 47.4549999 37.4904594 45.9964284 35.2857839 46.6387141 32.1408037L47.5135713 27.8550421 48.7812856 30.753413C50.8969999 34.3981614 55.4109999 32.8629759 55.9527141 29.5781746L58.9989999 15.3884594C59.1804284 14.5426978 58.5469999 13.7405057 57.6795713 13.718009L57.3767141 13.7100355C56.7132856 13.6926647 56.1304284 14.1465852 55.9867141 14.7927243L52.9081427 28.6503998C52.7564284 29.3868104 51.6892856 29.5969693 51.341857 28.9448501L48.5435713 22.810658 50.1089999 15.1424196C50.2809999 14.3006448 49.6484284 13.5081349 48.7867141 13.4856382L48.551857 13.4793733C47.8792856 13.4620024 47.2909999 13.928168 47.1567141 14.5851282L43.6007141 32.0029759C42.4692856 37.5459892 45.027857 40.510711 52.0789999 40.6590753 59.439857 41.019307 63.1869999 38.1830157 64.3381427 32.5448898L67.7967141 15.6045984C67.9684284 14.7628236 67.3361427 13.9703137 66.4744284 13.947817M12.3033429 13.725043C4.8802 13.6080033 1.13305714 15.9106391.140485714 21.6057185-.478942857 25.1613344 1.02391429 27.6653013 3.19277143 28.8507914 5.23391429 29.9659437 8.32962857 29.9340497 9.95848571 29.8209967 10.5956286 29.7768576 11.1190571 29.3061358 11.2276286 28.6787914L11.2527714 28.5344139C11.4044857 27.6587517 10.6999143 26.865957 9.80991429 26.9214868 7.16648571 27.0860828 2.55391429 26.7315464 3.32277143 22.0983675 3.9082 18.5703742 6.73048571 16.5055199 12.2704857 16.6348046 12.2822 16.6350894 12.4293429 16.6350894 12.4293429 16.6350894 16.9756286 16.7714934 17.4196286 18.9374404 16.8602 22.0983675L14.7330571 32.371096C14.1099143 35.8925397 11.3250571 37.9636589 5.78534286 37.8346589 5.77362857 37.8343742 4.36362857 37.7535 3.8382 37.6544007 3.14134286 37.5228377 2.46248571 37.9568245 2.26877143 38.636851L2.19991429 38.878904C1.9682 39.692202 2.5162 40.5299901 3.35905714 40.6256722 4.09134286 40.7088245 4.88877143 40.7486921 5.75248571 40.7444205 13.1199143 40.912149 16.7913429 37.9790364 17.7942 32.3127185L19.9007714 22.1564603C20.8862 16.5861093 19.3553429 13.8363874 12.3033429 13.725043"/>
  </g>
</svg>
