<svg xmlns="http://www.w3.org/2000/svg" xmlns:xlink="http://www.w3.org/1999/xlink" viewBox="0 0 175 175"><defs><style>.cls-1{fill:#bedfe4;}.cls-2{fill:#dd8e98;}.cls-3{clip-path:url(#clip-path);}.cls-4{clip-path:url(#clip-path-2);}.cls-5{fill:#cbbba0;}.cls-6{clip-path:url(#clip-path-3);}.cls-7{clip-path:url(#clip-path-4);}.cls-8{fill:#8d3b53;opacity:0.26;}.cls-9{fill:#a48a7b;}.cls-10{fill:#fff;}.cls-11{fill:url(#New_Gradient_Swatch_1);}.cls-12,.cls-14{opacity:0.46;}.cls-12{fill:url(#New_Gradient_Swatch_1-2);}.cls-13{fill:url(#New_Gradient_Swatch_1-3);}.cls-14{fill:url(#New_Gradient_Swatch_1-4);}.cls-15{clip-path:url(#clip-path-5);}.cls-16{clip-path:url(#clip-path-6);}</style><clipPath id="clip-path"><circle class="cls-1" cx="-120.5" cy="87.5" r="87.5"/></clipPath><clipPath id="clip-path-2"><path class="cls-2" d="M-212.81 92c10.73-4.82 40.71-23.5 57-8 9.68 9.24 0 50.18 10.12 53.26 4.58 1.39 14.92-40.29 24.21-39.18 4.34.52 11.33 21.44 15.41 20.69 6.25-1.15 12.26-.19 12.77-2.64 2.64-12.77 3.23-29.8 7.92-35.22 11.45-13.21 37 3 53 6 36.31 6.82 26.38 88.53-44.81 92.96s-98.65 5.1-122.52-8.65c-17.29-9.95-43.1-65.73-13.1-79.22z"/></clipPath><clipPath id="clip-path-3"><circle class="cls-1" cx="87.5" cy="87.5" r="87.5"/></clipPath><clipPath id="clip-path-4"><path class="cls-2" d="M-24.42 80c13.35-6 37-8.86 65.88-9.33 14.09-.23 34.39 12.55 45.47.93 8.42-8.84 14.74-16.42 27.79-16.42 16.91 0 18.14 17.7 33.41 20 56.83 8.58 52.78 107.13-41.53 111.06-68.16 2.84-95.66-17.33-118.49-30.48-16.52-9.54-41.23-62.9-12.53-75.76z"/></clipPath><linearGradient id="New_Gradient_Swatch_1" x1="57.34" y1="63.98" x2="57.34" y2="129.54" gradientUnits="userSpaceOnUse"><stop offset="0" stop-color="#fff"/><stop offset="1" stop-color="#9d9d9c" stop-opacity=".5"/></linearGradient><linearGradient id="New_Gradient_Swatch_1-2" x1="59.37" y1="29.79" x2="59.37" y2="38.14" xlink:href="#New_Gradient_Swatch_1"/><linearGradient id="New_Gradient_Swatch_1-3" x1="674.21" y1="-363.25" x2="674.21" y2="-314.17" gradientTransform="translate(-89.69 832.95) rotate(-45.82)" xlink:href="#New_Gradient_Swatch_1"/><linearGradient id="New_Gradient_Swatch_1-4" x1="676.01" y1="-393.56" x2="676.01" y2="-386.16" gradientTransform="translate(-89.69 832.95) rotate(-45.82)" xlink:href="#New_Gradient_Swatch_1"/><clipPath id="clip-path-5"><circle class="cls-1" cx="303.17" cy="87.5" r="87.5"/></clipPath><clipPath id="clip-path-6"><path class="cls-2" d="M207.22 102.24c31.71-14.24 139.62-63.71 214.26-35.15 38.17 14.61 14.45 127.42-64.28 132.33s-109.1 5.64-135.5-9.57c-19.1-11-47.7-72.69-14.48-87.61z"/></clipPath></defs><title>bina</title><circle class="cls-1" cx="-120.5" cy="87.5" r="87.5"/><g class="cls-3"><path class="cls-2" d="M-212.81 92c10.73-4.82 40.71-23.5 57-8 9.68 9.24 0 50.18 10.12 53.26 4.58 1.39 14.92-40.29 24.21-39.18 4.34.52 11.33 21.44 15.41 20.69 6.25-1.15 12.26-.19 12.77-2.64 2.64-12.77 3.23-29.8 7.92-35.22 11.45-13.21 37 3 53 6 36.31 6.82 26.38 88.53-44.81 92.96s-98.65 5.1-122.52-8.65c-17.29-9.95-43.1-65.73-13.1-79.22z"/><path class="cls-5" d="M-238.14 148.75c.62.85 29.2 21.72 28 27-4.1 17.31-7.79 37.56-3.2 52.21 5.34 17.22 21.91 10.04 24.34-3.17.79-2.08 133.67-8 176.2-2.52 62.51 8 3.5-107.9 7-107.85-8.8-11.45-31.84-18-65.15-18-10.56 0-10.56 7.48-10.12 18.93 1.23 31.87-9.4 55.15-21.57 51.5-22-6.6-8.82-36.26-18.49-37-5.51-.41-5.63 16.74-9.24 26.85-4.4 12.33-14.06 10.24-16.73 10.12-10.12-.44-15.14-19.49-15-29.05.44-23.77 4.84-39.62-4-41.82-19.61-4.95-94.24 22.2-72.04 52.8z"/></g><circle class="cls-1" cx="87.5" cy="87.5" r="87.5"/><g class="cls-6"><path class="cls-2" d="M-24.42 80c13.35-6 37-8.86 65.88-9.33 14.09-.23 34.39 12.55 45.47.93 8.42-8.84 14.74-16.42 27.79-16.42 16.91 0 18.14 17.7 33.41 20 56.83 8.58 52.78 107.13-41.53 111.06-68.16 2.84-95.66-17.33-118.49-30.48-16.52-9.54-41.23-62.9-12.53-75.76z"/><g class="cls-7"><path class="cls-8" d="M33.56 17.21c-12.67 4.7-42.8 45.85-15.69 38.72 5.33-1.4 6.56 8.83 8.42 11.85.5.81 6.24 7.71 5.47 16.84-1.12 13.33-5.42 32.3-1.68 46.31 4.4 16.52 16.08 12.63 18.1 0 1.59-4.93 5.69-33.63 10.53-33.55 5.63-.2 4.63 10.81 6.32 18.81 1.45 6.88 2.11 21.89 10.1 23.58 7.75 1.63 13.33-20.35 8-45.19-3.36-15.64 18.09-29 19.37-33.54 2.25-8 41-5.33 49.68-3.37 5.23 1.18-49.44-2.93-48.73-7.42 2.69-16.93-3.78-29.67-9.82-32.09-15.69-6.27-22 3-32.63 3-13.78.03-16.71-7.92-27.44-3.95z"/><path class="cls-5" d="M-48.65 134.24c.59.81 27.93 20.77 26.74 25.78-3.92 16.56-7.45 35.92-3.06 49.93 5.18 16.52 21 9.64 23.36-3 .75-2 127.84-7.61 168.52-2.41 59.79 7.63 15.44-114.12-12.21-119.09-21.05-3.78-17.7-15.15-39.15-21.05-4.48-1.23-6.5 11.53-16.42 15.3-16.28 6.17-14 17.68-7.86 25.26 3.05 3.74-3.65 44.07-18.67 38.17-13.17-5.17-9.5-40.62-14.74-39.58-1.4.28-5.59 25.62-8.84 35.37-2.53 7.58-10.81 7.58-13.89 6.74-9.35-2.55-9.72-26.25-10.53-35.37-1.25-14.29 3.4-25.29-5.04-27.36-18.9-4.73-89.44 22.07-68.21 51.31z"/></g><path class="cls-9" d="M20.21 93.94a1.73 1.73 0 0 0-1.94-.36c-.41.33-.21 1 .45 1.56a1.73 1.73 0 0 0 1.94.36c.41-.34.21-1.03-.45-1.56zM9.31 96.49c-.83.33-1.3.94-1 1.36s1.14.49 2 .15 1.3-.94 1-1.36-1.17-.49-2-.15zM5.57 89.89c-.93 0-1.7.32-1.73.79s.71.87 1.64.91 1.7-.32 1.73-.79-.71-.88-1.64-.91zM16.19 117.45c-.5-.68-1.29-1.06-1.78-.85s-.47.94 0 1.62 1.29 1.06 1.78.85.5-.94 0-1.62zM5 117.09c-.89.11-1.5.58-1.35 1s1 .77 1.87.66 1.5-.58 1.35-1-.97-.75-1.87-.66zM3.1 109.75c-.89-.27-1.73-.13-1.87.31s.46 1 1.35 1.3 1.73.13 1.87-.31-.45-1.05-1.35-1.3z"/><ellipse class="cls-9" cx="134.55" cy="93.2" rx="1.35" ry="1.05" transform="translate(9.71 199.06) rotate(-75.01)"/><path class="cls-9" d="M157.21 96.9c-.5-.68-1.29-1.06-1.78-.85s-.47.94 0 1.62 1.29 1.06 1.78.85.5-.94 0-1.62zM146 96.54c-.89.11-1.5.58-1.35 1s1 .77 1.87.66 1.5-.58 1.35-1-.95-.76-1.87-.66zM144.12 89.2c-.89-.27-1.73-.13-1.87.31s.46 1 1.35 1.3 1.73.13 1.87-.31-.47-1.03-1.35-1.3z"/><ellipse class="cls-9" cx="110.63" cy="95.93" rx="1.35" ry="1.05" transform="matrix(.26 -.97 .97 .26 -10.66 177.97)"/><path class="cls-9" d="M133.29 99.63c-.5-.68-1.29-1.06-1.78-.85s-.47.94 0 1.62 1.29 1.06 1.78.85.5-.94 0-1.62zM122.1 99.27c-.89.11-1.5.58-1.35 1s1 .77 1.87.66 1.5-.58 1.35-1-.97-.76-1.87-.66zM120.19 91.93c-.89-.27-1.73-.13-1.87.31s.46 1 1.35 1.3 1.73.13 1.87-.31-.46-1.03-1.35-1.3z"/><ellipse class="cls-9" cx="8.42" cy="145.6" rx="1.35" ry="1.05" transform="translate(-126.42 90.03) rotate(-64.29)"/><path class="cls-9" d="M30 153.45c-.36-.76-1.07-1.28-1.59-1.16s-.64.83-.27 1.6 1.07 1.28 1.59 1.16.64-.84.27-1.6zM19.08 151c-.89-.06-1.58.29-1.53.78s.82.94 1.71 1 1.58-.29 1.53-.78-.79-.92-1.71-1zM18.57 143.44c-.82-.43-1.67-.45-1.9 0s.26 1.09 1.08 1.53 1.67.45 1.9 0-.26-1.09-1.08-1.53zM6 151.68c-.36-.76-1.07-1.28-1.59-1.16s-.64.83-.27 1.6 1.07 1.28 1.59 1.16.62-.84.27-1.6z"/><ellipse class="cls-9" cx="58.18" cy="155.57" rx="1.35" ry="1.05" transform="translate(-107.05 172.45) rotate(-75.33)"/><ellipse class="cls-9" cx="56.4" cy="133.4" rx="1.35" ry="1.05" transform="translate(-86.93 154.16) rotate(-75.33)"/><ellipse class="cls-9" cx="59.34" cy="124.98" rx="1.35" ry="1.05" transform="translate(-76.59 150.73) rotate(-75.33)"/><ellipse class="cls-9" cx="9.03" cy="154.45" rx="1.35" ry="1.05" transform="translate(-142.67 124.06) rotate(-75.33)"/><ellipse class="cls-9" cx="22.68" cy="145.87" rx="1.35" ry="1.05" transform="translate(-124.18 130.86) rotate(-75.33)"/><path class="cls-9" d="M80.87 159.14c-.5-.68-1.3-1.05-1.78-.84s-.46.94 0 1.62 1.3 1.05 1.78.84.5-.94 0-1.62zM57.69 145.43c-.5-.68-1.3-1.05-1.78-.84s-.46.94 0 1.62 1.3 1.05 1.78.84.5-.95 0-1.62zM94.11 149.64c-.5-.68-1.3-1.05-1.78-.84s-.46.94 0 1.62 1.3 1.05 1.78.84.5-.95 0-1.62zM69.68 158.85c-.89.11-1.49.58-1.35 1.05s1 .76 1.87.65 1.49-.58 1.35-1.05-.98-.76-1.87-.65zM85 154.23c-.89.11-1.49.58-1.35 1.05s1 .76 1.87.65 1.49-.58 1.35-1.05-1.01-.77-1.87-.65zM52.13 151.07c-.89.11-1.49.58-1.35 1.05s1 .76 1.87.65 1.49-.58 1.35-1.05-1-.72-1.87-.65zM61 138.44c-.89.11-1.49.58-1.35 1.05s1 .76 1.87.65 1.49-.58 1.35-1.05-1-.76-1.87-.65zM67.73 151.52c-.89-.27-1.73-.12-1.87.32s.46 1 1.35 1.29 1.73.12 1.87-.32-.46-1.03-1.35-1.29zM91.39 160.8c-.89-.27-1.73-.12-1.87.32s.46 1 1.35 1.29 1.73.12 1.87-.32-.46-1.02-1.35-1.29zM27.39 161.22c-.89-.27-1.73-.12-1.87.32s.46 1 1.35 1.29 1.73.12 1.87-.32-.45-1.02-1.35-1.29zM.29 156.62c-.89-.27-1.73-.12-1.87.32s.46 1 1.35 1.29 1.73.12 1.87-.32-.46-1.02-1.35-1.29zM19.4 159.11c-.89-.27-1.73-.12-1.87.32s.46 1 1.35 1.29 1.73.12 1.87-.32-.46-1.02-1.35-1.29z"/><ellipse class="cls-9" cx="34.28" cy="158.44" rx="1.35" ry="1.05" transform="translate(-127.68 151.46) rotate(-75.33)"/><path class="cls-9" d="M57 162c-.5-.68-1.3-1.05-1.78-.84s-.46.94 0 1.62 1.3 1.05 1.78.84.46-.93 0-1.62zM45.77 161.71c-.89.11-1.49.58-1.35 1.05s1 .76 1.87.65 1.49-.58 1.35-1.05-.98-.76-1.87-.65zM43.82 154.38c-.89-.27-1.73-.12-1.87.32s.46 1 1.35 1.29 1.73.12 1.87-.32-.46-1.02-1.35-1.29z"/><ellipse class="cls-9" cx=".55" cy="127.79" rx="1.35" ry="1.05" transform="translate(-123.03 95.25) rotate(-75.01)"/><path class="cls-9" d="M23.21 131.48c-.5-.68-1.29-1.06-1.78-.85s-.47.94 0 1.62 1.29 1.06 1.78.85.5-.93 0-1.62zM12 131.13c-.89.11-1.5.58-1.35 1s1 .77 1.87.66 1.5-.58 1.35-1-.96-.79-1.87-.66zM10.12 123.78c-.89-.27-1.73-.13-1.87.31s.46 1 1.35 1.3 1.73.13 1.87-.31-.47-1.03-1.35-1.3zM17.28 106.24c-.89-.27-1.73-.13-1.87.31s.46 1 1.35 1.3 1.73.13 1.87-.31-.46-1.02-1.35-1.3zM6.63 135.68c-.89-.27-1.73-.13-1.87.31s.46 1 1.35 1.3 1.73.13 1.87-.31-.46-.98-1.35-1.3zM7.19 103.12c-.89-.27-1.73-.13-1.87.31s.46 1 1.35 1.3 1.73.13 1.87-.31-.46-1.03-1.35-1.3zM20.38 123.61c-.89-.27-1.73-.13-1.87.31s.46 1 1.35 1.3 1.73.13 1.87-.31-.46-1.03-1.35-1.3zM1.87 141.4c-.89.11-1.5.58-1.35 1s1 .77 1.87.66 1.5-.58 1.35-1-.98-.77-1.87-.66zM17 136.54c-.89.11-1.5.58-1.35 1s1 .77 1.87.66 1.5-.58 1.35-1-1-.77-1.87-.66z"/><ellipse class="cls-9" cx="164.39" cy="107.35" rx="1.35" ry="1.05" transform="translate(18.16 238.37) rotate(-75.01)"/><path class="cls-9" d="M142.24 110.22c-.89.11-1.5.58-1.35 1s1 .77 1.87.66 1.5-.58 1.35-1-.98-.77-1.87-.66zM162.61 97.8c-.89.11-1.5.58-1.35 1s1 .77 1.87.66 1.5-.58 1.35-1-.98-.77-1.87-.66zM136.84 114.77c-.89-.27-1.73-.13-1.87.31s.46 1 1.35 1.3 1.73.13 1.87-.31-.46-1.07-1.35-1.3zM152.23 91.54c-.89-.27-1.73-.13-1.87.31s.46 1 1.35 1.3 1.73.13 1.87-.31-.46-1.03-1.35-1.3zM147.2 115.63c-.89.11-1.5.58-1.35 1s1 .77 1.87.66 1.5-.58 1.35-1-.98-.76-1.87-.66z"/><ellipse class="cls-9" cx="138.2" cy="134.06" rx="1.35" ry="1.05" transform="translate(-39.62 207.91) rotate(-66.68)"/><ellipse class="cls-9" cx="107.48" cy="123.41" rx="1.35" ry="1.05" transform="translate(-48.39 173.25) rotate(-66.68)"/><path class="cls-9" d="M116.31 127.12c.39.75 1.13 1.24 1.63 1.1s.6-.86.21-1.61-1.13-1.24-1.63-1.1-.6.87-.21 1.61zM127.33 129.1c.9 0 1.56-.35 1.49-.84s-.86-.9-1.75-.92-1.56.35-1.49.84.85.89 1.75.92zM105.37 138.44c.9 0 1.56-.35 1.49-.84s-.86-.9-1.75-.92-1.56.35-1.49.84.86.9 1.75.92zM128.15 136.64c.84.4 1.69.38 1.9 0s-.3-1.08-1.14-1.48-1.69-.38-1.9 0 .3 1.08 1.14 1.48zM144.64 135.42c.84.4 1.69.38 1.9 0s-.3-1.08-1.14-1.48-1.69-.38-1.9 0 .3 1.06 1.14 1.48zM148.64 122.58c.84.4 1.69.38 1.9 0s-.3-1.08-1.14-1.48-1.69-.38-1.9 0 .3 1.08 1.14 1.48zM155.17 124.68c.84.4 1.69.38 1.9 0s-.3-1.08-1.14-1.48-1.69-.38-1.9 0 .3 1.08 1.14 1.48zM113.28 140.26c.84.4 1.69.38 1.9 0s-.3-1.08-1.14-1.48-1.69-.38-1.9 0 .3 1.08 1.14 1.48zM110.38 132.3c.84.4 1.69.38 1.9 0s-.3-1.08-1.14-1.48-1.69-.38-1.9 0 .3 1.08 1.14 1.48zM118 135.33c.84.4 1.69.38 1.9 0s-.3-1.08-1.14-1.48-1.69-.38-1.9 0 .27 1.08 1.14 1.48zM113.6 120.43c.84.4 1.69.38 1.9 0s-.3-1.08-1.14-1.48-1.69-.38-1.9 0 .3 1.05 1.14 1.48zM146.42 127.18c.9 0 1.56-.35 1.49-.84s-.86-.9-1.75-.92-1.56.35-1.49.84.85.89 1.75.92zM138.86 120.41c.9 0 1.56-.35 1.49-.84s-.86-.9-1.75-.92-1.56.35-1.49.84.89.89 1.75.92zM153.53 135c.84.4 1.69.38 1.9 0s-.3-1.08-1.14-1.48-1.69-.38-1.9 0 .3 1.05 1.14 1.48z"/><ellipse class="cls-9" cx="133.28" cy="151.87" rx="1.35" ry="1.05" transform="translate(-43.76 249.25) rotate(-77.54)"/><ellipse class="cls-9" cx="105.16" cy="152.03" rx="1.35" ry="1.05" transform="translate(-65.97 221.92) rotate(-77.54)"/><ellipse class="cls-9" cx="102.5" cy="129.24" rx="1.35" ry="1.05" transform="translate(-45.81 201.45) rotate(-77.54)"/><ellipse class="cls-9" cx="94.68" cy="114.31" rx="1.35" ry="1.05" transform="translate(-37.36 182.11) rotate(-77.54)"/><ellipse class="cls-9" cx="96.6" cy="138.08" rx="1.35" ry="1.05" transform="translate(-59.07 202.63) rotate(-77.54)"/><path class="cls-9" d="M114.54 154c.53.66 1.34 1 1.81.77s.43-1-.1-1.62-1.34-1-1.81-.77-.44.98.1 1.62zM89.86 141c.52.66 1.33 1 1.8.79s.44-1-.08-1.62-1.33-1-1.8-.79-.44.98.08 1.62zM95.44 123.7c.53.66 1.34 1 1.81.77s.43-1-.1-1.62-1.34-1-1.81-.77-.43.92.1 1.62zM125.73 153.88c.88-.15 1.47-.64 1.31-1.11s-1-.72-1.9-.58-1.47.64-1.31 1.11 1.02.7 1.9.58zM102.65 160.62c.88-.15 1.47-.64 1.31-1.11s-1-.72-1.9-.58-1.47.64-1.31 1.11 1.02.73 1.9.58zM83.55 148.61c.9.23 1.73.06 1.86-.39s-.5-1-1.4-1.24-1.73-.06-1.86.39.5 1.01 1.4 1.24zM102.08 120c.9.23 1.73.06 1.86-.39s-.5-1-1.4-1.24-1.73-.06-1.86.39.5.99 1.4 1.24zM128.65 145.3c.9.23 1.73.06 1.86-.39s-.5-1-1.4-1.24-1.73-.06-1.86.39.5 1.01 1.4 1.24zM97 130.51c.9.23 1.73.06 1.86-.39s-.5-1-1.4-1.24-1.73-.06-1.86.39.52 1 1.4 1.24zM145.43 143.46c.9.23 1.73.06 1.86-.39s-.5-1-1.4-1.24-1.73-.06-1.86.39.5 1 1.4 1.24zM157.42 131.26c.9.23 1.73.06 1.86-.39s-.5-1-1.4-1.24-1.73-.06-1.86.39.5.98 1.4 1.24zM109.68 160.22c.9.23 1.73.06 1.86-.39s-.5-1-1.4-1.24-1.73-.06-1.86.39.5 1.02 1.4 1.24zM119.81 159.61c.9.23 1.73.06 1.86-.39s-.5-1-1.4-1.24-1.73-.06-1.86.39.5 1.01 1.4 1.24zM110.62 148c.9.23 1.73.06 1.86-.39s-.5-1-1.4-1.24-1.73-.06-1.86.39.5.96 1.4 1.24zM101.85 145.21c.9.23 1.73.06 1.86-.39s-.5-1-1.4-1.24-1.73-.06-1.86.39.5 1.03 1.4 1.24zM138.32 150.23c.53.66 1.34 1 1.81.77s.43-1-.1-1.62-1.34-1-1.81-.77-.43.96.1 1.62zM122.71 142.37c.88-.15 1.47-.64 1.31-1.11s-1-.72-1.9-.58-1.47.64-1.31 1.11 1.01.73 1.9.58zM135.42 143.17c.88-.15 1.47-.64 1.31-1.11s-1-.72-1.9-.58-1.47.64-1.31 1.11 1.01.73 1.9.58zM120.54 148.69c.88-.15 1.47-.64 1.31-1.11s-1-.72-1.9-.58-1.47.64-1.31 1.11 1.01.72 1.9.58z"/><path class="cls-10" d="M35.56 30.66c-10.51 4.24-12.56 23.55.85 47.28.37.66 1.34 2.31.59 6.37-2.48 13.42-4.72 29.12-1.94 40.48 3.28 13.39 10.42 6.55 12-1.93 1.18-4 5.07-34.71 10.44-34.71 6.5-.09 10.16 29.85 10.33 32.63.34 5.69 2.11 12 6.56 11.9s7-19.79 5.8-33.64c-1.12-12.91-1.45-15.76-.59-19.47.38-1.64 6.92-14.85 8-22.14 2-13.72-2.15-24.76-6.65-26.72-11.68-5.08-17 .7-24.87.7-10.27 0-12.53-3.97-20.52-.75z"/><path class="cls-11" d="M32.6 64s7.7 14.36 7.7 19.26-3.5 13.31-3.85 19.61 1.29 31.95 4.2 23.46c3.86-11.21 7.35-29.42 9.81-35.33s13-6.65 15.41 3.5 3.5 38.87 8.41 34.67 3.85-29.07 3.15-39.58 2.1-18.25 4.57-24.2c1-2.59-7.37 15.06-9.48 10.15-.77-1.79-1.38 1.82-3.85 3.85s-6.83 2.5-9.46 2.45-8.51-1.22-10.86-3.5c-3-2.87-2.15-6.81-3.5-4.55-4.2 7.01-12.25-9.79-12.25-9.79z"/><path class="cls-12" d="M41.35 31.06s6.92.71 13 1.75 11.56-2.1 15.06-2.8 11.91.35 8.41 2.1-10.51 6.65-23.46 6c-6.92-.41-17.91-4.59-13.01-7.05z"/><path class="cls-10" d="M85.08 89.55c-3.8 9.3 7.19 22.57 30.57 28.68.65.17 2.62.37 4.41 3.56 7.13 12.66 24.41 20.07 28.46 18 4.91-2.53 3.09-5.89-6.46-11.37-3.93-2.11-16.42-8.84-6.89-17.29 13.62-9.23 17.17 4.13 18.25 6.35 2.95 6 5.86 12.29 8.56 9.4s3.66-15.63-5.89-23.43c-8.9-7.27-10.92-8.81-12.74-11.65-.8-1.25-5.16-13.57-9.14-18.75-7.49-9.75-17.07-13.93-21.09-12.28-10.42 4.23-10.01 11.23-14.89 16.23-6.33 6.5-10.23 5.48-13.15 12.55z"/><path class="cls-13" d="M104.44 112s13.89 4 17 7 3.37 6.24 7.16 10.36c2.3 2.5 10.5 7.61 16.28 8.7 3.74.71 5-2.17 2.25-3.65-12.07-6.46-16-10.39-16.84-16.84-.74-5.66 7.19-14.65 16-11.79 5.09 1.65 8.59 11.51 10.95 15.72 2.84 5.08 4.3 2.84 4.49-.28.36-5.71-.41-12-12.07-21.61a49.29 49.29 0 0 1-13.83-18.11c-1-2.27 5 14 .61 12.29-1.61-.62.3 2 .07 4.83s-2.63 5.89-4.28 7.53-6 4.66-8.93 4.74c-3.65.1-5.66-2.84-5.06-.59 1.86 6.99-13.8 1.7-13.8 1.7z"/><path class="cls-14" d="M88.92 86.12s4.73-4 9.12-7.15 5.8-8.64 7.52-11.3 7.58-7.35 6.53-4-2.26 10.79-10.71 18.59c-4.48 4.09-13.93 8.49-12.46 3.86z"/></g><circle class="cls-1" cx="303.17" cy="87.5" r="87.5"/><g class="cls-15"><path class="cls-2" d="M207.22 102.24c31.71-14.24 139.62-63.71 214.26-35.15 38.17 14.61 14.45 127.42-64.28 132.33s-109.1 5.64-135.5-9.57c-19.1-11-47.7-72.69-14.48-87.61z"/><path class="cls-5" d="M179 164.13c.54.79 8.28-.71 7.19 4.15-3.62 16.06-6.88 34.84-2.82 48.43 4.78 16 19.36 9.35 21.56-2.9.69-1.93 118-7.38 155.52-2.34 3.54.48 59.8-71 68.79-108 5.52-22.72-61.67-42.19-61.67-28.56 0 15.26 1.79 31.64-7.3 33.27-10.27 1.82-5.97-24.18-8.27-24.87s-3.41 9.09-5.36 18.5c-1.51 7.32-5.15 7.31-6.82 6.82-5.52-1.62-6.74-9.06-7.3-19.47-.65-12-5.19-3.25-6.17 3.25-.54 3.59-3.93 21.5-5.19 29.21-3.89 23.69-13.88 16.09-15.9 6.49-3.26-15.52-4.67-28.94-5.52-36.35-.54-4.71-2.92-3.89-4.54-.65-.61 1.22-1.93 5.24-1.54 15.86 1.08 29.56-1.15 46.86-10.53 44.26-15.82-4.38-6.2-32.44-15.57-36.91-4.41-2.1-4 23.78-7.93 32.87-2.74 6.34-11.45 4.68-13.84 2.6-7.79-6.78-7.52-20.39-8.37-36-.65-12-15.9-4.87-24.34-1.95-17 5.93-53.63 23.9-34.08 52.29z"/></g></svg>