<svg xmlns="http://www.w3.org/2000/svg" xmlns:xlink="http://www.w3.org/1999/xlink" viewBox="0 0 175 175"><defs><style>.cls-1{fill:#bedfe4;}.cls-2{fill:#dd8e98;}.cls-3{clip-path:url(#clip-path);}.cls-4{clip-path:url(#clip-path-2);}.cls-5{fill:#8d3b53;opacity:0.26;}.cls-6{fill:#cbbba0;}.cls-7{fill:#a48a7b;}.cls-8{fill:#fff;}.cls-9{fill:url(#New_Gradient_Swatch_1);}.cls-10,.cls-24,.cls-26{opacity:0.46;}.cls-10{fill:url(#New_Gradient_Swatch_1-2);}.cls-11{fill:url(#linear-gradient);}.cls-12,.cls-23{opacity:0.67;}.cls-12{fill:url(#linear-gradient-2);}.cls-13{fill:url(#linear-gradient-3);}.cls-14{fill:url(#linear-gradient-4);}.cls-15{fill:url(#linear-gradient-5);}.cls-16{fill:url(#linear-gradient-6);}.cls-17{fill:url(#linear-gradient-7);}.cls-18{fill:url(#linear-gradient-8);}.cls-19{fill:url(#linear-gradient-9);}.cls-20{fill:url(#linear-gradient-10);}.cls-21{fill:url(#linear-gradient-11);}.cls-22{fill:url(#linear-gradient-12);}.cls-23{fill:url(#linear-gradient-13);}.cls-24{fill:url(#New_Gradient_Swatch_1-3);}.cls-25{fill:url(#New_Gradient_Swatch_1-4);}.cls-26{fill:url(#New_Gradient_Swatch_1-5);}</style><clipPath id="clip-path"><circle class="cls-1" cx="87.5" cy="87.5" r="87.5"/></clipPath><clipPath id="clip-path-2"><path class="cls-2" d="M-8.45 102.24c31.71-14.24 139.62-63.71 214.27-35.15 38.18 14.6 14.44 127.42-64.29 132.33s-109.1 5.63-135.53-9.57c-19.07-11-47.64-72.69-14.45-87.61z"/></clipPath><linearGradient id="New_Gradient_Swatch_1" x1="139.16" y1="56.55" x2="139.16" y2="97.44" gradientTransform="matrix(1 -.03 .03 1 -6.73 7.68)" gradientUnits="userSpaceOnUse"><stop offset="0" stop-color="#fff"/><stop offset="1" stop-color="#9d9d9c" stop-opacity=".5"/></linearGradient><linearGradient id="New_Gradient_Swatch_1-2" x1="139.82" y1="35.23" x2="139.82" y2="40.43" xlink:href="#New_Gradient_Swatch_1"/><linearGradient id="linear-gradient" x1="88.73" y1="105.74" x2="106.4" y2="105.74" gradientUnits="userSpaceOnUse"><stop offset="0" stop-color="#3c3c3b"/><stop offset="1" stop-color="#ededed"/></linearGradient><linearGradient id="linear-gradient-2" x1="148.64" y1="65.04" x2="122.41" y2="37.07" gradientTransform="matrix(1 -.03 .03 1 -6.73 7.68)" gradientUnits="userSpaceOnUse"><stop offset="0" stop-color="#fff"/><stop offset=".12" stop-color="#f9f9f9" stop-opacity=".99"/><stop offset=".3" stop-color="#eaeaea" stop-opacity=".96"/><stop offset=".51" stop-color="#d0d0d0" stop-opacity=".92"/><stop offset=".75" stop-color="#acacac" stop-opacity=".86"/><stop offset=".96" stop-color="#878787" stop-opacity=".8"/></linearGradient><linearGradient id="linear-gradient-3" x1="72.3" y1="102.61" x2="49.82" y2="102.61" gradientTransform="translate(42.91 -18.67) scale(.88 1)" xlink:href="#linear-gradient"/><linearGradient id="linear-gradient-4" x1="72.91" y1="108.2" x2="50.42" y2="108.2" gradientTransform="translate(42.38 -18.64) scale(.88 1)" xlink:href="#linear-gradient"/><linearGradient id="linear-gradient-5" x1="50.42" y1="113.79" x2="27.93" y2="113.79" gradientTransform="translate(65.51 -18.62) scale(.8 1)" xlink:href="#linear-gradient"/><linearGradient id="linear-gradient-6" x1="33.3" y1="119.38" x2="10.81" y2="119.38" gradientTransform="translate(80.32 -18.59) scale(.74 1)" xlink:href="#linear-gradient"/><linearGradient id="linear-gradient-7" x1=".48" y1="126.5" x2="-22.01" y2="126.5" gradientTransform="translate(103.8 -21.99) scale(.66 1.02)" xlink:href="#linear-gradient"/><linearGradient id="linear-gradient-8" x1="-24.42" y1="130.58" x2="-46.91" y2="130.58" gradientTransform="translate(118.27 -18.57) scale(.6 1)" xlink:href="#linear-gradient"/><linearGradient id="linear-gradient-9" x1="-48.47" y1="136.17" x2="-70.96" y2="136.17" gradientTransform="translate(130.22 -18.54) scale(.56 1)" xlink:href="#linear-gradient"/><linearGradient id="linear-gradient-10" x1="-72.73" y1="141.76" x2="-95.21" y2="141.76" gradientTransform="translate(140.66 -18.52) scale(.52 1)" xlink:href="#linear-gradient"/><linearGradient id="linear-gradient-11" x1="-193.05" y1="212.62" x2="-179.12" y2="207.95" gradientTransform="matrix(.41 .04 -.25 2.66 225.84 -421.93)" xlink:href="#linear-gradient"/><linearGradient id="linear-gradient-12" x1="-175.49" y1="148.73" x2="-197.97" y2="148.73" gradientTransform="translate(173.2 -22.05) scale(.41 1.01)" xlink:href="#linear-gradient"/><linearGradient id="linear-gradient-13" x1="112.95" y1="77.59" x2="79.43" y2="41.84" xlink:href="#linear-gradient-2"/><linearGradient id="New_Gradient_Swatch_1-3" x1="103.02" y1="36.21" x2="103.02" y2="42.68" xlink:href="#New_Gradient_Swatch_1"/><linearGradient id="New_Gradient_Swatch_1-4" x1="54.79" y1="72.51" x2="54.79" y2="137.19" xlink:href="#New_Gradient_Swatch_1"/><linearGradient id="New_Gradient_Swatch_1-5" x1="56.8" y1="38.77" x2="56.8" y2="47" xlink:href="#New_Gradient_Swatch_1"/></defs><title>implant</title><circle class="cls-1" cx="87.5" cy="87.5" r="87.5"/><g class="cls-3"><path class="cls-2" d="M-8.45 102.24c31.71-14.24 139.62-63.71 214.27-35.15 38.18 14.6 14.44 127.42-64.29 132.33s-109.1 5.63-135.53-9.57c-19.07-11-47.64-72.69-14.45-87.61z"/><g class="cls-4"><path class="cls-5" d="M29.06 54.51c-10.06 3.71-33.85 36.26-12.41 30.62 4.22-1.13 12.79 10.73 11.92 16.07-2.14 13.19-4 27.12-1 38.21 3.43 13.06 13.53 13.15 15.13 3.17 1.25-3.89 5-33.8 8.8-33.74 4.45-.16 7.83 19.35 8.07 22.06.72 8.07 1.48 17.88 9.66 17.88 6.26 0 8.53-14 7.25-27.55-1.19-12.6-.44-25.39-.33-29.12.17-5.88 7.25-11.22 10.55-9.77 13.31 5.84 21.32.93 26-1.3 15.58-7.46-1-39.92-9.41-39.92-10.93 0-65.74 10.24-74.23 13.39zM134.71 36.73c-6.93 2.57-23.41 25.07-8.58 21.17 2.92-.77 5.43 2 6.45 3.68.27.44-13.83-2.76-13.74 2.25.17 9.07-.58 28.36 1.46 36 2.41 9 8.63 5.93 9.74-1 1.45-5.78 3.4-20.83 4.86-20.83 3.08-.11 3.25 10.22 4.87 20 .63 3.79.19 7.79 5.84 7.79 4.33 0 5.39-17.67 3.89-34.08-.5-5.44 9.5-19.5 10.23-21.99 1.23-4.37 12.07 6.42 16.83 7.49 2.86.65-4 0-3.62-2.42 1.47-9.26-2.07-16.23-5.37-17.55-8.58-3.43-12 1.66-17.84 1.66-7.55 0-9.15-4.34-15.02-2.17z"/><path class="cls-6" d="M-36.63 164.13c.54.79 8.28-.71 7.19 4.15-3.62 16.06-6.88 34.84-2.82 48.43 4.78 16 19.36 9.35 21.56-2.9.69-1.93 118-7.38 155.52-2.34 3.54.48 59.8-71 68.79-108 5.52-22.72-61.67-42.19-61.67-28.56 0 15.26 1.79 31.64-7.3 33.27-10.35 1.85-6-24.18-8.28-24.83s-3.36 9.05-5.36 18.46c-1.51 7.32-5.15 7.31-6.82 6.82-5.52-1.62-6.74-9.06-7.3-19.47-.65-12-5.19-3.25-6.17 3.25-.54 3.59-3.93 21.5-5.19 29.21-3.89 23.69-13.88 16.09-15.9 6.49-3.26-15.53-4.62-28.94-5.51-36.36-.54-4.71-2.92-3.89-4.54-.65-.57 1.23-1.93 5.25-1.57 15.9 1.08 29.56-1.15 46.86-10.53 44.26-15.82-4.38-6.2-32.44-15.57-36.91-4.41-2.1-4 23.78-7.93 32.87-2.74 6.34-11.45 4.68-13.84 2.6-7.79-6.78-7.52-20.39-8.37-36-.65-12-15.9-4.87-24.34-1.95-17.01 5.9-53.64 23.87-34.05 52.26z"/></g><ellipse class="cls-7" cx="16.74" cy="121.05" rx="1.22" ry="1.57"/><path class="cls-7" d="M17.25 128.6a2 2 0 0 0-2.24-.42c-.48.38-.24 1.19.52 1.8a2 2 0 0 0 2.24.42c.47-.4.23-1.18-.52-1.8zM4.65 131.55c-1 .39-1.5 1.09-1.2 1.58s1.32.56 2.29.18 1.5-1.09 1.2-1.58-1.33-.56-2.29-.18zM.32 123.92c-1.07 0-2 .37-2 .91s.82 1 1.89 1 2-.37 2-.91-.81-.92-1.89-1z"/><ellipse class="cls-7" cx="12.31" cy="141.31" rx="1.57" ry="1.22" transform="translate(-127.37 116.64) rotate(-75.01)"/><path class="cls-7" d="M8.85 114.76c-.58-.79-1.5-1.23-2.05-1s-.54 1.08 0 1.87 1.5 1.23 2.05 1 .57-1.09 0-1.87zM18.25 146.83c-1 .12-1.73.67-1.57 1.21s1.13.89 2.16.76 1.73-.67 1.57-1.21-1.13-.88-2.16-.76zM19.16 137c-1-.31-2-.15-2.17.36s.53 1.19 1.56 1.5 2 .15 2.17-.36-.53-1.23-1.56-1.5zM10.85 148.74c-.58-.79-1.5-1.23-2.05-1s-.54 1.08 0 1.87 1.5 1.23 2.05 1 .58-1.08 0-1.87zM-2.09 148.33c-1 .12-1.73.67-1.57 1.21s1.13.89 2.16.76 1.73-.67 1.57-1.21-1.13-.89-2.16-.76z"/><ellipse class="cls-7" cx="175.37" cy="117.55" rx="1.57" ry="1.22" transform="translate(16.45 256.54) rotate(-75.01)"/><ellipse class="cls-7" cx="147.71" cy="120.7" rx="1.57" ry="1.22" transform="matrix(.26 -.97 .97 .26 -7.1 232.15)"/><path class="cls-7" d="M173.91 125c-.58-.79-1.5-1.23-2.05-1s-.54 1.08 0 1.87 1.5 1.23 2.05 1 .58-1.1 0-1.87zM161 124.57c-1 .12-1.73.67-1.57 1.21s1.13.89 2.16.76 1.73-.67 1.57-1.21-1.16-.89-2.16-.76zM158.77 116.07c-1-.31-2-.15-2.17.36s.53 1.19 1.56 1.5 2 .15 2.17-.36-.53-1.18-1.56-1.5z"/><ellipse class="cls-7" cx="23.9" cy="158.77" rx="1.57" ry="1.22" transform="translate(-135.65 140.78) rotate(-75.01)"/><path class="cls-7" d="M13 170.74c-.58-.79-1.5-1.23-2.05-1s-.54 1.08 0 1.87 1.5 1.23 2.05 1 .56-1.08 0-1.87zM33.69 161.4c-1 .12-1.73.67-1.57 1.21s1.13.89 2.16.76 1.73-.67 1.57-1.21-1.13-.88-2.16-.76zM.91 171.4c-1 .12-1.73.67-1.57 1.21s1.13.89 2.16.76 1.73-.67 1.57-1.21-1.13-.88-2.16-.76zM31.49 152.91c-1-.31-2-.15-2.17.36s.53 1.19 1.56 1.5 2 .15 2.17-.36-.53-1.19-1.56-1.5zM82.77 102.51c.75-.77 1.05-1.7.67-2.09s-1.3-.07-2 .69-1.05 1.7-.67 2.09 1.23.08 2-.69zM46.36 172.93c-1-.31-2-.15-2.17.36s.53 1.19 1.56 1.5 2 .15 2.17-.36-.53-1.18-1.56-1.5zM37.35 174.39c-1-.31-2-.15-2.17.36s.53 1.19 1.56 1.5 2 .15 2.17-.36-.53-1.18-1.56-1.5zM45.14 159.79c-1-.31-2-.15-2.17.36s.53 1.19 1.56 1.5 2 .15 2.17-.36-.53-1.19-1.56-1.5zM27.45 166.66c-1-.31-2-.15-2.17.36s.53 1.19 1.56 1.5 2 .15 2.17-.36-.53-1.16-1.56-1.5zM14.23 157.36c-1-.31-2-.15-2.17.36s.53 1.19 1.56 1.5 2 .15 2.17-.36-.53-1.19-1.56-1.5zM43.36 152.71c-1-.31-2-.15-2.17.36s.53 1.19 1.56 1.5 2 .15 2.17-.36-.54-1.21-1.56-1.5zM83.7 113.33c-.47-1-1.25-1.56-1.74-1.34s-.51 1.2 0 2.16 1.25 1.56 1.74 1.34.47-1.2 0-2.16zM82.81 120.34c-1 .29-1.77.94-1.64 1.47s1.08.72 2.12.43 1.77-.94 1.64-1.47-1.08-.72-2.12-.43zM19 165c-.58-.79-1.5-1.23-2.05-1s-.54 1.08 0 1.87 1.5 1.23 2.05 1 .54-1.11 0-1.87zM6 164.56c-1 .12-1.73.67-1.57 1.21s1.13.89 2.16.76 1.73-.67 1.57-1.21-1.1-.89-2.16-.76zM22 173.27c-1 .12-1.73.67-1.57 1.21s1.13.89 2.16.76 1.73-.67 1.57-1.21-1.16-.88-2.16-.76zM39.43 167.66c-1 .12-1.73.67-1.57 1.21s1.13.89 2.16.76 1.73-.67 1.57-1.21-1.13-.88-2.16-.76zM3.82 156.06c-1-.31-2-.15-2.17.36s.53 1.19 1.56 1.5 2 .15 2.17-.36-.53-1.18-1.56-1.5z"/><ellipse class="cls-7" cx="107.32" cy="136.47" rx="1.57" ry="1.22" transform="translate(-52.26 204.83) rotate(-75.01)"/><path class="cls-7" d="M133.53 140.74c-.58-.79-1.5-1.23-2.05-1s-.54 1.08 0 1.87 1.5 1.23 2.05 1 .57-1.08 0-1.87zM120.59 140.33c-1 .12-1.73.67-1.57 1.21s1.13.89 2.16.76 1.73-.67 1.57-1.21-1.13-.89-2.16-.76zM118.39 131.83c-1-.31-2-.15-2.17.36s.53 1.19 1.56 1.5 2 .15 2.17-.36-.53-1.18-1.56-1.5zM126.67 111.56c-1-.31-2-.15-2.17.36s.53 1.19 1.56 1.5 2 .15 2.17-.36-.54-1.19-1.56-1.5zM114.35 145.59c-1-.31-2-.15-2.17.36s.53 1.19 1.56 1.5 2 .15 2.17-.36-.53-1.18-1.56-1.5zM115 107.94c-1-.31-2-.15-2.17.36s.53 1.19 1.56 1.5 2 .15 2.17-.36-.56-1.18-1.56-1.5zM130.26 131.63c-1-.31-2-.15-2.17.36s.53 1.19 1.56 1.5 2 .15 2.17-.36-.54-1.18-1.56-1.5z"/><ellipse class="cls-7" cx="79.66" cy="139.62" rx="1.57" ry="1.22" transform="translate(-75.82 180.44) rotate(-75.01)"/><path class="cls-7" d="M105.86 143.9c-.58-.79-1.5-1.23-2.05-1s-.54 1.08 0 1.87 1.5 1.23 2.05 1 .58-1.09 0-1.87zM92.93 143.49c-1 .12-1.73.67-1.57 1.21s1.13.89 2.16.76 1.73-.67 1.57-1.21-1.09-.89-2.16-.76zM108.86 152.2c-1 .12-1.73.67-1.57 1.21s1.13.89 2.16.76 1.73-.67 1.57-1.21-1.14-.88-2.16-.76zM126.33 146.59c-1 .12-1.73.67-1.57 1.21s1.13.89 2.16.76 1.73-.67 1.57-1.21-1.13-.88-2.16-.76zM90.72 135c-1-.31-2-.15-2.17.36s.53 1.19 1.56 1.5 2 .15 2.17-.36-.53-1.19-1.56-1.5z"/><ellipse class="cls-7" cx="170.99" cy="133.36" rx="1.57" ry="1.22" transform="translate(-2.07 264.02) rotate(-75.01)"/><path class="cls-7" d="M167.82 112.7c-1-.31-2-.15-2.17.36s.53 1.19 1.56 1.5 2 .15 2.17-.36-.53-1.2-1.56-1.5zM148.11 111.24c-1-.31-2-.15-2.17.36s.53 1.19 1.56 1.5 2 .15 2.17-.36-.53-1.18-1.56-1.5z"/><ellipse class="cls-7" cx="143.32" cy="136.52" rx="1.57" ry="1.22" transform="translate(-25.63 239.64) rotate(-75.01)"/><path class="cls-7" d="M169.53 140.79c-.58-.79-1.5-1.23-2.05-1s-.54 1.08 0 1.87 1.5 1.23 2.05 1 .57-1.08 0-1.87zM156.59 140.38c-1 .12-1.73.67-1.57 1.21s1.13.89 2.16.76 1.73-.67 1.57-1.21-1.13-.89-2.16-.76zM172.52 149.09c-1 .12-1.73.67-1.57 1.21s1.13.89 2.16.76 1.73-.67 1.57-1.21-1.13-.85-2.16-.76zM154.39 131.88c-1-.31-2-.15-2.17.36s.53 1.19 1.56 1.5 2 .15 2.17-.36-.53-1.18-1.56-1.5z"/><ellipse class="cls-7" cx="144.07" cy="152.47" rx="1.57" ry="1.22" transform="translate(-52.98 224.41) rotate(-66.68)"/><path class="cls-7" d="M154.28 156.77c.46.86 1.3 1.43 1.89 1.27s.69-1 .24-1.86-1.3-1.43-1.89-1.27-.69 1-.24 1.86zM167 159.05c1 0 1.81-.41 1.72-1s-1-1-2-1.07-1.81.41-1.72 1 1 1.02 2 1.07zM141.63 169.85c1 0 1.81-.41 1.72-1s-1-1-2-1.07-1.81.41-1.72 1 .97 1.05 2 1.07zM168 167.78c1 .46 2 .44 2.2 0s-.35-1.25-1.32-1.71-2-.44-2.2 0 .32 1.25 1.32 1.71zM150.77 172c1 .46 2 .44 2.2 0s-.35-1.25-1.32-1.71-2-.44-2.2 0 .35 1.21 1.32 1.71zM147.42 162.76c1 .46 2 .44 2.2 0s-.35-1.25-1.32-1.71-2-.44-2.2 0 .35 1.25 1.32 1.71zM156.2 166.25c1 .46 2 .44 2.2 0s-.35-1.25-1.32-1.71-2-.44-2.2 0 .35 1.25 1.32 1.71zM151.15 149c1 .46 2 .44 2.2 0s-.35-1.25-1.32-1.71-2-.44-2.2 0 .35 1.28 1.32 1.71zM162.26 152c1 0 1.81-.41 1.72-1s-1-1-2-1.07-1.81.41-1.72 1 .96 1.07 2 1.07z"/><ellipse class="cls-7" cx="111.36" cy="165.24" rx="1.57" ry="1.22" transform="translate(-84.46 202.09) rotate(-66.68)"/><ellipse class="cls-7" cx="75.83" cy="152.91" rx="1.57" ry="1.22" transform="translate(-94.61 162.02) rotate(-66.68)"/><path class="cls-7" d="M86 157.21c.46.86 1.3 1.43 1.89 1.27s.69-1 .24-1.86-1.3-1.43-1.89-1.27-.65 1-.24 1.86zM98.79 159.49c1 0 1.81-.41 1.72-1s-1-1-2-1.07-1.81.41-1.72 1 .96 1.05 2 1.07zM73.4 170.3c1 0 1.81-.41 1.72-1s-1-1-2-1.07-1.81.41-1.72 1 .96 1.04 2 1.07zM99.74 168.22c1 .46 2 .44 2.2 0s-.35-1.25-1.32-1.71-2-.44-2.2 0 .35 1.25 1.32 1.71zM118.81 166.8c1 .46 2 .44 2.2 0s-.35-1.25-1.32-1.71-2-.44-2.2 0 .35 1.25 1.32 1.71zM123.43 152c1 .46 2 .44 2.2 0s-.35-1.25-1.32-1.71-2-.44-2.2 0 .35 1.2 1.32 1.71zM131 154.39c1 .46 2 .44 2.2 0s-.35-1.25-1.32-1.71-2-.44-2.2 0 .32 1.25 1.32 1.71zM82.54 172.4c1 .46 2 .44 2.2 0s-.35-1.25-1.32-1.71-2-.44-2.2 0 .35 1.25 1.32 1.71zM79.18 163.2c1 .46 2 .44 2.2 0s-.35-1.25-1.32-1.71-2-.44-2.2 0 .35 1.25 1.32 1.71zM88 166.7c1 .46 2 .44 2.2 0s-.35-1.25-1.32-1.71-2-.44-2.2 0 .32 1.25 1.32 1.71zM82.91 149.48c1 .46 2 .44 2.2 0s-.35-1.25-1.32-1.71-2-.44-2.2 0 .35 1.23 1.32 1.71z"/><ellipse class="cls-7" cx="138.72" cy="153.02" rx="1.57" ry="1.22" transform="translate(-56.72 219.83) rotate(-66.68)"/><ellipse class="cls-7" cx="132.79" cy="124.21" rx="1.57" ry="1.22" transform="translate(-33.84 196.98) rotate(-66.68)"/><ellipse class="cls-7" cx="162.33" cy="104.73" rx="1.57" ry="1.22" transform="translate(1.89 212.34) rotate(-66.68)"/><ellipse class="cls-7" cx="154.21" cy="106.68" rx="1.57" ry="1.22" transform="translate(-4.8 206.07) rotate(-66.68)"/><ellipse class="cls-7" cx="155.37" cy="96.14" rx="1.57" ry="1.22" transform="translate(5.58 200.76) rotate(-66.68)"/><ellipse class="cls-7" cx="165.72" cy="76.01" rx="1.57" ry="1.22" transform="translate(30.32 198.1) rotate(-66.68)"/><ellipse class="cls-7" cx="51.33" cy="127.13" rx="1.57" ry="1.22" transform="translate(-85.73 123.94) rotate(-66.68)"/><ellipse class="cls-7" cx="57.17" cy="163.15" rx="1.57" ry="1.22" transform="translate(-115.29 151.07) rotate(-66.68)"/><ellipse class="cls-7" cx="55.73" cy="147.09" rx="1.57" ry="1.22" transform="translate(-101.41 140.04) rotate(-66.68)"/><ellipse class="cls-7" cx="52.01" cy="168.81" rx="1.57" ry="1.22" transform="translate(-123.6 149.74) rotate(-66.68)"/><path class="cls-7" d="M113.88 158.1c.46.86 1.3 1.43 1.89 1.27s.69-1 .24-1.86-1.3-1.43-1.89-1.27-.7.99-.24 1.86zM122 124.18c.46.86 1.3 1.43 1.89 1.27s.69-1 .24-1.86-1.3-1.43-1.89-1.27-.71 1-.24 1.86zM109.24 127.07c.46.86 1.3 1.43 1.89 1.27s.69-1 .24-1.86-1.3-1.43-1.89-1.27-.69 1-.24 1.86zM140.91 127.78c.46.86 1.3 1.43 1.89 1.27s.69-1 .24-1.86-1.3-1.43-1.89-1.27-.7 1-.24 1.86zM173.36 103.44c.46.86 1.3 1.43 1.89 1.27s.69-1 .24-1.86-1.3-1.43-1.89-1.27-.7.99-.24 1.86zM156.16 84.94c.46.86 1.3 1.43 1.89 1.27s.69-1 .24-1.86-1.3-1.43-1.89-1.27-.7.99-.24 1.86zM158 75.8c.44.87 1.28 1.45 1.87 1.3s.71-1 .27-1.85-1.28-1.45-1.87-1.3-.7.98-.27 1.85zM126.62 160.38c1 0 1.81-.41 1.72-1s-1-1-2-1.07-1.81.41-1.72 1 .96 1.04 2 1.07zM135.86 116.79c1 0 1.81-.41 1.72-1s-1-1-2-1.07-1.81.41-1.72 1 .97 1.04 2 1.07zM169.55 86.33c1 0 1.81-.41 1.72-1s-1-1-2-1.07-1.81.41-1.72 1 .96 1.04 2 1.07zM172.93 80.07c1 0 1.81-.41 1.72-1s-1-1-2-1.07-1.81.41-1.72 1 .97 1 2 1.07zM114.12 98c1 0 1.81-.41 1.72-1s-1-1-2-1.07-1.81.41-1.72 1 .96 1.01 2 1.07zM135.54 107.38c1 0 1.81-.41 1.72-1s-1-1-2-1.07-1.81.41-1.72 1 .96 1.04 2 1.07zM165.4 94.39c1 0 1.81-.41 1.72-1s-1-1-2-1.07-1.81.41-1.72 1 .96 1.05 2 1.07zM51.73 137.93c1 0 1.81-.41 1.72-1s-1-1-2-1.07-1.81.41-1.72 1 .97 1.05 2 1.07zM71 159.31c1 0 1.81-.41 1.72-1s-1-1-2-1.07-1.81.41-1.72 1 .92 1.04 2 1.07zM138.79 143.73c1 0 1.81-.41 1.72-1s-1-1-2-1.07-1.81.41-1.72 1 .96 1.04 2 1.07zM113.47 121.33c1 0 1.81-.41 1.72-1s-1-1-2-1.07-1.81.41-1.72 1 .96 1.05 2 1.07zM94 152.47c1 0 1.81-.41 1.72-1s-1-1-2-1.07-1.81.41-1.72 1 1 1.04 2 1.07zM50 147.58c1 0 1.81-.41 1.72-1s-1-1-2-1.07-1.81.41-1.72 1 1 1.04 2 1.07zM82.31 129.45c1 0 1.81-.41 1.72-1s-1-1-2-1.07-1.81.41-1.72 1 .97 1.04 2 1.07zM127.57 169.1c1 .46 2 .44 2.2 0s-.35-1.25-1.32-1.71-2-.44-2.2 0 .35 1.25 1.32 1.71zM60.74 158.29c1 .46 2 .44 2.2 0s-.35-1.25-1.32-1.71-2-.44-2.2 0 .35 1.25 1.32 1.71zM64.31 169.65c1 .46 2 .44 2.2 0s-.35-1.25-1.32-1.71-2-.44-2.2 0 .35 1.25 1.32 1.71zM51.65 156.34c1 .46 2 .44 2.2 0s-.35-1.25-1.32-1.71-2-.44-2.2 0 .35 1.25 1.32 1.71zM135 164.68c1 .46 2 .44 2.2 0s-.35-1.25-1.32-1.71-2-.44-2.2 0 .32 1.25 1.32 1.71z"/><path class="cls-8" d="M119.32 39.43c-6.47 2.85-7.39 14.94 1.47 29.46.25.4.88 1.41.5 4-1.28 8.42-2.36 18.25-.4 25.27 2.31 8.28 6.63 3.88 7.45-1.45.65-2.51 2.46-21.74 5.82-21.84 4-.18 6.92 18.41 7.08 20.14.33 3.54 1.55 7.43 4.33 7.29s4-12.47 2.94-21.09c-1-8-1.22-9.8-.76-12.12.21-1 4-9.39 4.53-14 1-8.59-1.84-15.39-4.68-16.52-7.38-2.94-10.56.78-15.49.93-6.38.2-7.87-2.24-12.79-.07z"/><path class="cls-9" d="M118.14 60.26s5.09 8.8 5.19 11.85-1.92 8.37-2 12.3 1.44 19.89 3.09 14.54c2.18-7.06 4-18.49 5.41-22.25s7.94-4.41 9.68 1.88 3 24.16 5.93 21.45 2.91-17.51 1.41-23.91c-1.83-7.79 2-10.11 3.41-13.87.61-1.63-4.38 5.72-8.52 7.67a16.2 16.2 0 0 1-6.63.94c-15.54-1.06-16.97-10.6-16.97-10.6z"/><path class="cls-10" d="M122.94 39.57s4.33.31 8.11.83 7.16-1.54 9.33-2 7.43 0 5.28 1.14-6.42 4.36-14.51 4.18c-4.28-.14-11.22-2.53-8.21-4.15z"/><path class="cls-11" d="M88.73 78.43s1.84 28.58 3.9 44.51c.92 7.11 2.49 10.1 3.67 10.1 2.29 0 4.36-3.9 5-11 1-9.92 5-43.36 5-43.36s-15.5.44-17.57-.25z"/><path class="cls-12" d="M116 41.62s.44 18.49 4 22.77c6.81 8.09 19.81 6.43 21.14 5.68 5.11-2.87 9.14-11.5 10.4-14.85.55-1.46-24.94 14.7-29.62-3.39-2.32-9.06-5.92-10.21-5.92-10.21z"/><rect class="cls-13" x="86.81" y="83.14" width="19.81" height="1.61" rx=".8" ry=".8" transform="translate(8.37 -8.77) rotate(5.42)"/><rect class="cls-14" x="86.81" y="88.76" width="19.81" height="1.61" rx=".8" ry=".8" transform="translate(8.9 -8.74) rotate(5.42)"/><rect class="cls-15" x="87.76" y="94.37" width="17.91" height="1.61" rx=".8" ry=".8" transform="translate(9.43 -8.72) rotate(5.42)"/><rect class="cls-16" x="88.36" y="99.98" width="16.71" height="1.61" rx=".8" ry=".8" transform="translate(9.96 -8.69) rotate(5.42)"/><rect class="cls-17" x="89.31" y="105.59" width="14.8" height="1.63" rx=".82" ry=".82" transform="translate(10.49 -8.66) rotate(5.42)"/><rect class="cls-18" x="89.92" y="111.21" width="13.59" height="1.61" rx=".8" ry=".8" transform="translate(11.02 -8.64) rotate(5.42)"/><rect class="cls-19" x="90.41" y="116.82" width="12.62" height="1.61" rx=".8" ry=".8" transform="translate(11.55 -8.61) rotate(5.42)"/><rect class="cls-20" x="90.83" y="122.44" width="11.77" height="1.61" rx=".8" ry=".8" transform="translate(12.08 -8.59) rotate(5.42)"/><path class="cls-21" d="M97.66 133.7l-1.46-.24c-.44 0-2.43-4.29-2.43-4.29a.81.81 0 0 1 .88-.72l4.72.39a.81.81 0 0 1 .72.88s-1.99 4.02-2.43 3.98z"/><rect class="cls-22" x="92.11" y="128.04" width="9.21" height="1.63" rx=".81" ry=".81" transform="translate(12.61 -8.56) rotate(5.42)"/><path class="cls-8" d="M78.95 41.83c-8.05 3.55-9.2 18.59 1.83 36.67.31.5 4.52 3.8 17.26 3.11a34.29 34.29 0 0 0 14.68-3.56c4.36-2.05 6.61-11.05 7.28-16.73 1.21-10.7-2.29-19.16-5.82-20.57-9.19-3.66-13.14 1-19.28 1.16-7.98.26-9.84-2.77-15.95-.08z"/><path class="cls-23" d="M74.64 46.31s.91 23.83 5.73 31.05c4.61 6.92 28.11 3.44 31.32.92 6.43-5.05 4.42-6.84 6.17-11.52.76-2-28.37 19.05-34.9-6.19-3.28-12.65-8.32-14.26-8.32-14.26z"/><path class="cls-24" d="M83.45 42s5.39.38 10.1 1 8.92-1.92 11.62-2.55 9.25 0 6.57 1.42-8 5.42-18.06 5.2c-5.34-.07-13.97-3.07-10.23-5.07z"/><path class="cls-8" d="M27.83 46.22c-10.23 4.51-11.69 23.63 2.32 46.6.39.64 1.4 2.23.79 6.26-2 13.31-3.73 28.86-.63 40 3.65 13.1 10.48 6.13 11.79-2.29 1-4 3.9-34.38 9.2-34.55 6.38-.29 10.94 29.12 11.19 31.85.52 5.6 2.46 11.75 6.85 11.53s6.28-19.73 4.66-33.36c-1.51-12.7-1.93-15.5-1.19-19.18.31-1.64 6.34-14.87 7.19-22.08 1.54-13.6-2.9-24.35-7.4-26.14-11.68-4.64-16.7 1.23-24.5 1.48-10.1.3-12.5-3.55-20.27-.12z"/><path class="cls-25" d="M26 79.18s8 13.92 8.16 18.75-3 13.23-3.18 19.46 2.28 31.46 4.89 23c3.45-11.17 6.32-29.24 8.55-35.19s12.57-7 15.31 3 4.68 38.22 9.38 33.93 2.89-28.82 1.89-39.13 1.5-18 3.73-24c1-2.58-6.78 15.08-9 10.31-.81-1.74-1.3 1.84-3.68 3.92s-6.69 2.69-9.28 2.77-8.43-1-10.77-3.16c-3-2.74-2.33-6.65-3.6-4.38-3.97 7.04-12.4-9.28-12.4-9.28z"/><path class="cls-26" d="M33.55 46.44s6.85.48 12.83 1.32 11.33-2.44 14.76-3.24 11.75 0 8.36 1.81-10.15 6.89-23 6.61c-6.74-.15-17.71-3.94-12.95-6.5z"/></g></svg>