<svg xmlns="http://www.w3.org/2000/svg" viewBox="0 0 175 175"><defs><style>.cls-1{fill:#bedfe4;}.cls-2{fill:#dd8e98;}.cls-3{clip-path:url(#clip-path);}.cls-4{clip-path:url(#clip-path-2);}.cls-5{fill:#8d3b53;opacity:0.26;}.cls-6{fill:#cbbba0;}.cls-7{fill:url(#New_Gradient_Swatch_1);}.cls-8{fill:#fff;}.cls-9{fill:url(#linear-gradient);}.cls-10{fill:#ec608a;}.cls-11{fill:url(#New_Gradient_Swatch_2);}.cls-12{fill:#be1622;}.cls-13{fill:#a48a7b;}.cls-14{opacity:0.84;fill:url(#radial-gradient);}.cls-15{fill:#432918;opacity:0.8;}</style><clipPath id="clip-path"><circle class="cls-1" cx="87.5" cy="87.5" r="87.5"/></clipPath><clipPath id="clip-path-2"><path class="cls-2" d="M-2 94.8c28.59-12.8 116.43-16.8 179.68-5.01 36.18 6.73 26.29 88-44.6 92.44s-98.24 5.07-122-8.61c-17.2-9.9-42.93-65.4-13.08-78.82z"/></clipPath><linearGradient id="New_Gradient_Swatch_1" x1="89.8" y1="34.65" x2="89.8" y2="24.61" gradientUnits="userSpaceOnUse"><stop offset="0" stop-color="#fff"/><stop offset="1" stop-color="#9d9d9c" stop-opacity=".5"/></linearGradient><linearGradient id="linear-gradient" x1="89.19" y1="37.09" x2="89.19" y2="153.5" gradientUnits="userSpaceOnUse"><stop offset="0" stop-color="#7d4e24"/><stop offset=".01" stop-color="#8a5b30"/><stop offset=".03" stop-color="#a87a4c"/><stop offset=".05" stop-color="#c29665"/><stop offset=".08" stop-color="#d8ac78"/><stop offset=".11" stop-color="#e8bd88"/><stop offset=".15" stop-color="#f4c892"/><stop offset=".2" stop-color="#facf98"/><stop offset=".35" stop-color="#fcd19a"/></linearGradient><linearGradient id="New_Gradient_Swatch_2" x1="88.55" y1="49.13" x2="88.55" y2="144.05" gradientUnits="userSpaceOnUse"><stop offset="0" stop-color="#fbdcd4"/><stop offset=".14" stop-color="#ec608a"/><stop offset=".5" stop-color="#e84251"/><stop offset=".52" stop-color="#df3947"/><stop offset=".58" stop-color="#d02936"/><stop offset=".64" stop-color="#c61e2b"/><stop offset=".74" stop-color="#c01824"/><stop offset="1" stop-color="#be1622"/></linearGradient><radialGradient id="radial-gradient" cx="318.07" cy="445.03" r="9.53" gradientTransform="matrix(0 1.24 -1.3 0 681.99 -336.12)" gradientUnits="userSpaceOnUse"><stop offset="0" stop-color="#dedc00"/><stop offset=".15" stop-color="#ded902"/><stop offset=".28" stop-color="#dfce07"/><stop offset=".4" stop-color="#e0bc11"/><stop offset=".51" stop-color="#e2a41e"/><stop offset=".62" stop-color="#e4842f"/><stop offset=".73" stop-color="#e65d43"/><stop offset=".8" stop-color="#e84251"/></radialGradient></defs><title>infection</title><circle class="cls-1" cx="87.5" cy="87.5" r="87.5"/><g class="cls-3"><path class="cls-2" d="M-2 94.8c28.59-12.8 116.43-16.8 179.68-5.01 36.18 6.73 26.29 88-44.6 92.44s-98.24 5.07-122-8.61c-17.2-9.9-42.93-65.4-13.08-78.82z"/><g class="cls-4"><path class="cls-5" d="M58.41 29.52c-13.19 4.88-44.56 47.69-16.34 40.27 5.55-1.46 10.34 3.87 12.27 7 .52.85 5.7 12.26 3.8 21.61-3.5 17.23-5.06 38.6-1.14 53.15 4.58 17.18 19.31 8.79 21.42-4.35 1.65-5.11 5.75-40.86 10.79-40.78 5.86-.21 10.22 34.69 10.45 38.25.48 7.3.34 15.66 11.11 15.66 8.25 0 11.76-25.29 10.08-43.07-1.56-16.57-1.18-21.73.15-26.46 2.34-8.32 8-24.38 17.1-22.34 5.45 1.23-7.64.08-6.9-4.6 2.8-17.59-3.96-30.86-10.26-33.36-16.34-6.5-22.94 3.15-33.94 3.15-14.37 0-17.43-8.27-28.59-4.13z"/><path class="cls-6" d="M-27.19 151.26c.61.85 29.08 21.61 27.85 26.82-4.09 17.23-7.76 37.37-3.19 51.92 5.39 17.18 21.85 10 24.32-3.11.78-2.07 133.11-7.92 175.46-2.51 62.25 7.94 3.49-107.36 7-107.31-8.77-11.39-31.71-18-64.88-18-10.52 0-10.52 7.45-10.08 18.83 1.22 31.71-9.36 54.88-21.48 51.25-21.92-6.57-8.78-36.08-18.41-36.79-5.49-.41-5.61 16.66-9.21 26.72-4.38 12.26-14 10.19-16.66 10.07-10.08-.44-15.08-19.39-14.9-28.91.44-23.65 4.82-39.42-3.95-41.61-19.68-4.84-93.98 22.18-71.87 52.63z"/></g><path class="cls-7" d="M62 29.08a92.78 92.78 0 0 1 27.2-4.41c13.4-.18 19.92-.21 28.33 5.68 1.88 1.32-23.24 4.31-29.45 4.31s-22.84-4.11-26.08-5.58z"/><path class="cls-8" d="M61.56 29.48c-13.16 5.3-15.78 29.46 1.05 59.13.47.82 1.68 2.88.74 8-3.11 16.79-5.91 36.42-2.43 50.62 4.1 16.74 13 8.2 15-2.42 1.47-5 6.34-43.4 13.07-43.4 8.1-.11 12.69 37.34 12.9 40.81.43 7.11 2.64 15 8.21 14.89s8.76-24.75 7.26-42.07c-1.4-16.15-1.82-19.71-.74-24.35.48-2 8.66-18.57 10-27.69 2.5-17.16-3.52-30.09-9.15-32.53-14.62-6.36-20.5 3.07-30.4 3.07-12.78-.03-15.51-8.08-25.51-4.06z"/><path class="cls-9" d="M64.93 39.59c-8.29 3.88-10.93 16.87-2.1 41.61 2.1 5.89 6.31 11.35 3.37 22.28-4 14.74-5.87 29.55-2.73 42.25 3.7 15 9.5 5 10.73-2.31 1.31-4.42 3.8-47.93 15.55-49.18 11.36 0 14 38 14.44 43.73.92 10.92 2.72 14.59 4.75 14.88 4.68.66 6.69-20.43 5.15-35.91-1.61-16.3-2.87-18.76-2.14-24.14.94-7 5-12.73 6.94-20.74 4.42-18.29 1.77-31.21-5.47-33.74-10.87-3.78-16.42 2.32-25.35 2.32-11.57 0-14.35-5.17-23.14-1.05z"/><path class="cls-10" d="M67.45 47.47c-6.36 3-6.68 10.25.74 27.53 3.47 8.09 2 20.71 1.79 22.18-1.46 12.25-4.42 48.55-1.79 48.66 2.23.09 1.68-11.54 2.63-17.13 1.26-24.38 4.21-50 17.25-50 19.77-.84 18.51 39.94 20.19 53.39.3 2.37-.26 14.83 2.1 15.13 1.68.21.86-21.24-.32-33.11-1.24-12.5-3.16-19-2.42-24.8a41.94 41.94 0 0 1 1.89-12.09c4.57-13.66 8-26.8.63-30.37-7.92-3.86-14.5 6.14-22.81 5.65-8.85-.51-13.14-8.2-19.88-5.04z"/><path class="cls-11" d="M69.31 50.51c-5.8 2.72-6.09 9.35.67 25.11 3.17 7.38 1.79 18.88 1.63 20.22-1.33 11.16-4.31 47.16-3.1 47.16s.4-13 1.26-18.08c1.15-22.23 4.52-48.5 19-49.13 14.67.79 18 21.15 20 49.82.15 2.17 1.1 18.44 1.1 18.44 1.53.2.12-20.55-.95-31.37-1.13-11.4-3.72-18.76-3-24a38.25 38.25 0 0 1 1.73-11c4.16-12.46 7.29-24.44.58-27.7-7.23-3.56-13.23 5.61-20.79 5.13-8.07-.51-11.98-7.48-18.13-4.6z"/><path class="cls-12" d="M80.13 54.82c0 3.22.21 6.35-3 8.17-1 .56-2.21.65-3.12 1.34-2.11 1.6-2.1 5.07-2.21 7.41 0 .61.92.61.95 0 .1-2.07 0-5.3 1.88-6.7 1-.71 2.3-.79 3.31-1.45 3.41-2.21 3.17-5.07 3.12-8.77a.47.47 0 0 0-.95 0zM75.65 64a20.34 20.34 0 0 0-2.2-4.19c-1-1.3-2.38-3.14-1.27-4.79.34-.51-.48-1-.82-.48a4.08 4.08 0 0 0 0 3.85 23.49 23.49 0 0 0 2 2.79 19.39 19.39 0 0 1 1.53 3.3c.25.56 1.06.07.82-.48zM69.63 65.13c0 3.06 1.94 9 5.95 6.57a5.49 5.49 0 0 0 1.72-1.8c1-1.42 1.66-2.15 3.4-2.42.84-.13 2.23.12 2.73-.76a.47.47 0 0 0-.82-.48c-.23.41-2 .27-2.56.37a5 5 0 0 0-2.27 1c-1.29 1.06-1.58 3.46-3.55 3.67-2.48.26-3.66-4.44-3.66-6.16a.47.47 0 0 0-.95 0zM71.61 70.9a38.26 38.26 0 0 0 .27 7.76c.4 2 1.2 3.67 1.31 5.71.13 2.31-.44 4.44-.63 6.71-.05.61.9.6.95 0 .33-3.93 1-7-.18-10.93-.94-3-.78-6.12-.77-9.25a.47.47 0 0 0-.95 0zM94.55 57.58c.43 1.88 2.84 3 4.56 3.32 1.46.29 2.8.34 4.08 1.2 1.12.75 2.25 1.5 3.35 2.28.5.35 1-.47.48-.82-1.48-1-3.19-2.61-4.89-3.24-2-.74-6-.1-6.67-3-.14-.59-1-.34-.91.25zM102.64 60.6c0-2.32.41-4.94-1.19-6.85-.39-.47-1.06.21-.67.67 1.37 1.63.91 4.21.91 6.18a.47.47 0 0 0 .95 0zM105.75 52.65c.39.53.89.95 1.29 1.46 1.38 1.75 1.42 3.09 1.06 5.25a4.9 4.9 0 0 1-1.06 2.73c-.42.44-.88.5-1.14 1s.56 1 .82.48c.16-.33 1.17-1 1.42-1.4a9.33 9.33 0 0 0 1.11-3.75c.44-2.92-1.11-4.14-2.68-6.29-.36-.49-1.18 0-.82.48zM106.53 63.34a41.77 41.77 0 0 1-2.3 13.31 18.51 18.51 0 0 0-.2 9.94c.13.6 1 .34.91-.25a18.65 18.65 0 0 1 .68-10.67 35.89 35.89 0 0 0 1.86-12.32.47.47 0 0 0-.95 0zM106.91 70.61c.92-1.12 2.7-2.2 3.11-3.64.3-1 0-2.27.38-3.29.22-.57-.7-.82-.91-.25a11.57 11.57 0 0 0-.32 2.76c-.17 1.56-2 2.6-2.93 3.76-.39.47.28 1.14.67.67zM105.77 74.35a5.78 5.78 0 0 0-3-4c-2.79-1.42-8.5-.91-9.58-4.59a.47.47 0 0 0-.91.25c1.69 5.76 11.65 2.34 12.62 8.62.09.6 1 .35.91-.25zM100 69.19c-.67-1.23-.53-2.89-1.45-4a23.4 23.4 0 0 0-1.83-1.53 20.22 20.22 0 0 0-1.72-1.57c-.49-.37-1 .45-.48.82.69.52 1.21 1.19 1.85 1.76s1.29.81 1.65 1.42c.63 1 .56 2.47 1.17 3.58.29.54 1.11.06.82-.48zM83.56 67a10.67 10.67 0 0 0 2.73-2.58 7.13 7.13 0 0 0 .56-3.85.47.47 0 0 0-.95 0c0 1.35.14 2.7-.77 3.81a14.69 14.69 0 0 1-2.25 1.95c-.47.39.2 1.05.67.67zM86.6 64.86a6.08 6.08 0 0 0 3.4-.61 3.06 3.06 0 0 0 1-1c.29-.48.26-1.1.59-1.54s-.46-1-.82-.48c-.54.72-.36 1.6-1.2 2.18a5 5 0 0 1-3 .53.47.47 0 0 0 0 .95z"/><ellipse class="cls-13" cx="20.71" cy="111.72" rx="1.1" ry="1.41"/><path class="cls-13" d="M44.5 109.34a1.81 1.81 0 0 0-2-.37c-.43.34-.22 1.07.46 1.62a1.81 1.81 0 0 0 2 .37c.44-.35.23-1.07-.46-1.62zM33.16 112c-.87.35-1.35 1-1.08 1.42s1.19.51 2.06.16 1.35-1 1.08-1.42-1.22-.52-2.06-.16zM29.26 105.12c-1 0-1.77.33-1.8.82s.74.91 1.7.94 1.77-.33 1.8-.82-.73-.9-1.7-.94zM21.18 118.52a1.81 1.81 0 0 0-2-.37c-.43.34-.22 1.07.46 1.62a1.81 1.81 0 0 0 2 .37c.43-.34.22-1.07-.46-1.62zM9.83 121.17c-.87.35-1.35 1-1.08 1.42s1.19.51 2.06.16 1.35-1 1.08-1.42-1.19-.5-2.06-.16zM5.93 114.3c-1 0-1.77.33-1.8.82s.74.91 1.7.94 1.77-.33 1.8-.82-.73-.9-1.7-.94z"/><ellipse class="cls-13" cx="16.73" cy="129.95" rx="1.41" ry="1.1" transform="matrix(.26 -.97 .97 .26 -113.13 112.51)"/><path class="cls-13" d="M40.32 133.8c-.52-.71-1.35-1.1-1.85-.88s-.49 1 0 1.68 1.35 1.1 1.85.88.52-.97 0-1.68zM28.67 133.43c-.93.11-1.56.6-1.41 1.09s1 .8 1.95.69 1.56-.6 1.41-1.09-1.02-.8-1.95-.69zM26.69 125.78c-.93-.28-1.8-.14-2 .32s.48 1.07 1.4 1.35 1.8.14 2-.32-.48-1.06-1.4-1.35zM15.41 136.64c-.52-.71-1.35-1.1-1.85-.88s-.49 1 0 1.68 1.35 1.1 1.85.88.52-.97 0-1.68zM3.76 136.27c-.93.11-1.56.6-1.41 1.09s1 .8 1.95.69 1.56-.6 1.41-1.09-1.02-.8-1.95-.69zM1.78 128.62c-.93-.28-1.8-.14-2 .32s.52 1.06 1.45 1.36 1.8.14 2-.32-.53-1.07-1.45-1.36z"/><ellipse class="cls-13" cx="163.55" cy="108.57" rx="1.41" ry="1.1" transform="translate(16.39 238.5) rotate(-75.02)"/><path class="cls-13" d="M175.5 112c-.93.11-1.56.6-1.41 1.09s1 .8 1.95.69 1.56-.6 1.41-1.09-1.02-.75-1.95-.69zM173.52 104.41c-.93-.28-1.8-.14-2 .32s.48 1.07 1.4 1.35 1.8.14 2-.32-.48-1.07-1.4-1.35z"/><ellipse class="cls-13" cx="138.64" cy="111.41" rx="1.41" ry="1.1" transform="translate(-4.83 216.54) rotate(-75.02)"/><path class="cls-13" d="M162.24 115.26c-.52-.71-1.35-1.1-1.85-.88s-.49 1 0 1.68 1.35 1.1 1.85.88.52-.94 0-1.68zM150.59 114.89c-.93.11-1.56.6-1.41 1.09s1 .8 1.95.69 1.56-.6 1.41-1.09-1.02-.8-1.95-.69zM148.61 107.25c-.93-.28-1.8-.14-2 .32s.48 1.07 1.4 1.35 1.8.14 2-.32-.48-1.07-1.4-1.35z"/><ellipse class="cls-13" cx="32.23" cy="163.08" rx="1.41" ry="1.1" transform="translate(-128.7 121.43) rotate(-64.31)"/><path class="cls-13" d="M54.7 171.25c-.38-.79-1.12-1.33-1.65-1.21s-.66.87-.28 1.66 1.12 1.33 1.65 1.21.66-.91.28-1.66zM43.32 168.72c-.93-.06-1.64.3-1.59.81s.85 1 1.79 1 1.64-.3 1.59-.81-.85-.94-1.79-1zM42.8 160.84c-.86-.45-1.74-.47-2 0s.27 1.14 1.13 1.59 1.74.47 2 0-.28-1.14-1.13-1.59z"/><ellipse class="cls-13" cx="7.23" cy="161.25" rx="1.41" ry="1.1" transform="translate(-141.21 97.85) rotate(-64.31)"/><path class="cls-13" d="M29.7 169.41c-.38-.79-1.12-1.33-1.65-1.21s-.66.87-.28 1.66 1.12 1.33 1.65 1.21.65-.87.28-1.66zM18.32 166.88c-.93-.06-1.64.3-1.59.81s.85 1 1.79 1 1.64-.3 1.59-.81-.86-.94-1.79-1zM17.79 159c-.86-.45-1.74-.47-2 0s.27 1.14 1.13 1.59 1.74.47 2 0-.27-1.14-1.13-1.59z"/><ellipse class="cls-13" cx="87.55" cy="173.46" rx="1.41" ry="1.1" transform="matrix(.25 -.97 .97 .25 -102.42 214.25)"/><ellipse class="cls-13" cx="85.69" cy="150.39" rx="1.41" ry="1.1" transform="translate(-81.49 195.22) rotate(-75.34)"/><ellipse class="cls-13" cx="88.76" cy="141.63" rx="1.41" ry="1.1" transform="translate(-70.72 191.64) rotate(-75.34)"/><ellipse class="cls-13" cx="36.37" cy="172.29" rx="1.41" ry="1.1" transform="matrix(.25 -.97 .97 .25 -139.51 163.87)"/><ellipse class="cls-13" cx="50.58" cy="163.37" rx="1.41" ry="1.1" transform="translate(-120.27 170.95) rotate(-75.34)"/><path class="cls-13" d="M87 162.9c-.52-.71-1.35-1.1-1.85-.87s-.48 1 0 1.68 1.35 1.1 1.85.87.56-.97 0-1.68zM125 167.28c-.52-.71-1.35-1.1-1.85-.87s-.48 1 0 1.68 1.35 1.1 1.85.87.47-.96 0-1.68zM115.44 172.06c-.93.12-1.55.61-1.4 1.1s1 .79 2 .67 1.55-.61 1.4-1.1-1.07-.79-2-.67zM81.25 168.77c-.93.12-1.55.61-1.4 1.1s1 .79 2 .67 1.55-.61 1.4-1.1-1.07-.78-2-.67zM90.45 155.63c-.93.12-1.55.61-1.4 1.1s1 .79 2 .67 1.55-.61 1.4-1.1-1.07-.78-2-.67zM97.49 169.24c-.93-.28-1.8-.13-1.95.34s.48 1.06 1.41 1.34 1.8.13 1.95-.34-.48-1.06-1.41-1.34zM27.27 174.55c-.93-.28-1.8-.13-1.95.34s.48 1.06 1.41 1.34 1.8.13 1.95-.34-.49-1.06-1.41-1.34zM72.59 172.22c-.93-.28-1.8-.13-1.95.34s.48 1.06 1.41 1.34 1.8.13 1.95-.34-.48-1.07-1.41-1.34z"/><ellipse class="cls-13" cx="24.03" cy="144.55" rx="1.41" ry="1.1" transform="translate(-121.82 130.39) rotate(-75.02)"/><path class="cls-13" d="M47.63 148.4c-.52-.71-1.35-1.1-1.85-.88s-.49 1 0 1.68 1.35 1.1 1.85.88.52-.97 0-1.68zM36 148c-.93.11-1.56.6-1.41 1.09s1 .8 1.95.69 1.56-.6 1.41-1.09-1.04-.77-1.95-.69zM34 140.38c-.93-.28-1.8-.14-2 .32s.48 1.07 1.4 1.35 1.8.14 2-.32-.48-1.06-1.4-1.35zM41.45 122.14c-.93-.28-1.8-.14-2 .32s.48 1.07 1.4 1.35 1.8.14 2-.32-.47-1.07-1.4-1.35zM30.36 152.76c-.93-.28-1.8-.14-2 .32s.48 1.07 1.4 1.35 1.8.14 2-.32-.47-1.11-1.4-1.35zM30.95 118.89c-.93-.28-1.8-.14-2 .32s.48 1.07 1.4 1.35 1.8.14 2-.32-.48-1.07-1.4-1.35zM44.68 140.21c-.93-.28-1.8-.14-2 .32s.48 1.07 1.4 1.35 1.8.14 2-.32-.47-1.07-1.4-1.35z"/><ellipse class="cls-13" cx="-.88" cy="147.39" rx="1.41" ry="1.1" transform="translate(-143.03 108.44) rotate(-75.02)"/><path class="cls-13" d="M22.72 151.24c-.52-.71-1.35-1.1-1.85-.88s-.49 1 0 1.68 1.35 1.1 1.85.88.52-.97 0-1.68zM11.07 150.87c-.93.11-1.56.6-1.41 1.09s1 .8 1.95.69 1.56-.6 1.41-1.09-1.02-.8-1.95-.69zM25.41 158.71c-.93.11-1.56.6-1.41 1.09s1 .8 1.95.69 1.56-.6 1.41-1.09-1.02-.8-1.95-.69zM41.14 153.66c-.93.11-1.56.6-1.41 1.09s1 .8 1.95.69 1.56-.6 1.41-1.09-1.02-.8-1.95-.69zM9.08 143.22c-.93-.28-1.8-.14-2 .32s.48 1.07 1.4 1.35 1.8.14 2-.32-.48-1.06-1.4-1.35z"/><ellipse class="cls-13" cx="159.61" cy="122.8" rx="1.41" ry="1.1" transform="translate(-.28 245.23) rotate(-75.02)"/><path class="cls-13" d="M171.56 126.27c-.93.11-1.56.6-1.41 1.09s1 .8 1.95.69 1.56-.6 1.41-1.09-1.03-.8-1.95-.69zM169.57 118.63c-.93-.28-1.8-.14-2 .32s.48 1.07 1.4 1.35 1.8.14 2-.32-.47-1.06-1.4-1.35zM156.76 104.22c-.93-.28-1.8-.14-2 .32s.48 1.07 1.4 1.35 1.8.14 2-.32-.48-1.07-1.4-1.35zM165.94 131c-.93-.28-1.8-.14-2 .32s.48 1.07 1.4 1.35 1.8.14 2-.32-.48-1.06-1.4-1.35zM139 102.9c-.93-.28-1.8-.14-2 .32s.48 1.07 1.4 1.35 1.8.14 2-.32-.47-1.07-1.4-1.35z"/><ellipse class="cls-13" cx="134.7" cy="125.64" rx="1.41" ry="1.1" transform="translate(-21.49 223.27) rotate(-75.02)"/><path class="cls-13" d="M158.29 129.48c-.52-.71-1.35-1.1-1.85-.88s-.49 1 0 1.68 1.35 1.1 1.85.88.52-.97 0-1.68zM146.65 129.11c-.93.11-1.56.6-1.41 1.09s1 .8 1.95.69 1.56-.6 1.41-1.09-1.03-.8-1.95-.69zM161 137c-.93.11-1.56.6-1.41 1.09s1 .8 1.95.69 1.56-.6 1.41-1.09-1.04-.85-1.95-.69zM144.66 121.47c-.93-.28-1.8-.14-2 .32s.48 1.07 1.4 1.35 1.8.14 2-.32-.47-1.06-1.4-1.35z"/><ellipse class="cls-13" cx="167.36" cy="151.08" rx="1.41" ry="1.1" transform="translate(-37.61 245.02) rotate(-66.7)"/><ellipse class="cls-13" cx="135.36" cy="139.99" rx="1.41" ry="1.1" transform="translate(-46.76 208.94) rotate(-66.7)"/><path class="cls-13" d="M144.57 143.86c.41.78 1.17 1.29 1.7 1.14s.63-.89.21-1.67-1.17-1.29-1.7-1.14-.63.9-.21 1.67zM156 145.91c.93 0 1.63-.37 1.55-.87s-.89-.94-1.83-1-1.63.37-1.55.87.93.98 1.83 1zM133.17 155.63c.93 0 1.63-.37 1.55-.87s-.89-.94-1.83-1-1.63.37-1.55.87.9.98 1.83 1zM156.89 153.76c.87.41 1.76.4 2 0s-.32-1.12-1.19-1.54-1.76-.4-2 0 .3 1.13 1.19 1.54zM174.06 152.49c.87.41 1.76.4 2 0s-.32-1.12-1.19-1.54-1.76-.4-2 0 .32 1.13 1.19 1.54zM141.4 157.53c.87.41 1.76.4 2 0s-.32-1.12-1.19-1.54-1.76-.4-2 0 .32 1.12 1.19 1.54zM138.38 149.25c.87.41 1.76.4 2 0s-.32-1.12-1.19-1.54-1.76-.4-2 0 .32 1.12 1.19 1.54zM146.29 152.4c.87.41 1.76.4 2 0s-.32-1.12-1.19-1.54-1.76-.4-2 0 .32 1.14 1.19 1.54zM141.74 136.9c.87.41 1.76.4 2 0s-.32-1.12-1.19-1.54-1.76-.4-2 0 .32 1.13 1.19 1.54zM169.62 144.66c.41.78 1.17 1.29 1.7 1.14s.63-.89.21-1.67-1.17-1.29-1.7-1.14-.62.89-.21 1.67zM168 136.87c.93 0 1.63-.37 1.55-.87s-.89-.94-1.83-1-1.63.37-1.55.87.94.98 1.83 1zM151.74 139.59c.93 0 1.63-.37 1.55-.87s-.89-.94-1.83-1-1.63.37-1.55.87.9.98 1.83 1z"/><ellipse class="cls-13" cx="162.23" cy="169.6" rx="1.41" ry="1.1" transform="translate(-38.36 291.46) rotate(-77.55)"/><ellipse class="cls-13" cx="132.95" cy="169.77" rx="1.41" ry="1.1" transform="matrix(.22 -.98 .98 .22 -61.48 263)"/><path class="cls-13" d="M142.72 171.84c.55.68 1.39 1 1.89.8s.45-1-.1-1.68-1.39-1-1.89-.8-.45.99.1 1.68zM154.37 171.69c.92-.15 1.53-.67 1.36-1.15s-1.05-.75-2-.6-1.53.67-1.36 1.15 1.08.76 2 .6zM131 162.77c.94.24 1.8.06 1.93-.41s-.52-1-1.46-1.29-1.8-.06-1.93.41.46 1.05 1.46 1.29zM157.41 162.77c.94.24 1.8.06 1.93-.41s-.52-1-1.46-1.29-1.8-.06-1.93.41.53 1.05 1.46 1.29zM174.88 160.85c.94.24 1.8.06 1.93-.41s-.52-1-1.46-1.29-1.8-.06-1.93.41.53 1.05 1.46 1.29zM138.63 165.53c.94.24 1.8.06 1.93-.41s-.52-1-1.46-1.29-1.8-.06-1.93.41.53 1.05 1.46 1.29zM167.48 167.9c.55.68 1.39 1 1.89.8s.45-1-.1-1.68-1.39-1-1.89-.8-.45.99.1 1.68zM151.22 159.72c.92-.15 1.53-.67 1.36-1.15s-1.05-.75-2-.6-1.53.67-1.36 1.15 1.08.76 2 .6zM164.46 160.56c.92-.15 1.53-.67 1.36-1.15s-1.05-.75-2-.6-1.53.67-1.36 1.15 1.07.75 2 .6zM149 166.29c.92-.15 1.53-.67 1.36-1.15s-1.05-.75-2-.6-1.53.67-1.36 1.15 1 .76 2 .6z"/><ellipse class="cls-14" cx="102.76" cy="59.32" rx="14.28" ry="13.72" transform="matrix(.14 -.99 .99 .14 29.74 152.84)"/><path class="cls-15" d="M81.68 32.12c-2.33.79-5.05 2.63-1.94 3.94.77.33 1.83 1.48 2.33 4.2.77 4.21 2.39 6.92 10.53 8 2.91.37 4.66-.79 7.77-3.15 1.55-1.18 1.79-4.71 0-5.59-3.59-1.71.39-2.78.39-4.2s-.36-5.81-4.66-3.94c-2.72 1.18-2.94 1.81-5.44 1.58s-7.33-1.39-8.98-.84z"/></g></svg>