<svg xmlns="http://www.w3.org/2000/svg" viewBox="0 0 175 175"><defs><style>.cls-1{fill:#bedfe4;}.cls-2{fill:#dd8e98;}.cls-3{clip-path:url(#clip-path);}.cls-4{fill:url(#New_Gradient_Swatch_1);}.cls-5{clip-path:url(#clip-path-2);}.cls-6{fill:#e30613;opacity:0.85;}.cls-7{fill:#cbbba0;}.cls-8{fill:#fff;}.cls-9{fill:url(#linear-gradient);}.cls-10{fill:#ec608a;}.cls-11{fill:url(#New_Gradient_Swatch_2);}.cls-12{fill:#be1622;}.cls-13{fill:#a48a7b;}.cls-14{clip-path:url(#clip-path-3);}.cls-15{clip-path:url(#clip-path-4);}.cls-16{clip-path:url(#clip-path-5);}</style><clipPath id="clip-path"><circle class="cls-1" cx="87.5" cy="87.5" r="87.5"/></clipPath><linearGradient id="New_Gradient_Swatch_1" x1="87.35" y1="31.55" x2="87.35" y2="21.46" gradientUnits="userSpaceOnUse"><stop offset="0" stop-color="#fff"/><stop offset="1" stop-color="#9d9d9c" stop-opacity=".5"/></linearGradient><clipPath id="clip-path-2"><path class="cls-2" d="M-4.81 92c10.73-4.82 40.71-23.5 57-8 9.68 9.24 0 50.18 10.12 53.26 4.58 1.44 14.91-40.26 24.21-39.13 4.34.52 11.33 21.44 15.41 20.69 6.25-1.15 12.26-.19 12.77-2.64 2.64-12.77 3.23-29.8 7.92-35.22 11.45-13.21 37 3 53 6 36.33 6.76 26.41 88.47-44.78 92.9s-98.68 5.14-122.55-8.64c-17.29-9.95-43.1-65.73-13.1-79.22z"/></clipPath><linearGradient id="linear-gradient" x1="86.73" y1="34" x2="86.73" y2="151" gradientUnits="userSpaceOnUse"><stop offset="0" stop-color="#7d4e24"/><stop offset=".01" stop-color="#8a5b30"/><stop offset=".03" stop-color="#a87a4c"/><stop offset=".05" stop-color="#c29665"/><stop offset=".08" stop-color="#d8ac78"/><stop offset=".11" stop-color="#e8bd88"/><stop offset=".15" stop-color="#f4c892"/><stop offset=".2" stop-color="#facf98"/><stop offset=".35" stop-color="#fcd19a"/></linearGradient><linearGradient id="New_Gradient_Swatch_2" x1="86.09" y1="46.11" x2="86.09" y2="141.5" gradientUnits="userSpaceOnUse"><stop offset="0" stop-color="#fbdcd4"/><stop offset=".14" stop-color="#ec608a"/><stop offset=".5" stop-color="#e84251"/><stop offset=".52" stop-color="#df3947"/><stop offset=".58" stop-color="#d02936"/><stop offset=".64" stop-color="#c61e2b"/><stop offset=".74" stop-color="#c01824"/><stop offset="1" stop-color="#be1622"/></linearGradient><clipPath id="clip-path-3"><circle class="cls-1" cx="295.5" cy="87.5" r="87.5"/></clipPath><clipPath id="clip-path-4"><path class="cls-2" d="M183.58 80c13.35-6 37-8.86 65.88-9.33 14.09-.23 34.39 12.55 45.47.93 8.42-8.84 14.74-16.42 27.79-16.42 16.91 0 18.14 17.7 33.41 20 56.83 8.58 52.78 107.13-41.53 111.06-68.16 2.84-95.66-17.33-118.49-30.48-16.52-9.54-41.23-62.9-12.53-75.76z"/></clipPath><clipPath id="clip-path-5"><circle class="cls-1" cx="-136.5" cy="87.5" r="87.5"/></clipPath></defs><title>priodent</title><circle class="cls-1" cx="87.5" cy="87.5" r="87.5"/><g class="cls-3"><path class="cls-4" d="M59.41 26a93.1 93.1 0 0 1 27.32-4.44c13.45-.18 20-.21 28.45 5.7 1.89 1.32-23.34 4.33-29.57 4.33s-22.92-4.16-26.2-5.59z"/><path class="cls-2" d="M-4.81 92c10.73-4.82 40.71-23.5 57-8 9.68 9.24 0 50.18 10.12 53.26 4.58 1.44 14.91-40.26 24.21-39.13 4.34.52 11.33 21.44 15.41 20.69 6.25-1.15 12.26-.19 12.77-2.64 2.64-12.77 3.23-29.8 7.92-35.22 11.45-13.21 37 3 53 6 36.33 6.76 26.41 88.47-44.78 92.9s-98.68 5.14-122.55-8.64c-17.29-9.95-43.1-65.73-13.1-79.22z"/><g class="cls-5"><path class="cls-6" d="M57.87 17.88c-13.24 4.91-74.68 66.49-76.56 69.68-12.77 21.57 50-15.63 66.91.44 8.8 8.36 1.32 49.74 9.24 64.27 8.56 15.69 20.69 0 20.48-16.11 1.65-5.14 4-19.63 9-19.55 5.89-.21 8.13 14.46 8.36 18 .48 7.33 2 23.77 12.77 23.77 8.28 0 13.21-23.33 12.77-48-.23-12.88 3.56-21.54 6.16-25.53 6.6-10.12 55.61 7.19 64.71 9.24 5.47 1.24-61.53-37-60.78-41.75 2.81-17.7-4-31-10.27-33.55-16.39-6.48-22.99 3.21-34.1 3.21-14.4 0-17.47-8.27-28.69-4.12z"/><path class="cls-7" d="M-30.14 148.75c.62.85 29.2 21.72 28 27-4.13 17.25-7.86 37.51-3.23 52.16 5.37 17.27 21.94 10.09 24.37-3.12.79-2.08 133.67-8 176.2-2.52 62.51 8 3.5-107.9 7-107.85-8.8-11.45-31.84-18-65.15-18-10.56 0-10.56 7.48-10.12 18.93 1.23 31.87-9.4 55.15-21.57 51.5-22-6.6-8.82-36.26-18.49-37-5.51-.41-5.63 16.74-9.24 26.85-4.32 12.3-13.97 10.21-16.63 10.1-10.12-.44-15.14-19.49-15-29.05.44-23.77 4.84-39.62-4-41.82-19.71-4.93-94.34 22.22-72.14 52.82z"/></g><path class="cls-8" d="M59 26.36c-13.22 5.33-15.85 29.64 1 59.43.47.83 1.69 2.9.75 8-3.12 16.87-5.93 36.6-2.44 50.88 4.12 16.83 13.1 8.24 15.1-2.43 1.48-5 6.37-43.62 13.13-43.62 8.13-.11 12.74 37.52 13 41 .43 7.15 2.65 15.07 8.25 15s8.8-24.87 7.29-42.28c-1.41-16.23-1.83-19.81-.74-24.47.48-2.06 8.7-18.66 10-27.83 2.51-17.25-3.54-30.24-9.19-32.7-14.68-6.39-20.59 3.09-30.52 3.09-12.86-.02-15.63-8.12-25.63-4.07z"/><path class="cls-9" d="M62.37 36.51c-8.33 3.9-11 17-2.11 41.83 2.11 5.91 6.34 11.41 3.38 22.39-4 14.82-5.9 29.69-2.75 42.46 3.71 15 9.54 5 10.77-2.32 1.34-4.48 3.81-48.17 15.64-49.43 11.41 0 14 38.23 14.5 43.95.93 11 2.74 14.66 4.77 15 4.7.67 6.71-20.53 5.18-36.08-1.62-16.38-2.88-18.86-2.15-24.26.95-7 5-12.79 7-20.84 4.44-18.38 1.78-31.37-5.49-33.9-10.92-3.8-16.49 2.32-25.45 2.32-11.66-.06-14.47-5.25-23.29-1.12z"/><path class="cls-10" d="M64.9 44.44c-6.39 3-6.71 10.3.74 27.67 3.49 8.13 2 20.81 1.8 22.29-1.47 12.31-4.44 48.8-1.8 48.9 2.24.09 1.69-11.59 2.64-17.22 1.27-24.5 4.22-50.28 17.32-50.28 19.86-.84 18.59 40.14 20.28 53.66.3 2.38-.26 14.91 2.11 15.21 1.69.22.86-21.34-.32-33.27-1.24-12.56-3.17-19.12-2.43-24.93a42.19 42.19 0 0 1 1.9-12.15c4.59-13.73 8-26.93.63-30.52-8-3.87-14.58 6.23-22.92 5.7-8.85-.56-13.18-8.24-19.95-5.06z"/><path class="cls-11" d="M66.77 47.49c-5.82 2.73-6.11 9.39.67 25.23 3.18 7.42 1.8 19 1.64 20.32-1.34 11.23-4.33 47.4-3.12 47.4s.4-13 1.27-18.17c1.16-22.34 4.54-48.74 19.12-49.38 14.73.79 18.1 21.26 20.12 50.06.15 2.18 1.11 18.54 1.11 18.54 1.54.2.12-20.65-1-31.53-1.13-11.45-3.74-18.85-3.06-24.15a38.47 38.47 0 0 1 1.73-11.08c4.18-12.52 7.32-24.56.58-27.83-7.23-3.51-13.25 5.7-20.83 5.22-8.13-.52-12.06-7.52-18.23-4.63z"/><path class="cls-12" d="M77.63 51.83c0 3.23.21 6.38-3 8.21-1 .57-2.22.65-3.14 1.35-2.12 1.61-2.11 5.09-2.22 7.45 0 .61.92.61 1 0 .1-2.08 0-5.33 1.89-6.74 1-.71 2.31-.79 3.32-1.45 3.42-2.22 3.19-5.09 3.13-8.81a.48.48 0 0 0-1 0zM73.13 61.09a20.45 20.45 0 0 0-2.21-4.21c-1-1.31-2.39-3.16-1.28-4.82.34-.51-.48-1-.82-.48a4.1 4.1 0 0 0 0 3.87 23.62 23.62 0 0 0 2 2.8 19.49 19.49 0 0 1 1.54 3.32c.25.56 1.07.08.82-.48zM67.09 62.19c0 3.07 1.94 9 6 6.6a5.52 5.52 0 0 0 1.7-1.79c1-1.43 1.67-2.16 3.41-2.43.85-.13 2.24.12 2.74-.77a.48.48 0 0 0-.82-.48c-.23.41-2 .27-2.57.38a5 5 0 0 0-2.28 1c-1.3 1.06-1.59 3.48-3.57 3.69-2.49.26-3.68-4.47-3.68-6.19a.48.48 0 0 0-1 0zM69.08 68a38.48 38.48 0 0 0 .27 7.8c.4 2 1.2 3.69 1.31 5.74.13 2.32-.44 4.47-.63 6.74-.05.61.9.61 1 0 .33-4 1-7.08-.18-11-.94-3-.79-6.15-.77-9.3a.48.48 0 0 0-1 0zM92.12 54.6c.43 1.88 2.85 3 4.58 3.34 1.46.29 2.81.34 4.1 1.2 1.13.76 2.26 1.51 3.37 2.29.5.35 1-.47.48-.82-1.49-1-3.2-2.63-4.91-3.26-2-.75-6-.1-6.7-3-.14-.6-1.05-.34-.92.25zM100.23 57.64c0-2.33.42-5-1.2-6.88-.39-.47-1.06.21-.67.67 1.38 1.64.92 4.23.92 6.21a.48.48 0 0 0 1 0zM103.36 49.64c.39.54.89.95 1.3 1.47 1.38 1.76 1.42 3.1 1.07 5.27a4.93 4.93 0 0 1-1.06 2.75c-.42.44-.89.51-1.14 1.05s.56 1 .82.48l1.42-1.41a9.38 9.38 0 0 0 1.11-3.77c.44-2.94-1.12-4.16-2.7-6.32-.36-.49-1.18 0-.82.48zM104.14 60.38a42 42 0 0 1-2.31 13.38 18.62 18.62 0 0 0-.2 10c.13.6 1 .35.92-.25a18.76 18.76 0 0 1 .69-10.73 36.1 36.1 0 0 0 1.87-12.38.48.48 0 0 0-1 0zM104.53 67.69c.93-1.12 2.71-2.21 3.12-3.66.3-1.05 0-2.28.38-3.31.22-.57-.7-.82-.92-.25a11.63 11.63 0 0 0-.32 2.77c-.17 1.57-2 2.61-2.94 3.78-.39.47.28 1.14.67.67zM103.39 71.45a5.81 5.81 0 0 0-3.06-4c-2.81-1.42-8.53-.91-9.62-4.62a.48.48 0 0 0-.92.25c1.69 5.79 11.7 2.36 12.67 8.66.09.6 1 .35.92-.25zM97.64 66.27c-.67-1.24-.54-2.9-1.46-4a23.52 23.52 0 0 0-1.84-1.54 20.3 20.3 0 0 0-1.74-1.61c-.49-.37-1 .46-.48.82.69.52 1.21 1.2 1.86 1.77s1.29.81 1.66 1.43c.63 1.05.56 2.48 1.17 3.6.29.54 1.11.06.82-.48zM81.08 64.1a10.72 10.72 0 0 0 2.74-2.59 7.16 7.16 0 0 0 .56-3.87.48.48 0 0 0-1 0c0 1.36.14 2.72-.77 3.83a14.76 14.76 0 0 1-2.26 2c-.47.39.2 1.06.67.67zM84.13 61.92a6.1 6.1 0 0 0 3.46-.62 3.08 3.08 0 0 0 1-1c.29-.48.26-1.11.6-1.55s-.46-1-.82-.48c-.54.72-.37 1.61-1.2 2.19a5 5 0 0 1-3 .53.48.48 0 0 0 0 1z"/><ellipse class="cls-13" cx="17.97" cy="109.01" rx="1.1" ry="1.42"/><path class="cls-13" d="M41.86 106.61a1.81 1.81 0 0 0-2-.38c-.43.35-.22 1.07.47 1.63a1.81 1.81 0 0 0 2 .38c.42-.34.22-1.07-.47-1.63zM30.46 109.28c-.87.35-1.36 1-1.08 1.42s1.2.51 2.07.16 1.36-1 1.08-1.42-1.2-.51-2.07-.16zM26.55 102.38c-1 0-1.78.33-1.81.82s.74.91 1.71.95 1.78-.33 1.81-.82-.74-.92-1.71-.95zM18.43 115.84a1.81 1.81 0 0 0-2-.38c-.43.35-.22 1.07.47 1.63a1.81 1.81 0 0 0 2 .38c.43-.34.22-1.07-.47-1.63zM7 118.51c-.87.35-1.36 1-1.08 1.42s1.2.51 2.07.16 1.36-1 1.08-1.42-1.16-.51-2.07-.16zM3.13 111.61c-1 0-1.78.33-1.81.82s.74.91 1.71.95 1.78-.33 1.81-.82-.74-.92-1.71-.95z"/><ellipse class="cls-13" cx="13.96" cy="127.33" rx="1.42" ry="1.1" transform="translate(-112.64 107.88) rotate(-75.01)"/><path class="cls-13" d="M37.66 131.2c-.52-.71-1.35-1.11-1.86-.89s-.49 1 0 1.69 1.35 1.11 1.86.89.52-.98 0-1.69zM26 130.82c-.93.11-1.56.6-1.42 1.1s1 .8 2 .69 1.56-.6 1.42-1.1-1.11-.8-2-.69zM24 123.14c-.93-.28-1.81-.14-2 .33s.48 1.07 1.41 1.36 1.81.14 2-.33-.51-1.07-1.41-1.36zM12.64 134.05c-.52-.71-1.35-1.11-1.86-.89s-.49 1 0 1.69 1.35 1.11 1.86.89.53-.98 0-1.69zM.95 133.68c-.93.11-1.56.6-1.42 1.1s1 .8 2 .69 1.56-.6 1.42-1.1-1.07-.8-2-.69zM-1 126c-.93-.28-1.81-.14-2 .33s.48 1.07 1.41 1.36 1.81.14 2-.33-.53-1.08-1.41-1.36z"/><ellipse class="cls-13" cx="161.41" cy="105.85" rx="1.42" ry="1.1" transform="translate(17.41 234.37) rotate(-75.01)"/><path class="cls-13" d="M173.41 109.34c-.93.11-1.56.6-1.42 1.1s1 .8 2 .69 1.56-.6 1.42-1.1-1.07-.8-2-.69zM171.41 101.66c-.93-.28-1.81-.14-2 .33s.48 1.07 1.41 1.36 1.81.14 2-.33-.48-1.08-1.41-1.36z"/><ellipse class="cls-13" cx="136.39" cy="108.7" rx="1.42" ry="1.1" transform="translate(-3.89 212.33) rotate(-75.01)"/><path class="cls-13" d="M160.09 112.57c-.52-.71-1.35-1.11-1.86-.89s-.49 1 0 1.69 1.35 1.11 1.86.89.52-.98 0-1.69zM148.39 112.19c-.93.11-1.56.6-1.42 1.1s1 .8 2 .69 1.56-.6 1.42-1.1-1.07-.8-2-.69zM146.4 104.51c-.93-.28-1.81-.14-2 .33s.48 1.07 1.41 1.36 1.81.14 2-.33-.48-1.07-1.41-1.36z"/><ellipse class="cls-13" cx="29.53" cy="160.63" rx="1.42" ry="1.1" transform="translate(-128.01 117.56) rotate(-64.29)"/><path class="cls-13" d="M52.1 168.83c-.38-.8-1.12-1.34-1.66-1.22s-.66.87-.29 1.67 1.12 1.34 1.66 1.22.67-.87.29-1.67zM40.67 166.29c-.94-.06-1.65.3-1.59.81s.86 1 1.79 1 1.65-.3 1.59-.81-.85-.93-1.79-1zM40.14 158.38c-.86-.45-1.75-.47-2 0s.27 1.14 1.13 1.6 1.75.47 2 0-.27-1.15-1.13-1.6z"/><ellipse class="cls-13" cx="4.42" cy="158.78" rx="1.42" ry="1.1" transform="translate(-140.56 93.89) rotate(-64.29)"/><path class="cls-13" d="M27 167c-.38-.8-1.12-1.34-1.66-1.22s-.66.87-.29 1.67 1.12 1.34 1.66 1.22.66-.89.29-1.67zM15.57 164.45c-.94-.06-1.65.3-1.59.81s.86 1 1.79 1 1.65-.3 1.59-.81-.86-.94-1.79-1zM15 156.53c-.86-.45-1.75-.47-2 0s.27 1.14 1.13 1.6 1.75.47 2 0-.24-1.13-1.13-1.6z"/><ellipse class="cls-13" cx="85.08" cy="171.06" rx="1.42" ry="1.1" transform="translate(-101.95 210.04) rotate(-75.33)"/><ellipse class="cls-13" cx="83.22" cy="147.87" rx="1.42" ry="1.1" transform="matrix(.25 -.97 .97 .25 -80.91 190.91)"/><ellipse class="cls-13" cx="86.3" cy="139.07" rx="1.42" ry="1.1" transform="translate(-70.09 187.32) rotate(-75.33)"/><ellipse class="cls-13" cx="33.69" cy="169.88" rx="1.42" ry="1.1" transform="translate(-139.18 159.44) rotate(-75.33)"/><ellipse class="cls-13" cx="47.96" cy="160.91" rx="1.42" ry="1.1" transform="translate(-119.85 166.55) rotate(-75.33)"/><path class="cls-13" d="M108.8 174.79c-.53-.71-1.36-1.1-1.86-.88s-.49 1 0 1.69 1.36 1.1 1.86.88.53-.98 0-1.69zM84.57 160.45c-.53-.71-1.36-1.1-1.86-.88s-.49 1 0 1.69 1.36 1.1 1.86.88.52-.98 0-1.69zM122.64 164.85c-.53-.71-1.36-1.1-1.86-.88s-.49 1 0 1.69 1.36 1.1 1.86.88.53-.98 0-1.69zM97.1 174.48c-.93.12-1.56.61-1.41 1.1s1 .8 2 .68 1.56-.61 1.41-1.1-1.1-.79-2-.68zM113.09 169.65c-.93.12-1.56.61-1.41 1.1s1 .8 2 .68 1.56-.61 1.41-1.1-1.09-.8-2-.68zM78.76 166.35c-.93.12-1.56.61-1.41 1.1s1 .8 2 .68 1.56-.61 1.41-1.1-1.07-.8-2-.68zM88 153.14c-.93.12-1.56.61-1.41 1.1s1 .8 2 .68 1.56-.61 1.41-1.1-1.07-.82-2-.68zM95.07 166.81c-.93-.28-1.81-.13-2 .34s.48 1.07 1.41 1.35 1.81.13 2-.34-.48-1.07-1.41-1.35zM24.55 172.16c-.93-.28-1.81-.13-2 .34s.48 1.07 1.41 1.35 1.81.13 2-.34-.48-1.08-1.41-1.35zM44.53 174.76c-.93-.28-1.81-.13-2 .34s.48 1.07 1.41 1.35 1.81.13 2-.34-.48-1.11-1.41-1.35z"/><ellipse class="cls-13" cx="60.09" cy="174.05" rx="1.42" ry="1.1" transform="translate(-123.51 188.09) rotate(-75.33)"/><path class="cls-13" d="M70.07 169.81c-.93-.28-1.81-.13-2 .34s.48 1.07 1.41 1.35 1.81.13 2-.34-.48-1.07-1.41-1.35z"/><ellipse class="cls-13" cx="21.3" cy="142" rx="1.42" ry="1.1" transform="translate(-121.38 125.84) rotate(-75.01)"/><path class="cls-13" d="M45 145.87c-.52-.71-1.35-1.11-1.86-.89s-.49 1 0 1.69 1.35 1.11 1.86.89.52-.98 0-1.69zM33.3 145.5c-.93.11-1.56.6-1.42 1.1s1 .8 2 .69 1.56-.6 1.42-1.1-1.07-.8-2-.69zM31.31 137.82c-.93-.28-1.81-.14-2 .33s.48 1.07 1.41 1.36 1.81.14 2-.33-.48-1.08-1.41-1.36zM38.79 119.48c-.93-.28-1.81-.14-2 .33s.48 1.07 1.41 1.36 1.81.14 2-.33-.48-1.07-1.41-1.36zM27.66 150.26c-.93-.28-1.81-.14-2 .33s.48 1.07 1.41 1.36 1.81.14 2-.33-.48-1.08-1.41-1.36zM28.25 116.21c-.93-.28-1.81-.14-2 .33s.48 1.07 1.41 1.36 1.81.14 2-.33-.49-1.07-1.41-1.36zM42 137.64c-.93-.28-1.81-.14-2 .33s.48 1.07 1.41 1.36 1.81.14 2-.33-.41-1.08-1.41-1.36zM20 148.72c-.52-.71-1.35-1.11-1.86-.89s-.49 1 0 1.69 1.35 1.11 1.86.89.5-.97 0-1.69zM8.28 148.35c-.93.11-1.56.6-1.42 1.1s1 .8 2 .69 1.56-.6 1.42-1.1-1.06-.8-2-.69zM22.69 156.23c-.93.11-1.56.6-1.42 1.1s1 .8 2 .69 1.56-.6 1.42-1.1-1.07-.8-2-.69zM38.48 151.16c-.93.11-1.56.6-1.42 1.1s1 .8 2 .69 1.56-.6 1.42-1.1-1.06-.85-2-.69zM6.29 140.67c-.93-.28-1.81-.14-2 .33s.48 1.07 1.41 1.36 1.81.14 2-.33-.48-1.03-1.41-1.36z"/><ellipse class="cls-13" cx="157.44" cy="120.14" rx="1.42" ry="1.1" transform="translate(.66 241.14) rotate(-75.01)"/><path class="cls-13" d="M169.44 123.64c-.93.11-1.56.6-1.42 1.1s1 .8 2 .69 1.56-.6 1.42-1.1-1.07-.81-2-.69zM167.45 116c-.93-.28-1.81-.14-2 .33s.48 1.07 1.41 1.36 1.81.14 2-.33-.48-1.12-1.41-1.36zM154.58 101.47c-.93-.28-1.81-.14-2 .33s.48 1.07 1.41 1.36 1.81.14 2-.33-.48-1.08-1.41-1.36zM163.8 128.39c-.93-.28-1.81-.14-2 .33s.48 1.07 1.41 1.36 1.81.14 2-.33-.48-1.07-1.41-1.36zM136.76 100.15c-.93-.28-1.81-.14-2 .33s.48 1.07 1.41 1.36 1.81.14 2-.33-.49-1.08-1.41-1.36z"/><ellipse class="cls-13" cx="132.43" cy="123" rx="1.42" ry="1.1" transform="translate(-20.64 219.1) rotate(-75.01)"/><path class="cls-13" d="M156.13 126.86c-.52-.71-1.35-1.11-1.86-.89s-.49 1 0 1.69 1.35 1.11 1.86.89.52-.97 0-1.69zM144.43 126.49c-.93.11-1.56.6-1.42 1.1s1 .8 2 .69 1.56-.6 1.42-1.1-1.07-.8-2-.69zM158.83 134.37c-.93.11-1.56.6-1.42 1.1s1 .8 2 .69 1.56-.6 1.42-1.1-1.07-.8-2-.69zM174.63 129.3c-.93.11-1.56.6-1.42 1.1s1 .8 2 .69 1.56-.6 1.42-1.1-1.07-.8-2-.69zM142.44 118.81c-.93-.28-1.81-.14-2 .33s.48 1.07 1.41 1.36 1.81.14 2-.33-.49-1.08-1.41-1.36z"/><ellipse class="cls-13" cx="165.23" cy="148.57" rx="1.42" ry="1.1" transform="translate(-36.61 241.49) rotate(-66.68)"/><ellipse class="cls-13" cx="133.1" cy="137.42" rx="1.42" ry="1.1" transform="translate(-45.79 205.25) rotate(-66.68)"/><path class="cls-13" d="M142.34 141.31c.41.78 1.18 1.29 1.71 1.15s.63-.9.22-1.68-1.18-1.29-1.71-1.15-.63.9-.22 1.68zM153.86 143.37c.94 0 1.64-.37 1.56-.88s-.9-.94-1.83-1-1.64.37-1.56.88.89.98 1.83 1zM130.9 153.14c.94 0 1.64-.37 1.56-.88s-.9-.94-1.83-1-1.64.37-1.56.88.93.98 1.83 1zM154.72 151.26c.88.42 1.77.4 2 0s-.32-1.13-1.2-1.55-1.77-.4-2 0 .32 1.14 1.2 1.55zM172 150c.88.42 1.77.4 2 0s-.32-1.13-1.2-1.55-1.77-.4-2 0 .28 1.12 1.2 1.55zM176.14 136.56c.88.42 1.77.4 2 0s-.32-1.13-1.2-1.55-1.77-.4-2 0 .32 1.13 1.2 1.55zM139.17 155c.88.42 1.77.4 2 0s-.32-1.13-1.2-1.55-1.77-.4-2 0 .32 1.18 1.2 1.55zM136.13 146.73c.88.42 1.77.4 2 0s-.32-1.13-1.2-1.55-1.77-.4-2 0 .32 1.13 1.2 1.55zM144.07 149.89c.88.42 1.77.4 2 0s-.32-1.13-1.2-1.55-1.77-.4-2 0 .33 1.13 1.2 1.55zM139.51 134.32c.88.42 1.77.4 2 0s-.32-1.13-1.2-1.55-1.77-.4-2 0 .32 1.13 1.2 1.55zM167.51 142.11c.41.78 1.18 1.29 1.71 1.15s.63-.9.22-1.68-1.18-1.29-1.71-1.15-.64.9-.22 1.68zM165.91 134.29c.94 0 1.64-.37 1.56-.88s-.9-.94-1.83-1-1.64.37-1.56.88.92.98 1.83 1zM149.55 137c.94 0 1.64-.37 1.56-.88s-.9-.94-1.83-1-1.64.37-1.56.88.89 1 1.83 1z"/><ellipse class="cls-13" cx="160.08" cy="167.18" rx="1.42" ry="1.1" transform="translate(-37.7 287.43) rotate(-77.54)"/><ellipse class="cls-13" cx="130.68" cy="167.35" rx="1.42" ry="1.1" transform="translate(-60.92 258.85) rotate(-77.54)"/><path class="cls-13" d="M140.49 169.43c.55.69 1.4 1 1.89.8s.45-1-.1-1.69-1.4-1-1.89-.8-.46 1 .1 1.69zM152.19 169.28c.93-.15 1.54-.67 1.37-1.16s-1.06-.76-2-.6-1.54.67-1.37 1.16 1.07.76 2 .6zM128.06 176.33c.93-.15 1.54-.67 1.37-1.16s-1.06-.76-2-.6-1.54.67-1.37 1.16 1.07.76 2 .6zM128.68 160.31c.94.24 1.81.06 1.94-.41s-.52-1.05-1.47-1.29-1.81-.06-1.94.41.53 1.05 1.47 1.29zM155.24 160.31c.94.24 1.81.06 1.94-.41s-.52-1.05-1.47-1.29-1.81-.06-1.94.41.53 1.05 1.47 1.29zM172.79 158.39c.94.24 1.81.06 1.94-.41s-.52-1.05-1.47-1.29-1.81-.06-1.94.41.53 1.04 1.47 1.29zM135.41 175.91c.94.24 1.81.06 1.94-.41s-.52-1.05-1.47-1.29-1.81-.06-1.94.41.53 1.05 1.47 1.29zM146 175.28c.94.24 1.81.06 1.94-.41s-.52-1.05-1.47-1.29-1.81-.06-1.94.41.53 1.01 1.47 1.29zM136.38 163.09c.94.24 1.81.06 1.94-.41s-.52-1.05-1.47-1.29-1.81-.06-1.94.41.53 1.05 1.47 1.29zM165.35 165.47c.55.69 1.4 1 1.89.8s.45-1-.1-1.69-1.4-1-1.89-.8-.45 1 .1 1.69zM149 157.25c.93-.15 1.54-.67 1.37-1.16s-1.06-.76-2-.6-1.54.67-1.37 1.16 1.1.76 2 .6zM162.31 158.09c.93-.15 1.54-.67 1.37-1.16s-1.06-.76-2-.6-1.54.67-1.37 1.16 1.08.75 2 .6zM146.76 163.86c.93-.15 1.54-.67 1.37-1.16s-1.06-.76-2-.6-1.54.67-1.37 1.16 1.07.74 2 .6z"/></g><circle class="cls-1" cx="295.5" cy="87.5" r="87.5"/><g class="cls-14"><path class="cls-2" d="M183.58 80c13.35-6 37-8.86 65.88-9.33 14.09-.23 34.39 12.55 45.47.93 8.42-8.84 14.74-16.42 27.79-16.42 16.91 0 18.14 17.7 33.41 20 56.83 8.58 52.78 107.13-41.53 111.06-68.16 2.84-95.66-17.33-118.49-30.48-16.52-9.54-41.23-62.9-12.53-75.76z"/><path class="cls-7" d="M159.35 134.24c.59.81 27.93 20.77 26.74 25.78-3.92 16.56-7.45 35.92-3.06 49.93 5.18 16.52 21 9.64 23.36-3 .75-2 127.84-7.61 168.52-2.41 59.79 7.63 15.44-114.12-12.21-119.09-21.05-3.78-17.7-15.15-39.15-21.05-4.48-1.23-6.5 11.53-16.42 15.3-16.28 6.17-14 17.68-7.86 25.26 3.05 3.74-3.65 44.07-18.67 38.17-13.17-5.17-9.5-40.62-14.74-39.58-1.4.28-5.59 25.62-8.84 35.37-2.53 7.58-10.81 7.58-13.89 6.74-9.35-2.55-9.72-26.25-10.53-35.37-1.25-14.29 3.4-25.29-5.04-27.36-18.9-4.73-89.44 22.07-68.21 51.31z"/></g><circle class="cls-1" cx="-136.5" cy="87.5" r="87.5"/><path class="cls-2" d="M-221.9 89.12c26.95-12.12 109.9-15.84 169.57-4.73 34.15 6.35 22.91 91.66-44 95.83s-90.82-3.72-113.25-16.64c-16.24-9.35-40.52-61.78-12.32-74.46z"/></svg>