<svg xmlns="http://www.w3.org/2000/svg" xmlns:xlink="http://www.w3.org/1999/xlink" viewBox="0 0 175 175"><defs><style>.cls-1{fill:#bedfe4;}.cls-2{fill:#dd8e98;}.cls-3{clip-path:url(#clip-path);}.cls-4{clip-path:url(#clip-path-2);}.cls-5{fill:#cbbba0;}.cls-6{clip-path:url(#clip-path-3);}.cls-7{clip-path:url(#clip-path-4);}.cls-8{fill:#8d3b53;opacity:0.26;}.cls-9{fill:url(#New_Gradient_Swatch_1);}.cls-10{fill:#fff;}.cls-11{fill:url(#linear-gradient);}.cls-12{fill:#ec608a;}.cls-13{fill:url(#linear-gradient-2);}.cls-14{fill:#be1622;}.cls-15{fill:#a48a7b;}.cls-16{fill:#432918;opacity:0.8;}.cls-17{fill:url(#radial-gradient);}.cls-18{fill:url(#radial-gradient-2);}.cls-19{fill:url(#radial-gradient-3);}.cls-20{fill:url(#radial-gradient-4);}.cls-21{fill:url(#radial-gradient-5);}.cls-22{fill:url(#radial-gradient-6);}</style><clipPath id="clip-path"><circle class="cls-1" cx="-119.5" cy="87.5" r="87.5"/></clipPath><clipPath id="clip-path-2"><path class="cls-2" d="M-209 94.8c28.59-12.8 116.43-16.8 179.68-5.01 36.18 6.73 26.29 88-44.6 92.44s-98.24 5.07-122-8.61c-17.2-9.9-42.93-65.4-13.08-78.82z"/></clipPath><clipPath id="clip-path-3"><circle class="cls-1" cx="87.5" cy="87.5" r="87.5"/></clipPath><clipPath id="clip-path-4"><path class="cls-2" d="M2.1 89.12c26.95-12.12 109.9-15.84 169.57-4.73 34.15 6.35 22.91 91.66-44 95.83s-90.82-3.72-113.26-16.64c-16.23-9.35-40.51-61.78-12.31-74.46z"/></clipPath><linearGradient id="New_Gradient_Swatch_1" x1="88.72" y1="32.3" x2="88.72" y2="22.82" gradientUnits="userSpaceOnUse"><stop offset="0" stop-color="#fff"/><stop offset="1" stop-color="#9d9d9c" stop-opacity=".5"/></linearGradient><linearGradient id="linear-gradient" x1="88.14" y1="34.6" x2="88.14" y2="144.57" gradientUnits="userSpaceOnUse"><stop offset="0" stop-color="#7d4e24"/><stop offset=".01" stop-color="#8a5b30"/><stop offset=".03" stop-color="#a87a4c"/><stop offset=".05" stop-color="#c29665"/><stop offset=".08" stop-color="#d8ac78"/><stop offset=".11" stop-color="#e8bd88"/><stop offset=".15" stop-color="#f4c892"/><stop offset=".2" stop-color="#facf98"/><stop offset=".35" stop-color="#fcd19a"/></linearGradient><linearGradient id="linear-gradient-2" x1="121.98" y1="72.16" x2="41.64" y2="118.55" gradientUnits="userSpaceOnUse"><stop offset="0" stop-color="#fbdcd4"/><stop offset=".12" stop-color="#ec608a"/><stop offset=".35" stop-color="#be1622"/><stop offset=".36" stop-color="#b31821"/><stop offset=".42" stop-color="#901d1e"/><stop offset=".48" stop-color="#74211c"/><stop offset=".55" stop-color="#5e251a"/><stop offset=".62" stop-color="#4f2719"/><stop offset=".7" stop-color="#462918"/><stop offset=".82" stop-color="#432918"/></linearGradient><radialGradient id="radial-gradient" cx="57.44" cy="156.06" r="4.77" gradientUnits="userSpaceOnUse"><stop offset="0" stop-color="#fbdcd4"/><stop offset=".23" stop-color="#ec608a"/><stop offset=".62" stop-color="#e84251"/><stop offset=".63" stop-color="#df3947"/><stop offset=".68" stop-color="#d02936"/><stop offset=".73" stop-color="#c61e2b"/><stop offset=".8" stop-color="#c01824"/><stop offset="1" stop-color="#be1622"/></radialGradient><radialGradient id="radial-gradient-2" cx="52.48" cy="159.37" r="4.77" gradientUnits="userSpaceOnUse"><stop offset="0" stop-color="#fbdcd4"/><stop offset=".14" stop-color="#ec608a"/><stop offset=".5" stop-color="#e84251"/><stop offset=".52" stop-color="#df3947"/><stop offset=".58" stop-color="#d02936"/><stop offset=".64" stop-color="#c61e2b"/><stop offset=".74" stop-color="#c01824"/><stop offset="1" stop-color="#be1622"/></radialGradient><radialGradient id="radial-gradient-3" cx="63.97" cy="158.76" r="3.05" xlink:href="#radial-gradient-2"/><radialGradient id="radial-gradient-4" cx="72.12" cy="161.2" r="3.05" xlink:href="#radial-gradient-2"/><radialGradient id="radial-gradient-5" cx="66.91" cy="162.6" r="3.15" xlink:href="#radial-gradient-2"/><radialGradient id="radial-gradient-6" cx="911.27" cy="-204.35" r="4.77" gradientTransform="matrix(.64 -.56 .75 .86 -371.3 849.97)" xlink:href="#radial-gradient-2"/></defs><title>shoresh</title><circle class="cls-1" cx="-119.5" cy="87.5" r="87.5"/><g class="cls-3"><path class="cls-2" d="M-209 94.8c28.59-12.8 116.43-16.8 179.68-5.01 36.18 6.73 26.29 88-44.6 92.44s-98.24 5.07-122-8.61c-17.2-9.9-42.93-65.4-13.08-78.82z"/><path class="cls-5" d="M-234.19 151.26c.61.85 29.08 21.61 27.85 26.82-4.08 17.22-7.76 37.37-3.19 51.95 5.39 17.18 21.85 10 24.32-3.11.78-2.07 133.11-7.92 175.46-2.51 62.25 7.94 3.49-107.41 7.01-107.31-8.77-11.39-31.71-18-64.88-18-10.52 0-10.52 7.45-10.08 18.83 1.22 31.71-9.36 54.88-21.48 51.25-21.92-6.57-8.78-36.08-18.41-36.79-5.49-.41-5.61 16.66-9.21 26.72-4.38 12.26-14 10.19-16.66 10.07-10.08-.44-15.08-19.39-14.9-28.91.44-23.65 4.82-39.42-3.95-41.61-19.69-4.87-93.99 22.15-71.88 52.6z"/></g><circle class="cls-1" cx="87.5" cy="87.5" r="87.5"/><g class="cls-6"><path class="cls-2" d="M2.1 89.12c26.95-12.12 109.9-15.84 169.57-4.73 34.15 6.35 22.91 91.66-44 95.83s-90.82-3.72-113.26-16.64c-16.23-9.35-40.51-61.78-12.31-74.46z"/><g class="cls-7"><path class="cls-8" d="M59.09 27.45c-12.45 4.61-42.09 45.06-15.42 38.05 5.24-1.38 9.76 3.66 11.59 6.62.49.8 5.38 11.59 3.59 20.41-3.3 16.26-4.77 36.43-1.1 50.2 4.31 16.27 18.25 8.27 20.25-4.11 1.55-4.83 5.43-38.6 10.19-38.52 5.53-.2 9.64 32.77 9.87 36.14.45 6.89.32 14.79 10.48 14.79 7.78 0 11.1-23.89 9.52-40.68-1.48-15.65-1.11-20.53.14-25 2.21-7.86 7.59-23 16.14-21.1 5.14 1.16-7.21.08-6.51-4.34 2.64-16.64-3.71-29.16-9.65-31.54-15.42-6.16-21.63 3-32.07 3-13.6-.01-16.48-7.82-27.02-3.92z"/><path class="cls-5" d="M-21.7 142.46c.58.8 27.45 20.41 26.28 25.33-3.85 16.27-7.32 35.3-3 49.07 5.09 16.23 20.62 9.47 23-2.93.74-2 125.64-7.48 165.61-2.37 58.76 7.5 3.29-101.42 6.62-101.37-8.28-10.76-29.93-17-61.24-17-9.93 0-9.93 7-9.52 17.79 1.15 30-8.84 51.84-20.27 48.41-20.69-6.21-8.29-34.08-17.38-34.76-5.18-.38-5.29 15.73-8.69 25.24-4.14 11.59-13.21 9.63-15.72 9.52-9.52-.41-14.23-18.32-14.07-27.31.41-22.34 4.55-37.24-3.72-39.31-18.62-4.61-88.77 20.92-67.9 49.69z"/></g><path class="cls-9" d="M62.46 27a87.51 87.51 0 0 1 25.67-4.17c12.65-.17 18.8-.2 26.74 5.36 1.78 1.24-21.94 4.07-27.8 4.07s-21.53-3.83-24.61-5.26z"/><path class="cls-10" d="M62.07 27.42c-12.42 5-14.89 27.83 1 55.86.44.78 1.59 2.72.7 7.52-2.93 15.86-5.57 34.4-2.29 47.82 3.87 15.82 12.31 7.74 14.2-2.28 1.39-4.71 6-41 12.34-41 7.64-.1 12 35.27 12.17 38.55.41 6.72 2.49 14.16 7.75 14.06s8.27-23.38 6.85-39.74c-1.32-15.25-1.72-18.62-.69-23 .45-1.93 8.18-17.54 9.43-26.16 2.36-16.21-3.32-28.42-8.64-30.73-13.8-6-19.35 2.9-28.69 2.9-12.12.01-14.7-7.6-24.13-3.8z"/><path class="cls-11" d="M65.24 37c-7.83 3.67-10.33 15.94-2 39.31 2 5.56 6 10.72 3.18 21-3.75 13.93-5.54 27.91-2.58 39.91 3.49 14.14 9 4.71 10.13-2.18 1.25-4.21 3.57-45.28 14.69-46.46 10.72 0 13.17 35.93 13.62 41.31.87 10.32 2.57 13.78 4.48 14.05 4.42.63 6.31-19.3 4.86-33.92-1.52-15.4-2.71-17.72-2-22.8.89-6.58 4.72-12 6.55-19.59 4.17-17.27 1.67-29.48-5.16-31.87-10.26-3.56-15.5 2.24-23.93 2.24-10.92 0-13.54-4.92-21.84-1z"/><path class="cls-12" d="M67.63 44.41c-6 2.81-6.3 9.68.69 26 3.28 7.65 1.85 19.59 1.68 20.96-1.38 11.57-8.13 64.73-5.65 64.83 2.1.08 5.56-29.77 6.45-35.05 1.19-23 4-47.25 16.28-47.25 18.66-.79 17.47 37.72 19.06 50.43.28 2.24-.24 14 2 14.3 1.59.2.81-20.06-.3-31.27-1.17-11.81-3-18-2.28-23.43a39.65 39.65 0 0 1 1.79-11.42c4.31-12.91 7.54-25.31.6-28.69-7.49-3.64-13.7 5.86-21.54 5.36-8.41-.53-12.41-7.75-18.78-4.77z"/><path class="cls-13" d="M69.38 47.29c-5.47 2.56-5.75 8.82.62 23.71 3 7 1.69 17.84 1.54 19.1-1.26 10.55-8.33 67.75-7.2 67.75s4.64-35.46 5.45-40.28c1.09-21 4.27-45.82 18-46.41 13.85.74 17 20 18.91 47.06.14 2.05 1 17.42 1 17.42 1.45.18.12-19.41-.89-29.63-1.06-10.76-3.51-17.72-2.88-22.7a36.16 36.16 0 0 1 1.63-10.41c3.93-11.77 6.88-23.08.54-26.16-6.83-3.32-12.49 5.34-19.64 4.89-7.59-.48-11.28-7.06-17.08-4.34z"/><path class="cls-14" d="M79.59 51.36c0 3 .2 6-2.81 7.72-.93.53-2.08.61-2.95 1.27-2 1.51-2 4.79-2.08 7 0 .57.87.57.89 0 .09-2 0-5 1.78-6.33.9-.67 2.17-.75 3.12-1.37 3.22-2.09 3-4.79 2.94-8.29a.45.45 0 0 0-.89 0zM75.36 60.07a19.22 19.22 0 0 0-2.07-4c-.9-1.23-2.25-3-1.2-4.53.32-.48-.45-.93-.77-.45a3.85 3.85 0 0 0 0 3.63 22.2 22.2 0 0 0 1.86 2.63 18.32 18.32 0 0 1 1.44 3.12c.23.52 1 .07.77-.45zM69.68 61.1c0 2.89 1.83 8.47 5.61 6.21a5.19 5.19 0 0 0 1.63-1.7c.92-1.34 1.57-2 3.21-2.28.79-.12 2.11.11 2.58-.72a.45.45 0 0 0-.77-.45c-.22.39-1.92.26-2.41.35a4.72 4.72 0 0 0-2.14.94c-1.22 1-1.49 3.27-3.35 3.47-2.34.25-3.45-4.2-3.46-5.82a.45.45 0 0 0-.89 0zM71.55 66.55a36.17 36.17 0 0 0 .25 7.33c.38 1.84 1.13 3.47 1.24 5.39a44.8 44.8 0 0 1-.6 6.33c0 .57.85.57.89 0 .31-3.71 1-6.66-.17-10.32-.88-2.85-.74-5.78-.72-8.74a.45.45 0 0 0-.89 0zM93.2 54c.4 1.77 2.68 2.81 4.3 3.14a9.71 9.71 0 0 1 3.86 1.13c1.06.71 2.12 1.42 3.17 2.15.47.33.92-.44.45-.77-1.4-1-3-2.47-4.62-3.06-1.89-.7-5.67-.09-6.3-2.82-.13-.56-1-.32-.86.24zM100.83 56.82c0-2.19.39-4.67-1.12-6.47-.37-.44-1 .19-.63.63 1.29 1.54.86 4 .86 5.84a.45.45 0 0 0 .89 0zM103.77 49.3c.37.5.84.89 1.22 1.38 1.3 1.65 1.34 2.92 1 5a4.63 4.63 0 0 1-1 2.58c-.4.41-.83.48-1.07 1s.53 1 .77.45c.15-.31 1.1-1 1.34-1.33a8.82 8.82 0 0 0 1-3.54c.42-2.76-1.05-3.91-2.53-5.94-.34-.46-1.11 0-.77.45zM104.51 59.4a39.49 39.49 0 0 1-2.18 12.6 17.5 17.5 0 0 0-.19 9.39c.12.56 1 .32.86-.24a17.63 17.63 0 0 1 .65-10.15 33.93 33.93 0 0 0 1.75-11.6.45.45 0 0 0-.89 0zM104.87 66.27c.87-1.06 2.55-2.08 2.93-3.44.28-1 0-2.15.36-3.11.21-.54-.66-.77-.86-.24a10.93 10.93 0 0 0-.3 2.6c-.16 1.47-1.86 2.46-2.76 3.55-.36.44.27 1.08.63.63zM103.8 69.8a5.46 5.46 0 0 0-2.87-3.8c-2.64-1.34-8-.86-9-4.34a.45.45 0 0 0-.86.24c1.59 5.44 11 2.21 11.91 8.14.09.57.95.33.86-.24zM98.39 64.93c-.63-1.17-.5-2.73-1.37-3.75a22.11 22.11 0 0 0-1.73-1.45 19.08 19.08 0 0 0-1.63-1.52c-.46-.35-.9.43-.45.77.65.49 1.14 1.13 1.75 1.67s1.21.76 1.56 1.34c.59 1 .53 2.33 1.1 3.38.27.51 1 .06.77-.45zM82.83 62.89a10.08 10.08 0 0 0 2.58-2.44 6.73 6.73 0 0 0 .53-3.64.45.45 0 0 0-.89 0c0 1.28.13 2.55-.73 3.6a13.87 13.87 0 0 1-2.12 1.84c-.44.37.19 1 .63.63zM85.69 60.84a5.74 5.74 0 0 0 3.25-.58 2.89 2.89 0 0 0 .95-1c.27-.46.25-1 .56-1.46s-.43-.91-.77-.45c-.51.68-.34 1.51-1.13 2.06a4.74 4.74 0 0 1-2.85.5.45.45 0 0 0 0 .89z"/><ellipse class="cls-15" cx="23.51" cy="105.11" rx="1.03" ry="1.33"/><path class="cls-15" d="M46 102.85a1.7 1.7 0 0 0-1.9-.35c-.4.32-.21 1 .44 1.53a1.7 1.7 0 0 0 1.9.35c.37-.32.17-1.01-.44-1.53zM35.25 105.36c-.82.33-1.27.93-1 1.34s1.12.48 1.94.15 1.27-.93 1-1.34-1.12-.51-1.94-.15zM31.58 98.87c-.91 0-1.67.31-1.7.77s.69.86 1.61.89 1.67-.31 1.7-.77-.7-.86-1.61-.89z"/><ellipse class="cls-15" cx="1.49" cy="113.78" rx="1.03" ry="1.33"/><path class="cls-15" d="M23.95 111.53a1.7 1.7 0 0 0-1.9-.35c-.4.32-.21 1 .44 1.53a1.7 1.7 0 0 0 1.9.35c.4-.33.2-1.06-.44-1.53zM13.24 114c-.82.33-1.27.93-1 1.34s1.12.48 1.94.15 1.27-.93 1-1.34-1.12-.44-1.94-.15zM9.56 107.55c-.91 0-1.67.31-1.7.77s.69.86 1.61.89 1.67-.31 1.7-.77-.7-.86-1.61-.89z"/><ellipse class="cls-15" cx="19.75" cy="122.32" rx="1.33" ry="1.03" transform="translate(-103.52 109.75) rotate(-75.01)"/><path class="cls-15" d="M42 126c-.49-.67-1.27-1-1.75-.83s-.46.92 0 1.59 1.27 1 1.75.83.51-.96 0-1.59zM31 125.61c-.87.11-1.47.57-1.33 1s1 .75 1.84.65 1.47-.57 1.33-1-.94-.76-1.84-.65zM29.15 118.39c-.87-.27-1.7-.13-1.84.31s.45 1 1.32 1.28 1.7.13 1.84-.31-.47-1.01-1.32-1.28zM18.51 128.64c-.49-.67-1.27-1-1.75-.83s-.46.92 0 1.59 1.27 1 1.75.83.49-.92 0-1.59zM7.51 128.29c-.87.11-1.47.57-1.33 1s1 .75 1.84.65 1.47-.57 1.33-1-.96-.75-1.84-.65zM5.64 121.07c-.87-.27-1.7-.13-1.84.31s.45 1 1.32 1.28 1.7.13 1.84-.31-.45-1.01-1.32-1.28z"/><ellipse class="cls-15" cx="158.33" cy="102.13" rx="1.33" ry="1.03" transform="translate(18.71 228.65) rotate(-75.01)"/><path class="cls-15" d="M169.61 105.41c-.87.11-1.47.57-1.33 1s1 .75 1.84.65 1.47-.57 1.33-1-.97-.75-1.84-.65zM167.73 98.2c-.87-.27-1.7-.13-1.84.31s.45 1 1.32 1.28 1.7.13 1.84-.31-.44-1.02-1.32-1.28z"/><ellipse class="cls-15" cx="134.82" cy="104.81" rx="1.33" ry="1.03" transform="translate(-1.31 207.92) rotate(-75.01)"/><path class="cls-15" d="M157.09 108.45c-.49-.67-1.27-1-1.75-.83s-.46.92 0 1.59 1.27 1 1.75.83.49-.92 0-1.59zM146.1 108.1c-.87.11-1.47.57-1.33 1s1 .75 1.84.65 1.47-.57 1.33-1-.94-.75-1.84-.65zM144.22 100.88c-.87-.27-1.7-.13-1.84.31s.45 1 1.32 1.28 1.7.13 1.84-.31-.44-1.01-1.32-1.28z"/><ellipse class="cls-15" cx="34.38" cy="153.62" rx="1.33" ry="1.03" transform="translate(-118.95 117.96) rotate(-64.29)"/><path class="cls-15" d="M55.59 161.33c-.36-.75-1.06-1.26-1.56-1.14s-.62.82-.27 1.57 1.06 1.26 1.56 1.14.63-.82.27-1.57zM44.85 158.95c-.88-.06-1.55.28-1.5.76s.81.92 1.69 1 1.55-.28 1.5-.76-.81-.95-1.69-1zM44.35 151.5c-.81-.43-1.64-.44-1.87 0s.25 1.07 1.06 1.5 1.64.44 1.87 0-.25-1.07-1.06-1.5z"/><ellipse class="cls-15" cx="10.78" cy="151.89" rx="1.33" ry="1.03" transform="translate(-130.75 95.71) rotate(-64.29)"/><path class="cls-15" d="M32 159.6c-.36-.75-1.06-1.26-1.56-1.14s-.62.82-.27 1.57 1.06 1.26 1.56 1.14.61-.82.27-1.57zM21.25 157.21c-.88-.06-1.55.28-1.5.76s.81.92 1.69 1 1.55-.28 1.5-.76-.81-.94-1.69-1zM20.75 149.77c-.81-.43-1.64-.44-1.87 0s.25 1.07 1.06 1.5 1.64.44 1.87 0-.25-1.08-1.06-1.5z"/><ellipse class="cls-15" cx="86.59" cy="163.42" rx="1.33" ry="1.03" transform="translate(-93.44 205.8) rotate(-75.33)"/><ellipse class="cls-15" cx="84.84" cy="141.63" rx="1.33" ry="1.03" transform="translate(-73.66 187.82) rotate(-75.33)"/><ellipse class="cls-15" cx="87.73" cy="133.35" rx="1.33" ry="1.03" transform="translate(-63.5 184.44) rotate(-75.33)"/><ellipse class="cls-15" cx="38.29" cy="162.32" rx="1.33" ry="1.03" transform="translate(-128.43 158.24) rotate(-75.33)"/><ellipse class="cls-15" cx="51.7" cy="153.89" rx="1.33" ry="1.03" transform="translate(-110.26 164.92) rotate(-75.33)"/><path class="cls-15" d="M108.88 166.93c-.49-.67-1.28-1-1.75-.82s-.46.92 0 1.59 1.28 1 1.75.82.5-.92 0-1.59zM86.11 153.45c-.49-.67-1.28-1-1.75-.82s-.46.92 0 1.59 1.28 1 1.75.82.49-.92 0-1.59zM67.19 173.84c-.49-.67-1.28-1-1.75-.82s-.46.92 0 1.59 1.28 1 1.75.82.49-.93 0-1.59zM121.9 157.59c-.49-.67-1.28-1-1.75-.82s-.46.92 0 1.59 1.28 1 1.75.82.49-.93 0-1.59zM97.89 166.64c-.87.11-1.47.57-1.33 1s1 .75 1.84.64 1.47-.57 1.33-1-.97-.75-1.84-.64zM81.41 174.38c-.87.11-1.47.57-1.33 1s1 .75 1.84.64 1.47-.57 1.33-1-.97-.75-1.84-.64zM99 174.89c-.87.11-1.47.57-1.33 1s1 .75 1.84.64 1.47-.57 1.33-1-.97-.75-1.84-.64zM112.92 162.1c-.87.11-1.47.57-1.33 1s1 .75 1.84.64 1.47-.57 1.33-1-.97-.74-1.84-.64zM131.74 173.38c-.87.11-1.47.57-1.33 1s1 .75 1.84.64 1.47-.57 1.33-1-.96-.75-1.84-.64zM80.65 159c-.87.11-1.47.57-1.33 1s1 .75 1.84.64 1.47-.57 1.33-1-.97-.75-1.84-.64zM89.34 146.58c-.87.11-1.47.57-1.33 1s1 .75 1.84.64 1.47-.57 1.33-1-.97-.75-1.84-.64zM96 159.44c-.88-.26-1.7-.12-1.84.32s.45 1 1.33 1.27 1.7.12 1.84-.32-.48-1.01-1.33-1.27zM119.23 168.56c-.88-.26-1.7-.12-1.84.32s.45 1 1.33 1.27 1.7.12 1.84-.32-.46-1.01-1.33-1.27zM56.34 169c-.88-.26-1.7-.12-1.84.32s.45 1 1.33 1.27 1.7.12 1.84-.32-.46-1.04-1.33-1.27zM29.7 164.46c-.88-.26-1.7-.12-1.84.32s.45 1 1.33 1.27 1.7.12 1.84-.32-.46-1.01-1.33-1.27zM48.47 166.9c-.88-.26-1.7-.12-1.84.32s.45 1 1.33 1.27 1.7.12 1.84-.32-.45-1-1.33-1.27z"/><ellipse class="cls-15" cx="63.1" cy="166.24" rx="1.33" ry="1.03" transform="translate(-113.7 185.17) rotate(-75.33)"/><path class="cls-15" d="M85.39 169.75c-.49-.67-1.28-1-1.75-.82s-.46.92 0 1.59 1.28 1 1.75.82.49-.93 0-1.59zM74.39 169.46c-.87.11-1.47.57-1.33 1s1 .75 1.84.64 1.47-.57 1.33-1-.96-.75-1.84-.64zM72.48 162.25c-.88-.26-1.7-.12-1.84.32s.45 1 1.33 1.27 1.7.12 1.84-.32-.46-1.01-1.33-1.27z"/><ellipse class="cls-15" cx="26.64" cy="136.12" rx="1.33" ry="1.03" transform="translate(-111.73 126.63) rotate(-75.01)"/><path class="cls-15" d="M48.91 139.75c-.49-.67-1.27-1-1.75-.83s-.46.92 0 1.59 1.27 1 1.75.83.49-.92 0-1.59zM37.92 139.4c-.87.11-1.47.57-1.33 1s1 .75 1.84.65 1.47-.57 1.33-1-.96-.76-1.84-.65zM36 132.18c-.87-.27-1.7-.13-1.84.31s.45 1 1.32 1.28 1.7.13 1.84-.31-.4-1.01-1.32-1.28zM43.08 114.95c-.87-.27-1.7-.13-1.84.31s.45 1 1.32 1.28 1.7.13 1.84-.31-.4-1.02-1.32-1.28zM32.62 143.87c-.87-.27-1.7-.13-1.84.31s.45 1 1.32 1.28 1.7.13 1.84-.31-.45-1.01-1.32-1.28zM33.17 111.88c-.87-.27-1.7-.13-1.84.31s.45 1 1.32 1.28 1.7.13 1.84-.31-.49-1.02-1.32-1.28zM46.13 132c-.87-.27-1.7-.13-1.84.31s.45 1 1.32 1.28 1.7.13 1.84-.31-.45-1-1.32-1.28z"/><ellipse class="cls-15" cx="3.13" cy="138.8" rx="1.33" ry="1.03" transform="matrix(.26 -.97 .97 .26 -131.75 105.91)"/><path class="cls-15" d="M25.4 142.43c-.49-.67-1.27-1-1.75-.83s-.46.92 0 1.59 1.27 1 1.75.83.49-.92 0-1.59zM14.41 142.08c-.87.11-1.47.57-1.33 1s1 .75 1.84.65 1.47-.57 1.33-1-.97-.73-1.84-.65zM27.95 149.49c-.87.11-1.47.57-1.33 1s1 .75 1.84.65 1.47-.57 1.33-1-.97-.76-1.84-.65zM42.79 144.72c-.87.11-1.47.57-1.33 1s1 .75 1.84.65 1.47-.57 1.33-1-.96-.75-1.84-.65zM12.53 134.86c-.87-.27-1.7-.13-1.84.31s.45 1 1.32 1.28 1.7.13 1.84-.31-.44-1.01-1.32-1.28z"/><ellipse class="cls-15" cx="154.6" cy="115.57" rx="1.33" ry="1.03" transform="translate(2.97 235.01) rotate(-75.01)"/><path class="cls-15" d="M176.88 119.2c-.49-.67-1.27-1-1.75-.83s-.46.92 0 1.59 1.27 1 1.75.83.49-.92 0-1.59zM165.88 118.85c-.87.11-1.47.57-1.33 1s1 .75 1.84.65 1.47-.57 1.33-1-.96-.75-1.84-.65zM164 111.63c-.87-.27-1.7-.13-1.84.31s.45 1 1.32 1.28 1.7.13 1.84-.31-.44-1.01-1.32-1.28zM151.92 98c-.87-.27-1.7-.13-1.84.31s.45 1 1.32 1.28 1.7.13 1.84-.31-.45-1-1.32-1.28zM160.58 123.32c-.87-.27-1.7-.13-1.84.31s.45 1 1.32 1.28 1.7.13 1.84-.31-.45-1.01-1.32-1.28zM135.16 96.77c-.87-.27-1.7-.13-1.84.31s.45 1 1.32 1.28 1.7.13 1.84-.31-.48-1.05-1.32-1.28zM175.71 100.5c-.87-.27-1.7-.13-1.84.31s.45 1 1.32 1.28 1.7.13 1.84-.31-.45-1.02-1.32-1.28zM174.1 111.46c-.87-.27-1.7-.13-1.84.31s.45 1 1.32 1.28 1.7.13 1.84-.31-.42-1.01-1.32-1.28z"/><ellipse class="cls-15" cx="131.09" cy="118.25" rx="1.33" ry="1.03" transform="translate(-17.05 214.29) rotate(-75.01)"/><path class="cls-15" d="M153.36 121.88c-.49-.67-1.27-1-1.75-.83s-.46.92 0 1.59 1.27 1 1.75.83.49-.92 0-1.59zM142.37 121.53c-.87.11-1.47.57-1.33 1s1 .75 1.84.65 1.47-.57 1.33-1-.96-.75-1.84-.65zM155.91 128.94c-.87.11-1.47.57-1.33 1s1 .75 1.84.65 1.47-.57 1.33-1-.97-.75-1.84-.65zM170.76 124.17c-.87.11-1.47.57-1.33 1s1 .75 1.84.65 1.47-.57 1.33-1-.97-.75-1.84-.65zM140.5 114.32c-.87-.27-1.7-.13-1.84.31s.45 1 1.32 1.28 1.7.13 1.84-.31-.45-1.02-1.32-1.28z"/><ellipse class="cls-15" cx="161.92" cy="142.29" rx="1.33" ry="1.03" transform="matrix(.4 -.92 .92 .4 -32.84 234.65)"/><ellipse class="cls-15" cx="131.72" cy="131.81" rx="1.33" ry="1.03" transform="translate(-41.46 200.6) rotate(-66.68)"/><path class="cls-15" d="M140.41 135.47c.39.73 1.11 1.22 1.61 1.08s.59-.85.2-1.58-1.11-1.22-1.61-1.08-.61.84-.2 1.58zM151.23 137.4c.88 0 1.54-.35 1.47-.83s-.84-.88-1.72-.91-1.54.35-1.47.83.84.89 1.72.91zM129.66 146.58c.88 0 1.54-.35 1.47-.83s-.84-.88-1.72-.91-1.54.35-1.47.83.84.89 1.72.91zM152 144.82c.83.39 1.66.38 1.87 0s-.3-1.06-1.12-1.45-1.66-.38-1.87 0 .34 1.06 1.12 1.45zM168.25 143.62c.83.39 1.66.38 1.87 0s-.3-1.06-1.12-1.45-1.66-.38-1.87 0 .29 1.05 1.12 1.45zM172.18 131c.83.39 1.66.38 1.87 0s-.3-1.06-1.12-1.45-1.66-.38-1.87 0 .29 1.05 1.12 1.45zM137.42 148.37c.83.39 1.66.38 1.87 0s-.3-1.06-1.12-1.45-1.66-.38-1.87 0 .3 1.08 1.12 1.45zM134.57 140.55c.83.39 1.66.38 1.87 0s-.3-1.06-1.12-1.45-1.66-.38-1.87 0 .3 1.06 1.12 1.45zM142 143.53c.83.39 1.66.38 1.87 0s-.3-1.06-1.12-1.45-1.66-.38-1.87 0 .33 1.05 1.12 1.45zM137.74 128.89c.83.39 1.66.38 1.87 0s-.3-1.06-1.12-1.45-1.66-.38-1.87 0 .3 1.06 1.12 1.45zM164.06 136.22c.39.73 1.11 1.22 1.61 1.08s.59-.85.2-1.58-1.11-1.22-1.61-1.08-.59.84-.2 1.58zM174.89 138.15c.88 0 1.54-.35 1.47-.83s-.84-.88-1.72-.91-1.54.35-1.47.83.83.89 1.72.91zM162.57 128.86c.88 0 1.54-.35 1.47-.83s-.84-.88-1.72-.91-1.54.35-1.47.83.83.89 1.72.91zM147.18 131.43c.88 0 1.54-.35 1.47-.83s-.84-.88-1.72-.91-1.54.35-1.47.83.84.89 1.72.91zM175.7 145.57c.83.39 1.66.38 1.87 0s-.3-1.06-1.12-1.45-1.66-.38-1.87 0 .29 1.06 1.12 1.45z"/><ellipse class="cls-15" cx="157.08" cy="159.78" rx="1.33" ry="1.03" transform="translate(-32.82 278.7) rotate(-77.54)"/><ellipse class="cls-15" cx="129.45" cy="159.94" rx="1.33" ry="1.03" transform="translate(-54.65 251.84) rotate(-77.54)"/><path class="cls-15" d="M138.66 161.89c.52.65 1.32 1 1.78.75s.42-.94-.1-1.59-1.32-1-1.78-.75-.41.95.1 1.59zM149.66 161.76c.87-.14 1.44-.63 1.28-1.09s-1-.71-1.86-.57-1.44.63-1.28 1.09.99.71 1.86.57zM127 168.38c.87-.14 1.44-.63 1.28-1.09s-1-.71-1.86-.57-1.44.63-1.28 1.09.97.72 1.86.57zM127.57 153.33c.88.23 1.7.06 1.83-.39s-.49-1-1.38-1.22-1.7-.06-1.83.39.5.99 1.38 1.22zM152.54 153.33c.88.23 1.7.06 1.83-.39s-.49-1-1.38-1.22-1.7-.06-1.83.39.49.99 1.38 1.22zM169 151.51c.88.23 1.7.06 1.83-.39s-.49-1-1.38-1.22-1.7-.06-1.83.39.52 1 1.38 1.22zM133.89 168c.88.23 1.7.06 1.83-.39s-.49-1-1.38-1.22-1.7-.06-1.83.39.49.98 1.38 1.22zM143.85 167.39c.88.23 1.7.06 1.83-.39s-.49-1-1.38-1.22-1.7-.06-1.83.39.53.99 1.38 1.22zM134.81 155.94c.88.23 1.7.06 1.83-.39s-.49-1-1.38-1.22-1.7-.06-1.83.39.49.99 1.38 1.22zM162 158.17c.52.65 1.32 1 1.78.75s.42-.94-.1-1.59-1.32-1-1.78-.75-.38.94.1 1.59zM146.69 150.45c.87-.14 1.44-.63 1.28-1.09s-1-.71-1.86-.57-1.44.63-1.28 1.09.99.71 1.86.57zM159.18 151.23c.87-.14 1.44-.63 1.28-1.09s-1-.71-1.86-.57-1.44.63-1.28 1.09.99.72 1.86.57zM144.56 156.66c.87-.14 1.44-.63 1.28-1.09s-1-.71-1.86-.57-1.44.63-1.28 1.09.99.71 1.86.57z"/><path class="cls-16" d="M79.25 30.42c-2.48 1.24-5.38 4.14-2.07 6.21.82.51 4.55 3.49 2.48 6.62-3.3 5 0 5.83 8.69 7.45 3.1.58 5-1.24 8.28-5 1.66-1.86 4.44-2.35 2.48-3.72-3.83-2.69.41-4.38.41-6.62 0-2.07-.39-9.15-5-6.21-2.86 1.85-3.09 2.85-5.75 2.51s-7.77-2.12-9.52-1.24z"/><path class="cls-17" d="M55.33 152.4a4.51 4.51 0 0 1 3.67 2.6 6.36 6.36 0 0 0 4.13 3s.31 2.8-3.74 1.25-8.41-1.56-7.47-4.36a3.3 3.3 0 0 1 3.41-2.49z"/><path class="cls-18" d="M50.36 155.71a4.51 4.51 0 0 1 3.64 2.56 6.36 6.36 0 0 0 4.13 3s.31 2.8-3.74 1.25-8.39-1.52-7.45-4.32a3.3 3.3 0 0 1 3.42-2.49z"/><path class="cls-19" d="M66.55 157.9l-.48 2.91-3.82 1.37s-1.78-.09-.4-2.46 1.83-5.09 3.48-4.22a2.09 2.09 0 0 1 1.22 2.4z"/><path class="cls-20" d="M74.7 160.34l-.48 2.91-3.82 1.37s-1.78-.09-.4-2.46 1.83-5.09 3.48-4.22a2.09 2.09 0 0 1 1.22 2.4z"/><path class="cls-21" d="M69.73 163.23l-2.13 2-3.88-1.19s-1.37-1.14 1.16-2.2 4.52-3 5.32-1.29a2.09 2.09 0 0 1-.47 2.68z"/><path class="cls-22" d="M56.65 160s1.6-1.29 4.27.14a5.65 5.65 0 0 0 4.94.29s2.3 2.23-1.47 3.17-6.57 3.39-8.08.46l.34-4.06z"/></g></svg>