<svg xmlns="http://www.w3.org/2000/svg" xmlns:xlink="http://www.w3.org/1999/xlink" viewBox="0 0 175 175"><defs><style>.cls-1{fill:#bedfe4;}.cls-2{fill:#1d1d1b;opacity:0.18;}.cls-3{fill:#dd8e98;}.cls-4{fill:url(#New_Gradient_Swatch_3);}.cls-5{fill:url(#New_Gradient_Swatch_3-2);}.cls-6{fill:url(#New_Gradient_Swatch_3-3);}.cls-7{fill:url(#New_Gradient_Swatch_3-4);}.cls-8{fill:url(#New_Gradient_Swatch_3-5);}.cls-9{fill:url(#New_Gradient_Swatch_3-6);}.cls-10{fill:url(#New_Gradient_Swatch_3-7);}.cls-11{fill:url(#New_Gradient_Swatch_3-8);}.cls-12{fill:url(#New_Gradient_Swatch_3-9);}.cls-13{fill:url(#New_Gradient_Swatch_3-10);}.cls-14{fill:url(#New_Gradient_Swatch_3-11);}.cls-15{fill:url(#New_Gradient_Swatch_3-12);}.cls-16{fill:url(#New_Gradient_Swatch_3-13);}.cls-17{fill:url(#New_Gradient_Swatch_3-14);}.cls-18{fill:url(#New_Gradient_Swatch_3-15);}.cls-19{fill:url(#New_Gradient_Swatch_3-16);}.cls-20{fill:url(#New_Gradient_Swatch_3-17);}.cls-21{fill:url(#New_Gradient_Swatch_3-18);}.cls-22{fill:url(#White_Black);}.cls-23{fill:url(#White_Black-2);}.cls-24{fill:url(#White_Black-3);}.cls-25{fill:url(#White_Black-4);}.cls-26{fill:url(#White_Black-5);}.cls-27{fill:url(#White_Black-6);}.cls-28{fill:url(#White_Black-7);}.cls-29{fill:url(#White_Black-8);}</style><linearGradient id="New_Gradient_Swatch_3" x1="86.61" y1="119.99" x2="102.34" y2="119.99" gradientUnits="userSpaceOnUse"><stop offset="0" stop-color="#fff"/><stop offset=".44" stop-color="#fdfefe"/><stop offset=".65" stop-color="#f5fafa"/><stop offset=".81" stop-color="#e8f4f2"/><stop offset=".95" stop-color="#d6ebe8"/><stop offset="1" stop-color="#cde7e3"/></linearGradient><linearGradient id="New_Gradient_Swatch_3-2" x1="101.93" y1="119.73" x2="115.54" y2="119.73" xlink:href="#New_Gradient_Swatch_3"/><linearGradient id="New_Gradient_Swatch_3-3" x1="115.63" y1="117.93" x2="127.61" y2="117.93" xlink:href="#New_Gradient_Swatch_3"/><linearGradient id="New_Gradient_Swatch_3-4" x1="127.35" y1="116.18" x2="139.04" y2="116.18" xlink:href="#New_Gradient_Swatch_3"/><linearGradient id="New_Gradient_Swatch_3-5" x1="70.56" y1="119.99" x2="86.29" y2="119.99" xlink:href="#New_Gradient_Swatch_3"/><linearGradient id="New_Gradient_Swatch_3-6" x1="57.36" y1="119.73" x2="70.97" y2="119.73" xlink:href="#New_Gradient_Swatch_3"/><linearGradient id="New_Gradient_Swatch_3-7" x1="45.29" y1="117.93" x2="57.28" y2="117.93" xlink:href="#New_Gradient_Swatch_3"/><linearGradient id="New_Gradient_Swatch_3-8" x1="33.86" y1="116.18" x2="45.55" y2="116.18" xlink:href="#New_Gradient_Swatch_3"/><linearGradient id="New_Gradient_Swatch_3-9" x1="54.99" y1="88.02" x2="87.43" y2="88.02" xlink:href="#New_Gradient_Swatch_3"/><linearGradient id="New_Gradient_Swatch_3-10" x1="33.23" y1="87.38" x2="55.51" y2="87.38" xlink:href="#New_Gradient_Swatch_3"/><linearGradient id="New_Gradient_Swatch_3-11" x1="27.89" y1="81.22" x2="40.75" y2="81.22" gradientTransform="translate(-7.56 4.53) rotate(-.42)" xlink:href="#New_Gradient_Swatch_3"/><linearGradient id="New_Gradient_Swatch_3-12" x1="13.07" y1="83.64" x2="21.44" y2="83.64" xlink:href="#New_Gradient_Swatch_3"/><linearGradient id="New_Gradient_Swatch_3-13" x1="7.91" y1="79.41" x2="13.52" y2="79.41" xlink:href="#New_Gradient_Swatch_3"/><linearGradient id="New_Gradient_Swatch_3-14" x1="87.6" y1="88.68" x2="119.46" y2="88.68" xlink:href="#New_Gradient_Swatch_3"/><linearGradient id="New_Gradient_Swatch_3-15" x1="119.01" y1="87.22" x2="141.43" y2="87.22" xlink:href="#New_Gradient_Swatch_3"/><linearGradient id="New_Gradient_Swatch_3-16" x1="140.8" y1="83.57" x2="153.68" y2="83.57" xlink:href="#New_Gradient_Swatch_3"/><linearGradient id="New_Gradient_Swatch_3-17" x1="153.21" y1="80.64" x2="162.34" y2="80.64" xlink:href="#New_Gradient_Swatch_3"/><linearGradient id="New_Gradient_Swatch_3-18" x1="161.96" y1="75.96" x2="167.44" y2="75.96" xlink:href="#New_Gradient_Swatch_3"/><linearGradient id="White_Black" x1="70.72" y1="53.36" x2="70.72" y2="57.4" gradientUnits="userSpaceOnUse"><stop offset="0" stop-color="#fff"/><stop offset="1" stop-color="#1d1d1b"/></linearGradient><linearGradient id="White_Black-2" x1="70.72" y1="55.85" x2="70.72" y2="61.51" xlink:href="#White_Black"/><linearGradient id="White_Black-3" x1="104.19" y1="53.36" x2="104.19" y2="57.4" xlink:href="#White_Black"/><linearGradient id="White_Black-4" x1="104.19" y1="55.85" x2="104.19" y2="61.51" xlink:href="#White_Black"/><linearGradient id="White_Black-5" x1="100.05" y1="105.92" x2="100.05" y2="108.9" gradientTransform="translate(47.72 -48.99)" xlink:href="#White_Black"/><linearGradient id="White_Black-6" x1="100.05" y1="107.76" x2="100.05" y2="111.92" gradientTransform="translate(47.6 -48.99)" xlink:href="#White_Black"/><linearGradient id="White_Black-7" x1="113.81" y1="-20.35" x2="113.81" y2="-17.38" gradientTransform="translate(-88 78.55)" xlink:href="#White_Black"/><linearGradient id="White_Black-8" x1="113.81" y1="-18.52" x2="113.81" y2="-14.36" gradientTransform="translate(-87.79 78.54)" xlink:href="#White_Black"/></defs><title>totavot</title><circle class="cls-1" cx="87.5" cy="87.5" r="87.5"/><path class="cls-2" d="M138.35 120.42c0-.51-.14-1-.14-1.33 0-5-8.94-3.11-10.45-.85a8.91 8.91 0 0 0-.9 3.2 18.34 18.34 0 0 0-.43-2.34c-1.57-6.31-4.22-7.31-8.78-4.2-1.75 1.19-2.83 5.91-2.66 10.36h-.21c.27-3.83.07-7.74-1.13-9.13 0 0-7.93-2.71-11.18 0-.45.37-.76 1.55-.95 3.12-.31-2.6-1.05-4.55-2.45-4.79-4.17-.71-10.42-1-12.17.79-1 1.06-1.08 5.86-.74 10.73h-.7c.34-4.88.29-9.7-.74-10.76-1.75-1.8-8-1.5-12.17-.79-1.4.24-2.15 2.19-2.45 4.79-.19-1.58-.5-2.75-.95-3.12-3.25-2.71-11.18 0-11.18 0-1.16 1.34-1.39 5-1.17 8.67h-.17c.07-4.3-1-8.71-2.68-9.85-4.57-3.12-7.21-2.11-8.78 4.2a18.34 18.34 0 0 0-.43 2.34 8.91 8.91 0 0 0-.9-3.2c-1.44-2.15-9.57-4-10.37.16l-3.41-1 1 3.67s.25 24.67 54 24.67c45.24 0 56-26 56-26zM166.69 81.76l1-10.33s-5.55-.54-15.53-1.16a1.42 1.42 0 0 0 .67-1.13l.07-1.32a1.42 1.42 0 0 0-1.34-1.49h-.29a1.4 1.4 0 0 0 0-.28v-.15a1.42 1.42 0 0 0-1.27-1.49l-5.58-.29a1.42 1.42 0 0 0-1.49 1.34v.14a1.42 1.42 0 0 0 0 .28h-.29a1.42 1.42 0 0 0-1.49 1.34l-.07 1.32a1.41 1.41 0 0 0 .5 1.14c-8.48-.42-18.82-.83-30.68-1.07a1.42 1.42 0 0 0 .65-1.19v-2.82a1.42 1.42 0 0 0-1.42-1.42h-.87v-1.07a1.42 1.42 0 0 0-1.42-1.42h-8.63a1.42 1.42 0 0 0-1.42 1.42v1.08h-.87a1.42 1.42 0 0 0-1.42 1.42v2.82a1.41 1.41 0 0 0 .4 1h-8.41c-3.32 0-6.62 0-9.88.09a1.41 1.41 0 0 0 .46-1v-2.92a1.42 1.42 0 0 0-1.42-1.42h-.87v-1.07a1.42 1.42 0 0 0-1.42-1.42h-8.61a1.42 1.42 0 0 0-1.42 1.42v1.08h-.87a1.42 1.42 0 0 0-1.46 1.41v2.82a1.42 1.42 0 0 0 1.42 1.42h.62c-12.5.48-24 1.28-33.49 2.07a1.42 1.42 0 0 0 .7-1.34l-.12-1.32a1.42 1.42 0 0 0-1.5-1.25h-.29a1.4 1.4 0 0 0 0-.28v-.14a1.42 1.42 0 0 0-1.54-1.29l-5.57.5a1.42 1.42 0 0 0-1.29 1.54v.14a1.4 1.4 0 0 0 .05.27h-.29a1.42 1.42 0 0 0-1.29 1.54l.12 1.32a1.42 1.42 0 0 0 .94 1.2c-9.22.89-14.8 1.61-14.8 1.61l1.63 11.26c-.12 3.16-.1 6.74.87 7.9 1.43 1.72 3.54 2.52 4.35 1.14.19 2.26.61 4.17 1.34 5 2.5 3 6.5 4 6.5-.5v-.86a15.29 15.29 0 0 0 .56 3.65c2.26 6.48 11.67 3.15 11.67 3.15v-.24c0 .26 0 .54.05.8.52 4.5 15.18 6 19.32 5.5 1.35-.16 2.08-1.43 2.46-3.38a13.1 13.1 0 0 0 .78 3.76c1.06 2.47 28.91 2.62 30.53.75 1.48-1.71 1-3.64.43-13.4h1c-.26 9.75-.66 11.7.87 13.36 1.68 1.82 29.51.77 30.49-1.74a13.1 13.1 0 0 0 .66-3.78c.45 1.94 1.22 3.18 2.57 3.3 4.15.37 18.63-.1 19-4.62.07-.89.12-1.79.16-2.72l.11.7s9.54 3 11.54-3.61c.47-1.54.53-4.89.29-8.41.18 1.73.37 3.42.42 4.89.15 4.5 4.44 3.36 7 .27.79-.94 1.19-3 1.3-5.39.81 1.47 3 .6 4.36-1.2.87-1.12.85-4.31.66-7.3zm-154.07 4.54c0 .18 0 .36-.05.54 0-.19 0-.38-.06-.56zm20.51 8.46c0-1.28-.1-2.58-.26-3.83l.68.16c-.13 1.23-.28 2.46-.42 3.67z"/><path class="cls-3" d="M6.36 66.1l1.64 11.66 51 11.67s45.25 2.32 46.75 1.32l41.25-4.57 20.33-11.75 1-10.33s-31.62-3.1-80.17-3.1a727 727 0 0 0-81.8 5.1zM141.69 114.27l-22 5.43s-49.4.89-50.9 1.89l-38.12-9.64 1 3.67s.25 24.67 54 24.67c45.27-.02 56.02-26.02 56.02-26.02z"/><path class="cls-4" d="M99.72 109c-4.17-.71-10.42-1-12.17.79s-.67 14.5.33 19.83c.59 3.15 10.94 2.24 12.67-1s3.32-18.92-.83-19.62z"/><path class="cls-5" d="M114.3 110.65s-7.93-2.71-11.18 0c-1.76 1.47-1.4 15.26 0 17.5s9.31 2.69 10.71 0 2.8-14.81.47-17.5z"/><path class="cls-6" d="M127.09 113.62c-1.57-6.31-4.22-7.31-8.78-4.2-3 2-4 14.21-.28 18 1.84 1.86 5.78-.06 6.51-3s4.46-3.29 2.55-10.8z"/><path class="cls-7" d="M138.88 113.61c0-5-8.94-3.11-10.45-.85-.94 1.41-1.56 6.82-.55 8.51s3.87-.28 7.33-1.67c5-1.99 3.67-4.66 3.67-5.99z"/><path class="cls-8" d="M73.19 109c4.17-.71 10.42-1 12.17.79s.67 14.5-.33 19.83c-.59 3.15-10.94 2.24-12.67-1s-3.36-18.92.83-19.62z"/><path class="cls-9" d="M58.6 110.65s7.93-2.71 11.18 0c1.76 1.47 1.4 15.26 0 17.5s-9.31 2.69-10.71 0-2.79-14.81-.47-17.5z"/><path class="cls-10" d="M45.81 113.62c1.57-6.31 4.22-7.31 8.78-4.2 3 2 4 14.21.28 18-1.84 1.86-5.78-.06-6.51-3s-4.42-3.29-2.55-10.8z"/><path class="cls-11" d="M34 113.61c0-5 8.94-3.11 10.45-.85.94 1.41 1.56 6.82.55 8.51s-3.87-.28-7.33-1.67c-4.98-1.99-3.67-4.66-3.67-5.99z"/><path class="cls-12" d="M68.12 71c6.13-.94 18.18-.08 18.59 16.58.64 12.49 1.36 14.64-.26 16.51s-29.45 1.69-30.53-.79c-1.82-4.24-.41-16.5-.41-16.5s1.74-14.17 12.61-15.8z"/><path class="cls-13" d="M39.53 72.43c4.8-2 15.67.1 15.67 9.6s1.62 20.4-2.52 20.9-18.8-1-19.32-5.5.69-11 1.21-17 .15-6 4.96-8z"/><path class="cls-14" d="M23.39 73.65c4.52-1.65 8 2.43 9.2 5.74 2.26 6 .68 17.48.68 17.48s-9.41 3.33-11.67-3.15c-1.34-3.84-.54-19.22 1.79-20.07z"/><path class="cls-15" d="M15.07 73.29a5.41 5.41 0 0 1 5.46 3.14c1.71 3.4.5 10 .5 14.5s-4 3.5-6.5.5-1.43-18.14.54-18.14z"/><path class="cls-16" d="M8.12 71.93s2.83-1 3.91 1.5 1.49 8.22 1.49 11.46-2.88 2.52-4.68.36-.36-12.6-.72-13.32z"/><path class="cls-17" d="M105.35 72.38c-11 .84-17.91 5.66-17.43 15.18-.24 12.5-.89 14.67.79 16.49s28.85 1 29.83-1.51c1.68-4.29.53-16.73.53-16.73s-1.47-14.38-13.72-13.43z"/><path class="cls-18" d="M134.57 72.38c-4.87-1.84-15.86 1.34-15.55 10.84s.36 18.14 2.36 18.85c3.93 1.39 18.38 0 19.32-5.66a48.06 48.06 0 0 0 .3-14.65c-.69-5.98-1.56-7.54-6.43-9.38z"/><path class="cls-19" d="M150.66 71.59c-4.58-1.47-7.85 2.75-9 6.11-2 6.07 0 17.5 0 17.5s9.54 3 11.54-3.61c1.24-3.9-.2-19.24-2.54-20z"/><path class="cls-20" d="M159.83 70.23a6 6 0 0 0-5.8 3.33c-1.74 3.46-.22 10-.07 14.51s4.44 3.36 7 .27 1.04-18.18-1.13-18.11z"/><path class="cls-21" d="M167 68.41s-2.86-.93-3.85 1.63-1.23 8.26-1.12 11.5 3 2.42 4.69.21-.1-12.61.28-13.34z"/><rect class="cls-22" x="65" y="53.36" width="11.45" height="4.04" rx="1.42" ry="1.42"/><rect class="cls-23" x="62.71" y="55.85" width="16.02" height="5.66" rx="1.42" ry="1.42"/><rect class="cls-24" x="98.46" y="53.36" width="11.45" height="4.04" rx="1.42" ry="1.42"/><rect class="cls-25" x="96.17" y="55.85" width="16.02" height="5.66" rx="1.42" ry="1.42"/><rect class="cls-26" x="143.56" y="56.93" width="8.42" height="2.97" rx="1.42" ry="1.42" transform="translate(3.22 -7.56) rotate(2.96)"/><rect class="cls-27" x="141.75" y="58.76" width="11.78" height="4.16" rx="1.42" ry="1.42" transform="translate(3.34 -7.55) rotate(2.96)"/><rect class="cls-28" x="21.6" y="58.19" width="8.42" height="2.97" rx="1.42" ry="1.42" transform="translate(-5.22 2.54) rotate(-5.11)"/><rect class="cls-29" x="20.13" y="60.02" width="11.78" height="4.16" rx="1.42" ry="1.42" transform="translate(-5.43 2.57) rotate(-5.11)"/></svg>