<svg xmlns="http://www.w3.org/2000/svg" xmlns:xlink="http://www.w3.org/1999/xlink" viewBox="0 0 175 175"><defs><style>.cls-1{fill:#bedfe4;}.cls-2{fill:#dd8e98;}.cls-3{clip-path:url(#clip-path);}.cls-4{clip-path:url(#clip-path-2);}.cls-5{fill:#8d3b53;opacity:0.26;}.cls-6{fill:#cbbba0;}.cls-7{fill:#a48a7b;}.cls-34,.cls-8{fill:#fff;}.cls-9{fill:url(#New_Gradient_Swatch_1);}.cls-10{opacity:0.46;fill:url(#New_Gradient_Swatch_1-2);}.cls-11{fill:url(#White_Black);}.cls-12{fill:url(#White_Black-2);}.cls-13{fill:url(#linear-gradient);}.cls-14{fill:url(#linear-gradient-2);}.cls-15{fill:url(#linear-gradient-3);}.cls-16{fill:url(#linear-gradient-4);}.cls-17{fill:url(#linear-gradient-5);}.cls-18{fill:url(#linear-gradient-6);}.cls-19{fill:url(#linear-gradient-7);}.cls-20{fill:url(#linear-gradient-8);}.cls-21{fill:url(#linear-gradient-9);}.cls-22{fill:url(#linear-gradient-10);}.cls-23{fill:url(#linear-gradient-11);}.cls-24{fill:url(#White_Black-3);}.cls-25{fill:url(#linear-gradient-12);}.cls-26{fill:url(#linear-gradient-13);}.cls-27{fill:url(#linear-gradient-14);}.cls-28{fill:url(#linear-gradient-15);}.cls-29{fill:url(#linear-gradient-16);}.cls-30{fill:url(#linear-gradient-17);}.cls-31{fill:url(#linear-gradient-18);}.cls-32{stroke:#3c3c3b;stroke-miterlimit:10;stroke-width:1.59px;opacity:0.77;fill:url(#White_Black-4);}.cls-33{fill:url(#linear-gradient-19);}.cls-34{opacity:0.22;}.cls-35{clip-path:url(#clip-path-3);}.cls-36{clip-path:url(#clip-path-4);}</style><clipPath id="clip-path"><circle class="cls-1" cx="87.5" cy="87.5" r="87.5"/></clipPath><clipPath id="clip-path-2"><path class="cls-2" d="M2.64 100.89c26-11.67 105.87-15.27 163.41-4.56 32.91 6.12 23.92 80.13-40.56 84.15s-89.36 4.62-111-7.84c-15.63-9-39.03-59.53-11.85-71.75z"/></clipPath><linearGradient id="New_Gradient_Swatch_1" x1="83.76" y1="87.43" x2="83.76" y2="158.25" gradientUnits="userSpaceOnUse"><stop offset="0" stop-color="#fff"/><stop offset="1" stop-color="#9d9d9c" stop-opacity=".5"/></linearGradient><linearGradient id="New_Gradient_Swatch_1-2" x1="85.96" y1="50.49" x2="85.96" y2="59.5" xlink:href="#New_Gradient_Swatch_1"/><linearGradient id="White_Black" x1="-157.07" y1="-175.47" x2="-203.84" y2="-175.47" gradientTransform="matrix(.58 .35 -.87 .23 72.93 139.19)" gradientUnits="userSpaceOnUse"><stop offset="0" stop-color="#fff"/><stop offset="1" stop-color="#1d1d1b"/></linearGradient><linearGradient id="White_Black-2" x1="103.12" y1="49.21" x2="101.64" y2="48.36" xlink:href="#White_Black"/><linearGradient id="linear-gradient" x1="114.51" y1="38.66" x2="105.49" y2="33.45" gradientUnits="userSpaceOnUse"><stop offset="0" stop-color="#fff"/><stop offset=".26" stop-color="#c6c6c6"/><stop offset=".61" stop-color="#7c7c7c"/><stop offset=".87" stop-color="#4e4e4d"/><stop offset="1" stop-color="#3c3c3b"/></linearGradient><linearGradient id="linear-gradient-2" x1="150.72" y1="64.17" x2="157.49" y2="52.44" xlink:href="#linear-gradient"/><linearGradient id="linear-gradient-3" x1="158.78" y1="211" x2="153.59" y2="208" gradientTransform="translate(315.66 -113.39) rotate(90)" gradientUnits="userSpaceOnUse"><stop offset="0" stop-color="#fff"/><stop offset=".19" stop-color="#cacac9"/><stop offset=".38" stop-color="#979797"/><stop offset=".57" stop-color="#70706f"/><stop offset=".74" stop-color="#535353"/><stop offset=".89" stop-color="#424241"/><stop offset="1" stop-color="#3c3c3b"/></linearGradient><linearGradient id="linear-gradient-4" x1="656.86" y1="300.29" x2="651.67" y2="297.29" gradientTransform="translate(781.89 339.12) rotate(180)" xlink:href="#linear-gradient-3"/><linearGradient id="linear-gradient-5" x1="376.25" y1="1106.76" x2="370.83" y2="1103.63" gradientTransform="matrix(2.5 0 0 -.27 -823.76 328.07)" xlink:href="#linear-gradient-3"/><linearGradient id="linear-gradient-6" x1="376.21" y1="1102.8" x2="370.79" y2="1099.67" gradientTransform="matrix(2.5 0 0 -.27 -822.8 327.63)" xlink:href="#linear-gradient-3"/><linearGradient id="linear-gradient-7" x1="376.16" y1="1098.32" x2="370.74" y2="1095.19" gradientTransform="matrix(2.5 0 0 -.27 -821.7 327.15)" xlink:href="#linear-gradient-3"/><linearGradient id="linear-gradient-8" x1="408.8" y1="-808.99" x2="401.98" y2="-812.93" gradientTransform="matrix(5.57 3.58 .14 -.22 -1984.61 -1575.7)" xlink:href="#linear-gradient-3"/><linearGradient id="linear-gradient-9" x1="408.82" y1="-813.29" x2="402" y2="-817.23" gradientTransform="matrix(5.57 3.58 .14 -.22 -1984.61 -1575.7)" xlink:href="#linear-gradient-3"/><linearGradient id="linear-gradient-10" x1="408.82" y1="-817.79" x2="402" y2="-821.73" gradientTransform="matrix(5.57 3.58 .14 -.22 -1984.61 -1575.7)" xlink:href="#linear-gradient-3"/><linearGradient id="linear-gradient-11" x1="408.8" y1="-822.56" x2="401.98" y2="-826.5" gradientTransform="matrix(5.57 3.58 .14 -.22 -1984.61 -1575.7)" xlink:href="#linear-gradient-3"/><linearGradient id="White_Black-3" x1="638.54" y1="-111.05" x2="643.79" y2="-127.58" gradientTransform="matrix(-.79 .31 .44 .78 604.32 -60.83)" xlink:href="#White_Black"/><linearGradient id="linear-gradient-12" x1="678.03" y1="-62.38" x2="684" y2="-72.73" gradientTransform="matrix(-.9 .43 .43 .9 668.02 -150.99)" xlink:href="#linear-gradient"/><linearGradient id="linear-gradient-13" x1="12.25" y1="-81.66" x2="7.09" y2="-84.64" gradientTransform="matrix(0 .73 1 0 120.13 48.47)" xlink:href="#linear-gradient-3"/><linearGradient id="linear-gradient-14" x1="262.96" y1="-81.83" x2="257.76" y2="-84.82" gradientTransform="matrix(0 1 1 0 117.56 -200.59)" xlink:href="#linear-gradient-3"/><linearGradient id="linear-gradient-15" x1="464.77" y1="658.4" x2="459.31" y2="655.24" gradientTransform="matrix(-6.62 0 0 -.27 3080.19 253.96)" xlink:href="#linear-gradient-3"/><linearGradient id="linear-gradient-16" x1="464.79" y1="654.09" x2="459.33" y2="650.94" gradientTransform="matrix(-6.62 0 0 -.27 3081.23 253.55)" xlink:href="#linear-gradient-3"/><linearGradient id="linear-gradient-17" x1="464.79" y1="649.6" x2="459.33" y2="646.44" gradientTransform="matrix(-6.62 0 0 -.27 3082.24 252.98)" xlink:href="#linear-gradient-3"/><linearGradient id="linear-gradient-18" x1="464.77" y1="644.83" x2="459.31" y2="641.67" gradientTransform="matrix(-6.62 0 0 -.27 3083.26 252.27)" xlink:href="#linear-gradient-3"/><linearGradient id="White_Black-4" x1="59.63" y1="34.47" x2="80.34" y2="34.47" xlink:href="#White_Black"/><linearGradient id="linear-gradient-19" x1="82.85" y1="34.47" x2="57.12" y2="34.47" gradientUnits="userSpaceOnUse"><stop offset="0" stop-color="#dadada" stop-opacity=".8"/><stop offset=".6" stop-color="#666664" stop-opacity=".92"/><stop offset="1" stop-color="#1d1d1b"/></linearGradient><clipPath id="clip-path-3"><circle class="cls-1" cx="-121.5" cy="87.5" r="87.5"/></clipPath><clipPath id="clip-path-4"><path class="cls-2" d="M-217.45 102.24c31.71-14.24 139.62-63.71 214.27-35.15 38.18 14.6 14.44 127.42-64.29 132.33s-109.1 5.64-135.5-9.57c-19.1-11-47.67-72.69-14.48-87.61z"/></clipPath></defs><title>treatment</title><circle class="cls-1" cx="87.5" cy="87.5" r="87.5"/><g class="cls-3"><path class="cls-2" d="M2.64 100.89c26-11.67 105.87-15.27 163.41-4.56 32.91 6.12 23.92 80.13-40.56 84.15s-89.36 4.62-111-7.84c-15.63-9-39.03-59.53-11.85-71.75z"/><g class="cls-4"><path class="cls-5" d="M57.55 41.46c-11.99 4.45-40.55 43.42-14.85 36.67 5.05-1.33 1.29 4.94 3.06 7.8.48.77 12.89 13.82 11.16 22.33-3.18 15.67-5.13 36.17-1.59 49.44 4.17 15.64 17.76 7.7 19.67-4.25 1.5-4.65 6-33 10.63-33 5.33-.19 6.7 20.15 6.91 23.39.44 6.64.58 21.27 10.37 21.27 7.5 0 13-27.6 11.43-43.79-1.42-15.08-1.47-15.44-.26-19.74 2.13-7.58 14.09-23.66 22.33-21.8 5 1.12-13.33-2.81-12.66-7.06 2.54-16-3.58-28.1-9.3-30.39-14.86-5.94-20.84 2.87-30.9 2.87-13.06.03-15.84-7.5-26-3.74z"/><path class="cls-6" d="M-20.31 152.29c.56.77 26.45 19.67 25.33 24.41-3.71 15.69-7.02 34.03-2.89 47.3 4.87 15.64 19.87 9.13 22.12-2.83.71-1.88 121.08-7.21 159.6-2.29 56.63 7.23 3.17-97.74 6.38-97.69-8-10.37-29.51-19.05-59.68-19.05-9.57 0-11.83 5.05-11.43 15.42 1.11 28.86-5.59 54.39-16.61 51.08-19.94-6-8-32.85-16.75-33.49-5-.37-5.1 15.16-8.37 24.32-4 11.16-12.73 9.28-15.15 9.17-9.17-.4-13.72-17.65-13.56-26.32.4-21.53 4.39-35.89-3.59-37.88-17.9-4.44-85.5 20.13-65.4 47.85z"/></g><ellipse class="cls-7" cx="23.27" cy="116.3" rx="1" ry="1.28"/><path class="cls-7" d="M44.91 114.13a1.64 1.64 0 0 0-1.83-.34c-.39.31-.2 1 .42 1.47a1.64 1.64 0 0 0 1.83.34c.39-.31.2-.97-.42-1.47zM34.59 116.54c-.79.32-1.23.89-1 1.29s1.08.46 1.87.14 1.23-.89 1-1.29-1.08-.45-1.87-.14zM31 110.29c-.88 0-1.61.3-1.64.74s.67.83 1.55.86 1.61-.3 1.64-.74-.63-.83-1.55-.86z"/><ellipse class="cls-7" cx="2.05" cy="124.66" rx="1" ry="1.28"/><path class="cls-7" d="M23.69 122.49a1.64 1.64 0 0 0-1.83-.34c-.39.31-.2 1 .42 1.47a1.64 1.64 0 0 0 1.83.34c.39-.31.2-.96-.42-1.47zM13.37 124.9c-.79.32-1.23.89-1 1.29s1.08.46 1.87.14 1.23-.89 1-1.29-1.08-.45-1.87-.14zM9.82 118.65c-.88 0-1.61.3-1.64.74s.67.83 1.55.86 1.61-.3 1.64-.74-.67-.83-1.55-.86z"/><ellipse class="cls-7" cx="19.64" cy="132.89" rx="1.28" ry="1" transform="translate(-113.81 117.48) rotate(-75.01)"/><path class="cls-7" d="M41.1 136.39c-.47-.65-1.23-1-1.68-.8s-.44.89 0 1.53 1.23 1 1.68.8.48-.92 0-1.53zM30.51 136.06c-.84.1-1.42.55-1.28 1s.93.73 1.77.62 1.42-.55 1.28-1-.93-.68-1.77-.62zM28.7 129.1c-.84-.26-1.64-.13-1.77.3s.43 1 1.27 1.23 1.64.13 1.77-.3-.42-.97-1.27-1.23zM18.45 139c-.47-.65-1.23-1-1.68-.8s-.44.89 0 1.53 1.23 1 1.68.8.47-.91 0-1.53zM7.85 138.64c-.84.1-1.42.55-1.28 1s.93.73 1.77.62 1.42-.55 1.28-1-.92-.72-1.77-.62zM6 131.68c-.84-.26-1.64-.13-1.77.3s.43 1 1.27 1.23 1.64.13 1.77-.3-.38-.97-1.27-1.23z"/><ellipse class="cls-7" cx="153.2" cy="113.43" rx="1.28" ry="1" transform="translate(3.99 232.06) rotate(-75.01)"/><path class="cls-7" d="M174.66 116.93c-.47-.65-1.23-1-1.68-.8s-.44.89 0 1.53 1.23 1 1.68.8.47-.88 0-1.53zM164.07 116.6c-.84.1-1.42.55-1.28 1s.93.73 1.77.62 1.42-.55 1.28-1-.93-.73-1.77-.62zM162.26 109.64c-.84-.26-1.64-.13-1.77.3s.43 1 1.27 1.23 1.64.13 1.77-.3-.43-.97-1.27-1.23z"/><ellipse class="cls-7" cx="130.54" cy="116.02" rx="1.28" ry="1" transform="translate(-15.3 212.09) rotate(-75.01)"/><path class="cls-7" d="M152 119.52c-.47-.65-1.23-1-1.68-.8s-.44.89 0 1.53 1.23 1 1.68.8.47-.89 0-1.53zM141.41 119.18c-.84.1-1.42.55-1.28 1s.93.73 1.77.62 1.42-.55 1.28-1-.93-.72-1.77-.62zM139.6 112.22c-.84-.26-1.64-.13-1.77.3s.43 1 1.27 1.23 1.64.13 1.77-.3-.43-.97-1.27-1.23z"/><ellipse class="cls-7" cx="33.75" cy="163.05" rx="1.28" ry="1" transform="translate(-127.81 122.72) rotate(-64.29)"/><path class="cls-7" d="M54.18 170.48c-.34-.72-1-1.21-1.5-1.1s-.6.79-.26 1.51 1 1.21 1.5 1.1.61-.78.26-1.51zM43.84 168.18c-.85-.06-1.49.27-1.44.74s.78.89 1.62.94 1.49-.27 1.44-.74-.78-.88-1.62-.94zM43.36 161c-.78-.41-1.58-.43-1.8 0s.24 1 1 1.44 1.58.43 1.8 0-.23-1.02-1-1.44z"/><ellipse class="cls-7" cx="11" cy="161.38" rx="1.28" ry="1" transform="translate(-139.18 101.29) rotate(-64.29)"/><path class="cls-7" d="M31.44 168.81c-.34-.72-1-1.21-1.5-1.1s-.6.79-.26 1.51 1 1.21 1.5 1.1.6-.79.26-1.51zM21.09 166.51c-.85-.06-1.49.27-1.44.74s.78.89 1.62.94 1.49-.27 1.44-.74-.77-.88-1.62-.94zM20.61 159.34c-.78-.41-1.58-.43-1.8 0s.24 1 1 1.44 1.58.43 1.8 0-.22-1.03-1-1.44z"/><ellipse class="cls-7" cx="84.06" cy="172.5" rx="1.28" ry="1" transform="translate(-104.1 210.12) rotate(-75.33)"/><ellipse class="cls-7" cx="82.37" cy="151.5" rx="1.28" ry="1" transform="translate(-85.05 192.8) rotate(-75.33)"/><ellipse class="cls-7" cx="85.16" cy="143.52" rx="1.28" ry="1" transform="translate(-75.25 189.55) rotate(-75.33)"/><ellipse class="cls-7" cx="37.51" cy="171.43" rx="1.28" ry="1" transform="translate(-137.83 164.29) rotate(-75.33)"/><ellipse class="cls-7" cx="50.44" cy="163.31" rx="1.28" ry="1" transform="translate(-120.32 170.74) rotate(-75.33)"/><path class="cls-7" d="M83.59 162.89c-.48-.64-1.23-1-1.69-.79s-.44.89 0 1.53 1.23 1 1.69.79.48-.89 0-1.53zM118.08 166.88c-.48-.64-1.23-1-1.69-.79s-.44.89 0 1.53 1.23 1 1.69.79.48-.89 0-1.53zM109.43 171.22c-.84.11-1.41.55-1.28 1s.93.72 1.77.61 1.41-.55 1.28-1-.92-.71-1.77-.61zM78.33 168.23c-.84.11-1.41.55-1.28 1s.93.72 1.77.61 1.41-.55 1.28-1-.92-.71-1.77-.61zM86.71 156.27c-.84.11-1.41.55-1.28 1s.93.72 1.77.61 1.41-.55 1.28-1-.93-.72-1.77-.61zM93.1 168.66c-.84-.25-1.64-.12-1.77.31s.44 1 1.28 1.22 1.64.12 1.77-.31-.43-.97-1.28-1.22zM29.23 173.49c-.84-.25-1.64-.12-1.77.31s.44 1 1.28 1.22 1.64.12 1.77-.31-.44-.96-1.28-1.22z"/><ellipse class="cls-7" cx="61.42" cy="175.21" rx="1.28" ry="1" transform="translate(-123.64 190.24) rotate(-75.33)"/><path class="cls-7" d="M70.46 171.37c-.84-.25-1.64-.12-1.77.31s.44 1 1.28 1.22 1.64.12 1.77-.31-.44-.97-1.28-1.22z"/><ellipse class="cls-7" cx="26.29" cy="146.18" rx="1.28" ry="1" transform="matrix(.26 -.97 .97 .26 -121.72 133.75)"/><path class="cls-7" d="M47.75 149.68c-.47-.65-1.23-1-1.68-.8s-.44.89 0 1.53 1.23 1 1.68.8.47-.88 0-1.53zM37.16 149.35c-.84.1-1.42.55-1.28 1s.93.73 1.77.62 1.42-.55 1.28-1-.93-.72-1.77-.62zM35.35 142.39c-.84-.26-1.64-.13-1.77.3s.43 1 1.27 1.23 1.64.13 1.77-.3-.43-.97-1.27-1.23zM42.13 125.78c-.84-.26-1.64-.13-1.77.3s.43 1 1.27 1.23 1.64.13 1.77-.3-.4-1.01-1.27-1.23zM32 153.66c-.84-.26-1.64-.13-1.77.3s.43 1 1.27 1.23 1.64.13 1.77-.3-.38-.97-1.27-1.23zM32.58 122.82c-.84-.26-1.64-.13-1.77.3s.43 1 1.27 1.23 1.64.13 1.77-.3-.43-.97-1.27-1.23zM45.07 142.23c-.84-.26-1.64-.13-1.77.3s.43 1 1.27 1.23 1.64.13 1.77-.3-.43-.98-1.27-1.23z"/><ellipse class="cls-7" cx="3.63" cy="148.77" rx="1.28" ry="1" transform="matrix(.26 -.97 .97 .26 -141.01 113.78)"/><path class="cls-7" d="M25.09 152.27c-.47-.65-1.23-1-1.68-.8s-.44.89 0 1.53 1.23 1 1.68.8.47-.88 0-1.53zM14.5 151.93c-.84.1-1.42.55-1.28 1s.93.73 1.77.62 1.42-.55 1.28-1-.93-.72-1.77-.62zM27.54 159.07c-.84.1-1.42.55-1.28 1s.93.73 1.77.62 1.42-.55 1.28-1-.92-.69-1.77-.62zM41.85 154.48c-.84.1-1.42.55-1.28 1s.93.73 1.77.62 1.42-.55 1.28-1-.92-.73-1.77-.62zM12.69 145c-.84-.26-1.64-.13-1.77.3s.43 1 1.27 1.23 1.64.13 1.77-.3-.43-1-1.27-1.23z"/><ellipse class="cls-7" cx="149.61" cy="126.38" rx="1.28" ry="1" transform="translate(-11.18 238.2) rotate(-75.01)"/><path class="cls-7" d="M171.07 129.88c-.47-.65-1.23-1-1.68-.8s-.44.89 0 1.53 1.23 1 1.68.8.47-.88 0-1.53zM160.48 129.55c-.84.1-1.42.55-1.28 1s.93.73 1.77.62 1.42-.55 1.28-1-.93-.73-1.77-.62zM158.67 122.59c-.84-.26-1.64-.13-1.77.3s.43 1 1.27 1.23 1.64.13 1.77-.3-.43-.97-1.27-1.23zM147 109.46c-.84-.26-1.64-.13-1.77.3s.43 1 1.27 1.23 1.64.13 1.77-.3-.41-.97-1.27-1.23zM155.37 133.85c-.84-.26-1.64-.13-1.77.3s.43 1 1.27 1.23 1.64.13 1.77-.3-.43-.97-1.27-1.23zM130.87 108.27c-.84-.26-1.64-.13-1.77.3s.43 1 1.27 1.23 1.64.13 1.77-.3-.43-.97-1.27-1.23zM169.94 111.86c-.84-.26-1.64-.13-1.77.3s.43 1 1.27 1.23 1.64.13 1.77-.3-.43-.98-1.27-1.23zM175.92 124.22c-.84-.26-1.64-.13-1.77.3s.43 1 1.27 1.23 1.64.13 1.77-.3-.42-.97-1.27-1.23zM168.39 122.42c-.84-.26-1.64-.13-1.77.3s.43 1 1.27 1.23 1.64.13 1.77-.3-.43-.97-1.27-1.23zM174.53 135.78c-.84-.26-1.64-.13-1.77.3s.43 1 1.27 1.23 1.64.13 1.77-.3-.43-1.01-1.27-1.23z"/><ellipse class="cls-7" cx="126.95" cy="128.97" rx="1.28" ry="1" transform="translate(-30.47 218.22) rotate(-75.01)"/><path class="cls-7" d="M148.41 132.47c-.47-.65-1.23-1-1.68-.8s-.44.89 0 1.53 1.23 1 1.68.8.47-.89 0-1.53zM137.82 132.13c-.84.1-1.42.55-1.28 1s.93.73 1.77.62 1.42-.55 1.28-1-.93-.75-1.77-.62zM150.86 139.27c-.84.1-1.42.55-1.28 1s.93.73 1.77.62 1.42-.55 1.28-1-.92-.72-1.77-.62zM165.17 134.67c-.84.1-1.42.55-1.28 1s.93.73 1.77.62 1.42-.55 1.28-1-.94-.72-1.77-.62zM136 125.17c-.84-.26-1.64-.13-1.77.3s.43 1 1.27 1.23 1.64.13 1.77-.3-.42-.97-1.27-1.23z"/><ellipse class="cls-7" cx="156.65" cy="152.13" rx="1.28" ry="1" transform="translate(-45.06 235.77) rotate(-66.68)"/><ellipse class="cls-7" cx="127.56" cy="142.03" rx="1.28" ry="1" transform="translate(-53.37 202.94) rotate(-66.68)"/><path class="cls-7" d="M135.92 145.56c.37.71 1.07 1.17 1.55 1s.57-.81.2-1.52-1.07-1.17-1.55-1-.57.81-.2 1.52zM146.36 147.42c.85 0 1.48-.33 1.41-.8s-.81-.85-1.66-.87-1.48.33-1.41.8.81.85 1.66.87zM125.56 156.27c.85 0 1.48-.33 1.41-.8s-.81-.85-1.66-.87-1.48.33-1.41.8.81.85 1.66.87zM147.14 154.57c.8.38 1.6.36 1.8 0s-.29-1-1.08-1.4-1.6-.36-1.8 0 .28 1.02 1.08 1.4zM162.76 153.41c.8.38 1.6.36 1.8 0s-.29-1-1.08-1.4-1.6-.36-1.8 0 .32.99 1.08 1.4zM166.54 141.25c.8.38 1.6.36 1.8 0s-.29-1-1.08-1.4-1.6-.36-1.8 0 .29 1.02 1.08 1.4zM172.72 143.24c.8.38 1.6.36 1.8 0s-.29-1-1.08-1.4-1.6-.36-1.8 0 .29 1.02 1.08 1.4zM133 158c.8.38 1.6.36 1.8 0s-.29-1-1.08-1.4-1.6-.36-1.8 0 .33 1.02 1.08 1.4zM130.3 150.46c.8.38 1.6.36 1.8 0s-.29-1-1.08-1.4-1.6-.36-1.8 0 .29 1.02 1.08 1.4zM137.5 153.32c.8.38 1.6.36 1.8 0s-.29-1-1.08-1.4-1.6-.36-1.8 0 .28 1.03 1.08 1.4zM133.36 139.22c.8.38 1.6.36 1.8 0s-.29-1-1.08-1.4-1.6-.36-1.8 0 .28 1.02 1.08 1.4zM158.72 146.28c.37.71 1.07 1.17 1.55 1s.57-.81.2-1.52-1.07-1.17-1.55-1-.57.81-.2 1.52zM169.15 148.15c.85 0 1.48-.33 1.41-.8s-.81-.85-1.66-.87-1.48.33-1.41.8.81.85 1.66.87zM157.28 139.19c.85 0 1.48-.33 1.41-.8s-.81-.85-1.66-.87-1.48.33-1.41.8.81.85 1.66.87zM142.45 141.67c.85 0 1.48-.33 1.41-.8s-.81-.85-1.66-.87-1.48.33-1.41.8.81.85 1.66.87zM169.93 155.29c.8.38 1.6.36 1.8 0s-.29-1-1.08-1.4-1.6-.36-1.8 0 .29 1.02 1.08 1.4z"/><ellipse class="cls-7" cx="151.99" cy="168.99" rx="1.28" ry="1" transform="translate(-45.81 280.95) rotate(-77.54)"/><ellipse class="cls-7" cx="125.36" cy="169.14" rx="1.28" ry="1" transform="translate(-66.84 255.07) rotate(-77.54)"/><path class="cls-7" d="M134.24 171c.5.62 1.27.95 1.72.73s.41-.91-.1-1.53-1.27-.95-1.72-.73-.4.93.1 1.53zM144.84 170.89c.84-.14 1.39-.61 1.24-1s-1-.68-1.8-.55-1.39.61-1.24 1 .96.66 1.8.55zM123.56 162.77c.85.22 1.64.05 1.76-.37s-.48-1-1.33-1.17-1.64-.05-1.76.37.47.95 1.33 1.17zM147.61 162.77c.85.22 1.64.05 1.76-.37s-.48-1-1.33-1.17-1.64-.05-1.76.37.48.95 1.33 1.17zM163.5 161c.85.22 1.64.05 1.76-.37s-.48-1-1.33-1.17-1.64-.05-1.76.37.48.97 1.33 1.17zM174.86 149.48c.85.22 1.64.05 1.76-.37s-.48-1-1.33-1.17-1.64-.05-1.76.37.47.95 1.33 1.17zM139.24 176.32c.85.22 1.64.05 1.76-.37s-.48-1-1.33-1.17-1.64-.05-1.76.37.48.95 1.33 1.17zM130.53 165.28c.85.22 1.64.05 1.76-.37s-.48-1-1.33-1.17-1.64-.05-1.76.37.48.95 1.33 1.17zM156.77 167.44c.5.62 1.27.95 1.72.73s.41-.91-.1-1.53-1.27-.95-1.72-.73-.4.9.1 1.53zM142 160c.84-.14 1.39-.61 1.24-1s-1-.68-1.8-.55-1.39.61-1.24 1 .94.68 1.8.55zM154 160.75c.84-.14 1.39-.61 1.24-1s-1-.68-1.8-.55-1.39.61-1.24 1 .98.69 1.8.55zM139.92 166c.84-.14 1.39-.61 1.24-1s-1-.68-1.8-.55-1.39.61-1.24 1 .97.67 1.8.55z"/><path class="cls-8" d="M60.24 51.42c-11.35 4.58-13.61 25.45.91 51.08.4.71 1.45 2.49.64 6.88-2.68 14.5-5.1 31.46-2.09 43.73 3.54 14.46 11.26 7.08 13-2.09 1.27-4.3 5.47-37.49 11.28-37.49 7-.09 11 32.25 11.13 35.25.37 6.14 2.28 12.95 7.09 12.86s7.56-21.38 6.26-36.34c-1.21-13.95-1.57-17-.64-21 .41-1.77 7.48-16 8.62-23.92 2.16-14.83-2.33-26.75-7.18-28.87-12.62-5.49-18.32.76-26.86.76-11.09-.03-13.53-4.33-22.16-.85z"/><path class="cls-9" d="M57 87.43s8.32 15.51 8.32 20.81-3.78 14.38-4.16 21.19 1.39 34.51 4.54 25.35c4.16-12.11 7.95-31.78 10.59-38.21s14-7.19 16.65 3.78 3.78 42 9.08 37.46 4.16-31.4 3.41-42.75 2.27-19.67 4.92-26.11c1.15-2.79-7.95 16.27-10.22 11-.83-1.94-1.49 2-4.16 4.16s-7.38 2.71-10.22 2.65-9.19-1.32-11.73-3.78c-3.19-3.1-2.32-7.35-3.78-4.92-4.5 7.53-13.24-10.63-13.24-10.63z"/><path class="cls-10" d="M66.5 51.86s7.48.77 14 1.89 12.49-2.27 16.27-3 12.86.38 9.08 2.27-11.35 7.17-25.35 6.41c-7.43-.43-19.3-4.92-14-7.57z"/><rect class="cls-11" x="120.08" y="24.94" width="3.08" height="22.89" rx=".8" ry=".8" transform="translate(24.04 117.59) rotate(-56.42)"/><path class="cls-12" d="M104.6 43.35l-4.53 7.74-.78 2.62 2.13-1.93 4.42-7.27-1.24-1.16z"/><path class="cls-13" d="M109.89 44.71l-1.46-.83-1.2 2c-.5.84-1.28 1.3-1.73 1l-2.79-1.66c-.45-.27-.42-1.18.08-2l1.2-2-1.34-1c-.45-.27-.42-1.18.08-2l7.72-13.36c.5-.84 1.28-1.3 1.73-1l7.12 4.61c.45.27.42 1.18-.08 2l-7.6 13.21c-.5.83-1.28 1.32-1.73 1.03z"/><path class="cls-14" d="M126 43.2l.15-.23-2.33-1.55c-1-.64-1.47-1.6-1.12-2.13l2.15-3.23c.35-.53 1.43-.43 2.4.22l2.33 1.55.15-.23c.35-.53 1.43-.43 2.4.22l53.07 35.88c1 .64 1.47 1.6 1.12 2.13l-3.72 5.6c-.35.53-1.43.43-2.4-.22l-53.04-35.89c-.97-.64-1.48-1.6-1.16-2.12z"/><rect class="cls-15" x="105.7" y="39.4" width=".93" height="6.78" rx=".47" ry=".47" transform="translate(16.02 113.33) rotate(-60)"/><rect class="cls-16" x="124.24" y="39.87" width="6.78" height=".93" rx=".47" ry=".47" transform="translate(23.93 124.96) rotate(-56.76)"/><rect class="cls-17" x="101.89" y="33.71" width="16.95" height=".25" rx=".12" ry=".12" transform="translate(25.88 112.5) rotate(-60)"/><rect class="cls-18" x="102.75" y="34.32" width="16.95" height=".25" rx=".12" ry=".12" transform="translate(25.78 113.55) rotate(-60)"/><rect class="cls-19" x="103.72" y="35.04" width="16.95" height=".25" rx=".12" ry=".12" transform="translate(25.65 114.74) rotate(-60)"/><path class="cls-20" d="M184.82 75.49l-54.82-35.93a.12.12 0 0 0-.17 0 .12.12 0 0 0 0 .17l54.86 35.97a.12.12 0 0 0 .17 0 .12.12 0 0 0-.04-.21z"/><path class="cls-21" d="M184.33 76.53l-54.78-35.93a.12.12 0 0 0-.17 0 .12.12 0 0 0 0 .17l54.77 35.93a.12.12 0 0 0 .17 0 .12.12 0 0 0 .01-.17z"/><path class="cls-22" d="M183.68 77.54l-54.78-35.93a.12.12 0 0 0-.17 0 .12.12 0 0 0 0 .17l54.77 35.93a.12.12 0 0 0 .17 0 .12.12 0 0 0 .01-.17z"/><path class="cls-23" d="M182.88 78.54l-54.77-35.94a.12.12 0 0 0-.17 0 .12.12 0 0 0 0 .17l54.77 35.93a.12.12 0 0 0 .17 0 .12.12 0 0 0 0-.16z"/><path class="cls-24" d="M33.8 62.88s19.81-32.23 21.12-34.11c.93-1.33.82-1.9 2.39-2.26 1.73-.4 6.65 2 6.65 2 .39-.64 2.51-2.53 1.86-2.92a59.88 59.88 0 0 0-7.71-2.39 5.65 5.65 0 0 0-5.11 2.69l-21.55 35.57a1.37 1.37 0 0 0 .46 1.88 1.37 1.37 0 0 0 1.89-.46z"/><path class="cls-25" d="M36.9 61.68l-.23-.14 1.45-2.4c.6-1 .65-2.08.11-2.4l-3.32-2c-.54-.33-1.47.22-2.07 1.22l-1.45 2.4-.23-.14c-.54-.33-1.47.22-2.07 1.22l-22.18 37.06c-.6 1-.65 2.08-.11 2.4l5.75 3.47c.54.33 1.47-.22 2.07-1.22l22.17-37.07c.6-.99.65-2.08.11-2.4z"/><rect class="cls-26" x="36.51" y="53.03" width=".93" height="4.92" rx=".47" ry=".47" transform="translate(-29.56 59.77) rotate(-60)"/><rect class="cls-27" x="33.77" y="56.39" width=".93" height="6.78" rx=".47" ry=".47" transform="translate(-34.62 57.72) rotate(-58.49)"/><rect class="cls-28" x="-2.47" y="78.97" width="44.9" height=".25" rx=".12" ry=".12" transform="translate(-57.67 54.08) rotate(-57.97)"/><rect class="cls-29" x="-1.58" y="79.7" width="44.9" height=".25" rx=".12" ry=".12" transform="translate(-57.87 55.19) rotate(-57.97)"/><rect class="cls-30" x="-.56" y="80.34" width="44.9" height=".25" rx=".12" ry=".12" transform="translate(-57.93 56.35) rotate(-57.97)"/><rect class="cls-31" x=".59" y="80.9" width="44.9" height=".25" rx=".12" ry=".12" transform="translate(-57.87 57.58) rotate(-57.97)"/><path class="cls-8" d="M74.16 24.19c-5.16-1.11-11.16 2.59-13.45 8.27s0 11.18 5.1 12.29 11.19-2.59 13.45-8.27.02-11.18-5.1-12.29z"/><path class="cls-32" d="M74.24 25.22c-5.21-1-11.34 2.33-13.69 7.44s0 10.06 5.19 11.06 11.34-2.33 13.69-7.44.02-10.06-5.19-11.06z"/><path class="cls-33" d="M67.34 46.31a12.35 12.35 0 0 1-2.34-.22 9.48 9.48 0 0 1-6.87-4.9 10.61 10.61 0 0 1 .12-9.3c2.85-6.2 10.35-10.26 16.71-9a9.48 9.48 0 0 1 6.87 4.9 10.61 10.61 0 0 1-.12 9.3 16.53 16.53 0 0 1-14.37 9.22zm5.22-20.95a13.63 13.63 0 0 0-11.82 7.64 7.81 7.81 0 0 0-.17 6.91 6.8 6.8 0 0 0 5 3.47c5.2 1 11.35-2.36 13.71-7.49a7.81 7.81 0 0 0 .12-6.89 6.8 6.8 0 0 0-5-3.47 10 10 0 0 0-1.84-.17z"/><path class="cls-34" d="M62 31.7c2 7 9.83 9.8 10.83 9.76-.5.62-3.47 1.56-4.45 1.67-6 .08-7.68-3-7.84-7.44a13.52 13.52 0 0 1 1.46-3.99z"/></g><circle class="cls-1" cx="-121.5" cy="87.5" r="87.5"/><g class="cls-35"><path class="cls-2" d="M-217.45 102.24c31.71-14.24 139.62-63.71 214.27-35.15 38.18 14.6 14.44 127.42-64.29 132.33s-109.1 5.64-135.5-9.57c-19.1-11-47.67-72.69-14.48-87.61z"/><path class="cls-6" d="M-245.63 164.13c.54.79 8.28-.71 7.19 4.15-3.62 16.06-6.88 34.84-2.82 48.43 4.78 16 19.36 9.35 21.56-2.9.69-1.93 118-7.38 155.52-2.34 3.54.48 59.8-71 68.79-108 5.52-22.72-61.67-42.19-61.67-28.56 0 15.26 1.79 31.64-7.3 33.27-10.35 1.85-6-24.18-8.28-24.83s-3.36 9.05-5.36 18.46c-1.51 7.32-5.15 7.31-6.82 6.82-5.52-1.62-6.74-9.06-7.3-19.47-.65-12-5.19-3.25-6.17 3.25-.54 3.59-3.93 21.5-5.19 29.21-3.89 23.69-13.88 16.09-15.9 6.49-3.26-15.52-4.67-28.94-5.52-36.35-.54-4.71-2.92-3.89-4.54-.65-.61 1.22-1.93 5.24-1.54 15.86 1.08 29.56-1.15 46.86-10.53 44.26-15.82-4.38-6.2-32.44-15.57-36.91-4.41-2.1-4 23.78-7.93 32.87-2.74 6.34-11.45 4.68-13.84 2.6-7.79-6.78-7.52-20.39-8.37-36-.65-12-15.9-4.87-24.34-1.95-17.03 5.93-53.66 23.9-34.07 52.29z"/><ellipse class="cls-7" cx="-1.07" cy="140.41" rx="1.57" ry="1.22" transform="translate(-136.43 103.05) rotate(-75.01)"/><path class="cls-7" d="M-1.18 122.86c-1 .12-1.73.67-1.57 1.21s1.13.89 2.16.76 1.73-.67 1.57-1.21-1.13-.89-2.16-.76zM-1.15 112.94c1 0 1.81-.41 1.72-1s-1-1-2-1.07-1.81.41-1.72 1 .96 1.05 2 1.07z"/></g></svg>