<svg xmlns="http://www.w3.org/2000/svg" xmlns:xlink="http://www.w3.org/1999/xlink" viewBox="0 0 175 175"><defs><style>.cls-1{fill:#bedfe4;}.cls-2{fill:url(#radial-gradient);}.cls-3{fill:#dd8e98;}.cls-4{fill:#fff;}.cls-5{fill:url(#New_Gradient_Swatch_3);}.cls-6{fill:url(#New_Gradient_Swatch_3-2);}.cls-7{fill:url(#New_Gradient_Swatch_3-3);}.cls-8{fill:url(#New_Gradient_Swatch_3-4);}.cls-9{opacity:0.84;}.cls-10{fill:url(#linear-gradient);}.cls-11{fill:url(#linear-gradient-2);}.cls-12{fill:url(#linear-gradient-3);}.cls-13{fill:url(#linear-gradient-4);}.cls-14{fill:url(#New_Gradient_Swatch_3-5);}.cls-15{fill:url(#New_Gradient_Swatch_3-6);}.cls-16{fill:url(#New_Gradient_Swatch_3-7);}.cls-17{fill:url(#New_Gradient_Swatch_3-8);}.cls-18{fill:url(#New_Gradient_Swatch_3-9);}.cls-19{opacity:0.82;}.cls-20{fill:url(#linear-gradient-5);}.cls-21{fill:url(#linear-gradient-6);}.cls-22{fill:url(#linear-gradient-7);}.cls-23{fill:url(#linear-gradient-8);}.cls-24{fill:url(#linear-gradient-9);}.cls-25{fill:#1d1d1b;opacity:0.21;}.cls-26{fill:url(#linear-gradient-10);}.cls-27{fill:url(#linear-gradient-11);}</style><radialGradient id="radial-gradient" cx="87.63" cy="92.9" r="63.09" gradientTransform="translate(0 -65.03) scale(1 1.7)" gradientUnits="userSpaceOnUse"><stop offset="0" stop-color="#dd8e98"/><stop offset=".08" stop-color="#d68792"/><stop offset=".21" stop-color="#c47482"/><stop offset=".35" stop-color="#a65569"/><stop offset=".45" stop-color="#8d3b53"/><stop offset=".58" stop-color="#893a50"/><stop offset=".7" stop-color="#7d3746"/><stop offset=".83" stop-color="#693236"/><stop offset=".96" stop-color="#4d2b20"/><stop offset="1" stop-color="#432918"/></radialGradient><linearGradient id="New_Gradient_Swatch_3" x1="72.47" y1="113.95" x2="86.29" y2="113.95" gradientUnits="userSpaceOnUse"><stop offset="0" stop-color="#fff"/><stop offset=".44" stop-color="#fdfefe"/><stop offset=".65" stop-color="#f5fafa"/><stop offset=".81" stop-color="#e8f4f2"/><stop offset=".95" stop-color="#d6ebe8"/><stop offset="1" stop-color="#cde7e3"/></linearGradient><linearGradient id="New_Gradient_Swatch_3-2" x1="60.88" y1="113.72" x2="72.84" y2="113.72" xlink:href="#New_Gradient_Swatch_3"/><linearGradient id="New_Gradient_Swatch_3-3" x1="50.28" y1="112.14" x2="60.81" y2="112.14" xlink:href="#New_Gradient_Swatch_3"/><linearGradient id="New_Gradient_Swatch_3-4" x1="40.25" y1="110.6" x2="50.51" y2="110.6" xlink:href="#New_Gradient_Swatch_3"/><linearGradient id="linear-gradient" x1="86.57" y1="113.95" x2="100.39" y2="113.95" gradientUnits="userSpaceOnUse"><stop offset="0" stop-color="#ca9e67" stop-opacity=".3"/><stop offset=".32" stop-color="#ca9f68" stop-opacity=".31"/><stop offset=".47" stop-color="#caa16c" stop-opacity=".34"/><stop offset=".59" stop-color="#cba674" stop-opacity=".4"/><stop offset=".69" stop-color="#ccac7e" stop-opacity=".47"/><stop offset=".78" stop-color="#cdb48b" stop-opacity=".58"/><stop offset=".86" stop-color="#cebe9b" stop-opacity=".7"/><stop offset=".94" stop-color="#cfc9ae" stop-opacity=".85"/><stop offset="1" stop-color="#d1d5c2"/></linearGradient><linearGradient id="linear-gradient-2" x1="100.03" y1="113.72" x2="111.98" y2="113.72" xlink:href="#linear-gradient"/><linearGradient id="linear-gradient-3" x1="112.05" y1="112.14" x2="122.58" y2="112.14" xlink:href="#linear-gradient"/><linearGradient id="linear-gradient-4" x1="122.35" y1="110.6" x2="132.61" y2="110.6" xlink:href="#linear-gradient"/><linearGradient id="New_Gradient_Swatch_3-5" x1="58.22" y1="83.24" x2="86.71" y2="83.24" xlink:href="#New_Gradient_Swatch_3"/><linearGradient id="New_Gradient_Swatch_3-6" x1="39.25" y1="83.47" x2="58.67" y2="83.47" xlink:href="#New_Gradient_Swatch_3"/><linearGradient id="New_Gradient_Swatch_3-7" x1="35.28" y1="82.29" x2="46.56" y2="82.29" gradientTransform="translate(-7.57 -.23) rotate(-.42)" xlink:href="#New_Gradient_Swatch_3"/><linearGradient id="New_Gradient_Swatch_3-8" x1="21.4" y1="80.14" x2="28.75" y2="80.14" xlink:href="#New_Gradient_Swatch_3"/><linearGradient id="New_Gradient_Swatch_3-9" x1="16.87" y1="76.42" x2="21.79" y2="76.42" xlink:href="#New_Gradient_Swatch_3"/><linearGradient id="linear-gradient-5" x1="86.85" y1="82.8" x2="115.24" y2="82.8" xlink:href="#linear-gradient"/><linearGradient id="linear-gradient-6" x1="114.63" y1="82.33" x2="134.19" y2="82.33" xlink:href="#linear-gradient"/><linearGradient id="linear-gradient-7" x1="133.58" y1="80.07" x2="144.89" y2="80.07" xlink:href="#linear-gradient"/><linearGradient id="linear-gradient-8" x1="144.47" y1="77.5" x2="152.49" y2="77.5" xlink:href="#linear-gradient"/><linearGradient id="linear-gradient-9" x1="152.16" y1="73.39" x2="156.97" y2="73.39" xlink:href="#linear-gradient"/><linearGradient id="linear-gradient-10" x1="87.78" y1="42.44" x2="87.78" y2="71.89" gradientUnits="userSpaceOnUse"><stop offset="0" stop-color="#fbdcd4"/><stop offset=".01" stop-color="#fad4cf"/><stop offset=".03" stop-color="#f6b5bc"/><stop offset=".07" stop-color="#f399ab"/><stop offset=".1" stop-color="#f0839e"/><stop offset=".15" stop-color="#ee7294"/><stop offset=".2" stop-color="#ed678c"/><stop offset=".27" stop-color="#ec6088"/><stop offset=".47" stop-color="#ec5e87"/><stop offset=".77" stop-color="#e84251"/></linearGradient><linearGradient id="linear-gradient-11" x1="87.63" y1="144.49" x2="87.63" y2="67.97" xlink:href="#linear-gradient-10"/></defs><title>whitning</title><circle class="cls-1" cx="87.5" cy="87.5" r="87.5"/><path class="cls-2" d="M8.41 71.6s5.93-18.44 43.25-19.76c1.76 0 83.43 2.63 83.43 2.63l29.42 7 2.34 6.73-12 34.54s-52.69 31.26-54.45 31.26l-62.4-11.9-21.69-21.52z"/><path class="cls-3" d="M15 62.82l4.17 15.81 42.59 6.59s39.74 2 41.05 1.16l36.23-4 16-10.1 4.17-10.32a10.17 10.17 0 0 0-5.71-2.2c-3.04-.01-138.5 3.06-138.5 3.06zM119.78 132.32l30.9-26.68-35 8.06s-43.38.78-44.7 1.66l-42.55-8.18-11.25-10 2.48 7.45s15.14 18.63 18.21 18.63l81.91 9.06z"/><path class="cls-4" d="M98.08 104.29c-3.66-.63-9.15-.89-10.69.69s-.59 12.73.29 17.42c.52 2.77 9.61 2 11.12-.88s2.93-16.61-.72-17.23zM110.89 105.75s-7-2.38-9.82 0c-1.55 1.29-1.23 13.4 0 15.37s8.18 2.36 9.41 0 2.45-13.01.41-15.37zM122.12 108.35c-1.38-5.54-3.7-6.42-7.71-3.69-2.6 1.78-3.53 12.48-.25 15.8 1.62 1.63 5.07-.05 5.72-2.62s3.88-2.89 2.24-9.49zM132.47 108.34c0-4.41-7.85-2.73-9.18-.74-.83 1.24-1.37 6-.48 7.48s3.4-.25 6.44-1.46c4.39-1.77 3.22-4.11 3.22-5.28z"/><path class="cls-5" d="M74.78 104.29c3.66-.63 9.15-.89 10.69.69s.59 12.73-.29 17.42c-.52 2.77-9.61 2-11.12-.88s-2.93-16.61.72-17.23z"/><path class="cls-6" d="M62 105.75s7-2.38 9.82 0c1.55 1.29 1.23 13.4 0 15.37s-8.18 2.36-9.41 0-2.48-13.01-.41-15.37z"/><path class="cls-7" d="M50.74 108.35c1.38-5.54 3.7-6.42 7.71-3.69 2.6 1.78 3.53 12.48.25 15.8-1.62 1.63-5.07-.05-5.72-2.62s-3.88-2.89-2.24-9.49z"/><path class="cls-8" d="M40.39 108.34c0-4.41 7.85-2.73 9.18-.74.83 1.24 1.37 6 .48 7.48s-3.4-.25-6.44-1.46c-4.39-1.77-3.22-4.11-3.22-5.28z"/><g class="cls-9"><path class="cls-10" d="M98.08 104.29c-3.66-.63-9.15-.89-10.69.69s-.59 12.73.29 17.42c.52 2.77 9.61 2 11.12-.88s2.93-16.61-.72-17.23z"/><path class="cls-11" d="M110.89 105.75s-7-2.38-9.82 0c-1.55 1.29-1.23 13.4 0 15.37s8.18 2.36 9.41 0 2.45-13.01.41-15.37z"/><path class="cls-12" d="M122.12 108.35c-1.38-5.54-3.7-6.42-7.71-3.69-2.6 1.78-3.53 12.48-.25 15.8 1.62 1.63 5.07-.05 5.72-2.62s3.88-2.89 2.24-9.49z"/><path class="cls-13" d="M132.47 108.34c0-4.41-7.85-2.73-9.18-.74-.83 1.24-1.37 6-.48 7.48s3.4-.25 6.44-1.46c4.39-1.77 3.22-4.11 3.22-5.28z"/></g><path class="cls-14" d="M68 67.31c9.66-.24 17.76 1.61 18.12 16.24.56 11 1.19 12.85-.23 14.5s-25.89 1.52-26.89-.65c-1.6-3.72-.36-14.49-.36-14.49s-.34-15.36 9.36-15.6z"/><path class="cls-15" d="M44.63 70.29c4.22-1.76 13.76.09 13.76 8.43s1.42 17.91-2.22 18.35-16.36.44-16.81-3.51.45-11 .91-16.25.15-5.31 4.36-7.02z"/><path class="cls-16" d="M30.47 71.35c4-1.45 7 2.14 8.08 5 2 5.25.6 15.35.6 15.35s-8.27 2.98-10.26-2.7c-1.18-3.39-.47-16.9 1.58-17.65z"/><path class="cls-17" d="M23.16 71a4.75 4.75 0 0 1 4.79 2.75c1.5 3 .44 8.78.44 12.73s-3.51 3.07-5.71.44-1.25-15.92.48-15.92z"/><path class="cls-18" d="M17.05 69.85s2.48-.9 3.43 1.32 1.31 7.22 1.31 10.06-2.53 2.21-4.11.32-.31-11.07-.63-11.7z"/><path class="cls-4" d="M104.72 66.75c-9.66.07-17.69 2.19-17.58 16.82-.21 11-.78 12.89.7 14.49s25.91.68 26.77-1.53c1.47-3.77-.11-14.49-.11-14.49s-.12-15.37-9.78-15.29zM128.12 69c-4.27-1.62-13.75.54-13.48 8.87s-.84 18 2.81 18.27 16.36-.09 16.69-4.06-.81-11-1.43-16.21-.32-5.29-4.59-6.87zM142.24 69.55c-4-1.29-6.89 2.41-7.87 5.36-1.77 5.33 0 15.37 0 15.37s8.37 2.6 10.13-3.17c1.05-3.42-.19-16.89-2.26-17.56zM150.29 68.35a5.26 5.26 0 0 0-5.09 2.92c-1.53 3-.19 8.79-.06 12.74s3.9 2.95 6.19.24.83-15.96-1.04-15.9zM156.55 66.75s-2.51-.81-3.39 1.43-1.08 7.25-1 10.1 2.6 2.13 4.12.18-.03-11.06.27-11.71z"/><g class="cls-19"><path class="cls-20" d="M104.72 66.75c-9.66.07-17.69 2.19-17.58 16.82-.21 11-.78 12.89.7 14.49s25.91.68 26.77-1.53c1.47-3.77-.11-14.49-.11-14.49s-.12-15.37-9.78-15.29z"/><path class="cls-21" d="M128.12 69c-4.27-1.62-13.75.54-13.48 8.87s-.84 18 2.81 18.27 16.36-.09 16.69-4.06-.81-11-1.43-16.21-.32-5.29-4.59-6.87z"/><path class="cls-22" d="M142.24 69.55c-4-1.29-6.89 2.41-7.87 5.36-1.77 5.33 0 15.37 0 15.37s8.37 2.6 10.13-3.17c1.05-3.42-.19-16.89-2.26-17.56z"/><path class="cls-23" d="M150.29 68.35a5.26 5.26 0 0 0-5.09 2.92c-1.53 3-.19 8.79-.06 12.74s3.9 2.95 6.19.24.83-15.96-1.04-15.9z"/><path class="cls-24" d="M156.55 66.75s-2.51-.81-3.39 1.43-1.08 7.25-1 10.1 2.6 2.13 4.12.18-.03-11.06.27-11.71z"/></g><path class="cls-25" d="M14.78 64.58s-9.22 5.71-.88 8.34 44.79 2.2 57.52 2.2 57-3.15 66.3-4.39c13.17-1.76 15.26-2.67 18.82-4l9.72 2.65s-6.15-12.29-11.42-12.73-59.28-2.2-64.55-2.2l-75.51 10.13z"/><path class="cls-26" d="M86.79 68.53s-39-.44-53.57-.44c-9.22 0-19.76-3.09-24.3 3.37-3 4.32 7.27-25 42-28.4 23.72-2.34 31.33 4.69 38.08 4.39 4.39-.19 13.79-4.09 19-4.68 23.42-2.63 47.14 11.49 52 14.12 5.71 3.07 7.1 11.75 7.1 11.75s-.66-4.06-18-3.18c-6.54.33-32.89 3.54-62.31 3.07z"/><path class="cls-25" d="M141.68 108.93s-44.79 12.29-59.28 11.41-43.47-4.34-50.94-10.53-10.1 17.56 30.3 20.2 55.77-2.63 67.18-8.78l12.74-12.3z"/><path class="cls-27" d="M8.19 71.16s17.17 35.68 37.18 42.45 28.69 9.37 40.54 8.93 37.3-5.42 45.89-10.76c29-18 31.56-42.74 35-43.8 1.9-.59-7.29 36.89-24.85 56.75-11.12 12.59-34.84 19.76-55.62 19.76-39.2 0-64.69-20.93-70.26-38.2-4.44-13.84-5.69-20.64-7.88-35.13z"/></svg>