<svg xmlns="http://www.w3.org/2000/svg" xmlns:xlink="http://www.w3.org/1999/xlink" viewBox="0 0 175 175"><defs><style>.cls-1{fill:#bedfe4;}.cls-2{fill:url(#radial-gradient);}.cls-3{fill:#dd8e98;}.cls-4{fill:url(#New_Gradient_Swatch_3);}.cls-5{fill:url(#New_Gradient_Swatch_3-2);}.cls-6{fill:url(#New_Gradient_Swatch_3-3);}.cls-7{fill:url(#New_Gradient_Swatch_3-4);}.cls-8{fill:url(#New_Gradient_Swatch_3-5);}.cls-9{fill:url(#New_Gradient_Swatch_3-6);}.cls-10{fill:url(#New_Gradient_Swatch_3-7);}.cls-11{fill:url(#New_Gradient_Swatch_3-8);}.cls-12{fill:url(#New_Gradient_Swatch_3-9);}.cls-13{fill:url(#New_Gradient_Swatch_3-10);}.cls-14{fill:url(#New_Gradient_Swatch_3-11);}.cls-15{fill:url(#New_Gradient_Swatch_3-12);}.cls-16{fill:url(#New_Gradient_Swatch_3-13);}.cls-17{fill:url(#New_Gradient_Swatch_3-14);}.cls-18{fill:url(#New_Gradient_Swatch_3-15);}.cls-19{fill:url(#New_Gradient_Swatch_3-16);}.cls-20{fill:url(#New_Gradient_Swatch_3-17);}.cls-21{fill:url(#New_Gradient_Swatch_3-18);}.cls-22{fill:#1d1d1b;opacity:0.21;}.cls-23{fill:url(#linear-gradient);}.cls-24{fill:url(#linear-gradient-2);}.cls-25,.cls-28{fill:none;stroke-miterlimit:10;stroke-width:0.89px;}.cls-25{stroke:url(#White_Black);}.cls-26{fill:url(#radial-gradient-2);}.cls-27{fill:url(#radial-gradient-3);}.cls-28{stroke:url(#White_Black-2);}.cls-29{fill:url(#radial-gradient-4);}.cls-30{fill:url(#radial-gradient-5);}.cls-31{fill:url(#radial-gradient-6);}.cls-32{fill:url(#radial-gradient-7);}.cls-33{fill:url(#radial-gradient-8);}.cls-34{fill:url(#radial-gradient-9);}.cls-35{fill:url(#radial-gradient-10);}</style><radialGradient id="radial-gradient" cx="86.91" cy="93.38" r="64.13" gradientTransform="translate(0 -65.36) scale(1 1.7)" gradientUnits="userSpaceOnUse"><stop offset="0" stop-color="#dd8e98"/><stop offset=".08" stop-color="#d68792"/><stop offset=".21" stop-color="#c47482"/><stop offset=".35" stop-color="#a65569"/><stop offset=".45" stop-color="#8d3b53"/><stop offset=".58" stop-color="#893a50"/><stop offset=".7" stop-color="#7d3746"/><stop offset=".83" stop-color="#693236"/><stop offset=".96" stop-color="#4d2b20"/><stop offset="1" stop-color="#432918"/></radialGradient><linearGradient id="New_Gradient_Swatch_3" x1="-16.44" y1="179.85" x2="-2.49" y2="179.85" gradientTransform="translate(130.15 -62.13) rotate(8.75)" gradientUnits="userSpaceOnUse"><stop offset="0" stop-color="#fff"/><stop offset=".44" stop-color="#fdfefe"/><stop offset=".65" stop-color="#f5fafa"/><stop offset=".81" stop-color="#e8f4f2"/><stop offset=".95" stop-color="#d6ebe8"/><stop offset="1" stop-color="#cde7e3"/></linearGradient><linearGradient id="New_Gradient_Swatch_3-2" x1="100.43" y1="113.51" x2="110.18" y2="113.51" xlink:href="#New_Gradient_Swatch_3"/><linearGradient id="New_Gradient_Swatch_3-3" x1="3.41" y1="182.93" x2="14.04" y2="182.93" gradientTransform="translate(138.97 -70) rotate(9.32)" xlink:href="#New_Gradient_Swatch_3"/><linearGradient id="New_Gradient_Swatch_3-4" x1="125.69" y1="108.96" x2="136.49" y2="108.96" xlink:href="#New_Gradient_Swatch_3"/><linearGradient id="New_Gradient_Swatch_3-5" x1="70.91" y1="114.63" x2="84.85" y2="114.63" xlink:href="#New_Gradient_Swatch_3"/><linearGradient id="New_Gradient_Swatch_3-6" x1="59.2" y1="114.39" x2="71.27" y2="114.39" xlink:href="#New_Gradient_Swatch_3"/><linearGradient id="New_Gradient_Swatch_3-7" x1="48.5" y1="112.8" x2="59.13" y2="112.8" xlink:href="#New_Gradient_Swatch_3"/><linearGradient id="New_Gradient_Swatch_3-8" x1="38.37" y1="111.25" x2="48.73" y2="111.25" xlink:href="#New_Gradient_Swatch_3"/><linearGradient id="New_Gradient_Swatch_3-9" x1="56.51" y1="83.62" x2="85.27" y2="83.62" xlink:href="#New_Gradient_Swatch_3"/><linearGradient id="New_Gradient_Swatch_3-10" x1="37.36" y1="83.86" x2="56.97" y2="83.86" xlink:href="#New_Gradient_Swatch_3"/><linearGradient id="New_Gradient_Swatch_3-11" x1="33.3" y1="79.42" x2="44.69" y2="79.42" gradientTransform="translate(-7.56 3) rotate(-.42)" xlink:href="#New_Gradient_Swatch_3"/><linearGradient id="New_Gradient_Swatch_3-12" x1="19.35" y1="80.49" x2="26.77" y2="80.49" xlink:href="#New_Gradient_Swatch_3"/><linearGradient id="New_Gradient_Swatch_3-13" x1="14.78" y1="76.74" x2="19.75" y2="76.74" xlink:href="#New_Gradient_Swatch_3"/><linearGradient id="New_Gradient_Swatch_3-14" x1="46.47" y1="49.24" x2="75.13" y2="49.24" gradientTransform="matrix(.9 0 0 .95 44.28 33.59)" xlink:href="#New_Gradient_Swatch_3"/><linearGradient id="New_Gradient_Swatch_3-15" x1="177.31" y1="50.27" x2="195.21" y2="50.27" gradientTransform="matrix(1 -.09 .09 1 -67.74 48)" xlink:href="#New_Gradient_Swatch_3"/><linearGradient id="New_Gradient_Swatch_3-16" x1="86.68" y1="31.16" x2="98.1" y2="31.16" gradientTransform="matrix(.89 0 0 .93 55.31 54.17)" xlink:href="#New_Gradient_Swatch_3"/><linearGradient id="New_Gradient_Swatch_3-17" x1="234.09" y1="26.74" x2="242.19" y2="26.74" gradientTransform="matrix(.9 -.14 .16 .99 -70.62 84.85)" xlink:href="#New_Gradient_Swatch_3"/><linearGradient id="New_Gradient_Swatch_3-18" x1="151.35" y1="73.68" x2="156.2" y2="73.68" xlink:href="#New_Gradient_Swatch_3"/><linearGradient id="linear-gradient" x1="86.94" y1="42.44" x2="86.94" y2="72.17" gradientUnits="userSpaceOnUse"><stop offset="0" stop-color="#fbdcd4"/><stop offset=".01" stop-color="#fad4cf"/><stop offset=".03" stop-color="#f6b5bc"/><stop offset=".07" stop-color="#f399ab"/><stop offset=".1" stop-color="#f0839e"/><stop offset=".15" stop-color="#ee7294"/><stop offset=".2" stop-color="#ed678c"/><stop offset=".27" stop-color="#ec6088"/><stop offset=".47" stop-color="#ec5e87"/><stop offset=".77" stop-color="#e84251"/></linearGradient><linearGradient id="linear-gradient-2" x1="86.84" y1="145.46" x2="86.84" y2="68.35" xlink:href="#linear-gradient"/><linearGradient id="White_Black" x1="13.32" y1="80.4" x2="84.62" y2="80.4" gradientUnits="userSpaceOnUse"><stop offset="0" stop-color="#fff"/><stop offset="1" stop-color="#1d1d1b"/></linearGradient><radialGradient id="radial-gradient-2" cx="69.99" cy="86.36" r="4.3" gradientUnits="userSpaceOnUse"><stop offset="0" stop-color="#fff"/><stop offset=".27" stop-color="#dcdcdc"/><stop offset=".87" stop-color="#838383"/><stop offset="1" stop-color="#706f6f"/></radialGradient><radialGradient id="radial-gradient-3" cx="-51.14" cy="85.62" r="4.3" gradientTransform="translate(86.84) scale(.79 1)" xlink:href="#radial-gradient-2"/><linearGradient id="White_Black-2" x1="37.49" y1="112.02" x2="85.51" y2="112.02" xlink:href="#White_Black"/><radialGradient id="radial-gradient-4" cx="77.38" cy="114.43" r="3.18" xlink:href="#radial-gradient-2"/><radialGradient id="radial-gradient-5" cx="-28.52" cy="113.99" r="3.1" gradientTransform="translate(86.84) scale(.79 1)" xlink:href="#radial-gradient-2"/><radialGradient id="radial-gradient-6" cx="-44.22" cy="112.88" r="3.1" gradientTransform="translate(86.84) scale(.79 1)" xlink:href="#radial-gradient-2"/><radialGradient id="radial-gradient-7" cx="-56.84" cy="110.67" r="2.39" gradientTransform="translate(86.84) scale(.79 1)" xlink:href="#radial-gradient-2"/><radialGradient id="radial-gradient-8" cx="-71.23" cy="83.26" r="3.74" gradientTransform="translate(86.84) scale(.79 1)" xlink:href="#radial-gradient-2"/><radialGradient id="radial-gradient-9" cx="-81.33" cy="81.19" r="2.45" gradientTransform="translate(86.84) scale(.79 1)" xlink:href="#radial-gradient-2"/><radialGradient id="radial-gradient-10" cx="-90.8" cy="76.08" r="2.45" gradientTransform="translate(86.84) scale(.79 1)" xlink:href="#radial-gradient-2"/></defs><title>yeshur</title><circle class="cls-1" cx="87.5" cy="87.5" r="87.5"/><path class="cls-2" d="M6.23 71.88s6-18.62 43.66-19.95c1.77 0 84.22 2.66 84.22 2.66l29.7 7.09 3.77 6.82-13.52 34.85s-53.19 31.47-55 31.47l-62.94-12-21.91-21.68z"/><path class="cls-3" d="M12.81 63.46l4.28 15.54 43 6.65s40.11 2.06 41.44 1.17l36.57-4.05 16.18-10.2 4.21-10.42a10.26 10.26 0 0 0-5.76-2.22c-3.1-.02-139.92 3.53-139.92 3.53zM118.66 133.17l31.19-26.94-35.37 8.13s-43.8.78-45.12 1.67l-43-8.25-11.36-10.12 2.51 7.52s15.32 18.82 18.42 18.82l82.73 9.17z"/><path class="cls-4" d="M99.51 105.25c-3.56-1.19-9-2.29-10.77-1s-2.54 12.62-2.38 17.42c.09 2.84 9.28 3.44 11.23.83s5.47-16.07 1.92-17.25z"/><path class="cls-5" d="M109.29 105.46s-5.68-2.4-8 0c-1.26 1.3-1 13.53 0 15.52s6.67 2.39 7.67 0 2.04-13.13.33-15.52z"/><path class="cls-6" d="M123.36 109c-.47-5.75-2.64-7-7.08-4.93-2.89 1.34-5.56 11.85-2.83 15.7 1.34 1.89 5.06.78 6.12-1.67s4.34-2.31 3.79-9.1z"/><path class="cls-7" d="M136.34 106.45c0-4.9-8.26-3-9.66-.83-.87 1.38-1.45 6.66-.51 8.31s3.58-.28 6.78-1.63c4.62-1.95 3.39-4.55 3.39-5.85z"/><path class="cls-8" d="M73.23 104.87c3.7-.63 9.24-.9 10.79.7s.59 12.85-.3 17.58c-.52 2.79-9.7 2-11.23-.89s-2.94-16.76.74-17.39z"/><path class="cls-9" d="M60.31 106.35s7-2.4 9.91 0c1.56 1.3 1.24 13.53 0 15.52s-8.26 2.39-9.5 0-2.48-13.14-.41-15.52z"/><path class="cls-10" d="M49 109c1.39-5.59 3.74-6.48 7.79-3.72 2.63 1.79 3.57 12.59.25 15.95-1.63 1.65-5.12-.05-5.77-2.64s-3.96-2.95-2.27-9.59z"/><path class="cls-11" d="M38.52 109c0-4.45 7.93-2.76 9.27-.75.83 1.25 1.39 6 .49 7.55s-3.43-.25-6.5-1.48c-4.44-1.81-3.26-4.17-3.26-5.32z"/><path class="cls-12" d="M66.34 67.55c9.75-.24 17.92 1.63 18.29 16.4.57 11.07 1.21 13-.23 14.64s-26.12 1.53-27.06-.66c-1.62-3.76-.34-14.63-.34-14.63s-.41-15.51 9.34-15.75z"/><path class="cls-13" d="M42.8 70.55c4.26-1.77 13.89.09 13.89 8.51s1.43 18.08-2.24 18.53-16.5.41-16.96-3.59.46-11.08.92-16.4.13-5.28 4.39-7.05z"/><path class="cls-14" d="M28.5 71.63c4-1.46 7 2.16 8.16 5.09 2 5.3.6 15.5.6 15.5s-8.34 3-10.35-2.79c-1.19-3.43-.48-17.05 1.59-17.8z"/><path class="cls-15" d="M21.12 71.32a4.8 4.8 0 0 1 4.88 2.78c1.51 3 .44 8.87.44 12.85s-3.55 3.1-5.76.44-1.31-16.07.44-16.07z"/><path class="cls-16" d="M15 70.11s2.51-.9 3.46 1.33 1.32 7.28 1.32 10.16-2.55 2.23-4.15.32-.35-11.17-.63-11.81z"/><path class="cls-17" d="M102.35 65.31c-8.76 0-16 2-15.89 16.15-.15 10.58-.66 12.41.68 14s23.51.74 24.28-1.38c1.33-3.63-.15-14-.15-14s-.16-14.81-8.92-14.77z"/><path class="cls-18" d="M124.54 69c-4-1.13-12.49 1.61-11.56 9.18s.7 16.42 4 16.42 14.9-1.41 14.88-5.05-1.63-9.92-2.63-14.65-.66-4.75-4.69-5.9z"/><path class="cls-19" d="M140.33 73.36c-3.62-1.22-6.19 2.25-7.07 5-1.59 5 0 14.41 0 14.41s7.53 2.45 9.11-3c.96-3.14-.17-15.77-2.04-16.41z"/><path class="cls-20" d="M147.42 68.48a4.69 4.69 0 0 0-4.14 3.63c-.89 3.24 1.25 8.79 2 12.7s4 2.39 5.64-.64-1.82-16.02-3.5-15.69z"/><path class="cls-21" d="M155.78 67s-2.53-.82-3.42 1.44-1.09 7.32-1 10.19 2.62 2.15 4.16.18-.04-11.18.26-11.81z"/><path class="cls-22" d="M12.66 64.79s-9.31 5.76-.89 8.42 45.23 2.22 58.07 2.22 57.52-3.18 66.93-4.43c13.3-1.77 15.4-2.7 19-4l9.81 2.68s-6.21-12.41-11.52-12.85-59.84-2.24-65.16-2.24l-76.24 10.2z"/><path class="cls-23" d="M85.36 68.78s-39.36-.45-54.08-.45c-9.31 0-19.95-3.1-24.53 3.4-3.07 4.36 7.34-25.2 42.41-28.66 23.93-2.37 31.62 4.73 38.41 4.43 4.43-.19 13.92-4.13 19.21-4.73 23.64-2.66 47.59 11.6 52.53 14.26 5.76 3.1 8.33 11.58 8.33 11.58s-1.83-3.82-19.34-2.94c-6.64.33-33.24 3.55-62.94 3.11z"/><path class="cls-22" d="M140.76 109.56s-45.21 12.44-59.84 11.52-43.92-4.43-51.42-10.64-10.2 17.73 30.59 20.39 56.3-2.66 67.82-8.87l12.85-12.4z"/><path class="cls-24" d="M6 71.44s17.34 36 37.53 42.85 29 9.46 40.93 9 37.65-5.48 46.32-10.86c29.22-18.16 33.5-42.52 36.8-44.07 1.11-.52-8.8 37.11-26.52 57.16-11.23 12.71-35.17 19.95-56.15 19.95-39.57 0-65.31-21.13-70.92-38.56-4.5-13.99-5.76-20.85-7.99-35.47z"/><path class="cls-25" d="M84.62 86.51l-14.62-.15s-19.65-.15-23.79-.74-13.53-1.73-18-2.66c-10-2.07-14.48-8.87-14.48-8.87"/><path class="cls-26" d="M73.31 90.35l-3.77-1.77-2.88 1.77a1.26 1.26 0 0 1-1.26-1.26l.89-3.47-.89-2a1.26 1.26 0 0 1 1.26-1.26l3.18 1.18 3.47-1.18a1.26 1.26 0 0 1 1.26 1.26l-1.77 2.59 1.77 2.88a1.26 1.26 0 0 1-1.26 1.26z"/><path class="cls-27" d="M49 89.61l-3-1.77-2.2 1.77a1.15 1.15 0 0 1-1-1.26l.7-3.47-.7-2a1.15 1.15 0 0 1 1-1.26l2.51 1.18 2.69-1.17a1.15 1.15 0 0 1 1 1.26l-1.4 2.59 1.4 2.87a1.15 1.15 0 0 1-1 1.26z"/><path class="cls-28" d="M85.5 114.43l-14.63-.15s-14.85-.59-19-1.18-8.87-.66-14.18-3.55"/><path class="cls-29" d="M79.84 117.39l-2.84-1.31-2.13 1.31a.93.93 0 0 1-.93-.93l.66-2.57-.6-1.48a.93.93 0 0 1 .93-.93l2.35.88 2.57-.88a.93.93 0 0 1 .93.93l-1.31 1.91 1.31 2.13a.93.93 0 0 1-.94.94z"/><path class="cls-30" d="M66.2 116.87l-2.2-1.28-1.64 1.28a.83.83 0 0 1-.72-.91l.51-2.51-.46-1.45a.83.83 0 0 1 .72-.91l1.81.85 2-.85a.83.83 0 0 1 .72.91l-1 1.87 1 2.08a.83.83 0 0 1-.74.92z"/><path class="cls-31" d="M53.79 115.76l-2.15-1.28-1.64 1.28a.83.83 0 0 1-.72-.91l.51-2.51-.51-1.44a.83.83 0 0 1 .72-.9l1.81.85 2-.85a.83.83 0 0 1 .72.91l-1 1.87 1 2.08a.83.83 0 0 1-.74.9z"/><path class="cls-32" d="M43.38 112.88l-1.65-1-1.26 1a.64.64 0 0 1-.55-.7l.39-1.93-.39-1.11a.64.64 0 0 1 .55-.7l1.39.66 1.52-.66a.64.64 0 0 1 .55.7l-.78 1.44.78 1.6a.64.64 0 0 1-.55.7z"/><path class="cls-33" d="M32.83 86.73l-2.59-1.54-2 1.54a1 1 0 0 1-.86-1.09l.61-3-.61-1.74a1 1 0 0 1 .86-1.09l2.18 1 2.39-1a1 1 0 0 1 .86 1.09l-1.22 2.25 1.22 2.51a1 1 0 0 1-.84 1.07z"/><path class="cls-34" d="M24.06 83.47l-1.7-1-1.3 1a.66.66 0 0 1-.57-.72l.4-2-.4-1.14a.66.66 0 0 1 .57-.72l1.43.68 1.57-.68a.66.66 0 0 1 .57.72l-.8 1.48.8 1.65a.66.66 0 0 1-.57.73z"/><path class="cls-35" d="M16.58 78.36l-1.7-1-1.3 1a.66.66 0 0 1-.57-.72l.4-2-.41-1.12a.66.66 0 0 1 .57-.72l1.43.68 1.57-.68a.66.66 0 0 1 .57.72l-.8 1.48.8 1.65a.66.66 0 0 1-.56.71z"/></svg>