<svg xmlns="http://www.w3.org/2000/svg" xmlns:xlink="http://www.w3.org/1999/xlink" viewBox="0 0 175 175"><defs><style>.cls-1{fill:#bedfe4;}.cls-2{clip-path:url(#clip-path);}.cls-3{fill:url(#radial-gradient);}.cls-4{fill:#dd8e98;}.cls-5{fill:url(#New_Gradient_Swatch_3);}.cls-6{fill:url(#New_Gradient_Swatch_3-2);}.cls-7{fill:url(#New_Gradient_Swatch_3-3);}.cls-8{fill:url(#New_Gradient_Swatch_3-4);}.cls-9{fill:url(#New_Gradient_Swatch_3-5);}.cls-10{fill:url(#New_Gradient_Swatch_3-6);}.cls-11{fill:url(#New_Gradient_Swatch_3-7);}.cls-12{fill:url(#New_Gradient_Swatch_3-8);}.cls-13{fill:url(#New_Gradient_Swatch_3-9);}.cls-14{fill:url(#New_Gradient_Swatch_3-10);}.cls-15{fill:url(#New_Gradient_Swatch_3-11);}.cls-16{fill:url(#New_Gradient_Swatch_3-12);}.cls-17{fill:url(#New_Gradient_Swatch_3-13);}.cls-18{fill:url(#New_Gradient_Swatch_3-14);}.cls-19{fill:url(#New_Gradient_Swatch_3-15);}.cls-20{fill:url(#New_Gradient_Swatch_3-16);}.cls-21{fill:url(#New_Gradient_Swatch_3-17);}.cls-22{fill:url(#New_Gradient_Swatch_3-18);}.cls-23,.cls-26,.cls-27,.cls-33{fill:#1d1d1b;}.cls-23{opacity:0.21;}.cls-24{fill:url(#linear-gradient);}.cls-25{fill:url(#linear-gradient-2);}.cls-26{opacity:0.3;}.cls-27{opacity:0.28;}.cls-28{fill:url(#White_Black);}.cls-29{fill:url(#linear-gradient-3);}.cls-30{fill:url(#linear-gradient-4);}.cls-31{fill:url(#linear-gradient-5);}.cls-32{fill:#8d3b53;opacity:0.33;}.cls-33{opacity:0.45;}.cls-34{fill:url(#White_Black-2);}.cls-35{fill:url(#linear-gradient-6);}</style><clipPath id="clip-path"><circle class="cls-1" cx="87.5" cy="87.5" r="87.5"/></clipPath><radialGradient id="radial-gradient" cx="86.63" cy="93.09" r="63.06" gradientTransform="translate(0 -65.17) scale(1 1.7)" gradientUnits="userSpaceOnUse"><stop offset="0" stop-color="#dd8e98"/><stop offset=".08" stop-color="#d68792"/><stop offset=".21" stop-color="#c47482"/><stop offset=".35" stop-color="#a65569"/><stop offset=".45" stop-color="#8d3b53"/><stop offset=".58" stop-color="#893a50"/><stop offset=".7" stop-color="#7d3746"/><stop offset=".83" stop-color="#693236"/><stop offset=".96" stop-color="#4d2b20"/><stop offset="1" stop-color="#432918"/></radialGradient><linearGradient id="New_Gradient_Swatch_3" x1="85.57" y1="114.13" x2="99.38" y2="114.13" gradientUnits="userSpaceOnUse"><stop offset="0" stop-color="#fff"/><stop offset=".44" stop-color="#fdfefe"/><stop offset=".65" stop-color="#f5fafa"/><stop offset=".81" stop-color="#e8f4f2"/><stop offset=".95" stop-color="#d6ebe8"/><stop offset="1" stop-color="#cde7e3"/></linearGradient><linearGradient id="New_Gradient_Swatch_3-2" x1="99.02" y1="113.9" x2="110.96" y2="113.9" xlink:href="#New_Gradient_Swatch_3"/><linearGradient id="New_Gradient_Swatch_3-3" x1="111.04" y1="112.32" x2="121.56" y2="112.32" xlink:href="#New_Gradient_Swatch_3"/><linearGradient id="New_Gradient_Swatch_3-4" x1="121.33" y1="110.79" x2="131.58" y2="110.79" xlink:href="#New_Gradient_Swatch_3"/><linearGradient id="New_Gradient_Swatch_3-5" x1="71.48" y1="114.13" x2="85.29" y2="114.13" xlink:href="#New_Gradient_Swatch_3"/><linearGradient id="New_Gradient_Swatch_3-6" x1="59.9" y1="113.9" x2="71.84" y2="113.9" xlink:href="#New_Gradient_Swatch_3"/><linearGradient id="New_Gradient_Swatch_3-7" x1="49.31" y1="112.32" x2="59.82" y2="112.32" xlink:href="#New_Gradient_Swatch_3"/><linearGradient id="New_Gradient_Swatch_3-8" x1="39.28" y1="110.79" x2="49.53" y2="110.79" xlink:href="#New_Gradient_Swatch_3"/><linearGradient id="New_Gradient_Swatch_3-9" x1="57.23" y1="83.43" x2="85.71" y2="83.43" xlink:href="#New_Gradient_Swatch_3"/><linearGradient id="New_Gradient_Swatch_3-10" x1="38.28" y1="83.67" x2="57.69" y2="83.67" xlink:href="#New_Gradient_Swatch_3"/><linearGradient id="New_Gradient_Swatch_3-11" x1="34.32" y1="80.9" x2="45.6" y2="80.9" gradientTransform="translate(-7.57 1.36) rotate(-.42)" xlink:href="#New_Gradient_Swatch_3"/><linearGradient id="New_Gradient_Swatch_3-12" x1="20.44" y1="80.34" x2="27.79" y2="80.34" xlink:href="#New_Gradient_Swatch_3"/><linearGradient id="New_Gradient_Swatch_3-13" x1="15.92" y1="76.62" x2="20.84" y2="76.62" xlink:href="#New_Gradient_Swatch_3"/><linearGradient id="New_Gradient_Swatch_3-14" x1="85.85" y1="83.06" x2="112.14" y2="83.06" xlink:href="#New_Gradient_Swatch_3"/><linearGradient id="New_Gradient_Swatch_3-15" x1="112.44" y1="82.53" x2="131.99" y2="82.53" xlink:href="#New_Gradient_Swatch_3"/><linearGradient id="New_Gradient_Swatch_3-16" x1="132.79" y1="80.25" x2="142.68" y2="80.25" xlink:href="#New_Gradient_Swatch_3"/><linearGradient id="New_Gradient_Swatch_3-17" x1="143.44" y1="77.7" x2="151.45" y2="77.7" xlink:href="#New_Gradient_Swatch_3"/><linearGradient id="New_Gradient_Swatch_3-18" x1="151.12" y1="73.6" x2="155.93" y2="73.6" xlink:href="#New_Gradient_Swatch_3"/><linearGradient id="linear-gradient" x1="86.78" y1="42.65" x2="86.78" y2="72.1" gradientUnits="userSpaceOnUse"><stop offset="0" stop-color="#fbdcd4"/><stop offset=".01" stop-color="#fad4cf"/><stop offset=".03" stop-color="#f6b5bc"/><stop offset=".07" stop-color="#f399ab"/><stop offset=".1" stop-color="#f0839e"/><stop offset=".15" stop-color="#ee7294"/><stop offset=".2" stop-color="#ed678c"/><stop offset=".27" stop-color="#ec6088"/><stop offset=".47" stop-color="#ec5e87"/><stop offset=".77" stop-color="#e84251"/></linearGradient><linearGradient id="linear-gradient-2" x1="86.63" y1="144.66" x2="86.63" y2="68.18" xlink:href="#linear-gradient"/><linearGradient id="White_Black" x1="384.82" y1="154.26" x2="409.68" y2="76.04" gradientTransform="translate(-276.04 244.93) rotate(-32.77)" gradientUnits="userSpaceOnUse"><stop offset="0" stop-color="#fff"/><stop offset="1" stop-color="#1d1d1b"/></linearGradient><linearGradient id="linear-gradient-3" x1="-343.63" y1="-3068.27" x2="-342.91" y2="-3065.21" gradientTransform="matrix(-4.91 -4.44 .18 -.2 -1014.2 -1993.09)" gradientUnits="userSpaceOnUse"><stop offset="0" stop-color="#fff"/><stop offset=".19" stop-color="#cacac9"/><stop offset=".38" stop-color="#979797"/><stop offset=".57" stop-color="#70706f"/><stop offset=".74" stop-color="#535353"/><stop offset=".89" stop-color="#424241"/><stop offset="1" stop-color="#3c3c3b"/></linearGradient><linearGradient id="linear-gradient-4" x1="97.14" y1="76.7" x2="120.11" y2="76.7" gradientUnits="userSpaceOnUse"><stop offset="0" stop-color="#fff"/><stop offset=".35" stop-color="#fcfefd"/><stop offset=".59" stop-color="#f3f9f8"/><stop offset=".8" stop-color="#e4f2f0"/><stop offset=".99" stop-color="#cee8e4"/><stop offset="1" stop-color="#cde7e3"/></linearGradient><linearGradient id="linear-gradient-5" x1="97.3" y1="77.68" x2="106.34" y2="77.68" gradientUnits="userSpaceOnUse"><stop offset="0" stop-color="#fff"/><stop offset=".24" stop-color="#fafbfc"/><stop offset=".5" stop-color="#edf1f4"/><stop offset=".77" stop-color="#d7e0e6"/><stop offset="1" stop-color="#bfcdd7"/></linearGradient><linearGradient id="White_Black-2" x1="748.51" y1="241.15" x2="775.59" y2="155.98" gradientTransform="matrix(-1 -.06 -.06 1 886.85 -21.13)" xlink:href="#White_Black"/><linearGradient id="linear-gradient-6" x1="-452.97" y1="-4696.47" x2="-460.94" y2="-4701.07" gradientTransform="matrix(-2.66 7.83 .38 .13 681.1 4326.19)" xlink:href="#linear-gradient-3"/></defs><title>zipuy</title><circle class="cls-1" cx="87.5" cy="87.5" r="87.5"/><g class="cls-2"><path class="cls-3" d="M7.46 71.81s5.92-18.43 43.23-19.75c1.76 0 83.38 2.63 83.38 2.63l26.76 7.31 5 6.45-12 34.52s-52.66 31.16-54.42 31.16l-62.31-11.85-21.72-21.5z"/><path class="cls-4" d="M14 63l4.17 15.8 42.57 6.58s39.71 2 41 1.16l36.21-4 16-10.09 4.17-10.31a10.16 10.16 0 0 0-5.7-2.19c-3 .05-138.42 3.05-138.42 3.05zM118.76 132.49l30.88-26.67-35 8.05s-43.36.78-44.67 1.65l-42.53-8.17-11.25-10 2.48 7.45s15.13 18.61 18.2 18.61l81.89 9.08z"/><path class="cls-5" d="M97.07 104.47c-3.66-.63-9.15-.89-10.68.69s-.59 12.73.29 17.41c.52 2.76 9.6 2 11.12-.88s2.92-16.59-.73-17.22z"/><path class="cls-6" d="M109.87 105.93s-7-2.38-9.81 0c-1.55 1.29-1.23 13.39 0 15.36s8.18 2.36 9.4 0 2.45-13 .41-15.36z"/><path class="cls-7" d="M121.1 108.54c-1.38-5.54-3.7-6.42-7.71-3.69-2.6 1.78-3.53 12.47-.25 15.79 1.62 1.63 5.07-.05 5.71-2.61s3.89-2.9 2.25-9.49z"/><path class="cls-8" d="M131.44 108.53c0-4.41-7.85-2.73-9.17-.74-.83 1.24-1.37 6-.48 7.47s3.4-.25 6.44-1.46c4.38-1.8 3.21-4.1 3.21-5.27z"/><path class="cls-9" d="M73.79 104.47c3.66-.63 9.15-.89 10.68.69s.59 12.73-.29 17.41c-.52 2.76-9.6 2-11.12-.88s-2.92-16.59.73-17.22z"/><path class="cls-10" d="M61 105.93s7-2.38 9.81 0c1.55 1.29 1.23 13.39 0 15.36s-8.18 2.36-9.4 0-2.46-13-.41-15.36z"/><path class="cls-11" d="M49.76 108.54c1.38-5.54 3.7-6.42 7.71-3.69 2.6 1.78 3.53 12.47.25 15.79-1.62 1.63-5.07-.05-5.71-2.61s-3.89-2.9-2.25-9.49z"/><path class="cls-12" d="M39.42 108.53c0-4.41 7.85-2.73 9.17-.74.83 1.24 1.37 6 .48 7.47s-3.4-.25-6.44-1.46c-4.38-1.8-3.21-4.1-3.21-5.27z"/><path class="cls-13" d="M67 67.52c9.65-.24 17.74 1.61 18.1 16.23.56 11 1.19 12.85-.23 14.49s-25.87 1.52-26.87-.65c-1.59-3.72-.36-14.48-.36-14.48s-.33-15.35 9.36-15.59z"/><path class="cls-14" d="M43.66 70.49c4.22-1.76 13.75.09 13.75 8.43s1.42 17.9-2.21 18.34-16.35.44-16.8-3.51.45-11 .91-16.24.13-5.26 4.35-7.02z"/><path class="cls-15" d="M29.5 71.56c4-1.45 7 2.14 8.08 5 2 5.25.6 15.35.6 15.35s-8.26 2.93-10.25-2.76c-1.18-3.34-.47-16.84 1.57-17.59z"/><path class="cls-16" d="M22.2 71.25a4.75 4.75 0 0 1 4.8 2.75c1.5 3 .44 8.78.44 12.73s-3.51 3.07-5.7.44-1.27-15.92.46-15.92z"/><path class="cls-17" d="M16.1 70.05s2.48-.89 3.43 1.32 1.31 7.21 1.31 10.05-2.53 2.21-4.11.32-.32-11.05-.63-11.69z"/><path class="cls-18" d="M102.29 67c-9 0-16.39 2.11-16.22 16.74-.15 11-.67 12.87.71 14.48s24 .78 24.8-1.41c1.35-3.76-.16-14.48-.16-14.48s-.18-15.33-9.13-15.33z"/><path class="cls-19" d="M125.92 69.17c-4.27-1.62-13.74.53-13.47 8.87s-.84 17.96 2.81 18.26 16.35-.09 16.68-4.05-.81-11-1.43-16.2-.32-5.26-4.59-6.88z"/><path class="cls-20" d="M140.31 69.75c-3.52-1.31-6 2.38-6.86 5.33-1.53 5.32.08 15.35.08 15.35s7.33 2.63 8.84-3.13c.9-3.41-.24-16.88-2.06-17.55z"/><path class="cls-21" d="M149.25 68.56a5.25 5.25 0 0 0-5.09 2.92c-1.53 3-.19 8.79-.06 12.73s3.9 2.95 6.18.24.84-15.95-1.03-15.89z"/><path class="cls-22" d="M155.51 67s-2.51-.81-3.38 1.43-1.08 7.25-1 10.09 2.6 2.13 4.11.18-.03-11.1.27-11.7z"/><path class="cls-23" d="M13.82 64.79s-9.22 5.7-.88 8.34 44.76 2.19 57.49 2.19 56.94-3.15 66.26-4.39c13.17-1.76 15.25-2.67 18.81-4l9.71 2.65s-6.14-12.29-11.41-12.73-59.23-2.15-64.5-2.15l-75.48 10.09z"/><path class="cls-24" d="M85.79 68.74s-39-.44-53.54-.44c-9.25 0-19.75-3.07-24.25 3.36-3 4.32 7.27-24.95 42-28.38 23.7-2.34 31.3 4.68 38 4.39 4.38-.19 13.78-4.09 19-4.68 23.4-2.63 44.11 10.46 49 13.08 9.43 5 10.09 12.77 10.09 12.77s-.66-4.06-18-3.18c-6.56.34-32.9 3.52-62.3 3.08z"/><path class="cls-23" d="M140.64 109.11s-44.76 12.29-59.24 11.41-43.4-4.39-50.9-10.52-10.1 17.54 30.28 20.18 55.73-2.63 67.14-8.78l12.72-12.29z"/><path class="cls-25" d="M7.24 71.37s17.16 35.63 37.15 42.42 28.67 9.36 40.52 8.92 37.28-5.42 45.86-10.75c29-18 31.54-42.71 35-43.77 1.9-.59-7.29 36.87-24.83 56.72-11.12 12.58-34.81 19.75-55.59 19.75-39.17 0-64.65-20.92-70.21-38.18-4.46-13.84-5.71-20.63-7.9-35.11z"/><path class="cls-26" d="M95.68 94.29a15.15 15.15 0 0 0-4.24 21c1.38 2.07 4.89 6.24 4.89 6.24l4.32-.66s-5.79-5.93-7.12-7.92a13.53 13.53 0 0 1 3.78-18.75l.64-.39-.38-.58a15.23 15.23 0 0 0-1.89 1.06z"/><path class="cls-27" d="M95.3 68.73s15.51-.29 16.68-.29c.88 0 3 22.27 0 25.74-2 2.34-17.26 2.63-19.89 2.63-.78 0 3-3.55 4.1-15.51.86-9.65-.89-12.57-.89-12.57z"/><path class="cls-28" d="M103.8 88.69a15.15 15.15 0 0 0-11 18.37 16 16 0 0 0 3.3 6.29c1.44 1.72 52.8 47.46 52.8 47.46a1.51 1.51 0 0 0 2-2.24s-50.9-45.48-52.37-47.2a13.67 13.67 0 0 1 6.84-22.22l.73-.16-.17-.67a15.23 15.23 0 0 0-2.13.37z"/><path class="cls-29" d="M97.34 112.8l52.16 46.57c.06.05.76.18.71.23l-1.05.17c-.05.06.33.23.27.18l-52.27-46.95a.14.14 0 0 1 0-.19.14.14 0 0 1 .18-.01z"/><path class="cls-30" d="M112.82 60.6c-4.48 0-8.57.55-11.53 2.9s4.54 4.94 2.49 16.35c-.15 11-7.85 10.36-6.47 12s18.59 1.15 19.64-.85c4.68-9.4 4.82-30.43-4.13-30.4z"/><path class="cls-31" d="M101.29 63.5s4.35 4 4.83 9c.59 6.14 0 11.7-1.76 14.92s-6.8 3.75-7.06 4.36 3.55-4.65 4.42-11.38l-.43-16.9z"/><path class="cls-26" d="M108.77 86.74l-.16-.71a3.93 3.93 0 0 1 3.95 1.92 22.67 22.67 0 0 1 1.44 4.16l-2 .33s.34-.57-.55-3.18l-2.68-2.52z"/><path class="cls-32" d="M97.78 121.31l3.81-.65 16.09 18.5-3.29 1.17-16.61-19.02z"/><path class="cls-33" d="M121.99 132.65l-1.24 3.07-2.19-1.97 1.46-2.85 1.97 1.75z"/><path class="cls-34" d="M110.65 85.31a15.15 15.15 0 0 1 18.59 10.69 16 16 0 0 1 .19 7.1c-.41 2.2-24.33 75.11-24.33 75.11a1.51 1.51 0 0 1-2.86-1s23.65-72.45 24.09-74.67a13.67 13.67 0 0 0-16.83-16l-.72.22-.18-.76a15.23 15.23 0 0 1 2.05-.69z"/><path class="cls-35" d="M105.17 174.88l21.24-66.07a.14.14 0 0 0-.09-.17h-.13a.14.14 0 0 0-.17.09l-21.24 66.07a.14.14 0 0 0 .09.17h.13a.14.14 0 0 0 .17-.09z"/></g></svg>