<svg width="1026" height="90" viewBox="0 0 1026 90" xmlns="http://www.w3.org/2000/svg"><title>Group</title><desc>Created with Sketch.</desc><g fill="none"><g opacity=".472" fill="#7CCDF4"><path d="M985.138-5.323c-3.887-3.408-9.774-2.995-13.154.925-2.045 2.375-2.694 5.485-2.032 8.33l-11.109 4.47 1.364-6.874c.613-.045 1.226-.208 1.808-.509 2.327-1.194 3.254-4.064 2.07-6.412-1.188-2.348-4.033-3.282-6.361-2.088-2.327 1.194-3.254 4.069-2.068 6.414.56 1.107 1.49 1.884 2.561 2.29l-1.601 8.074-6.119 2.464c-.353-.533-.775-1.033-1.279-1.474-3.076-2.695-7.733-2.37-10.407.733-2.672 3.103-2.35 7.801.726 10.499 3.076 2.697 7.733 2.368 10.407-.733 1.526-1.77 2.072-4.06 1.69-6.201l19.471-7.839c.477.775 1.077 1.497 1.797 2.128 3.185 2.792 7.709 3.016 11.1.851l11.857 12.203c-2.447 3.101-2.068 7.62.924 10.245 3.076 2.695 7.735 2.368 10.409-.733 2.672-3.103 2.345-7.801-.726-10.499-2.365-2.075-5.661-2.352-8.277-.966l-11.935-12.282c3.156-3.918 2.692-9.683-1.115-13.019" id="Fill-1"/><path d="M1022.423 17.54c2.387-2.16 2.578-5.849.425-8.243-1.302-1.449-3.161-2.086-4.958-1.889l-1.906-7.236 4.119 1.362c-.02.384.036.777.174 1.161.559 1.534 2.253 2.327 3.782 1.769 1.532-.561 2.32-2.26 1.761-3.797-.557-1.534-2.249-2.327-3.78-1.767-.721.264-1.271.786-1.601 1.42l-4.835-1.604-1.051-3.986c.354-.181.692-.406 1.002-.686 1.89-1.706 2.039-4.625.336-6.519-1.699-1.894-4.611-2.046-6.501-.339-1.886 1.708-2.039 4.627-.336 6.521.973 1.081 2.338 1.592 3.68 1.516l3.339 12.685c-.512.241-1 .558-1.44.958-1.955 1.769-2.436 4.563-1.362 6.834l-8.391 6.448c-1.716-1.753-4.519-1.858-6.358-.194-1.89 1.706-2.039 4.625-.338 6.519 1.703 1.894 4.613 2.046 6.501.339 1.454-1.313 1.872-3.339 1.218-5.07l8.444-6.492c2.168 2.256 5.739 2.401 8.077.288" id="Fill-3"/></g><g opacity=".386" fill="#7CCDF4"><path d="M770.259-16.115c-8.343-3.06-17.561 1.23-20.592 9.592-1.833 5.064-.967 10.442 1.843 14.59l-15.126 14.006-2.025-11.846c.958-.45 1.844-1.089 2.596-1.929 3.011-3.347 2.739-8.513-.606-11.543-3.352-3.027-8.502-2.769-11.513.578-3.011 3.347-2.737 8.52.611 11.545 1.579 1.427 3.553 2.098 5.524 2.087l2.38 13.916-8.33 7.718c-.895-.636-1.881-1.176-2.962-1.572-6.602-2.419-13.894.973-16.291 7.59-2.393 6.616 1.008 13.939 7.611 16.362 6.603 2.423 13.893-.976 16.291-7.59 1.368-3.775.842-7.778-1.087-10.971l26.508-24.556c1.244.947 2.651 1.732 4.196 2.3 6.836 2.506 14.251.076 18.377-5.481l26.563 12.229c-2.034 6.474 1.35 13.475 7.774 15.835 6.602 2.419 13.896-.978 16.294-7.591 2.393-6.616-1.015-13.937-7.611-16.362-5.078-1.863-10.55-.276-13.907 3.557l-26.736-12.306c2.672-8.22-1.613-17.164-9.783-20.158" id="Fill-1"/><path d="M843.992-2.416c2.525-4.911.582-10.903-4.345-13.386-2.982-1.504-6.364-1.37-9.137.052l-7.484-10.344 7.464-.373c.202.624.532 1.215.988 1.742 1.836 2.098 5.048 2.314 7.17.481 2.124-1.838 2.356-5.03.519-7.131-1.833-2.099-5.041-2.317-7.165-.479-1.001.865-1.567 2.036-1.711 3.249l-8.765.432-4.125-5.698c.46-.506.867-1.074 1.195-1.71 2.002-3.883.461-8.622-3.437-10.586-3.891-1.967-8.673-.411-10.675 3.472-1.994 3.884-.46 8.626 3.438 10.59 2.226 1.12 4.736 1.092 6.851.143l13.118 18.134c-.677.7-1.269 1.506-1.735 2.414-2.068 4.022-1.138 8.767 1.976 11.721l-9.578 15.444c-3.834-1.732-8.412-.169-10.357 3.615-2.002 3.883-.461 8.622 3.433 10.588 3.898 1.964 8.677.41 10.675-3.472 1.54-2.988.978-6.471-1.133-8.823l9.636-15.548c4.868 2.253 10.707.28 13.182-4.527" id="Fill-3"/></g><g opacity=".735"><path d="M44.333 24.945c-7.05-1.253-13.764 3.446-14.999 10.504-.746 4.274.694 8.418 3.505 11.312l-10.044 13.236-3.265-9.11c.698-.491 1.311-1.123 1.79-1.895 1.921-3.078.982-7.137-2.096-9.069-3.084-1.929-7.135-1-9.056 2.078-1.921 3.078-.979 7.142 2.101 9.07 1.453.91 3.114 1.164 4.676.878l3.837 10.701-5.53 7.293c-.8-.378-1.657-.668-2.571-.83-5.578-.99-10.89 2.726-11.866 8.311-.973 5.583 2.751 10.913 8.331 11.905 5.58.992 10.889-2.729 11.866-8.311.557-3.186-.421-6.287-2.399-8.548l17.6-23.204c1.12.576 2.346 1.001 3.652 1.234 5.776 1.026 11.32-1.945 13.818-6.932l22.793 5.961c-.708 5.42 2.958 10.497 8.386 11.464 5.578.99 10.891-2.73 11.869-8.313.973-5.583-2.757-10.91-8.331-11.905-4.291-.763-8.411 1.265-10.539 4.778l-22.941-5.998c.97-6.895-3.683-13.385-10.586-14.61" fill-opacity=".594" fill="#44B2C2" opacity=".62"/><path d="M104.344 25.407c1.304-4.219-1.06-8.667-5.286-9.935-2.557-.769-5.202-.192-7.187 1.314l-7.334-7.103 5.825-1.334c.246.463.588.883 1.021 1.234 1.738 1.396 4.297 1.119 5.713-.62 1.417-1.743 1.155-4.289-.585-5.688-1.735-1.398-4.292-1.122-5.709.621-.668.82-.951 1.822-.895 2.797l-6.842 1.561-4.042-3.912c.291-.463.533-.967.703-1.513 1.036-3.337-.838-6.854-4.181-7.857-3.338-1.007-6.887.884-7.923 4.221-1.029 3.336.839 6.856 4.182 7.86 1.909.572 3.881.2 5.415-.842l12.856 12.452c-.436.646-.789 1.363-1.03 2.143-1.068 3.456.325 7.062 3.189 8.954l-5.39 13.495c-3.26-.83-6.647 1.039-7.652 4.289-1.036 3.337.838 6.854 4.178 7.859 3.343 1.003 6.889-.886 7.923-4.221.796-2.567-.132-5.232-2.121-6.79l5.422-13.585c4.147 1.096 8.47-1.271 9.75-5.401" fill="#87E0EC" opacity=".657"/></g></g></svg>