<svg width="290" height="63" viewBox="0 0 290 63" xmlns="http://www.w3.org/2000/svg" xmlns:xlink="http://www.w3.org/1999/xlink"><title>Page 1 + Page 1 Copy 2 + Page 1 Copy 6 + Page 1 Copy 5 + Page 1 Copy 3 + Page 1 Copy 4 Mask</title><desc>Created with Sketch.</desc><defs><path id="a" d="M0 0h290v94h-290z"/><path id="c" d="M9.036.678h-8.599v15.564h8.599v-15.564z"/></defs><g transform="translate(0 0)" fill="none"><mask id="b"><use xlink:href="#a"/></mask><g opacity=".196" style="mix-blend-mode:multiply" mask="url(#b)"><path d="M-79.985-21.778c24.51 39.75 44.267 48.886 79.638 59.524 30.775 9.256 63.148 1.468 93.613-22.52l-.675-.868c-30.177 23.758-62.203 31.483-92.625 22.332-39.688-11.936-66.066-29.347-85.407-70.811l-1.097-.691c2.367 7.022 3.845 6.58 6.553 13.033" id="Fill-1" fill="#E5007D"/><path d="M67.028 13.16s-4.477 2.128-6.8 8.022c-1.414 3.588-1.264 11.165-1.264 11.165s7.405-3.032 8.296-9.874c1.183-9.06-.233-9.313-.233-9.313" fill="#E5007D"/><path d="M58.646 29.325l-2.338 6.359" stroke="#E5007D" stroke-width="0.41241199999999995"/><path d="M81.652 8.561s-3.84 1.785-5.847 6.702c-1.22 2.994-1.111 9.313-1.111 9.313s6.353-2.548 7.134-8.252c1.035-7.558-.177-7.763-.177-7.763" fill="#E5007D"/><path d="M74.375 21.553l-2.21 6.345" stroke="#E5007D" stroke-width="0.3553549999999999"/><g transform="matrix(-.105 -.995 -.995 .105 108.279 14.919)"><mask id="d"><use xlink:href="#c"/></mask><path d="M8.724.722s1.228 4.158-1.188 8.821c-1.47 2.838-6.392 6.699-6.392 6.699s-2.344-6.624 1.504-10.808c5.098-5.542 6.076-4.712 6.076-4.712" fill="#E5007D" mask="url(#d)"/></g><path d="M85.264 39.195s-2.968-4.647-9.132-6.259c-3.751-.98-11.039.453-11.039.453s4.441 7.768 11.228 7.623c8.988-.193 8.943-1.817 8.943-1.817" fill="#E5007D"/><path d="M68.211 34.428l-6.169-1.427" stroke="#E5007D" stroke-width="0.41241199999999995"/><path d="M100.693 28.577s-2.505-3.871-7.718-5.203c-3.174-.813-9.339.391-9.339.391s3.746 6.469 9.488 6.339c7.607-.174 7.569-1.527 7.569-1.527" fill="#E5007D"/><path d="M85.269 24.987l-6.145-1.2" stroke="#E5007D" stroke-width="0.36636599999999997"/><path d="M49.794 19.563s-5.119 1.519-8.438 7.069c-2.02 3.378-2.904 10.936-2.904 10.936s8.402-2.028 10.308-8.712c2.523-8.853 1.033-9.293 1.033-9.293" id="Fill-25" fill="#E5007D"/><path d="M41.109 34.232l-3.826 6.516" id="Stroke-27" stroke="#E5007D" stroke-width="0.41241199999999995"/><path d="M65.122 47.926s-2.32-4.79-8.119-7.116c-3.531-1.417-10.792-1.005-10.792-1.005s3.371 7.939 9.991 8.683c8.766.982 8.92-.562 8.92-.562" id="Fill-29" fill="#E5007D"/><path d="M49.506 42.514l-6.27-2.391" id="Stroke-31" stroke="#E5007D" stroke-width="0.41241199999999995"/><path d="M37.968 20.811s-5.286 1.05-9.134 6.198c-2.343 3.136-3.933 10.461-3.933 10.461s8.632-1.264 11.167-7.649c3.358-8.452 1.9-9.01 1.9-9.01" id="Fill-33" fill="#E5007D"/><path d="M27.558 34.134l-3.826 6.516" id="Stroke-35" stroke="#E5007D" stroke-width="0.41241199999999995"/><path d="M23.451 25.399s-4.23.838-7.309 4.959c-1.874 2.509-3.144 8.368-3.144 8.368s6.905-1.011 8.934-6.117c2.686-6.763 1.519-7.211 1.519-7.211" id="Fill-37" fill="#E5007D"/><path d="M15.655 35.39l-2.497 4.848" id="Stroke-39" stroke="#E5007D" stroke-width="0.33633599999999997"/><path d="M11.331 23.656s-4.07-.073-7.755 3.138c-2.243 1.955-4.623 7.151-4.623 7.151s6.57.454 9.492-3.888c3.868-5.751 2.887-6.401 2.887-6.401" id="Fill-41" fill="#E5007D"/><path d="M1.944 33.781l-4.145 3.493" id="Stroke-43" stroke="#E5007D" stroke-width="0.33633599999999997"/><path d="M.676 22.096s-3.994-.877-8.243 1.623c-2.585 1.52-5.934 6.268-5.934 6.268s6.384 1.75 10.099-2.032c4.919-5.013 4.078-5.859 4.078-5.859" id="Fill-45" fill="#E5007D"/><path d="M46.294 54.852s-1.057-5.377-6.142-9.301c-3.098-2.387-10.309-4.018-10.309-4.018s1.285 8.78 7.576 11.37c8.333 3.429 8.875 1.949 8.875 1.949" id="Fill-61" fill="#E5007D"/><path d="M33.298 45.752l-6.43-3.906" id="Stroke-63" stroke="#E5007D" stroke-width="0.41241199999999995"/><path d="M26.977 61.653s.974-5.256-2.043-10.895c-1.839-3.435-7.504-7.915-7.504-7.915s-1.974 8.394 2.557 13.347c6 6.56 6.99 5.464 6.99 5.464" id="Fill-65" fill="#E5007D"/><path d="M18.419 47.322l-3.614-5.731" id="Stroke-67" stroke="#E5007D" stroke-width="0.41241199999999995"/><path d="M12.618 61.665s1.942-4.838-.504-10.57c-1.49-3.488-7.07-8.473-7.07-8.473s-3.565 7.674.676 12.954c5.618 6.996 6.897 6.089 6.897 6.089" id="Fill-69" fill="#E5007D"/><path d="M6.196 45.556l-3.325-5.761" id="Stroke-71" stroke="#E5007D" stroke-width="0.41241199999999995"/></g><g opacity=".196" style="mix-blend-mode:multiply" mask="url(#b)"><path d="M203.91-60.01c5.383 46.391 19.418 63.031 46.965 87.641 23.967 21.412 56.596 28.058 94.354 19.218l-.244-1.072c-37.399 8.755-69.687 2.198-93.378-18.969-30.909-27.614-47.44-54.554-47.416-100.31l-.702-1.091c-.827 7.364.699 7.59.421 14.583" fill="#E5007D"/><path d="M304.003 32.378s-5.281-.79-10.637 2.834c-3.26 2.206-7.26 8.68-7.26 8.68s8.471 1.718 13.028-3.531c6.033-6.954 4.87-7.983 4.87-7.983" fill="#E5007D"/><path d="M289.925 41.993l-6.225 4.285" stroke="#E5007D" stroke-width="0.41241199999999995"/><path d="M305.887 64.566s-.075-5.322-4.345-9.884c-2.6-2.778-9.353-5.478-9.353-5.478s-.306 8.62 5.377 12.097c7.527 4.6 8.32 3.266 8.32 3.266" fill="#E5007D"/><path d="M294.028 53.052l-4.669-4.821" stroke="#E5007D" stroke-width="0.41241199999999995"/><path d="M292.759 28.504s-5.234-1.286-10.899 1.75c-3.45 1.85-7.991 7.814-7.991 7.814s8.357 2.508 13.355-2.204c6.62-6.237 5.535-7.36 5.535-7.36" fill="#E5007D"/><path d="M277.688 36.169l-6.225 4.285" stroke="#E5007D" stroke-width="0.41241199999999995"/><path d="M277.664 26.516s-4.187-1.031-8.721 1.4c-2.76 1.48-6.391 6.252-6.391 6.252s6.684 2.006 10.684-1.761c5.296-4.991 4.428-5.891 4.428-5.891" fill="#E5007D"/><path d="M266.371 32.269l-4.315 3.335" stroke="#E5007D" stroke-width="0.33633599999999997"/><path d="M267.419 19.808s-3.657-1.789-8.355-.439c-2.86.822-7.216 4.522-7.216 4.522s5.76 3.192 10.246.495c5.939-3.574 5.325-4.578 5.325-4.578" fill="#E5007D"/><path d="M254.629 25.008l-5.234 1.411" stroke="#E5007D" stroke-width="0.33633599999999997"/><path d="M258.426 13.884s-3.247-2.485-8.156-2.018c-2.986.283-8.03 3.168-8.03 3.168s5.044 4.288 10.011 2.433c6.579-2.46 6.175-3.583 6.175-3.583" fill="#E5007D"/><path d="M244.373 13.437l-5.234 1.411" stroke="#E5007D" stroke-width="0.33633599999999997"/><path d="M247.854 7.89s-2.828-3.024-7.856-3.692c-3.06-.408-8.657 1.128-8.657 1.128s4.313 5.09 9.65 4.49c7.068-.799 6.863-1.926 6.863-1.926" fill="#E5007D"/><path d="M234.155 6.347l-6.263-.197" stroke="#E5007D" stroke-width="0.33633599999999997"/><path d="M239.012-3.193s-2.828-3.024-7.856-3.692c-3.06-.408-8.657 1.128-8.657 1.128s4.313 5.09 9.65 4.49c7.068-.799 6.863-1.926 6.863-1.926" fill="#E5007D"/><path d="M285.896 62.872s1.319-5.32-1.628-11.027c-1.797-3.474-7.64-8.004-7.64-8.004s-2.552 8.499 2.052 13.509c6.099 6.634 7.216 5.522 7.216 5.522" fill="#E5007D"/><path d="M277.971 49.126l-4.173-6.26" stroke="#E5007D" stroke-width="0.41241199999999995"/><path d="M265.514 60.858s3.108-4.35 2.76-10.737c-.212-3.89-3.449-10.348-3.449-10.348s-5.342 6.77-3.332 13.176c2.66 8.484 4.021 7.909 4.021 7.909" fill="#E5007D"/><path d="M263.825 44.251l-.849-6.722" stroke="#E5007D" stroke-width="0.41241199999999995"/><path d="M252.498 54.791s3.807-3.562 4.017-9.79c.126-3.791-2.82-10.67-2.82-10.67s-6.478 5.444-4.87 12.024c2.129 8.716 3.672 8.436 3.672 8.436" fill="#E5007D"/><path d="M253.498 37.477l-.574-6.628" stroke="#E5007D" stroke-width="0.41241199999999995"/><path d="M241.746 44.656s3.807-3.562 4.017-9.79c.126-3.791-2.82-10.67-2.82-10.67s-6.478 5.444-4.87 12.024c2.129 8.716 3.672 8.436 3.672 8.436" fill="#E5007D"/><path d="M242.746 27.343l-.574-6.628" stroke="#E5007D" stroke-width="0.41241199999999995"/><path d="M229.58 34.034s3.807-3.562 4.017-9.79c.126-3.791-2.82-10.67-2.82-10.67s-6.478 5.444-4.87 12.024c2.129 8.716 3.672 8.436 3.672 8.436" fill="#E5007D"/><path d="M230.58 16.72l-.574-6.628" stroke="#E5007D" stroke-width="0.41241199999999995"/><path d="M214.554 22.449s4.754-2.237 7.349-8.191c1.58-3.628 1.631-11.217 1.631-11.217s-7.849 3.208-8.971 10.084c-1.485 9.104-.009 9.324-.009 9.324" fill="#E5007D"/><path d="M221.184 7.053l2.535-7.163" stroke="#E5007D" stroke-width="0.41241199999999995"/><path d="M204.369 6.079s4.754-2.237 7.349-8.191c1.58-3.628 1.631-11.217 1.631-11.217s-7.849 3.208-8.971 10.084c-1.485 9.104-.009 9.324-.009 9.324" fill="#E5007D"/></g></g></svg>