<svg width="245" height="44" viewBox="0 0 245 44" xmlns="http://www.w3.org/2000/svg">
  <g fill="#89CAD3" fill-rule="evenodd" transform="translate(-8 -16)">
    <path d="M237.360459,15.0435481 C234.452704,12.5086527 230.047872,12.8153067 227.518956,15.7318531 C225.988646,17.4984469 225.503467,19.8116848 225.998616,21.9282641 L217.687423,25.2531269 L218.707629,20.1400045 C219.166224,20.1066726 219.624818,19.9850109 220.06015,19.7616868 C221.80148,18.8733901 222.494356,16.7384782 221.608737,14.9918836 C220.719795,13.245289 218.591319,12.5503177 216.84999,13.4386144 C215.10866,14.326911 214.415784,16.4651562 215.303064,18.2100842 C215.721781,19.0333835 216.41798,19.611693 217.218859,19.9133472 L216.020864,25.9197661 L211.443228,27.7530238 C211.179038,27.3563735 210.863339,26.9847222 210.486161,26.6564024 C208.184881,24.6514851 204.700561,24.8931418 202.700026,27.2013799 C200.701152,29.509618 200.94208,33.0044738 203.24336,35.0110577 C205.54464,37.0176416 209.028961,36.7726517 211.029496,34.4660802 C212.170997,33.1494678 212.579744,31.4462048 212.293954,29.8529372 L226.860973,24.0215111 C227.218211,24.5981539 227.666836,25.1347985 228.205186,25.6047791 C230.587883,27.6813601 233.972509,27.8480199 236.509733,26.2380863 L245.380876,35.3160451 C243.549822,37.6226166 243.833951,40.9841446 246.072091,42.9373973 C248.373371,44.9423146 251.859353,44.6989913 253.859888,42.3924198 C255.858762,40.0841817 255.61451,36.5893259 253.316553,34.582742 C251.546977,33.0394724 249.081201,32.8328142 247.123867,33.8644383 L238.194569,24.7281486 C240.555665,21.8132688 240.208396,17.5251124 237.360459,15.0435481" opacity=".245" transform="rotate(11 228.28 28.674)"/>
    <path d="M132.360459,29.0435481 C129.452704,26.5086527 125.047872,26.8153067 122.518956,29.7318531 C120.988646,31.4984469 120.503467,33.8116848 120.998616,35.9282641 L112.687423,39.2531269 L113.707629,34.1400045 C114.166224,34.1066726 114.624818,33.9850109 115.06015,33.7616868 C116.80148,32.8733901 117.494356,30.7384782 116.608737,28.9918836 C115.719795,27.245289 113.591319,26.5503177 111.84999,27.4386144 C110.10866,28.326911 109.415784,30.4651562 110.303064,32.2100842 C110.721781,33.0333835 111.41798,33.611693 112.218859,33.9133472 L111.020864,39.9197661 L106.443228,41.7530238 C106.179038,41.3563735 105.863339,40.9847222 105.486161,40.6564024 C103.184881,38.6514851 99.7005607,38.8931418 97.7000257,41.2013799 C95.7011522,43.509618 95.9420804,47.0044738 98.2433604,49.0110577 C100.54464,51.0176416 104.028961,50.7726517 106.029496,48.4660802 C107.170997,47.1494678 107.579744,45.4462048 107.293954,43.8529372 L121.860973,38.0215111 C122.218211,38.5981539 122.666836,39.1347985 123.205186,39.6047791 C125.587883,41.6813601 128.972509,41.8480199 131.509733,40.2380863 L140.380876,49.3160451 C138.549822,51.6226166 138.833951,54.9841446 141.072091,56.9373973 C143.373371,58.9423146 146.859353,58.6989913 148.859888,56.3924198 C150.858762,54.0841817 150.61451,50.5893259 148.316553,48.582742 C146.546977,47.0394724 144.081201,46.8328142 142.123867,47.8644383 L133.194569,38.7281486 C135.555665,35.8132688 135.208396,31.5251124 132.360459,29.0435481" opacity=".219" transform="rotate(152 123.28 42.674)"/>
    <path d="M40.3604586,15.0435481 C37.4527042,12.5086527 33.0478716,12.8153067 30.518956,15.7318531 C28.9886464,17.4984469 28.5034668,19.8116848 28.9986158,21.9282641 L20.6874228,25.2531269 L21.7076293,20.1400045 C22.1662237,20.1066726 22.6248181,19.9850109 23.0601505,19.7616868 C24.80148,18.8733901 25.4943563,16.7384782 24.6087374,14.9918836 C23.7197953,13.245289 21.5913191,12.5503177 19.8499896,13.4386144 C18.10866,14.326911 17.4157837,16.4651562 18.3030642,18.2100842 C18.7217808,19.0333835 19.4179803,19.611693 20.218859,19.9133472 L19.0208642,25.9197661 L14.4432279,27.7530238 C14.1790376,27.3563735 13.8633386,26.9847222 13.4861613,26.6564024 C11.1848813,24.6514851 7.70056072,24.8931418 5.70002567,27.2013799 C3.70115219,29.509618 3.94208041,33.0044738 6.24336036,35.0110577 C8.5446403,37.0176416 12.0289609,36.7726517 14.029496,34.4660802 C15.1709973,33.1494678 15.5797445,31.4462048 15.2939537,29.8529372 L29.8609727,24.0215111 C30.2182111,24.5981539 30.6668361,25.1347985 31.205186,25.6047791 C33.5878831,27.6813601 36.9725093,27.8480199 39.5097327,26.2380863 L48.3808761,35.3160451 C46.5498216,37.6226166 46.8339508,40.9841446 49.0720909,42.9373973 C51.3733708,44.9423146 54.859353,44.6989913 56.8598881,42.3924198 C58.8587616,40.0841817 58.6145102,36.5893259 56.3165534,34.582742 C54.5469771,33.0394724 52.0812013,32.8328142 50.1238672,33.8644383 L41.1945687,24.7281486 C43.5556653,21.8132688 43.2083964,17.5251124 40.3604586,15.0435481" opacity=".319" transform="rotate(-33 31.28 28.674)"/>
  </g>
</svg>
