<svg xmlns="http://www.w3.org/2000/svg" xmlns:xlink="http://www.w3.org/1999/xlink" width="92" height="44" viewBox="0 0 92 44">
  <defs>
    <polygon id="dental-logo-a" points="0 41.55 92.379 41.55 92.379 0 0 0"/>
  </defs>
  <g fill="none" fill-rule="evenodd" transform="translate(0 1)">
    <path fill="#81CACE" d="M10.2842 36.7935C13.4202 36.7935 15.9682 33.9095 15.9682 30.6065 15.9682 27.1895 13.2802 24.3905 9.9752 24.3905L6.0552 24.3905 6.0552 36.7935 10.2842 36.7935zM10.6202 40.4615L2.1642 40.4615 2.1642 20.7225 9.9752 20.7225C15.4642 20.7225 19.9162 25.1465 19.9162 30.6065 19.9162 35.8415 15.8002 40.4615 10.6202 40.4615L10.6202 40.4615zM26.1318 31.4741L33.6638 31.4741C33.5248 29.7381 32.5998 28.0851 29.9958 28.0851 27.9518 28.0851 26.4958 29.5981 26.1318 31.4741L26.1318 31.4741zM26.1038 33.9651C26.5248 35.9531 28.1198 37.3541 30.4438 37.3541 32.0398 37.3541 33.5248 36.6251 34.3638 35.4781L36.8558 37.5491C35.4558 39.4531 32.9638 40.6861 29.9958 40.6861 25.4038 40.6861 22.2118 37.1861 22.2118 32.8451 22.2118 28.4781 25.4038 24.9781 29.9958 24.9781 34.6718 24.9781 37.3878 28.3661 37.3878 33.0981 37.3878 33.4061 37.3608 33.7131 37.3608 33.9651L26.1038 33.9651zM54.6074 31.978L54.6074 40.461 50.7154 40.461 50.7154 31.978C50.7154 29.625 49.5674 28.478 47.4124 28.478 46.0404 28.478 44.9194 28.925 44.0514 29.682L44.0514 40.461 40.1604 40.461 40.1604 25.257 44.0514 25.257 44.0514 26.209C45.1714 25.425 46.5714 24.978 48.1114 24.978 52.5634 24.978 54.6074 27.049 54.6074 31.978M62.8672 28.478L62.8672 33.854C62.8672 36.57 63.3152 37.354 65.2752 37.354 65.9472 37.354 66.5352 37.27 67.0672 37.213L67.0672 40.125C66.8992 40.182 65.7232 40.686 63.5392 40.686 60.9912 40.686 58.9472 39.089 58.9472 35.898L58.9472 28.478 56.7912 28.478 56.7912 25.257 58.9472 25.257 58.9472 19.35 62.8672 19.35 62.8672 25.257 67.1232 25.257 67.1232 28.478 62.8672 28.478zM81.0107 29.7935C80.0597 28.9815 78.7147 28.4785 77.2587 28.4785 74.4877 28.4785 72.7507 30.5495 72.7507 32.8175 72.7507 35.1135 74.5147 37.1865 77.2587 37.1865 78.7427 37.1865 80.0597 36.7095 81.0107 35.8975L81.0107 29.7935zM84.9037 25.2575L84.9037 40.4615 81.0107 40.4615 81.0107 39.3415C79.7507 40.1825 78.2397 40.6865 76.5597 40.6865 71.7987 40.6865 68.9987 36.8505 68.9987 32.8175 68.9987 28.7575 71.7987 24.9495 76.5597 24.9495 78.1557 24.9495 79.7227 25.4535 81.0107 26.2095L81.0107 25.2575 84.9037 25.2575z"/>
    <mask id="dental-logo-b" fill="#fff">
      <use xlink:href="#dental-logo-a"/>
    </mask>
    <polygon fill="#81CACE" points="88.459 40.461 92.379 40.461 92.379 19.35 88.459 19.35" mask="url(#dental-logo-b)"/>
    <path stroke="#00A6AC" d="M8.6201 36.6138C11.7561 36.6138 14.3041 33.7298 14.3041 30.4268 14.3041 27.0098 11.6161 24.2108 8.3111 24.2108L4.3911 24.2108 4.3911 36.6138 8.6201 36.6138zM8.9561 40.2818L.5001 40.2818.5001 20.5428 8.3111 20.5428C13.8001 20.5428 18.2521 24.9668 18.2521 30.4268 18.2521 35.6618 14.1361 40.2818 8.9561 40.2818zM24.4678 31.2944L31.9998 31.2944C31.8608 29.5584 30.9358 27.9054 28.3318 27.9054 26.2878 27.9054 24.8318 29.4184 24.4678 31.2944zM24.4398 33.7854C24.8608 35.7734 26.4558 37.1744 28.7798 37.1744 30.3758 37.1744 31.8608 36.4454 32.6998 35.2984L35.1918 37.3694C33.7918 39.2734 31.2998 40.5064 28.3318 40.5064 23.7398 40.5064 20.5478 37.0064 20.5478 32.6654 20.5478 28.2984 23.7398 24.7984 28.3318 24.7984 33.0078 24.7984 35.7238 28.1864 35.7238 32.9184 35.7238 33.2264 35.6968 33.5334 35.6968 33.7854L24.4398 33.7854zM52.9434 31.7984L52.9434 40.2814 49.0514 40.2814 49.0514 31.7984C49.0514 29.4454 47.9034 28.2984 45.7484 28.2984 44.3764 28.2984 43.2554 28.7454 42.3874 29.5024L42.3874 40.2814 38.4964 40.2814 38.4964 25.0774 42.3874 25.0774 42.3874 26.0294C43.5074 25.2454 44.9074 24.7984 46.4474 24.7984 50.8994 24.7984 52.9434 26.8694 52.9434 31.7984zM61.2031 28.2984L61.2031 33.6744C61.2031 36.3904 61.6511 37.1744 63.6111 37.1744 64.2831 37.1744 64.8711 37.0904 65.4031 37.0334L65.4031 39.9454C65.2351 40.0024 64.0591 40.5064 61.8751 40.5064 59.3271 40.5064 57.2831 38.9094 57.2831 35.7184L57.2831 28.2984 55.1271 28.2984 55.1271 25.0774 57.2831 25.0774 57.2831 19.1704 61.2031 19.1704 61.2031 25.0774 65.4591 25.0774 65.4591 28.2984 61.2031 28.2984zM79.3467 29.6138C78.3957 28.8018 77.0507 28.2988 75.5947 28.2988 72.8237 28.2988 71.0867 30.3698 71.0867 32.6378 71.0867 34.9338 72.8507 37.0068 75.5947 37.0068 77.0787 37.0068 78.3957 36.5298 79.3467 35.7178L79.3467 29.6138zM83.2397 25.0778L83.2397 40.2818 79.3467 40.2818 79.3467 39.1618C78.0867 40.0028 76.5757 40.5068 74.8957 40.5068 70.1347 40.5068 67.3347 36.6708 67.3347 32.6378 67.3347 28.5778 70.1347 24.7698 74.8957 24.7698 76.4917 24.7698 78.0587 25.2738 79.3467 26.0298L79.3467 25.0778 83.2397 25.0778z" mask="url(#dental-logo-b)"/>
    <polygon stroke="#00A6AC" points="86.795 40.282 90.715 40.282 90.715 19.171 86.795 19.171" mask="url(#dental-logo-b)"/>
    <path fill="#7CCDF4" d="M68.8939,3.7347 C67.1439,2.2127 64.4919,2.3987 62.9709,4.1477 C62.0499,5.2077 61.7579,6.5957 62.0559,7.8657 L57.0539,9.8617 L57.6679,6.7927 C57.9429,6.7737 58.2199,6.6997 58.4809,6.5667 C59.5289,6.0327 59.9459,4.7507 59.4129,3.7037 C58.8789,2.6557 57.5979,2.2387 56.5499,2.7717 C55.5019,3.3057 55.0849,4.5867 55.6189,5.6347 C55.8699,6.1287 56.2899,6.4767 56.7719,6.6567 L56.0509,10.2617 L53.2959,11.3607 C53.1359,11.1227 52.9459,10.8997 52.7199,10.7027 C51.3349,9.4987 49.2369,9.6457 48.0329,11.0297 C46.8299,12.4147 46.9759,14.5127 48.3609,15.7157 C49.7449,16.9197 51.8429,16.7737 53.0469,15.3887 C53.7339,14.5987 53.9789,13.5767 53.8069,12.6197 L62.5739,9.1217 C62.7899,9.4687 63.0599,9.7897 63.3839,10.0717 C64.8169,11.3177 66.8549,11.4177 68.3809,10.4517 L73.7209,15.8987 C72.6189,17.2827 72.7889,19.2997 74.1369,20.4717 C75.5209,21.6757 77.6189,21.5287 78.8229,20.1447 C80.0269,18.7607 79.8799,16.6617 78.4959,15.4587 C77.4319,14.5327 75.9469,14.4087 74.7699,15.0287 L69.3959,9.5457 C70.8159,7.7967 70.6079,5.2247 68.8939,3.7347" mask="url(#dental-logo-b)"/>
    <path fill="#7CCDF4" d="M85.6712,14.1224 C86.7432,13.1564 86.8292,11.5034 85.8622,10.4314 C85.2782,9.7824 84.4422,9.4974 83.6352,9.5854 L82.7792,6.3454 L84.6282,6.9554 C84.6202,7.1274 84.6452,7.3034 84.7072,7.4754 C84.9582,8.1634 85.7182,8.5174 86.4062,8.2664 C87.0932,8.0164 87.4482,7.2554 87.1972,6.5684 C86.9472,5.8804 86.1862,5.5264 85.4992,5.7764 C85.1742,5.8954 84.9282,6.1284 84.7802,6.4124 L82.6072,5.6944 L82.1362,3.9104 C82.2952,3.8294 82.4472,3.7284 82.5862,3.6034 C83.4342,2.8384 83.5022,1.5314 82.7382,0.6834 C81.9732,-0.1646 80.6662,-0.2326 79.8182,0.5314 C78.9692,1.2964 78.9022,2.6034 79.6662,3.4514 C80.1022,3.9364 80.7162,4.1644 81.3192,4.1304 L82.8192,9.8114 C82.5892,9.9184 82.3702,10.0604 82.1712,10.2404 C81.2932,11.0314 81.0782,12.2824 81.5592,13.2994 L77.7912,16.1874 C77.0202,15.4014 75.7602,15.3544 74.9342,16.0994 C74.0862,16.8634 74.0182,18.1704 74.7832,19.0194 C75.5472,19.8674 76.8552,19.9354 77.7032,19.1704 C78.3552,18.5824 78.5442,17.6744 78.2502,16.9004 L82.0432,13.9944 C83.0172,15.0034 84.6212,15.0684 85.6712,14.1224" mask="url(#dental-logo-b)"/>
  </g>
</svg>
