<?xml version="1.0" encoding="UTF-8" standalone="no"?>
<svg width="68px" height="41px" viewBox="0 0 68 41" version="1.1" xmlns="http://www.w3.org/2000/svg" xmlns:xlink="http://www.w3.org/1999/xlink">
    <!-- Generator: Sketch 41.2 (35397) - http://www.bohemiancoding.com/sketch -->
    <title>logoshap</title>
    <desc>Created with Sketch.</desc>
    <defs>
        <path d="M0.124685714,25.9373963 C0.314345939,26.0828986 0.560439252,26.0883937 0.722571429,26.007596 C0.950857143,25.8939735 1.024,25.7253907 1.10857143,25.4463179 L8.71885714,0.763178808 C8.81,0.447086093 9.09971429,0.229238411 9.42942857,0.229238411 C9.89514286,0.229238411 10.2448571,0.654397351 10.154,1.11002649 L4.60771429,26.2940728 C4.20815632,28.6264213 2.21894076,29.9289276 0.124685714,29.4115386 L0.124685714,25.9373963 L0.124685714,25.9373963 Z" id="path-1"></path>
        <polygon id="path-3" points="24.682 27.2762294 24.682 0.0655395298 0.200489976 0.0655395298 0.200489976 27.2762294 24.682 27.2762294"></polygon>
        <polygon id="path-5" points="20.1708733 42.7152318 -6.29972284e-14 42.7152318 -6.29972284e-14 0.248887417 67.8248571 0.248887417 67.8248571 42.7152318 20.1708733 42.7152318 20.1708733 15.68493 -1.26776049e-05 15.68493 -1.26776049e-05 42.7153515 20.1708733 42.7153515"></polygon>
    </defs>
    <g id="Symbols" stroke="none" stroke-width="1" fill="none" fill-rule="evenodd">
        <g id="logoshap" transform="translate(0.000000, -2.000000)">
            <g>
                <path d="M28.4411714,16.4206748 L36.8388857,27.8108338 C37.0274571,28.1021517 37.3723143,28.1403106 37.5794571,28.0369397 C37.8080286,27.9230325 37.8811714,27.7547344 37.9657429,27.4756616 L45.5760286,2.79252252 C45.6668857,2.4764298 45.9566,2.25886689 46.2866,2.25886689 C46.7526,2.25886689 47.1023143,2.68345629 47.0111714,3.13908543 L41.4648857,28.3234166 C40.8926,31.6640325 37.0591714,32.8916682 34.3268857,29.6857477 L25.5880286,17.9530126 C24.9937429,17.1166483 25.6443143,16.3435026 26.2874571,15.9337212 C26.9211714,15.5302046 27.8457429,15.5660854 28.4411714,16.4206748" id="Fill-1" fill="#11475E"></path>
                <g id="Group-5" transform="translate(36.857143, 2.029258)">
                    <mask id="mask-2" fill="white">
                        <use xlink:href="#path-1"></use>
                    </mask>
                    <g id="Clip-4"></g>
                    <polygon id="Fill-3" fill="#7EA3BB" mask="url(#mask-2)" points="4.98297143 30.7499834 3.36497143 30.625255 0.124685714 25.1765 6.02697143 -1.74463245 11.6638286 -1.68910265"></polygon>
                </g>
                <g id="Group-14" transform="translate(0.000000, 0.035881)">
                    <path d="M29.4692,25.2751152 C27.3534857,21.6303669 22.8394857,23.1655523 22.2980571,26.4503536 L19.2514857,40.6400689 C19.0700571,41.4858305 19.7034857,42.2880225 20.5709143,42.3105192 L20.8737714,42.3184927 C21.5372,42.3358636 22.1200571,41.881943 22.2637714,41.235804 L25.3423429,27.3781285 C25.4940571,26.6417179 26.5612,26.4315589 26.9086286,27.0836781 L37.1697714,41.4112212 C37.4297714,41.7743007 37.8494857,41.9898702 38.2969143,41.9898702 L38.6806286,41.9898702 C39.8046286,41.9898702 40.4606286,40.7252146 39.8103429,39.8111086 L29.4692,25.2751152 Z" id="Fill-6" fill="#11475E"></path>
                    <g id="Group-10" transform="translate(43.142857, 15.377483)">
                        <mask id="mask-4" fill="white">
                            <use xlink:href="#path-3"></use>
                        </mask>
                        <g id="Clip-9"></g>
                        <path d="M23.3315714,0.53445298 L23.0967143,0.528188079 C22.4241429,0.510817219 21.8358571,0.976982781 21.7018571,1.63422781 L18.1338571,19.1098834 C17.4184286,22.6139563 14.5801429,24.6116053 9.04557143,24.337943 C9.03385714,24.3373735 8.85357143,24.3322477 8.85357143,24.3322477 C4.31214286,24.0770954 2.85357143,21.8724199 3.49585714,18.7274397 L4.37071429,14.4416781 L5.63842857,17.340049 C7.75414286,20.9847974 12.2681429,19.4496119 12.8098571,16.1648106 L15.8561429,1.97509536 C16.0375714,1.12933377 15.4041429,0.327141722 14.5367143,0.304645033 L14.2338571,0.296671523 C13.5704286,0.279300662 12.9875714,0.733221192 12.8438571,1.37936026 L9.76528571,15.2370358 C9.61357143,15.9734464 8.54642857,16.1836053 8.199,15.5314861 L5.40071429,9.39729404 L6.96614286,1.72905563 C7.13814286,0.887280795 6.50557143,0.0947708609 5.64385714,0.0722741722 L5.409,0.0660092715 C4.73642857,0.0486384106 4.14814286,0.514803974 4.01385714,1.17176424 L0.457857143,18.5896119 C-0.673571429,24.1326252 1.885,27.097347 8.93614286,27.2457113 C16.297,27.605943 20.0441429,24.7696517 21.1952857,19.1315258 L24.6538571,2.19123444 C24.8255714,1.3494596 24.1932857,0.556949669 23.3315714,0.53445298" id="Fill-8" fill="#11475E" mask="url(#mask-4)"></path>
                    </g>
                    <g id="Group-13">
                        <mask id="mask-6" fill="white">
                            <use xlink:href="#path-5"></use>
                        </mask>
                        <g id="Clip-12"></g>
                    </g>
                </g>
                <path d="M12.3033429,15.725043 C4.8802,15.6080033 1.13305714,17.9106391 0.140485714,23.6057185 C-0.478942857,27.1613344 1.02391429,29.6653013 3.19277143,30.8507914 C5.23391429,31.9659437 8.32962857,31.9340497 9.95848571,31.8209967 C10.5956286,31.7768576 11.1190571,31.3061358 11.2276286,30.6787914 L11.2527714,30.5344139 C11.4044857,29.6587517 10.6999143,28.865957 9.80991429,28.9214868 C7.16648571,29.0860828 2.55391429,28.7315464 3.32277143,24.0983675 C3.9082,20.5703742 6.73048571,18.5055199 12.2704857,18.6348046 C12.2822,18.6350894 12.4293429,18.6350894 12.4293429,18.6350894 C16.9756286,18.7714934 17.4196286,20.9374404 16.8602,24.0983675 L14.7330571,34.371096 C14.1099143,37.8925397 11.3250571,39.9636589 5.78534286,39.8346589 C5.77362857,39.8343742 4.36362857,39.7535 3.8382,39.6544007 C3.14134286,39.5228377 2.46248571,39.9568245 2.26877143,40.636851 L2.19991429,40.878904 C1.9682,41.692202 2.5162,42.5299901 3.35905714,42.6256722 C4.09134286,42.7088245 4.88877143,42.7486921 5.75248571,42.7444205 C13.1199143,42.912149 16.7913429,39.9790364 17.7942,34.3127185 L19.9007714,24.1564603 C20.8862,18.5861093 19.3553429,15.8363874 12.3033429,15.725043" id="Fill-11" fill="#11475E"></path>
            </g>
        </g>
    </g>
</svg>