<svg xmlns="http://www.w3.org/2000/svg" xmlns:xlink="http://www.w3.org/1999/xlink">
    <view id="select-arrow-view" viewBox="0 0 46 26"></view>
    <symbol id="select-arrow" viewBox="0 0 46 26">
        <path fill="#1999AA" fill-rule="evenodd" d="M25.5453628,24.5692 C23.9113628,26.2032 21.2623628,26.2032 19.6283628,24.5692 L1.02536282,5.9652 C-0.510637179,4.4302 -0.320637179,1.8222 1.59336282,0.5522 C2.98636282,-0.3708 4.86036282,-0.0988 6.04136282,1.0832 L22.5873628,17.6272 L39.1323628,1.0832 C40.3133628,-0.0988 42.1873628,-0.3708 43.5803628,0.5522 C45.4943628,1.8222 45.6843628,4.4302 44.1483628,5.9652 L25.5453628,24.5692 Z"/>
    </symbol>

    <symbol id="dental-logo" viewBox="0 0 110 41">
    </symbol>

    <symbol id="hand-pointer" viewBox="0 0 59 49">
        <g fill="none" fill-rule="evenodd" transform="scale(-1 1) rotate(-41 2.16 101.936)">
            <g>
                <path fill="#D8F6FB" d="M36.9053835,12.5872649 L29.7890215,12.5872649 C29.5967898,7.87772307 26.5265948,5.70408838 25.5740489,1.89914085 C24.888147,-0.841450215 21.3590764,-0.437878708 21.3590764,1.98681079 C21.3590764,1.98681079 22.7370813,9.68908531 21.7035776,10.4136302 C20.6700739,11.1381751 9.65602502,11.1381751 3.78951355,11.1381751 C0.344501232,11.1381751 2.24886776e-12,12.3525123 2.24886776e-12,13.6740822 C2.24886776e-12,15.4854445 2.39187205,15.8009838 3.10051109,15.8477169 C8.61253079,16.2099894 11.3523491,16.5030678 12.7513686,16.4552478 C12.7513686,16.4552478 9.48480791,16.4614064 9.48480791,19.1559889 C9.48480791,21.1089997 11.5342457,21.4495358 14.0325687,21.4495358 C14.0325687,21.4495358 10.894507,21.8552809 10.894507,23.9426948 C10.894507,26.9734661 15.3137688,26.3684711 15.3137688,26.3684711 C13.0717547,26.5035987 11.0167433,28.5157209 11.0339684,29.0888359 C11.0980456,31.176612 16.1460837,30.7008873 17.0431649,30.7008873 L20.982192,30.7008873 L20.0289571,30.7008873 L27.7774788,30.7008873 C29.8620558,30.7008873 30.3939657,28.5997071 30.3939657,27.4433334 L36.8612873,27.4502166 L38.4907781,14.21894 C38.4907781,13.0622041 37.7814501,12.5872649 36.9053835,12.5872649 Z"/>
                <path stroke="#085661" stroke-width="2" d="M36.8381038,12.5872649 L29.8367877,12.1886859 C29.6363983,7.47914407 26.018869,5.70408838 25.0258997,1.89914085 C24.3108901,-0.841450215 20.6320557,-0.437878708 20.6320557,1.98681079 C20.6320557,1.98681079 22.9290934,9.38242983 20.9911766,10.4136302 C19.0532599,11.4448306 10.292487,11.2951398 4.17701744,11.2951398 C0.585808617,11.2951398 0.226687734,12.5094771 0.226687734,13.831047 C0.226687734,15.6424092 2.72006402,15.9579485 3.45877568,16.0046817 C9.2047098,16.3669541 13.3518642,16.1694831 14.8102541,16.1216631 C14.8102541,16.1216631 8.25387717,16.4614064 8.25387717,19.1559889 C8.25387717,21.1089997 11.9961076,21.4929685 14.6004523,21.4929685 C14.6004523,21.4929685 9.72339982,21.8552809 9.72339982,23.9426948 C9.72339982,26.9734661 15.6790675,26.3230617 15.6790675,26.3230617 C13.3419088,26.4581893 12.175513,26.8092998 11.7047518,27.2529157 C9.71424959,29.1286402 13.0648698,30.9514787 14.0000205,30.9514787 L20.2391775,30.7008873 L19.24549,30.7008873 L27.3228369,30.7008873 C29.4958774,30.7008873 31.4379468,28.449212 31.4379468,27.2928384 L36.7921363,27.4502166 L38.4907781,14.21894 C38.4907781,13.0622041 37.7513482,12.5872649 36.8381038,12.5872649 Z"/>
                <path stroke="#085661" stroke-linecap="square" stroke-width="2" d="M11.0683766 16.397595L16.9783089 16.397595M11.8882564 21.3168735L17.7981886 21.3168735M12.7081361 26.236152L18.6180684 26.236152"/>
                <path fill="#339FAE" d="M51.3799599,29.4566969 C51.3799599,30.0084378 50.6586005,30.4533084 49.7694556,30.4533084 L36.8659244,30.4533084 C35.9755979,30.4533084 35.2548293,30.0084378 35.2548293,29.4566969 L35.2548293,10.8337194 C35.2548293,10.282703 35.9755979,9.83855701 36.8659244,9.83855701 L49.7316448,9.83855701 C50.6231529,9.83855701 51.3433307,10.282703 51.3433307,10.8337194 L51.3799599,29.4566969 Z"/>
            </g>
            <path stroke="#085661" stroke-width="2" d="M51.3799599,30.164512 C51.3799599,30.7131012 50.6586005,31.1554305 49.7694556,31.1554305 L36.8659244,31.1554305 C35.9755979,31.1554305 35.2548293,30.7131012 35.2548293,30.164512 L35.2548293,11.6479145 C35.2548293,11.1000457 35.9755979,10.6584368 36.8659244,10.6584368 L49.7316448,10.6584368 C50.6231529,10.6584368 51.3433307,11.1000457 51.3433307,11.6479145 L51.3799599,30.164512 Z"/>
        </g>
    </symbol>

    <symbol id="logoshap" viewBox="0 0 68 41">
        <path fill="#11475E" d="M28.4411714,14.4206748 L36.8388857,25.8108338 C37.0274571,26.1021517 37.3723143,26.1403106 37.5794571,26.0369397 C37.8080286,25.9230325 37.8811714,25.7547344 37.9657429,25.4756616 L45.5760286,0.79252252 C45.6668857,0.4764298 45.9566,0.25886689 46.2866,0.25886689 C46.7526,0.25886689 47.1023143,0.68345629 47.0111714,1.13908543 L41.4648857,26.3234166 C40.8926,29.6640325 37.0591714,30.8916682 34.3268857,27.6857477 L25.5880286,15.9530126 C24.9937429,15.1166483 25.6443143,14.3435026 26.2874571,13.9337212 C26.9211714,13.5302046 27.8457429,13.5660854 28.4411714,14.4206748"/>
        <path fill="#7EA3BB" d="M39.3735273,29.2275575 L37.4951957,26.0690186 C37.5251638,26.0606979 37.5535338,26.049901 37.5797144,26.036854 C37.8080001,25.9232315 37.881143,25.7546487 37.9657144,25.4755759 L45.5760001,0.792436808 C45.667143,0.476344093 45.9568573,0.258496411 46.2865716,0.258496411 C46.7522859,0.258496411 47.1020001,0.683655351 47.011143,1.13928449 L41.4648573,26.3233308 C41.226931,27.7121834 40.4253293,28.7358652 39.3735273,29.2275575 L39.3735273,29.2275575 Z"/>
        <path fill="#11475E" d="M29.4692 23.3109962C27.3534857 19.6662479 22.8394857 21.2014333 22.2980571 24.4862346L19.2514857 38.6759499C19.0700571 39.5217115 19.7034857 40.3239035 20.5709143 40.3464002L20.8737714 40.3543737C21.5372 40.3717446 22.1200571 39.917824 22.2637714 39.271685L25.3423429 25.4140095C25.4940571 24.6775989 26.5612 24.4674399 26.9086286 25.1195591L37.1697714 39.4471022C37.4297714 39.8101817 37.8494857 40.0257512 38.2969143 40.0257512L38.6806286 40.0257512C39.8046286 40.0257512 40.4606286 38.7610956 39.8103429 37.8469896L29.4692 23.3109962zM66.4744284 13.947817L66.2395713 13.9415521C65.5669999 13.9241812 64.9787141 14.3903468 64.8447141 15.0475918L61.2767141 32.5232474C60.5612856 36.0273203 57.7229999 38.0249693 52.1884284 37.751307 52.1767141 37.7507375 51.9964284 37.7456117 51.9964284 37.7456117 47.4549999 37.4904594 45.9964284 35.2857839 46.6387141 32.1408037L47.5135713 27.8550421 48.7812856 30.753413C50.8969999 34.3981614 55.4109999 32.8629759 55.9527141 29.5781746L58.9989999 15.3884594C59.1804284 14.5426978 58.5469999 13.7405057 57.6795713 13.718009L57.3767141 13.7100355C56.7132856 13.6926647 56.1304284 14.1465852 55.9867141 14.7927243L52.9081427 28.6503998C52.7564284 29.3868104 51.6892856 29.5969693 51.341857 28.9448501L48.5435713 22.810658 50.1089999 15.1424196C50.2809999 14.3006448 49.6484284 13.5081349 48.7867141 13.4856382L48.551857 13.4793733C47.8792856 13.4620024 47.2909999 13.928168 47.1567141 14.5851282L43.6007141 32.0029759C42.4692856 37.5459892 45.027857 40.510711 52.0789999 40.6590753 59.439857 41.019307 63.1869999 38.1830157 64.3381427 32.5448898L67.7967141 15.6045984C67.9684284 14.7628236 67.3361427 13.9703137 66.4744284 13.947817M12.3033429 13.725043C4.8802 13.6080033 1.13305714 15.9106391.140485714 21.6057185-.478942857 25.1613344 1.02391429 27.6653013 3.19277143 28.8507914 5.23391429 29.9659437 8.32962857 29.9340497 9.95848571 29.8209967 10.5956286 29.7768576 11.1190571 29.3061358 11.2276286 28.6787914L11.2527714 28.5344139C11.4044857 27.6587517 10.6999143 26.865957 9.80991429 26.9214868 7.16648571 27.0860828 2.55391429 26.7315464 3.32277143 22.0983675 3.9082 18.5703742 6.73048571 16.5055199 12.2704857 16.6348046 12.2822 16.6350894 12.4293429 16.6350894 12.4293429 16.6350894 16.9756286 16.7714934 17.4196286 18.9374404 16.8602 22.0983675L14.7330571 32.371096C14.1099143 35.8925397 11.3250571 37.9636589 5.78534286 37.8346589 5.77362857 37.8343742 4.36362857 37.7535 3.8382 37.6544007 3.14134286 37.5228377 2.46248571 37.9568245 2.26877143 38.636851L2.19991429 38.878904C1.9682 39.692202 2.5162 40.5299901 3.35905714 40.6256722 4.09134286 40.7088245 4.88877143 40.7486921 5.75248571 40.7444205 13.1199143 40.912149 16.7913429 37.9790364 17.7942 32.3127185L19.9007714 22.1564603C20.8862 16.5861093 19.3553429 13.8363874 12.3033429 13.725043"/>
    </symbol>

    <symbol id="medal-icon">
    </symbol>

    <symbol id="pinner" viewBox="0 0 15 36">
        <path fill="none" stroke="#33AABA" stroke-width="2" d="M31,17.0080645 L31,6.19507258 C31,2.78748387 33.7874839,1.0658141e-14 37.1950726,1.0658141e-14 L37.6758952,1.0658141e-14 C41.0834839,1.0658141e-14 43.8709677,2.78748387 43.8709677,6.19507258 L43.8709677,27.3668952 C43.8709677,30.7740242 42.7112016,33.5619677 39.0443548,33.5619677 C36.2757177,33.5619677 34.6668468,30.7740242 34.6668468,27.3668952 L34.6668468,6.67083871" transform="translate(-30 1)"/>
    </symbol>

    <symbol id="prev-arrow" viewBox="0 0 18 31">
        <path fill="#12475E" fill-rule="evenodd" d="M16.9932196,16.2744701 C15.9062544,17.3568205 14.1440935,17.3568205 13.0571283,16.2744701 L0.682089181,3.95130769 C-0.339684732,2.93453419 -0.213293428,1.20701282 1.05993266,0.365773504 C1.98658049,-0.245615385 3.23319788,-0.0654444444 4.01881962,0.717504274 L15.0255066,11.6761368 L26.0315283,0.717504274 C26.8171501,-0.0654444444 28.0637674,-0.245615385 28.9904153,0.365773504 C30.2636414,1.20701282 30.3900327,2.93453419 29.3682587,3.95130769 L16.9932196,16.2744701 Z" transform="matrix(0 1 1 0 .889 .2)"/>
    </symbol>

    <symbol id="prev-arrow-hover" viewBox="0 0 17 30">
        <path fill="#1999AA" fill-rule="evenodd" d="M16.6600192,16.0644769 C15.5943671,17.1328615 13.8667584,17.1328615 12.8011062,16.0644769 L0.668714883,3.90032308 C-0.333024247,2.89666923 -0.209111204,1.19143846 1.03914967,0.361053846 C1.94762793,-0.242446154 3.16980184,-0.0646 3.94001923,0.708246154 L14.7308888,11.5254769 L25.5211062,0.708246154 C26.2913236,-0.0646 27.5134975,-0.242446154 28.4219758,0.361053846 C29.6702366,1.19143846 29.7941497,2.89666923 28.7924105,3.90032308 L16.6600192,16.0644769 Z" transform="rotate(-90 15 15)"/>
    </symbol>



    <symbol id="v-icon" viewBox="0 0 66 76">
    </symbol>


    <symbol id="v-stop-block">
    </symbol>


    <symbol id="icon-beauty" viewBox="0 0 70 70">
    </symbol>
</svg>