<svg width="277" height="72" viewBox="0 0 277 72" xmlns="http://www.w3.org/2000/svg"><title>Group 2</title><desc>Created with Sketch.</desc><g fill="#44B2C2" opacity=".163"><path d="M257.487 4.073c-3.027-2.639-7.611-2.319-10.244.716-1.593 1.839-2.098 4.247-1.582 6.45l-8.651 3.461 1.062-5.322c.477-.035.955-.161 1.408-.394 1.813-.925 2.534-3.147 1.612-4.965-.925-1.818-3.141-2.541-4.953-1.617-1.813.925-2.534 3.15-1.61 4.966.436.857 1.16 1.459 1.994 1.773l-1.247 6.252-4.765 1.908c-.275-.413-.604-.8-.996-1.141-2.395-2.087-6.022-1.835-8.104.567-2.081 2.403-1.83 6.04.566 8.129 2.395 2.089 6.022 1.834 8.104-.567 1.188-1.37 1.614-3.143 1.316-4.802l15.162-6.07c.372.6.839 1.159 1.399 1.648 2.48 2.161 6.003 2.335 8.644.659l9.234 9.449c-1.906 2.401-1.61 5.9.719 7.933 2.395 2.087 6.024 1.834 8.106-.567 2.081-2.403 1.826-6.04-.566-8.129-1.842-1.606-4.408-1.821-6.446-.748l-9.294-9.51c2.458-3.034 2.096-7.497-.868-10.08M7.301 19.35c-4.013 3.361-4.535 9.331-1.16 13.338 2.044 2.425 5.042 3.565 7.984 3.349l2.698 11.845-6.638-2.45c.052-.622-.014-1.262-.221-1.893-.822-2.522-3.537-3.903-6.066-3.085-2.529.822-3.911 3.528-3.089 6.05.822 2.522 3.542 3.904 6.069 3.083 1.192-.387 2.115-1.198 2.689-2.208l7.798 2.877 1.489 6.524c-.588.27-1.153.615-1.673 1.051-3.175 2.66-3.588 7.382-.917 10.552 2.671 3.168 7.407 3.585 10.584.925 3.177-2.66 3.586-7.383.917-10.552-1.523-1.809-3.72-2.717-5.916-2.671l-4.734-20.761c.849-.357 1.663-.845 2.407-1.467 3.288-2.754 4.228-7.256 2.607-10.998l14.046-9.97c2.704 2.943 7.27 3.273 10.362.687 3.175-2.66 3.586-7.385.918-10.555-2.671-3.168-7.407-3.58-10.584-.925-2.443 2.045-3.242 5.307-2.274 8.149l-14.137 10.036c-3.408-3.782-9.229-4.224-13.158-.932M211.229 5.16c-2.833-1.448-6.298-.323-7.739 2.516-.872 1.72-.798 3.668.02 5.263l-5.988 4.321-.204-4.296c.36-.118.703-.307 1.007-.573 1.216-1.059 1.345-2.906.287-4.127-1.06-1.22-2.903-1.352-4.119-.293-1.216 1.059-1.344 2.908-.285 4.128.5.575 1.172.899 1.873.981l.241 5.047-3.298 2.381c-.291-.265-.618-.499-.985-.687-2.242-1.145-4.983-.256-6.123 1.991-1.139 2.247-.248 4.996 1.994 6.142 2.243 1.146 4.982.255 6.123-1.991.651-1.282.638-2.727.091-3.945l10.495-7.576c.401.39.867.73 1.392.999 2.322 1.186 5.064.644 6.773-1.151l8.913 5.494c-1.005 2.212-.106 4.845 2.075 5.962 2.242 1.145 4.984.254 6.124-1.991 1.139-2.247.246-4.995-1.994-6.142-1.724-.882-3.739-.555-5.1.662l-8.971-5.529c1.308-2.804.174-6.167-2.601-7.585"/></g></svg>