<svg width="60" height="64" viewBox="0 0 60 64" xmlns="http://www.w3.org/2000/svg" xmlns:xlink="http://www.w3.org/1999/xlink"><title>call now</title><desc>Created with Sketch.</desc><defs><linearGradient x1="50%" y1="0%" x2="50%" y2="100%" id="c"><stop stop-color="#CADCE7" offset="0%"/><stop stop-color="#074D77" offset="100%"/></linearGradient><rect id="a" y="8" width="52" height="48" rx="6"/><filter x="-50%" y="-50%" width="200%" height="200%" filterUnits="objectBoundingBox" id="b"><feOffset dy="2" in="SourceAlpha" result="shadowOffsetOuter1"/><feGaussianBlur stdDeviation="2" in="shadowOffsetOuter1" result="shadowBlurOuter1"/><feComposite in="shadowBlurOuter1" in2="SourceAlpha" operator="out" result="shadowBlurOuter1"/><feColorMatrix values="0 0 0 0 0 0 0 0 0 0 0 0 0 0 0 0 0 0 0.5 0" in="shadowBlurOuter1"/></filter><filter x="-50%" y="-50%" width="200%" height="200%" filterUnits="objectBoundingBox" id="d"><feGaussianBlur stdDeviation="1.5" in="SourceAlpha" result="shadowBlurInner1"/><feOffset dy="1" in="shadowBlurInner1" result="shadowOffsetInner1"/><feComposite in="shadowOffsetInner1" in2="SourceAlpha" operator="arithmetic" k2="-1" k3="1" result="shadowInnerInner1"/><feColorMatrix values="0 0 0 0 1 0 0 0 0 1 0 0 0 0 1 0 0 0 1 0" in="shadowInnerInner1"/></filter><mask id="e" x="0" y="0" width="52" height="48"><use xlink:href="#a"/></mask><path d="M42.502 29.382c-.176 1.369-.602 2.73-1.249 3.947-1.11 1.63-2.609 2.956-4.36 3.882-1.128.573-2.417.658-3.599.228-12.033-4.273-21.347-14.202-25.021-26.624-.405-1.415-.235-2.958.511-4.199.561-.919 1.176-1.783 1.895-2.515 1.702-1.702 3.866-2.76 6.197-3.12.278-.055.598.065.809.291.105.113.183.288.207.444l2.134 9.403c.117.477-.169.969-.645 1.09l-2.865.753c-.171.04-.297.127-.406.232-.373.361-.365.944-.005 1.329l13.492 14.437c.36.385.932.422 1.305.061.127-.123.211-.294.258-.465l.361-1.764c.115-.452.505-.739.934-.725l9.157.491c.232.026.445.124.612.302.149.16.235.381.276.592.016.647.014 1.275.002 1.93z" id="g"/><filter x="-50%" y="-50%" width="200%" height="200%" filterUnits="objectBoundingBox" id="f"><feOffset dx="-3" dy="2" in="SourceAlpha" result="shadowOffsetOuter1"/><feGaussianBlur stdDeviation="2.5" in="shadowOffsetOuter1" result="shadowBlurOuter1"/><feColorMatrix values="0 0 0 0 1 0 0 0 0 1 0 0 0 0 1 0 0 0 0.85 0" in="shadowBlurOuter1"/></filter></defs><g fill="none"><g transform="translate(4 -3) translate(0 5)"><use fill="#000" filter="url(#b)" xlink:href="#a"/><use fill="url(#c)" xlink:href="#a"/><use fill="#000" filter="url(#d)" xlink:href="#a"/><use stroke="#8FB0C6" mask="url(#e)" stroke-width="2" xlink:href="#a"/></g><text font-family="PoetiAAA, Poeti AAA" font-size="13" fill="#C2CFD8" transform="translate(4 -3) translate(0 5)"><tspan x="1.14" y="51.301">התקשרו</tspan></text><g transform="translate(4 -3) translate(0 5)"><use fill="#000" filter="url(#f)" xlink:href="#g"/><use fill="#12475E" xlink:href="#g"/></g></g></svg>