<svg xmlns="http://www.w3.org/2000/svg" xmlns:xlink="http://www.w3.org/1999/xlink" width="58" height="58" viewBox="0 0 58 58"><defs><path id="a" d="M.653.408h50.888v52.045h-50.888v-52.045z"/><path id="c" d="M49.13.239l2.41 2.465c0 14.371-11.392 26.022-25.445 26.022-14.052 0-25.443-11.651-25.443-26.022 0-.831.038-1.654.113-2.465h48.365z"/><path id="e" d="M1.651 19.765c-.65-2.299-.998-4.729-.998-7.242 0-4.393 1.064-8.532 2.943-12.162h12.081v19.404h-14.026z"/><path id="g" d="M14.771 2.92c-.736-1.302-1.889-2.194-3.349-2.479-.277-.054-.554-.08-.831-.08-1.411 0-2.788.686-3.906 1.847l1.263 1.546-1.186-1.349c-.935-1.011-2.065-1.679-3.254-1.87-1.452 2.856-2.401 6.022-2.728 9.376h13.992v-6.992z"/><path id="i" d="M1.651 19.765c-.65-2.299-.998-4.729-.998-7.242 0-4.393 1.064-8.532 2.943-12.162h12.081v19.404h-14.026z"/><path id="k" d="M11.026.542l4.514 4.617c0 5.488-1.661 10.578-4.497 14.775h-10.837v-19.393h10.819z"/><path id="m" d="M15.138 9.797c.265-1.505.403-3.055.403-4.639v-.128l-.107-.092c-1.23-1.03-2.918-1.227-4.6-.704l.357 1.822-.379-1.629c-.45-1.738-1.502-3.103-3.006-3.629-.492-.173-.977-.256-1.448-.256-2.201.001-4.122 1.818-5.162 4.925-.207.618-.384 1.338-.528 2.112v2.219h14.471z"/><path id="o" d="M11.026.542l4.514 4.617c0 5.488-1.661 10.578-4.497 14.775h-10.837v-19.393h10.819z"/><path id="q" d="M11.224.744l5.117 5.233c0 5.757-1.828 11.078-4.924 15.388h-11.008v-20.621h10.815z"/><path id="s" d="M1.833 21.197c-.767-2.479-1.18-5.118-1.18-7.856 0-4.642 1.188-9.001 3.271-12.774h12.35v20.631h-14.441z"/></defs><g transform="translate(1 1)" fill="none"><circle cx="28" cy="28" r="28" stroke="#12475E"/><g transform="translate(2 1) translate(0 .41)"><mask id="b"><use xlink:href="#a"/></mask><path fill="#BFCCD6" d="M51.541 26.431c0 14.371-11.392 26.022-25.445 26.022-14.052 0-25.443-11.651-25.443-26.022 0-14.372 11.391-26.023 25.443-26.023 14.053 0 25.445 11.651 25.445 26.023" mask="url(#b)"/></g><g transform="translate(2 25.138)"><mask id="d"><use xlink:href="#c"/></mask><path fill="#8F9DA6" d="M43.822 8.556c-14.76-6.469-42.17-8.318-42.17-8.318l-9.639.924s9.338 28.034 10.242 28.034c.904 0 21.988 6.161 21.988 6.161l40.665-14.171-14.508-8.22" mask="url(#d)"/><path stroke="#11475E" stroke-width="1.499" d="M43.822 8.556c-14.76-6.469-42.17-8.318-42.17-8.318l-9.639.924s9.338 28.034 10.242 28.034c.904 0 21.988 6.161 21.988 6.161l40.665-14.171-14.508-8.22" mask="url(#d)"/></g><path fill="#D8E8F4" d="M30.546 15.069c2.058-1.463 4.432-1.952 6.541-1.105 3.906 1.57 3.026 8.502-2.042 6.172-12.491-5.743-17.58 6.839-17.482 1.157.098-5.682 3.304-9.7 7.5-9.624 2.266.042 4.18 1.517 5.535 3.673l1.211 2.039"/><path stroke="#11475E" stroke-width="1.499" d="M30.546 15.069c2.058-1.463 4.432-1.952 6.541-1.105 3.906 1.57 5.314 6.41 3.281 11.699-2.033 5.29-5.158 5.592-5.991 3.717-.515-1.16-1.206-3.697-5.531-4.13-2.273-.227-3.631.51-4.538 1.414-1.61 1.604-6.295-.227-6.198-5.91.098-5.682 2.661-9.065 6.856-8.99 2.266.041 4.277 1.421 5.632 3.577l1.211 2.039"/><path fill="#BFCCD6" d="M24.832 46.96l2.103.358c.615.104 1.206-.35 1.314-1.01l5.158-17.588c.107-.66-.309-1.286-.924-1.39 0 0-1.062-.947-3.374-1.276-2.312-.328-2.808.226-2.808.226-.615-.105-1.206.349-1.314 1.01l-1.079 18.281c-.108.66.307 1.285.923 1.39"/><path stroke="#11475E" stroke-width="1.535" d="M24.832 46.96l2.103.358c.615.104 1.206-.35 1.314-1.01l5.158-17.588c.107-.66-.309-1.286-.924-1.39 0 0-1.062-.947-3.374-1.276-2.312-.328-2.808.226-2.808.226-.615-.105-1.206.349-1.314 1.01l-1.079 18.281c-.108.66.307 1.285.923 1.39z"/><path fill="#11475E" d="M24.182 28.453l9.217 1.565c.253.043.494-.133.536-.393l.143-.878c.042-.259-.13-.506-.384-.55l-9.217-1.564c-.253-.043-.494.133-.537.393l-.142.878c-.042.259.13.506.383.549m-.897 3.146l9.969 1.693c.253.043.494-.133.537-.393l.116-.716c.042-.259-.131-.506-.384-.549l-9.969-1.693c-.253-.043-.494.133-.537.393l-.116.716c-.042.259.131.506.384.549m-.171 3.435l9.217 1.565c.253.043.494-.133.536-.393l.142-.878c.042-.259-.13-.506-.383-.549l-9.217-1.565c-.253-.043-.495.133-.537.393l-.142.878c-.042.259.13.506.384.549m-.242 3.34l8.631 1.466c.253.043.495-.134.537-.393l.143-.879c.042-.259-.13-.506-.384-.549l-8.632-1.465c-.253-.043-.494.133-.537.393l-.142.878c-.042.259.13.506.383.549m.418 3.452l6.727 1.142c.254.043.494-.133.537-.392l.142-.879c.042-.259-.13-.506-.384-.549l-6.727-1.142c-.253-.043-.494.133-.537.393l-.142.878c-.042.259.13.506.383.549m.336 3.319l5.024.853c.254.043.494-.133.537-.393l.105-.644c.042-.259-.13-.506-.383-.549l-5.025-.853c-.253-.043-.494.134-.537.393l-.104.645c-.042.259.13.506.383.549m4.465 2.23c-.142.88-1.237 1.425-2.444 1.221-1.206-.205-2.07-1.084-1.926-1.963"/><g transform="translate(2 15.318)"><mask id="f"><use xlink:href="#e"/></mask><path fill="#BFCCD6" d="M6.684 2.209c1.338-1.39 3.045-2.098 4.738-1.768 3.136.611 4.855 4.027 4.064 8.274-.79 4.247-3.976 11.544-6.01 11.023-1.501-.383 2.251-9.563-2.662-9.673-5.03-.112-.34 9.29-2.591 9.673-1.686.288-5.68-6.743-6.389-11.006-.709-4.262 1.076-7.643 4.223-8.19 1.7-.296 3.393.446 4.703 1.863l1.186 1.35" mask="url(#f)"/></g><g transform="translate(2 1) translate(0 14.319)"><mask id="h"><use xlink:href="#g"/></mask><path fill="#D8E8F4" d="M6.684 2.209c1.338-1.39 3.045-2.098 4.738-1.768 3.136.611 5.91 5.61-.677 4.908-10.364-1.105-12.202 7.646-12.911 3.383-.709-4.262 1.134-7.728 4.282-8.276 1.699-.295 3.334.532 4.645 1.949l1.186 1.35" mask="url(#h)"/></g><g transform="translate(2 1) translate(0 14.319)"><mask id="j"><use xlink:href="#i"/></mask><path stroke="#11475E" stroke-width="1.499" d="M6.684 2.209c1.338-1.39 3.045-2.098 4.738-1.768 3.136.611 4.855 4.027 4.064 8.274-.79 4.247-3.976 11.544-6.01 11.023-1.501-.383 2.251-9.563-2.662-9.673-5.03-.112-.34 9.29-2.591 9.673-1.686.288-5.68-6.743-6.389-11.006-.709-4.262 1.076-7.643 4.223-8.19 1.7-.296 3.393.446 4.703 1.863l1.186 1.35" mask="url(#j)"/><g transform="translate(36 7.364)"><mask id="l"><use xlink:href="#k"/></mask><path fill="#BFCCD6" d="M10.834 4.233c1.682-.523 3.37-.326 4.6.704 2.277 1.909 2.197 5.45-.275 8.534-2.471 3.083-8.196 7.557-9.619 6.218-1.05-.988 5.945-6.73 2.013-9.034-4.026-2.359-4.278 7.37-6.268 6.667-1.49-.528-1.352-8.084-.09-11.857 1.263-3.772 3.825-5.644 6.61-4.669 1.505.527 2.556 1.892 3.006 3.629l.379 1.629" mask="url(#l)"/></g></g><g transform="translate(2 1) translate(36 21.683)"><mask id="n"><use xlink:href="#m"/></mask><path fill="#D8E8F4" d="M10.834 4.233c1.682-.523 3.37-.326 4.6.704 2.277 1.909 2.369 7.208-2.664 3.67-7.918-5.568-13.178.691-11.916-3.081 1.263-3.772 4.25-5.748 7.035-4.772 1.504.527 2.472 1.934 2.922 3.672l.379 1.629" mask="url(#n)"/></g><g transform="translate(2 1) translate(0 13.5)"><g transform="translate(36 8.182)"><mask id="p"><use xlink:href="#o"/></mask><path stroke="#11475E" stroke-width="1.499" d="M10.834 4.233c1.682-.523 3.37-.326 4.6.704 2.277 1.909 2.197 5.45-.275 8.534-2.471 3.083-8.196 7.557-9.619 6.218-1.05-.988 5.945-6.73 2.013-9.034-4.026-2.359-4.278 7.37-6.268 6.667-1.49-.528-1.352-8.084-.09-11.857 1.263-3.772 3.825-5.644 6.61-4.669 1.505.527 2.556 1.892 3.006 3.629l.379 1.629" mask="url(#p)"/></g><g transform="translate(35.2 7.364)"><mask id="r"><use xlink:href="#q"/></mask><path fill="#11475E" d="M6.853 20.114c.099.029.221.028.299.021 1.879-.135 6.23-3.599 8.342-6.234 2.25-2.807 2.398-5.962.358-7.671-.915-.768-2.194-1.022-3.564-.72l.285 1.221-1.167.285-.379-1.629c-.41-1.585-1.366-2.753-2.618-3.191-2.434-.853-4.677.79-5.848 4.286-1.292 3.862-1.136 10.598-.275 11.081.315-.103.844-1.546 1.16-2.409.684-1.862 1.458-3.973 2.963-4.529.694-.254 1.446-.149 2.241.316.789.462 1.275 1.09 1.446 1.863.391 1.784-1.026 3.863-2.165 5.533-.412.603-.959 1.406-1.078 1.775m.204 1.251c-.459 0-.838-.136-1.124-.405-.762-.717-.017-1.811 1.014-3.323.952-1.395 2.254-3.305 1.978-4.562-.094-.43-.38-.78-.871-1.068-.483-.283-.889-.355-1.238-.227-.984.363-1.685 2.272-2.247 3.805-.682 1.859-1.329 3.611-2.682 3.134-2.166-.767-1.626-9.151-.461-12.634 1.39-4.149 4.281-6.132 7.372-5.05 1.422.498 2.542 1.68 3.152 3.295 1.762-.411 3.438-.074 4.662.952 2.545 2.133 2.464 6.085-.19 9.397-2.038 2.543-6.742 6.504-9.186 6.68l-.18.007" mask="url(#r)"/></g><mask id="t"><use xlink:href="#s"/></mask><path fill="#11475E" d="M6.727 10.27l.101.001c.971.022 1.74.355 2.284.991 1.263 1.474.967 4.193.731 6.378-.09.83-.211 1.942-.117 2.329.122-.014.259-.087.362-.154 1.731-1.132 4.131-6.757 4.809-10.396.726-3.896-.75-7.004-3.587-7.557-1.292-.252-2.669.202-3.841 1.25l.924 1.051-.892.82-1.187-1.35c-1.206-1.305-2.726-1.916-4.156-1.668-1.359.236-2.442 1.061-3.129 2.386-.709 1.366-.923 3.175-.603 5.097.753 4.532 4.711 10.663 5.698 10.504.313-.204.066-2.002-.066-2.968-.292-2.126-.622-4.534.515-5.843.502-.578 1.226-.871 2.154-.871m2.963 10.927c-.121 0-.242-.015-.359-.045-1.047-.268-.893-1.685-.681-3.647.2-1.843.474-4.367-.44-5.434-.318-.371-.779-.559-1.409-.573-.604-.019-1.052.136-1.332.458-.769.885-.466 3.088-.224 4.858.29 2.106.562 4.095-.924 4.349-2.473.407-6.448-7.724-7.078-11.509-.365-2.187-.106-4.275.727-5.878.855-1.649 2.271-2.721 3.986-3.019 1.606-.279 3.27.259 4.665 1.485 1.464-1.337 3.229-1.913 4.914-1.585 3.475.678 5.385 4.459 4.541 8.992-.65 3.494-3.112 9.741-5.341 11.198-.357.233-.706.35-1.045.35" mask="url(#t)"/></g></g></svg>