<svg xmlns="http://www.w3.org/2000/svg" xmlns:xlink="http://www.w3.org/1999/xlink" width="58" height="58" viewBox="0 0 58 58"><defs><path id="a" d="M49.761.633l1.942 1.912c0 14.052-11.569 25.444-25.842 25.444-14.273 0-25.842-11.392-25.842-25.444 0-.643.024-1.281.072-1.912h49.669z"/><path id="c" d="M.092.633c-.048.631-.072 1.269-.072 1.912 0 14.052 11.568 25.444 25.842 25.444 14.272 0 25.842-11.392 25.842-25.444 0-.643-.024-1.281-.072-1.912h-51.539z"/><path id="e" d="M19.802.268c-2.084.005-4.118.985-5.769 2.644l1.87 2.213-1.757-1.932c-1.94-2.027-4.448-3.089-6.964-2.665-3.874.651-6.354 4.104-6.477 8.754v.733c.019.72.092 1.466.224 2.232.083.483.197.99.337 1.516h23.308v-11.626c-.964-.886-2.153-1.495-3.525-1.754-.406-.076-.811-.114-1.215-.114h-.031z"/></defs><g transform="translate(1 1)" fill="none"><circle cx="28" cy="28" r="28" stroke="#12475E"/><path fill="#BFCCD6" d="M54 28c0 14.359-11.64 26-26 26s-26-11.641-26-26c0-14.36 11.64-26 26-26s26 11.64 26 26"/><g transform="translate(2 2) translate(0 24)"><mask id="b"><use xlink:href="#a"/></mask><path fill="#8F9DA6" d="M62.638 15c0 9.499-19.307 17.2-36.776 17.2-17.47 0-38.253-8.334-38.253-17.834 0-9.499 20.782-13.734 38.252-13.734 17.47 0 36.776 4.868 36.776 14.367" mask="url(#b)"/><mask id="d"><use xlink:href="#c"/></mask><path stroke="#11475E" stroke-width="1.499" d="M62.638 15c0 9.499-19.307 17.2-36.776 17.2-17.47 0-38.253-8.334-38.253-17.834 0-9.499 20.782-13.734 38.252-13.734 17.47 0 36.776 4.868 36.776 14.367z" mask="url(#d)"/></g><path fill="#BFCCD6" d="M28.007 17.476c1.932-1.863 4.398-2.811 6.844-2.368 4.53.818 7.014 5.395 5.871 11.086-1.144 5.692-5.744 15.469-8.683 14.771-2.168-.514 3.252-12.814-3.845-12.961-7.266-.15-.492 12.446-3.744 12.961-2.436.385-8.205-9.036-9.229-14.747-1.024-5.712 1.554-10.24 6.101-10.975 2.455-.396 4.902.598 6.794 2.496l1.714 1.809"/><g transform="translate(2 2) translate(13 12)"><mask id="f"><use xlink:href="#e"/></mask><path fill="#D8E8F4" d="M14.032 2.912c1.98-1.989 4.508-3.002 7.016-2.529 4.643.874 5.084 8.47-1.002 7.022-15-3.568-18.068 10.939-19.118 4.841-1.05-6.099 1.68-11.057 6.34-11.841 2.517-.423 4.938.76 6.878 2.788l1.757 1.931" mask="url(#f)"/></g><path fill="#11475E" d="M28.485 26.835l.143.002c1.38.031 2.471.49 3.242 1.366 1.799 2.042 1.377 5.826 1.037 8.866-.133 1.196-.313 2.804-.156 3.314.2-.006.424-.12.591-.226 2.496-1.586 5.955-9.46 6.931-14.554.515-2.686.255-5.232-.73-7.169-.959-1.883-2.503-3.074-4.466-3.446-1.883-.359-3.899.293-5.602 1.794l1.363 1.508-1.203 1.075-1.704-1.886c-1.747-1.837-3.944-2.697-6.019-2.347-1.97.333-3.537 1.494-4.533 3.359-1.024 1.917-1.335 4.459-.873 7.153 1.097 6.411 6.811 14.928 8.248 14.715.529-.088.137-2.869-.053-4.205-.417-2.957-.891-6.308.728-8.119.711-.796 1.738-1.199 3.055-1.199m4.256 15.157c-.17 0-.338-.02-.503-.062-1.459-.363-1.241-2.324-.939-5.038.289-2.584.684-6.121-.644-7.63-.468-.531-1.142-.798-2.062-.818-.913-.031-1.543.196-1.955.658-1.122 1.255-.686 4.344-.335 6.828.412 2.914.8 5.668-1.284 6.013l-.248.02c-3.331.001-8.886-10.357-9.86-16.05-.521-3.044-.152-5.948 1.039-8.177 1.222-2.288 3.243-3.776 5.689-4.19 2.307-.39 4.695.368 6.694 2.093 2.097-1.879 4.639-2.685 7.047-2.231 2.438.462 4.429 1.989 5.605 4.3 1.146 2.253 1.458 5.164.876 8.196-.934 4.872-4.461 13.582-7.649 15.608-.503.32-.996.481-1.472.481"/><path fill="#D8E8F4" d="M42.788 9.087l.881 3.431 3.343 1.223-3.009 1.894-.138 3.539-2.742-2.261-3.426.964 1.315-3.291-1.981-2.943 3.554.227z"/><path stroke="#11475E" stroke-width="1.157" d="M42.788 9.087l.881 3.431 3.343 1.223-3.009 1.894-.138 3.539-2.742-2.261-3.426.964 1.315-3.291-1.981-2.943 3.554.227z"/><path fill="#D8E8F4" d="M49.503 23.857l-.044 2.643 2.165 1.534-2.541.775-.797 2.521-1.528-2.163-2.658.025 1.597-2.113-.845-2.506 2.515.857z"/><path stroke="#11475E" stroke-width=".863" d="M49.503 23.857l-.044 2.643 2.165 1.534-2.541.775-.797 2.521-1.528-2.163-2.658.025 1.597-2.113-.845-2.506 2.515.857z"/><path fill="#D8E8F4" d="M44.942 35.019l.902 1.819 2.018.292-1.46 1.415.345 1.998-1.805-.944-1.805.944.344-1.998-1.459-1.415 2.018-.292z"/><path stroke="#11475E" stroke-width=".662" d="M44.942 35.019l.902 1.819 2.018.292-1.46 1.415.345 1.998-1.805-.944-1.805.944.344-1.998-1.459-1.415 2.018-.292z"/><path fill="#D8E8F4" d="M37.838 43.429l.554 1.118 1.24.178-.898.87.212 1.228-1.108-.58-1.11.58.213-1.228-.898-.87 1.24-.178z"/><path stroke="#11475E" stroke-width=".407" d="M37.838 43.429l.554 1.118 1.24.178-.898.87.212 1.228-1.108-.58-1.11.58.213-1.228-.898-.87 1.24-.178z"/><path fill="#D8E8F4" d="M29.46 47.645l.322.65.721.104-.521.505.123.716-.645-.338-.646.338.123-.716-.521-.505.721-.104z"/><path stroke="#11475E" stroke-width=".237" d="M29.46 47.645l.322.65.721.104-.521.505.123.716-.645-.338-.646.338.123-.716-.521-.505.721-.104z"/></g></svg>