<svg xmlns="http://www.w3.org/2000/svg" xmlns:xlink="http://www.w3.org/1999/xlink" width="70" height="70" viewBox="0 0 70 70"><defs><path id="a" d="M8.633 23.967c-5.007-5.615-8.048-13.008-8.048-21.107 0-.795.029-1.583.087-2.363h7.961v23.47z"/><path id="c" d="M60.962.529c-4.11 12.837-16.185 22.136-30.441 22.136s-26.331-9.298-30.441-22.136h60.883z"/><path id="e" d="M.079.529c4.11 12.837 16.185 22.136 30.441 22.136s26.331-9.298 30.441-22.136h-60.883z"/><path id="g" d="M22.975.592c-2.448.028-4.831 1.215-6.771 3.21l2.218 2.686-2.083-2.345c-2.302-2.461-5.274-3.751-8.259-3.237-4.59.79-7.53 4.975-7.681 10.613v.922c.023.87.11 1.771.266 2.695.099.587.233 1.203.399 1.841h27.641v-14.117c-1.144-1.076-2.554-1.816-4.181-2.129-.456-.088-.913-.134-1.368-.139h-.179z"/></defs><g transform="translate(1 1)" fill="none"><circle cx="34" cy="34" r="34" stroke="#12475E"/><path fill="#BFCCD6" d="M66.224 34c0 17.673-14.379 32-32.118 32-17.738 0-32.118-14.327-32.118-32 0-17.674 14.38-32 32.118-32 17.739 0 32.118 14.326 32.118 32"/><path fill="#D8E8F4" d="M32.051 10.383c-3.794-.518-8.08 2.106-9.573 5.86-1.495 3.755.372 7.218 4.165 7.736 3.795.518 8.08-2.106 9.574-5.861 1.494-3.754-.372-7.217-4.166-7.735"/><path stroke="#11475E" stroke-width="1.769" d="M32.051 10.383c-3.794-.518-8.08 2.106-9.573 5.86-1.495 3.755.372 7.218 4.165 7.736 3.795.518 8.08-2.106 9.574-5.861 1.494-3.754-.372-7.217-4.166-7.735z"/><path stroke="#11475E" stroke-width="2" d="M4.518 39.371s11.514-22.249 13.359-25.063c1.845-2.815 5.68-3.132 7.573-1.81"/><g transform="translate(1 31)"><mask id="b"><use xlink:href="#a"/></mask><path fill="#11475E" d="M3.613 3.009l.163.087.9-1.66c.374-.69.986-1.089 1.363-.887l2.311 1.241c.376.201.378.931.004 1.62l-.9 1.661.164.088c.376.202.378.931.004 1.621l-13.986 25.56c-.374.689-.986 1.088-1.363.886l-4.003-2.15c-.377-.201-.379-.931-.005-1.62l13.987-25.56c.374-.69.986-1.089 1.362-.887" mask="url(#b)"/></g><path fill="#BFCCD6" d="M32.084 21.648c-2.303-1.334-6.047.174-6.77.989-1.508-.695-2.178-1.803-2.379-3.016 3.555-2.445 7.859-3.075 12.051-.92-.785 1.061-1.019 1.626-2.902 2.947"/><g transform="translate(3.009 43)"><mask id="d"><use xlink:href="#c"/></mask><path fill="#8F9DA6" d="M85.31 34.794c0 15.226-24.513 19.104-57.388 19.104-32.874 0-52.191 3.122-52.191-12.104 0-15.226 22.456-41.265 55.33-41.265 32.875 0 54.249 19.039 54.249 34.265" mask="url(#d)"/></g><g transform="translate(3.009 43)"><mask id="f"><use xlink:href="#e"/></mask><path stroke="#11475E" stroke-width="1.674" d="M85.31 34.794c0 15.226-24.513 19.104-57.388 19.104-32.874 0-52.191 3.122-52.191-12.104 0-15.226 22.456-41.265 55.33-41.265 32.875 0 54.249 19.039 54.249 34.265z" mask="url(#f)"/></g><path fill="#BFCCD6" d="M33.539 31.802c2.386-2.415 5.433-3.645 8.456-3.071 5.596 1.061 8.666 6.995 7.254 14.375-1.413 7.379-7.096 20.056-10.727 19.152-2.679-.666 4.018-16.615-4.751-16.805-8.976-.195-.607 16.139-4.624 16.805-3.009.5-10.136-11.716-11.402-19.122-1.266-7.406 1.92-13.278 7.537-14.23 3.033-.514 6.055.776 8.394 3.237l2.117 2.345"/><g transform="translate(1 2) translate(16.8 26)"><mask id="h"><use xlink:href="#g"/></mask><path fill="#D8E8F4" d="M16.204 3.802c2.348-2.415 5.345-3.645 8.32-3.071 5.506 1.061 6.029 10.285-1.189 8.527-17.788-4.333-21.426 13.284-22.671 5.878-1.245-7.406 1.992-13.426 7.518-14.378 2.984-.514 5.855.924 8.156 3.385l2.083 2.345" mask="url(#h)"/></g><path fill="#11475E" d="M34.194 44.994l.18.001c1.738.038 3.111.614 4.083 1.714 2.265 2.559 1.734 7.305 1.306 11.118-.168 1.499-.394 3.515-.196 4.155.251-.007.536-.151.744-.283 3.145-1.991 7.501-11.863 8.728-18.25.649-3.368.321-6.56-.919-8.99-1.208-2.361-3.152-3.856-5.624-4.322-2.378-.451-4.91.368-7.055 2.249l1.717 1.89-1.515 1.348-2.146-2.364c-2.2-2.302-4.972-3.381-7.58-2.944-2.48.418-4.454 1.875-5.708 4.212-1.29 2.405-1.681 5.591-1.1 8.971 1.363 7.93 8.412 18.457 10.313 18.457l.075-.006c.666-.11.171-3.597-.067-5.272-.525-3.708-1.121-7.91.916-10.18.896-.998 2.189-1.503 3.848-1.503m5.359 19.006c-.214 0-.426-.026-.633-.078-1.838-.455-1.563-2.914-1.182-6.319.364-3.239.861-7.675-.812-9.568-.588-.664-1.438-1-2.595-1.025-1.153-.043-1.943.246-2.462.825-1.413 1.574-.863 5.449-.422 8.561.519 3.655 1.009 7.109-1.616 7.541l-.313.025c-4.194.001-11.189-12.987-12.416-20.126-.657-3.818-.192-7.459 1.307-10.255 1.539-2.869 4.084-4.734 7.165-5.253 2.899-.491 5.912.462 8.429 2.624 2.641-2.355 5.834-3.37 8.874-2.797 3.071.58 5.577 2.494 7.059 5.392 1.444 2.825 1.836 6.475 1.104 10.277-1.175 6.108-5.616 17.029-9.633 19.572-.633.401-1.254.603-1.854.603m26.537-33.135c0-1.215-1.967-2.935-1.967-2.935-.544-.312-1.129-.329-1.301-.038l-.075.127-1.309-.751c-.544-.312-1.129-.329-1.301-.038l-.067.114c-2.604-1.474-4.714-2.697-5.374-3.152-1.8-1.24-2.17-2.114-2.637-6.231-.187-1.653-1.331-3.195-3.06-4.123-1.965-1.056-4.296-1.118-6.236-.167-3.838 1.883-1.588 10.158-1.492 11.083l.354-.017c-.262-2.488.1-8.212 2.088-9.186 1.317-.646 2.912-.598 4.266.13 1.118.601 1.852 1.54 1.962 2.514.471 4.159.896 5.903 3.532 7.719.708.488 2.897 1.758 5.578 3.276-.013.289.256.667.706.925l1.309.751-.074.127c-.171.291.133.784.676 1.096l3.806 2.609s.614-1.859.614-3.832z"/></g></svg>