<svg xmlns="http://www.w3.org/2000/svg" xmlns:xlink="http://www.w3.org/1999/xlink" width="70" height="70" viewBox="0 0 70 70"><defs><path id="a" d="M61.244.791l2.391 2.391c0 17.565-14.239 31.805-31.805 31.805-17.567 0-31.805-14.24-31.805-31.805 0-.804.03-1.601.088-2.391h61.131z"/><path id="c" d="M.025 3.182c0 17.565 14.238 31.805 31.805 31.805 17.566 0 31.805-14.24 31.805-31.805 0-.804-.03-1.601-.088-2.391h-63.433c-.059.789-.088 1.586-.088 2.391z"/><path id="e" d="M23.762.326c-2.5.006-4.941 1.196-6.923 3.21l2.244 2.687-2.108-2.346c-2.328-2.461-5.338-3.751-8.357-3.236-4.649.791-7.625 4.983-7.773 10.63v.89c.022.875.111 1.78.269 2.71.1.586.236 1.203.404 1.84h27.97v-14.117c-1.157-1.076-2.584-1.816-4.23-2.129-.487-.093-.973-.138-1.458-.139h-.038z"/></defs><g transform="translate(1 1)" fill="none"><circle cx="34" cy="34" r="34" stroke="#085661"/><path fill="#69BCC7" d="M33.83 65.61c-17.566 0-31.805-14.24-31.805-31.805 0-17.566 14.239-31.805 31.805-31.805s31.805 14.239 31.805 31.805c0 17.565-14.239 31.805-31.805 31.805z"/><g transform="translate(2 2) translate(0 28.623)"><mask id="b"><use xlink:href="#a"/></mask><path fill="#1999AA" d="M77.093 18.75c0 11.874-23.762 21.5-45.263 21.5-21.502 0-47.08-10.417-47.08-22.292 0-11.874 25.578-17.167 47.08-17.167 21.501 0 45.263 6.085 45.263 17.959" mask="url(#b)"/><mask id="d"><use xlink:href="#c"/></mask><path stroke="#085661" stroke-width="1.499" d="M77.093 18.75c0 11.874-23.762 21.5-45.263 21.5-21.502 0-47.08-10.417-47.08-22.292 0-11.874 25.578-17.167 47.08-17.167 21.501 0 45.263 6.085 45.263 17.959z" mask="url(#d)"/></g><path fill="#89CAD3" d="M33.839 20.16c2.376-2.415 5.41-3.645 8.419-3.071 5.572 1.061 8.628 6.995 7.222 14.374-1.407 7.38-7.065 20.057-10.68 19.153-2.667-.667 4-16.615-4.729-16.805-8.938-.195-.605 16.138-4.605 16.805-2.996.499-10.092-11.717-11.352-19.122-1.26-7.406 1.912-13.278 7.504-14.23 3.02-.514 6.03.775 8.357 3.237l2.108 2.345"/><g transform="translate(2 2) translate(15 14.623)"><mask id="f"><use xlink:href="#e"/></mask><path fill="#CAEFF3" d="M16.839 3.537c2.376-2.415 5.41-3.645 8.419-3.071 5.572 1.061 6.101 10.285-1.202 8.527-18-4.333-21.682 13.283-22.942 5.878-1.26-7.406 2.016-13.426 7.608-14.378 3.02-.514 5.926.923 8.253 3.385l2.108 2.345" mask="url(#f)"/></g><path fill="#085661" d="M33.916 32.809l.177.002c1.707.038 3.056.609 4.01 1.699 2.225 2.54 1.703 7.247 1.283 11.029-.165 1.488-.387 3.488-.193 4.122.247-.007.525-.149.731-.281 3.087-1.973 7.366-11.767 8.573-18.104.637-3.341.315-6.508-.903-8.918-1.186-2.342-3.096-3.824-5.524-4.287-2.329-.447-4.822.365-6.929 2.231l1.686 1.876-1.488 1.337-2.108-2.346c-2.161-2.285-4.878-3.355-7.445-2.919-2.436.414-4.375 1.859-5.606 4.178-1.267 2.385-1.651 5.546-1.08 8.898 1.357 7.975 8.424 18.569 10.202 18.304.654-.11.169-3.569-.065-5.231-.516-3.678-1.102-7.847.9-10.099.88-.99 2.15-1.491 3.779-1.491m5.264 18.854c-.21 0-.418-.025-.622-.077-1.805-.451-1.535-2.891-1.161-6.267.358-3.214.846-7.614-.797-9.491-.579-.66-1.413-.993-2.55-1.017-1.129-.039-1.908.244-2.418.818-1.388 1.561-.848 5.404-.414 8.493.509 3.625.989 7.051-1.588 7.48l-.307.025c-4.12.001-10.99-12.883-12.195-19.965-.644-3.786-.188-7.399 1.285-10.172 1.512-2.846 4.011-4.697 7.037-5.212 2.853-.485 5.807.458 8.279 2.603 2.594-2.337 5.738-3.34 8.716-2.775 3.016.575 5.478 2.474 6.933 5.349 1.418 2.802 1.803 6.423 1.084 10.195-1.155 6.06-5.518 16.895-9.461 19.415-.622.398-1.232.598-1.821.598"/><path fill="#D8E8F4" d="M51.606 10.731l1.09 4.268 4.134 1.521-3.722 2.356-.17 4.402-3.391-2.812-4.238 1.199 1.626-4.094-2.45-3.661 4.396.282z"/><path stroke="#085661" stroke-width="1.157" d="M51.606 10.731l1.09 4.268 4.134 1.521-3.722 2.356-.17 4.402-3.391-2.812-4.238 1.199 1.626-4.094-2.45-3.661 4.396.282z"/><path fill="#D8E8F4" d="M59.911 29.104l-.054 3.287 2.678 1.908-3.143.965-.986 3.136-1.89-2.691-3.287.031 1.975-2.628-1.045-3.117 3.11 1.066z"/><path stroke="#085661" stroke-width=".863" d="M59.911 29.104l-.054 3.287 2.678 1.908-3.143.965-.986 3.136-1.89-2.691-3.287.031 1.975-2.628-1.045-3.117 3.11 1.066z"/><path fill="#D8E8F4" d="M54.27 42.989l1.116 2.262 2.495.363-1.805 1.76.426 2.486-2.232-1.174-2.232 1.174.425-2.486-1.805-1.76 2.496-.363z"/><path stroke="#085661" stroke-width=".662" d="M54.27 42.989l1.116 2.262 2.495.363-1.805 1.76.426 2.486-2.232-1.174-2.232 1.174.425-2.486-1.805-1.76 2.496-.363z"/><path fill="#D8E8F4" d="M45.483 53.45l.686 1.39 1.533.222-1.11 1.082.262 1.527-1.371-.721-1.372.721.263-1.527-1.111-1.082 1.534-.222z"/><path stroke="#085661" stroke-width=".407" d="M45.483 53.45l.686 1.39 1.533.222-1.11 1.082.262 1.527-1.371-.721-1.372.721.263-1.527-1.111-1.082 1.534-.222z"/><path fill="#D8E8F4" d="M35.121 58.693l.399.809.892.129-.645.629.152.89-.798-.42-.798.42.152-.89-.645-.629.892-.129z"/><path stroke="#085661" stroke-width=".237" d="M35.121 58.693l.399.809.892.129-.645.629.152.89-.798-.42-.798.42.152-.89-.645-.629.892-.129z"/></g></svg>