<svg xmlns="http://www.w3.org/2000/svg" xmlns:xlink="http://www.w3.org/1999/xlink" width="58" height="58" viewBox="0 0 58 58"><defs><path id="a" d="M49.761.651l1.942 1.966c0 14.446-11.569 26.158-25.842 26.158-14.273 0-25.842-11.712-25.842-26.158 0-.661.024-1.317.072-1.966h49.669z"/><path id="c" d="M.02 2.617c0 14.446 11.568 26.158 25.842 26.158 14.272 0 25.842-11.712 25.842-26.158 0-.661-.024-1.317-.072-1.966h-51.539c-.048.649-.072 1.305-.072 1.966z"/><path id="e" d="M19.123.267c-2.012.005-3.976.98-5.572 2.63l1.806 2.202-1.696-1.922c-1.873-2.016-4.296-3.073-6.725-2.651-3.741.648-6.137 4.083-6.255 8.709v.729c.018.717.089 1.459.216 2.22.08.48.19.985.325 1.508h22.509v-11.566c-.931-.882-2.079-1.488-3.404-1.745-.392-.076-.783-.113-1.173-.114h-.03z"/></defs><g transform="translate(1 1)" fill="none"><circle cx="28" cy="28" r="28" stroke="#085661"/><path fill="#69BCC7" d="M28 54c-14.36 0-26-11.641-26-26 0-14.36 11.64-26 26-26s26 11.64 26 26c0 14.359-11.64 26-26 26z"/><g transform="translate(2 2) translate(0 23.214)"><mask id="b"><use xlink:href="#a"/></mask><path fill="#1999AA" d="M62.638 15.421c0 9.766-19.307 17.683-36.776 17.683-17.47 0-38.252-8.567-38.252-18.334 0-9.766 20.782-14.119 38.252-14.119 17.47 0 36.776 5.005 36.776 14.77" mask="url(#b)"/><mask id="d"><use xlink:href="#c"/></mask><path stroke="#085661" stroke-width="1.499" d="M62.638 15.421c0 9.766-19.307 17.683-36.776 17.683-17.47 0-38.252-8.567-38.252-18.334 0-9.766 20.782-14.119 38.252-14.119 17.47 0 36.776 5.005 36.776 14.77z" mask="url(#d)"/></g><path fill="#89CAD3" d="M28.007 16.636c1.932-1.929 4.398-2.912 6.844-2.453 4.53.847 7.014 5.587 5.871 11.482-1.144 5.895-5.744 16.021-8.683 15.299-2.168-.533 3.252-13.272-3.845-13.423-7.266-.156-.492 12.891-3.744 13.423-2.436.399-8.205-9.359-9.229-15.274-1.024-5.916 1.554-10.606 6.101-11.367 2.455-.411 4.902.619 6.794 2.586l1.714 1.873"/><g transform="translate(2 2) translate(12.071 12.071)"><mask id="f"><use xlink:href="#e"/></mask><path fill="#CAEFF3" d="M13.551 2.898c1.912-1.979 4.354-2.986 6.775-2.516 4.484.869 4.91 8.427-.967 6.986-14.486-3.55-17.449 10.883-18.463 4.816-1.014-6.068 1.622-11 6.123-11.78 2.43-.421 4.769.756 6.642 2.773l1.696 1.921" mask="url(#f)"/></g><path fill="#085661" d="M27.656 27.606l.143.002c1.383.031 2.475.499 3.248 1.392 1.802 2.081 1.379 5.938 1.039 9.036-.134 1.219-.313 2.858-.156 3.377.2-.006.425-.122.592-.23 2.501-1.617 5.967-9.641 6.944-14.833.516-2.737.255-5.332-.731-7.307-.961-1.919-2.508-3.133-4.475-3.512-1.887-.366-3.906.299-5.613 1.828l1.366 1.537-1.205 1.095-1.708-1.922c-1.75-1.872-3.951-2.749-6.031-2.392-1.973.339-3.544 1.523-4.541 3.423-1.026 1.954-1.337 4.544-.875 7.29 1.099 6.534 6.824 15.214 8.264 14.997.53-.09.137-2.924-.053-4.286-.418-3.013-.893-6.429.729-8.274.713-.811 1.742-1.222 3.061-1.222m4.264 15.448c-.17 0-.339-.02-.504-.063-1.462-.37-1.243-2.369-.94-5.135.29-2.633.685-6.238-.646-7.776-.469-.541-1.145-.814-2.066-.833-.915-.032-1.546.2-1.959.67-1.124 1.279-.687 4.428-.335 6.959.412 2.97.801 5.777-1.286 6.129l-.249.02c-3.337.001-8.902-10.555-9.878-16.358-.522-3.102-.152-6.062 1.041-8.334 1.225-2.332 3.249-3.848 5.7-4.27 2.311-.397 4.704.375 6.706 2.133 2.101-1.915 4.648-2.737 7.06-2.274 2.443.471 4.437 2.027 5.616 4.383 1.149 2.296 1.46 5.263.878 8.353-.936 4.965-4.47 13.843-7.664 15.907-.504.326-.998.49-1.475.49"/><path fill="#D8E8F4" d="M41.985 9.518l.883 3.497 3.349 1.246-3.015 1.93-.138 3.607-2.747-2.304-3.432.982 1.317-3.354-1.985-3 3.561.232z"/><path stroke="#085661" stroke-width="1.157" d="M41.985 9.518l.883 3.497 3.349 1.246-3.015 1.93-.138 3.607-2.747-2.304-3.432.982 1.317-3.354-1.985-3 3.561.232z"/><path fill="#D8E8F4" d="M48.712 24.571l-.043 2.693 2.169 1.563-2.546.791-.799 2.569-1.531-2.204-2.662.025 1.6-2.153-.847-2.554 2.519.873z"/><path stroke="#085661" stroke-width=".863" d="M48.712 24.571l-.043 2.693 2.169 1.563-2.546.791-.799 2.569-1.531-2.204-2.662.025 1.6-2.153-.847-2.554 2.519.873z"/><path fill="#D8E8F4" d="M44.143 35.947l.904 1.853 2.021.298-1.462 1.442.345 2.037-1.808-.962-1.808.962.344-2.037-1.462-1.442 2.022-.298z"/><path stroke="#085661" stroke-width=".662" d="M44.143 35.947l.904 1.853 2.021.298-1.462 1.442.345 2.037-1.808-.962-1.808.962.344-2.037-1.462-1.442 2.022-.298z"/><path fill="#D8E8F4" d="M37.025 44.518l.556 1.139 1.242.182-.899.886.212 1.251-1.111-.59-1.111.59.213-1.251-.9-.886 1.243-.182z"/><path stroke="#085661" stroke-width=".407" d="M37.025 44.518l.556 1.139 1.242.182-.899.886.212 1.251-1.111-.59-1.111.59.213-1.251-.9-.886 1.243-.182z"/><path fill="#D8E8F4" d="M28.632 48.814l.323.663.722.106-.522.515.123.729-.646-.344-.647.344.123-.729-.522-.515.722-.106z"/><path stroke="#085661" stroke-width=".237" d="M28.632 48.814l.323.663.722.106-.522.515.123.729-.646-.344-.647.344.123-.729-.522-.515.722-.106z"/></g></svg>