<svg xmlns="http://www.w3.org/2000/svg" xmlns:xlink="http://www.w3.org/1999/xlink" width="70" height="70" viewBox="0 0 70 70"><defs><path id="a" d="M.816.499h63.61v63.61h-63.61v-63.61z"/><path id="c" d="M61.413.292l3.013 3.013c0 17.565-14.24 31.805-31.806 31.805-17.565 0-31.804-14.24-31.804-31.805 0-1.016.048-2.021.141-3.013h60.456z"/><path id="e" d="M2.064 24.157c-.813-2.81-1.248-5.78-1.248-8.852 0-5.37 1.33-10.428 3.679-14.864h15.102v23.716h-17.533z"/><path id="g" d="M18.464 3.568c-.919-1.591-2.361-2.682-4.187-3.029-.346-.066-.693-.098-1.039-.098-1.764 0-3.485.838-4.883 2.258l1.579 1.89-1.483-1.649c-1.169-1.236-2.581-2.052-4.067-2.286-1.815 3.49-3.002 7.36-3.41 11.46h17.49v-8.545z"/><path id="i" d="M2.064 24.157c-.813-2.81-1.248-5.78-1.248-8.852 0-5.37 1.33-10.428 3.679-14.864h15.102v23.716h-17.533z"/><path id="k" d="M13.783.662l5.643 5.643c0 6.707-2.076 12.929-5.621 18.059h-13.546v-23.702h13.524z"/><path id="m" d="M18.922 11.975c.331-1.84.504-3.734.504-5.67v-.157l-.134-.113c-1.537-1.259-3.647-1.5-5.75-.861l.446 2.227-.474-1.991c-.562-2.124-1.877-3.792-3.758-4.435-.615-.211-1.221-.313-1.81-.313-2.751.001-5.152 2.222-6.452 6.019-.259.756-.48 1.636-.66 2.582v2.712h18.089z"/><path id="o" d="M13.783.662l5.643 5.643c0 6.707-2.076 12.929-5.621 18.059h-13.546v-23.702h13.524z"/><path id="q" d="M20.426 7.305c0 7.037-2.285 13.54-6.155 18.808h-13.76v-25.204h13.519l6.396 6.396z"/><path id="s" d="M.816 16.305c0-5.674 1.486-11.001 4.089-15.613h15.438v25.215h-18.051c-.958-3.03-1.475-6.256-1.475-9.602z"/></defs><g transform="translate(1 1)" fill="none"><circle cx="34" cy="34" r="34" stroke="#085661"/><g transform="translate(0 .5)"><mask id="b"><use xlink:href="#a"/></mask><path fill="#69BCC7" d="M64.426 32.304c0 17.565-14.24 31.805-31.806 31.805-17.565 0-31.804-14.24-31.804-31.805 0-17.566 14.239-31.806 31.804-31.806 17.566 0 31.806 14.24 31.806 31.806" mask="url(#b)"/></g><g transform="translate(0 12.5) translate(0 17)"><mask id="d"><use xlink:href="#c"/></mask><path fill="#1999AA" d="M54.778 10.458c-18.45-7.907-52.713-10.166-52.713-10.166l-12.049 1.129s11.672 34.264 12.802 34.264c1.13 0 27.485 7.53 27.485 7.53l50.831-17.32-18.135-10.047" mask="url(#d)"/><path stroke="#085661" stroke-width="1.499" d="M54.778 10.458c-18.45-7.907-52.713-10.166-52.713-10.166l-12.049 1.129s11.672 34.264 12.802 34.264c1.13 0 27.485 7.53 27.485 7.53l50.831-17.32-18.135-10.047" mask="url(#d)"/></g><path fill="#89CAD3" d="M35.682 17.195c2.572-1.788 5.54-2.386 8.176-1.35 4.882 1.919 6.642 7.834 4.101 14.299-2.541 6.465-6.447 6.835-7.489 4.543-.644-1.418-1.507-4.518-6.914-5.048-2.841-.278-4.539.623-5.672 1.728-2.013 1.96-7.869-.278-7.747-7.223.123-6.945 3.326-11.08 8.57-10.988 2.832.05 5.346 1.737 7.04 4.372l1.514 2.492"/><path fill="#CAEFF3" d="M35.682 17.195c2.572-1.788 5.54-2.386 8.176-1.35 4.882 1.919 3.783 10.391-2.553 7.543-15.614-7.019-21.975 8.359-21.852 1.414.123-6.945 4.13-11.855 9.375-11.763 2.832.051 5.225 1.854 6.919 4.489l1.514 2.492"/><path stroke="#085661" stroke-width="1.499" d="M35.682 17.195c2.572-1.788 5.54-2.386 8.176-1.35 4.882 1.919 6.642 7.834 4.101 14.299-2.541 6.465-6.447 6.835-7.489 4.543-.644-1.418-1.507-4.518-6.914-5.048-2.841-.278-4.539.623-5.672 1.728-2.013 1.96-7.869-.278-7.747-7.223.123-6.945 3.326-11.08 8.57-10.988 2.832.05 5.346 1.737 7.04 4.372l1.514 2.492"/><path fill="#BFCCD6" d="M28.54 56.172l2.629.437c.769.127 1.508-.428 1.642-1.235l6.448-21.497c.134-.807-.386-1.572-1.155-1.699 0 0-1.328-1.157-4.217-1.559-2.89-.401-3.51.276-3.51.276-.769-.128-1.508.427-1.642 1.234l-1.349 22.344c-.135.807.384 1.571 1.154 1.699"/><path stroke="#085661" stroke-width="1.535" d="M28.54 56.172l2.629.437c.769.127 1.508-.428 1.642-1.235l6.448-21.497c.134-.807-.386-1.572-1.155-1.699 0 0-1.328-1.157-4.217-1.559-2.89-.401-3.51.276-3.51.276-.769-.128-1.508.427-1.642 1.234l-1.349 22.344c-.135.807.384 1.571 1.154 1.699z"/><path fill="#085661" d="M27.728 33.553l11.521 1.913c.316.053.618-.163.67-.48l.179-1.073c.053-.317-.163-.619-.48-.672l-11.521-1.912c-.316-.053-.618.163-.671.48l-.177 1.073c-.053.317.163.619.479.671m-1.121 3.845l12.461 2.069c.316.053.618-.163.671-.48l.145-.875c.052-.317-.164-.618-.48-.671l-12.461-2.069c-.316-.053-.618.163-.671.48l-.145.875c-.053.317.164.618.48.671m-.214 4.199l11.521 1.913c.316.053.618-.163.67-.48l.178-1.073c.053-.317-.163-.619-.479-.671l-11.521-1.913c-.316-.053-.619.163-.671.48l-.178 1.073c-.053.317.163.619.48.671m-.303 4.083l10.789 1.792c.316.052.619-.164.671-.48l.179-1.074c.052-.316-.163-.618-.48-.671l-10.79-1.791c-.316-.053-.618.163-.671.48l-.177 1.073c-.053.317.163.619.479.671m.522 4.219l8.409 1.396c.317.053.618-.163.671-.479l.178-1.074c.053-.316-.163-.618-.48-.671l-8.409-1.396c-.316-.053-.618.163-.671.48l-.177 1.073c-.053.317.163.619.479.671m.42 4.056l6.28 1.042c.317.053.618-.163.671-.48l.131-.787c.053-.317-.163-.619-.479-.671l-6.281-1.043c-.316-.053-.618.164-.671.48l-.13.788c-.053.317.163.618.479.671m5.581 2.726c-.178 1.075-1.546 1.742-3.055 1.492-1.508-.251-2.587-1.325-2.408-2.399"/><g transform="translate(0 12.5) translate(0 5)"><mask id="f"><use xlink:href="#e"/></mask><path fill="#89CAD3" d="M8.355 2.7c1.672-1.699 3.806-2.564 5.923-2.161 3.92.747 6.069 4.922 5.08 10.113-.988 5.191-4.97 14.109-7.513 13.473-1.876-.468 2.814-11.688-3.327-11.822-6.287-.137-.425 11.354-3.239 11.822-2.108.352-7.1-8.242-7.986-13.452-.886-5.209 1.345-9.341 5.279-10.01 2.125-.362 4.241.545 5.879 2.277l1.483 1.65" mask="url(#f)"/></g><g transform="translate(0 17.5)"><mask id="h"><use xlink:href="#g"/></mask><path fill="#BFE5E1" d="M8.355 2.7c1.672-1.699 3.806-2.564 5.923-2.161 3.92.747 7.388 6.857-.846 5.999-12.955-1.35-15.253 9.345-16.139 4.135-.886-5.209 1.418-9.445 5.352-10.115 2.124-.361 4.168.65 5.806 2.382l1.483 1.65" mask="url(#h)"/></g><g transform="translate(0 17.5)"><mask id="j"><use xlink:href="#i"/></mask><path stroke="#085661" stroke-width="1.499" d="M8.355 2.7c1.672-1.699 3.806-2.564 5.923-2.161 3.92.747 6.069 4.922 5.08 10.113-.988 5.191-4.97 14.109-7.513 13.473-1.876-.468 2.814-11.688-3.327-11.822-6.287-.137-.425 11.354-3.239 11.822-2.108.352-7.1-8.242-7.986-13.452-.886-5.209 1.345-9.341 5.279-10.01 2.125-.362 4.241.545 5.879 2.277l1.483 1.65" mask="url(#j)"/><g transform="translate(45 9)"><mask id="l"><use xlink:href="#k"/></mask><path fill="#89CAD3" d="M13.542 5.174c2.103-.639 4.213-.399 5.75.861 2.846 2.333 2.746 6.661-.344 10.431-3.089 3.768-10.245 9.236-12.024 7.6-1.313-1.207 7.431-8.226 2.516-11.042-5.032-2.883-5.348 9.008-7.835 8.148-1.862-.645-1.69-9.881-.112-14.492 1.579-4.61 4.781-6.898 8.263-5.706 1.881.644 3.195 2.312 3.758 4.436l.474 1.991" mask="url(#l)"/></g></g><g transform="translate(45 26.5)"><mask id="n"><use xlink:href="#m"/></mask><path fill="#BFE5E1" d="M13.542 5.174c2.103-.639 4.213-.399 5.75.861 2.846 2.333 2.961 8.81-3.33 4.486-9.898-6.805-16.473.845-14.895-3.766 1.579-4.61 5.313-7.025 8.794-5.833 1.88.644 3.09 2.364 3.653 4.488l.474 1.991" mask="url(#n)"/></g><g transform="translate(0 16.5)"><g transform="translate(45 10)"><mask id="p"><use xlink:href="#o"/></mask><path stroke="#085661" stroke-width="1.499" d="M13.542 5.174c2.103-.639 4.213-.399 5.75.861 2.846 2.333 2.746 6.661-.344 10.431-3.089 3.768-10.245 9.236-12.024 7.6-1.313-1.207 7.431-8.226 2.516-11.042-5.032-2.883-5.348 9.008-7.835 8.148-1.862-.645-1.69-9.881-.112-14.492 1.579-4.61 4.781-6.898 8.263-5.706 1.881.644 3.195 2.312 3.758 4.436l.474 1.991" mask="url(#p)"/></g><g transform="translate(44 9)"><mask id="r"><use xlink:href="#q"/></mask><path fill="#085661" d="M8.567 24.584c.124.036.276.034.374.026 2.349-.165 7.788-4.399 10.428-7.619 2.813-3.431 2.997-7.287.448-9.376-1.144-.939-2.742-1.249-4.455-.88l.356 1.492-1.459.348-.474-1.991c-.513-1.937-1.707-3.365-3.272-3.9-3.043-1.042-5.846.965-7.31 5.239-1.615 4.72-1.42 12.953-.344 13.544.394-.126 1.055-1.89 1.45-2.944.855-2.276 1.822-4.856 3.704-5.535.867-.311 1.808-.182 2.801.386.986.565 1.594 1.332 1.807 2.277.489 2.181-1.283 4.721-2.706 6.763-.515.737-1.199 1.718-1.348 2.17m.255 1.529c-.574 0-1.047-.166-1.405-.495-.953-.876-.021-2.213 1.268-4.062 1.19-1.705 2.818-4.04 2.473-5.576-.118-.526-.475-.953-1.089-1.305-.604-.346-1.111-.434-1.547-.277-1.23.444-2.106 2.777-2.809 4.651-.852 2.272-1.661 4.413-3.352 3.831-2.707-.938-2.033-11.185-.576-15.442 1.737-5.071 5.351-7.495 9.215-6.172 1.778.609 3.178 2.053 3.94 4.027 2.202-.502 4.298-.091 5.827 1.163 3.181 2.607 3.08 7.437-.238 11.485-2.548 3.108-8.427 7.949-11.482 8.164l-.225.008" mask="url(#r)"/></g><mask id="t"><use xlink:href="#s"/></mask><path fill="#085661" d="M8.408 12.552l.126.001c1.214.027 2.175.434 2.855 1.211 1.579 1.802 1.209 5.125.914 7.795-.113 1.014-.264 2.373-.146 2.846.153-.017.324-.106.453-.188 2.164-1.384 5.164-8.258 6.011-12.706.907-4.762-.937-8.56-4.484-9.236-1.615-.308-3.336.247-4.801 1.528l1.155 1.285-1.115 1.002-1.484-1.65c-1.507-1.595-3.408-2.342-5.195-2.039-1.699.289-3.052 1.297-3.911 2.916-.886 1.669-1.154 3.881-.754 6.23.941 5.539 5.889 13.033 7.123 12.838.391-.249.082-2.447-.083-3.627-.365-2.598-.778-5.542.644-7.142.628-.707 1.533-1.064 2.692-1.064m3.704 13.355c-.151 0-.302-.018-.449-.055-1.309-.327-1.116-2.06-.851-4.458.25-2.253.592-5.337-.55-6.642-.398-.454-.974-.683-1.761-.7-.755-.023-1.315.166-1.665.56-.961 1.082-.583 3.774-.28 5.937.362 2.574.703 5.005-1.155 5.315-3.091.498-8.06-9.44-8.847-14.066-.456-2.673-.132-5.225.909-7.184 1.069-2.015 2.839-3.326 4.982-3.69 2.008-.341 4.088.316 5.831 1.815 1.83-1.634 4.036-2.338 6.142-1.937 4.344.829 6.731 5.45 5.676 10.99-.813 4.27-3.89 11.906-6.676 13.687-.446.285-.883.428-1.306.428" mask="url(#t)"/></g></g></svg>