<svg xmlns="http://www.w3.org/2000/svg" xmlns:xlink="http://www.w3.org/1999/xlink" width="58" height="58" viewBox="0 0 58 58"><defs><path id="a" d="M6.995 19.384c-4.058-4.541-6.522-10.52-6.522-17.071 0-.643.024-1.28.07-1.911h6.451v18.982z"/><path id="c" d="M49.401.428c-3.331 10.382-13.116 17.903-24.668 17.903s-21.338-7.52-24.668-17.903h49.337z"/><path id="e" d="M.064.428c3.331 10.382 13.116 17.903 24.668 17.903s21.338-7.52 24.668-17.903h-49.337z"/><path id="g" d="M18.336.469c-1.954.023-3.856.964-5.404 2.548l1.77 2.132-1.663-1.861c-1.837-1.953-4.209-2.977-6.591-2.569-3.663.627-6.01 3.948-6.13 8.422v.731c.018.691.088 1.405.212 2.139.079.465.186.955.319 1.461h22.06v-11.203c-.913-.854-2.038-1.441-3.337-1.69-.364-.07-.729-.106-1.092-.111h-.143z"/></defs><g transform="translate(1 1)" fill="none"><circle cx="28" cy="28" r="28" stroke="#085661"/><path fill="#69BCC7" d="M54 28.018c0 14.369-11.652 26.018-26.027 26.018-14.374 0-26.027-11.649-26.027-26.018 0-14.37 11.653-26.018 26.027-26.018 14.375 0 26.027 11.648 26.027 26.018"/><path fill="#D8E8F4" d="M26.163 9.055c-3.074-.419-6.548 1.703-7.757 4.739-1.211 3.037.301 5.838 3.375 6.257 3.075.419 6.548-1.703 7.758-4.74 1.21-3.036-.301-5.837-3.376-6.256"/><path stroke="#11475E" stroke-width="1.769" d="M26.163 9.055c-3.074-.419-6.548 1.703-7.757 4.739-1.211 3.037.301 5.838 3.375 6.257 3.075.419 6.548-1.703 7.758-4.74 1.21-3.036-.301-5.837-3.376-6.256z"/><path stroke="#11475E" stroke-width="2" d="M3.851 32.5s9.331-17.994 10.826-20.27c1.495-2.277 4.603-2.533 6.137-1.464"/><g transform="translate(1 25.729)"><mask id="b"><use xlink:href="#a"/></mask><path fill="#11475E" d="M2.928 2.434l.132.07.729-1.343c.303-.558.799-.881 1.104-.717l1.873 1.004c.304.163.306.753.003 1.31l-.729 1.343.133.071c.304.163.306.753.003 1.311l-11.334 20.672c-.303.557-.799.88-1.104.717l-3.244-1.739c-.305-.163-.307-.753-.004-1.31l11.335-20.672c.303-.558.799-.881 1.104-.717" mask="url(#b)"/></g><path fill="#BFCCD6" d="M26.189 18.166c-1.866-1.079-4.901.141-5.486.8-1.222-.562-1.765-1.458-1.928-2.439 2.88-1.977 6.369-2.487 9.765-.744-.636.858-.826 1.315-2.351 2.383"/><g transform="translate(2.628 35.435)"><mask id="d"><use xlink:href="#c"/></mask><path fill="#1999AA" d="M69.131 28.14c0 12.314-19.864 15.451-46.505 15.451-26.639 0-42.293 2.525-42.293-9.789s18.198-33.374 44.837-33.374c26.64 0 43.961 15.398 43.961 27.712" mask="url(#d)"/></g><g transform="translate(2.628 35.435)"><mask id="f"><use xlink:href="#e"/></mask><path stroke="#085661" stroke-width="1.674" d="M69.131 28.14c0 12.314-19.864 15.451-46.505 15.451-26.639 0-42.293 2.525-42.293-9.789s18.198-33.374 44.837-33.374c26.64 0 43.961 15.398 43.961 27.712z" mask="url(#f)"/></g><path fill="#89CAD3" d="M27.368 26.378c1.934-1.953 4.402-2.948 6.852-2.484 4.535.858 7.022 5.657 5.878 11.626-1.145 5.968-5.75 16.221-8.693 15.489-2.171-.539 3.256-13.438-3.85-13.591-7.274-.158-.492 13.053-3.747 13.591-2.438.404-8.214-9.476-9.24-15.465-1.026-5.99 1.556-10.739 6.108-11.509 2.458-.416 4.907.628 6.802 2.618l1.716 1.897"/><g transform="translate(1 2) translate(13.25 21.2)"><mask id="h"><use xlink:href="#g"/></mask><path fill="#CAEFF3" d="M12.932 3.017c1.874-1.917 4.266-2.893 6.64-2.437 4.395.842 4.812 8.162-.949 6.767-14.196-3.439-17.1 10.542-18.093 4.665-.994-5.877 1.59-10.655 6-11.41 2.382-.408 4.673.733 6.509 2.686l1.663 1.861" mask="url(#h)"/></g><path fill="#085661" d="M27.097 36.847l.143.001c1.379.031 2.469.493 3.24 1.376 1.798 2.055 1.376 5.866 1.037 8.928-.133 1.204-.313 2.823-.156 3.337.2-.006.425-.121.591-.227 2.496-1.599 5.952-9.526 6.926-14.655.515-2.705.254-5.268-.73-7.219-.958-1.896-2.501-3.096-4.463-3.47-1.887-.362-3.897.295-5.598 1.806l1.362 1.518-1.202 1.082-1.703-1.898c-1.746-1.849-3.945-2.715-6.015-2.364-1.968.336-3.535 1.506-4.529 3.382-1.024 1.931-1.334 4.49-.873 7.204 1.082 6.368 6.675 14.821 8.183 14.821l.06-.005c.528-.088.136-2.888-.053-4.234-.417-2.977-.89-6.352.727-8.175.711-.801 1.737-1.207 3.053-1.207m4.253 15.262c-.17 0-.338-.021-.503-.062-1.458-.365-1.24-2.34-.938-5.074.289-2.601.683-6.164-.645-7.683-.467-.533-1.141-.803-2.059-.823-.915-.035-1.541.198-1.954.662-1.121 1.264-.685 4.375-.334 6.875.412 2.935.801 5.709-1.282 6.056l-.248.02c-3.328.001-8.879-10.429-9.852-16.162-.521-3.066-.153-5.99 1.037-8.235 1.222-2.304 3.241-3.801 5.685-4.218 2.3-.394 4.692.371 6.689 2.107 2.096-1.891 4.629-2.706 7.042-2.246 2.437.465 4.426 2.003 5.601 4.33 1.146 2.268 1.457 5.199.876 8.253-.932 4.905-4.456 13.675-7.644 15.717-.503.322-.995.484-1.471.484"/><path fill="#11475E" d="M54 24.955c0-.971-1.602-2.346-1.602-2.346-.443-.249-.919-.263-1.06-.03l-.061.101-1.066-.6c-.443-.249-.919-.263-1.06-.03l-.055.091c-2.121-1.179-3.84-2.156-4.377-2.52-1.466-.992-1.768-1.69-2.148-4.982-.152-1.322-1.084-2.554-2.492-3.296-1.601-.844-3.499-.893-5.08-.133-3.127 1.506-1.294 8.121-1.215 8.86l.288-.014c-.213-1.989.082-6.565 1.701-7.344 1.073-.516 2.372-.478 3.475.104.91.48 1.508 1.231 1.598 2.01.383 3.325.73 4.719 2.877 6.171.577.39 2.36 1.406 4.544 2.619-.011.231.208.533.575.739l1.066.6-.06.101c-.14.233.108.626.551.876l3.1 2.086s.5-1.486.5-3.063z"/></g></svg>