<svg xmlns="http://www.w3.org/2000/svg" xmlns:xlink="http://www.w3.org/1999/xlink" width="70" height="83" viewBox="0 0 70 83"><defs><linearGradient id="c" x1="38.107%" x2="58.682%" y1="117.449%" y2=".76%"><stop offset="0%" stop-color="#F5515F"/><stop offset="100%" stop-color="#690212"/></linearGradient><path id="b" d="M42.392 43l-14.392 2.597 5.166 29.981 5.318-9.387 9.074 6.79"/><filter id="a" width="200%" height="200%" x="-50%" y="-50%" filterUnits="objectBoundingBox"><feOffset dx="-4" dy="4" in="SourceAlpha" result="shadowOffsetOuter1"/><feGaussianBlur in="shadowOffsetOuter1" result="shadowBlurOuter1" stdDeviation="1"/><feColorMatrix in="shadowBlurOuter1" values="0 0 0 0 0 0 0 0 0 0 0 0 0 0 0 0 0 0 0.264322917 0"/></filter><path id="e" d="M14.166 43l14.392 2.597-5.166 29.981-5.318-9.387-9.074 6.79"/><filter id="d" width="200%" height="200%" x="-50%" y="-50%" filterUnits="objectBoundingBox"><feOffset dx="-5" dy="4" in="SourceAlpha" result="shadowOffsetOuter1"/><feGaussianBlur in="shadowOffsetOuter1" result="shadowBlurOuter1" stdDeviation="1"/><feColorMatrix in="shadowBlurOuter1" values="0 0 0 0 0 0 0 0 0 0 0 0 0 0 0 0 0 0 0.26 0"/></filter><linearGradient id="h" x1="50%" x2="50%" y1="0%" y2="100%"><stop offset="0%" stop-color="#D1FBFA"/><stop offset="100%" stop-color="#49DEEC"/></linearGradient><circle id="g" cx="28" cy="28" r="28"/><filter id="f" width="200%" height="200%" x="-50%" y="-50%" filterUnits="objectBoundingBox"><feMorphology in="SourceAlpha" operator="dilate" radius=".5" result="shadowSpreadOuter1"/><feOffset dx="-8" dy="7" in="shadowSpreadOuter1" result="shadowOffsetOuter1"/><feGaussianBlur in="shadowOffsetOuter1" result="shadowBlurOuter1" stdDeviation="2"/><feComposite in="shadowBlurOuter1" in2="SourceAlpha" operator="out" result="shadowBlurOuter1"/><feColorMatrix in="shadowBlurOuter1" values="0 0 0 0 0 0 0 0 0 0 0 0 0 0 0 0 0 0 0.305310236 0"/></filter><path id="i" d="M.5 33.712c.214.125.467.149.66.092.357-.105.503-.322.691-.69l16.925-32.472c.181-.364.564-.589.974-.589l.178.014c.671.107 1.072.778.831 1.387l-14.072 33.644c-1.006 2.774-3.602 4.149-6.187 3.605v-4.992z"/></defs><g transform="translate(13 1)" fill="none"><use fill="#000" filter="url(#a)" xlink:href="#b"/><use fill="url(#c)" xlink:href="#b"/><use fill="#000" filter="url(#d)" xlink:href="#e"/><use fill="url(#c)" xlink:href="#e"/><use fill="#000" filter="url(#f)" xlink:href="#g"/><use fill="url(#h)" stroke="#33AABA" xlink:href="#g"/><path stroke="#11475E" stroke-width=".774" d="M49.998 27.832c0 11.325-9.568 20.506-21.369 20.506-11.802 0-21.37-9.18-21.37-20.506 0-11.325 9.568-20.506 21.37-20.506 11.801 0 21.369 9.18 21.369 20.506z"/><path stroke="#11475E" stroke-width="2" d="M47.986 27.832c0 10.259-8.667 18.576-19.357 18.576-10.691 0-19.357-8.316-19.357-18.576 0-10.259 8.667-18.576 19.357-18.576 10.691 0 19.357 8.316 19.357 18.576z"/><path fill="#11475E" d="M20.955 19.613l7.021 13.939c.202.448.689.58 1.012.485.357-.105.503-.322.692-.689l16.925-32.472c.207-.417.677-.652 1.152-.576.671.108 1.072.778.831 1.388l-14.073 33.644c-1.631 4.5-7.448 5.317-10.61.24l-7.43-14.492c-.654-1.297.47-2.219 1.496-2.639 1.01-.413 2.333-.15 2.984 1.173"/><g transform="translate(7) translate(20.828 .232)"><mask id="j"><use xlink:href="#i"/></mask><path fill="#7EA3BB" mask="url(#j)" d="M6.151 41.365l-2.3-.546-3.351-8.305 15.005-35.969 8.105 1.379z"/></g></g></svg>