<svg width="46" height="52" viewBox="0 0 46 52" xmlns="http://www.w3.org/2000/svg" xmlns:xlink="http://www.w3.org/1999/xlink"><title>Page 1</title><desc>Created with Sketch.</desc><defs><path d="M.512 35.776c.219.132.477.158.676.098.365-.112.514-.341.707-.732l17.318-34.46c.186-.387.577-.625.997-.625l.182.015c.687.114 1.097.825.85 1.472l-14.4 35.703c-1.029 2.944-3.686 4.403-6.331 3.826v-5.298z" id="a"/></defs><g fill="none"><g><path d="M44.998 29.536c0 12.019-9.79 21.761-21.866 21.761-12.077 0-21.867-9.742-21.867-21.761 0-12.019 9.79-21.761 21.867-21.761 12.076 0 21.866 9.742 21.866 21.761z" stroke="#11475E" stroke-width=".774"/><path d="M42.94 29.536c0 10.887-8.868 19.713-19.808 19.713-10.939 0-19.808-8.826-19.808-19.713s8.868-19.713 19.808-19.713 19.808 8.826 19.808 19.713z" stroke="#11475E" stroke-width="2"/><path d="M15.279 20.814l7.184 14.792c.206.476.705.616 1.035.515.365-.112.515-.341.708-.731l17.318-34.46c.212-.443.693-.692 1.179-.611.687.114 1.097.825.85 1.473l-14.4 35.703c-1.669 4.775-7.622 5.643-10.856.255l-7.603-15.38c-.669-1.377.481-2.355 1.53-2.8 1.034-.439 2.388-.159 3.054 1.245" fill="#11475E"/></g><g transform="translate(1) translate(21.313 .246)"><mask id="b"><use xlink:href="#a"/></mask><path fill="#7EA3BB" mask="url(#b)" d="M6.294 43.898l-2.354-.58-3.429-8.813 15.354-38.171 8.294 1.464z"/></g></g></svg>