<svg xmlns="http://www.w3.org/2000/svg" xmlns:xlink="http://www.w3.org/1999/xlink" width="66" height="76" viewBox="0 0 66 76"><defs><path id="a" d="M.744 52.289c.319.193.694.231.983.143.531-.163.748-.499 1.029-1.07l25.19-50.364c.27-.565.839-.914 1.45-.914l.265.022c.999.166 1.596 1.206 1.237 2.152l-20.945 52.182c-1.497 4.303-5.362 6.435-9.209 5.592v-7.743z"/></defs><g fill="none"><path stroke="#11475E" stroke-width=".774" d="M64.998 43.168c0 17.566-14.24 31.805-31.805 31.805-17.566 0-31.806-14.239-31.806-31.805s14.24-31.805 31.806-31.805c17.565 0 31.805 14.239 31.805 31.805z"/><path stroke="#11475E" stroke-width="2" d="M62.003 43.168c0 15.912-12.899 28.811-28.811 28.811s-28.811-12.899-28.811-28.811 12.899-28.811 28.811-28.811 28.811 12.899 28.811 28.811z"/><path fill="#11475E" d="M21.77 30.421l10.45 21.619c.3.695 1.025.9 1.506.752.531-.163.749-.499 1.03-1.069l25.19-50.364c.308-.647 1.008-1.011 1.715-.893.999.167 1.596 1.206 1.237 2.153l-20.946 52.182c-2.427 6.979-11.086 8.247-15.791.372l-11.059-22.478c-.973-2.012.7-3.442 2.226-4.093 1.504-.641 3.473-.232 4.442 1.819"/><g transform="translate(1) translate(31 .36)"><mask id="b"><use xlink:href="#a"/></mask><path fill="#7EA3BB" mask="url(#b)" d="M9.155 64.159l-3.424-.848-4.987-12.881 22.333-55.789 12.064 2.139z"/></g></g></svg>