<svg xmlns="http://www.w3.org/2000/svg" xmlns:xlink="http://www.w3.org/1999/xlink" width="33" height="41" viewBox="0 0 33 41"><defs><path id="a" d="M.5 35.088c.214.13.467.155.66.096.357-.109.503-.335.691-.718l16.925-33.797c.181-.379.564-.613.974-.613l.178.015c.671.111 1.072.809.831 1.444l-14.072 35.017c-1.006 2.888-3.602 4.318-6.187 3.753v-5.196z"/></defs><g fill="none"><path fill="#085661" d="M4.62 19.941l6.939 14.381c.199.462.681.599 1 .5.353-.108.497-.332.684-.711l16.727-33.503c.205-.43.669-.673 1.139-.594.663.111 1.06.802.821 1.432l-13.909 34.713c-1.612 4.643-7.362 5.486-10.486.247l-7.344-14.953c-.646-1.338.465-2.29 1.478-2.723.999-.426 2.306-.154 2.95 1.21"/><g transform="translate(12)"><mask id="b"><use xlink:href="#a"/></mask><path fill="#33AABA" mask="url(#b)" d="M6.151 43.054l-2.3-.569-3.351-8.644 15.005-37.437 8.105 1.435z"/></g></g></svg>